%TF.GenerationSoftware,KiCad,Pcbnew,9.0.3*%
%TF.CreationDate,2025-10-17T11:05:45+02:00*%
%TF.ProjectId,PCB_Driver_Stepper,5043425f-4472-4697-9665-725f53746570,rev?*%
%TF.SameCoordinates,Original*%
%TF.FileFunction,Copper,L1,Top*%
%TF.FilePolarity,Positive*%
%FSLAX46Y46*%
G04 Gerber Fmt 4.6, Leading zero omitted, Abs format (unit mm)*
G04 Created by KiCad (PCBNEW 9.0.3) date 2025-10-17 11:05:45*
%MOMM*%
%LPD*%
G01*
G04 APERTURE LIST*
G04 Aperture macros list*
%AMRoundRect*
0 Rectangle with rounded corners*
0 $1 Rounding radius*
0 $2 $3 $4 $5 $6 $7 $8 $9 X,Y pos of 4 corners*
0 Add a 4 corners polygon primitive as box body*
4,1,4,$2,$3,$4,$5,$6,$7,$8,$9,$2,$3,0*
0 Add four circle primitives for the rounded corners*
1,1,$1+$1,$2,$3*
1,1,$1+$1,$4,$5*
1,1,$1+$1,$6,$7*
1,1,$1+$1,$8,$9*
0 Add four rect primitives between the rounded corners*
20,1,$1+$1,$2,$3,$4,$5,0*
20,1,$1+$1,$4,$5,$6,$7,0*
20,1,$1+$1,$6,$7,$8,$9,0*
20,1,$1+$1,$8,$9,$2,$3,0*%
G04 Aperture macros list end*
%ADD10C,0.250000*%
%TA.AperFunction,NonConductor*%
%ADD11C,0.250000*%
%TD*%
%TA.AperFunction,SMDPad,CuDef*%
%ADD12RoundRect,0.250000X-0.250000X-0.475000X0.250000X-0.475000X0.250000X0.475000X-0.250000X0.475000X0*%
%TD*%
%TA.AperFunction,SMDPad,CuDef*%
%ADD13RoundRect,0.225000X-0.225000X-0.250000X0.225000X-0.250000X0.225000X0.250000X-0.225000X0.250000X0*%
%TD*%
%TA.AperFunction,SMDPad,CuDef*%
%ADD14RoundRect,0.250001X0.799999X-2.049999X0.799999X2.049999X-0.799999X2.049999X-0.799999X-2.049999X0*%
%TD*%
%TA.AperFunction,ComponentPad*%
%ADD15R,1.000000X1.000000*%
%TD*%
%TA.AperFunction,ComponentPad*%
%ADD16C,1.000000*%
%TD*%
%TA.AperFunction,SMDPad,CuDef*%
%ADD17R,0.304800X1.219200*%
%TD*%
%TA.AperFunction,SMDPad,CuDef*%
%ADD18R,5.511800X2.895600*%
%TD*%
%TA.AperFunction,SMDPad,CuDef*%
%ADD19C,1.000000*%
%TD*%
%TA.AperFunction,SMDPad,CuDef*%
%ADD20RoundRect,0.225000X0.225000X0.250000X-0.225000X0.250000X-0.225000X-0.250000X0.225000X-0.250000X0*%
%TD*%
%TA.AperFunction,SMDPad,CuDef*%
%ADD21RoundRect,0.225000X0.250000X-0.225000X0.250000X0.225000X-0.250000X0.225000X-0.250000X-0.225000X0*%
%TD*%
%TA.AperFunction,SMDPad,CuDef*%
%ADD22RoundRect,0.250000X0.650000X-1.000000X0.650000X1.000000X-0.650000X1.000000X-0.650000X-1.000000X0*%
%TD*%
%TA.AperFunction,SMDPad,CuDef*%
%ADD23R,1.200000X1.200000*%
%TD*%
%TA.AperFunction,SMDPad,CuDef*%
%ADD24R,1.500000X1.600000*%
%TD*%
%TA.AperFunction,ComponentPad*%
%ADD25RoundRect,0.250000X-0.550000X0.550000X-0.550000X-0.550000X0.550000X-0.550000X0.550000X0.550000X0*%
%TD*%
%TA.AperFunction,ComponentPad*%
%ADD26C,1.600000*%
%TD*%
%TA.AperFunction,SMDPad,CuDef*%
%ADD27RoundRect,0.200000X0.275000X-0.200000X0.275000X0.200000X-0.275000X0.200000X-0.275000X-0.200000X0*%
%TD*%
%TA.AperFunction,SMDPad,CuDef*%
%ADD28RoundRect,0.250001X-0.799999X2.049999X-0.799999X-2.049999X0.799999X-2.049999X0.799999X2.049999X0*%
%TD*%
%TA.AperFunction,ComponentPad*%
%ADD29RoundRect,0.250001X0.799999X-0.799999X0.799999X0.799999X-0.799999X0.799999X-0.799999X-0.799999X0*%
%TD*%
%TA.AperFunction,ComponentPad*%
%ADD30C,2.100000*%
%TD*%
%TA.AperFunction,SMDPad,CuDef*%
%ADD31RoundRect,0.200000X-0.275000X0.200000X-0.275000X-0.200000X0.275000X-0.200000X0.275000X0.200000X0*%
%TD*%
%TA.AperFunction,ComponentPad*%
%ADD32RoundRect,0.250001X-0.799999X-0.799999X0.799999X-0.799999X0.799999X0.799999X-0.799999X0.799999X0*%
%TD*%
%TA.AperFunction,SMDPad,CuDef*%
%ADD33RoundRect,0.125000X-0.125000X0.625000X-0.125000X-0.625000X0.125000X-0.625000X0.125000X0.625000X0*%
%TD*%
%TA.AperFunction,SMDPad,CuDef*%
%ADD34RoundRect,0.125000X-0.625000X0.125000X-0.625000X-0.125000X0.625000X-0.125000X0.625000X0.125000X0*%
%TD*%
%TA.AperFunction,ComponentPad*%
%ADD35R,1.905000X2.000000*%
%TD*%
%TA.AperFunction,ComponentPad*%
%ADD36O,1.905000X2.000000*%
%TD*%
%TA.AperFunction,SMDPad,CuDef*%
%ADD37RoundRect,0.200000X0.200000X0.275000X-0.200000X0.275000X-0.200000X-0.275000X0.200000X-0.275000X0*%
%TD*%
%TA.AperFunction,SMDPad,CuDef*%
%ADD38RoundRect,0.200000X-0.200000X-0.275000X0.200000X-0.275000X0.200000X0.275000X-0.200000X0.275000X0*%
%TD*%
%TA.AperFunction,ComponentPad*%
%ADD39RoundRect,0.250001X-0.799999X0.799999X-0.799999X-0.799999X0.799999X-0.799999X0.799999X0.799999X0*%
%TD*%
%TA.AperFunction,ComponentPad*%
%ADD40RoundRect,0.250001X0.799999X0.799999X-0.799999X0.799999X-0.799999X-0.799999X0.799999X-0.799999X0*%
%TD*%
%TA.AperFunction,ViaPad*%
%ADD41C,0.600000*%
%TD*%
%TA.AperFunction,ViaPad*%
%ADD42C,0.700000*%
%TD*%
%TA.AperFunction,Conductor*%
%ADD43C,0.500000*%
%TD*%
%TA.AperFunction,Conductor*%
%ADD44C,0.300000*%
%TD*%
%TA.AperFunction,Conductor*%
%ADD45C,1.000000*%
%TD*%
%TA.AperFunction,Conductor*%
%ADD46C,1.500000*%
%TD*%
%TA.AperFunction,Conductor*%
%ADD47C,2.000000*%
%TD*%
G04 APERTURE END LIST*
D10*
D11*
X134615952Y-102694294D02*
X134615952Y-100694294D01*
X134615952Y-100694294D02*
X135092142Y-100694294D01*
X135092142Y-100694294D02*
X135377857Y-100789532D01*
X135377857Y-100789532D02*
X135568333Y-100980008D01*
X135568333Y-100980008D02*
X135663571Y-101170484D01*
X135663571Y-101170484D02*
X135758809Y-101551436D01*
X135758809Y-101551436D02*
X135758809Y-101837151D01*
X135758809Y-101837151D02*
X135663571Y-102218103D01*
X135663571Y-102218103D02*
X135568333Y-102408579D01*
X135568333Y-102408579D02*
X135377857Y-102599056D01*
X135377857Y-102599056D02*
X135092142Y-102694294D01*
X135092142Y-102694294D02*
X134615952Y-102694294D01*
X136615952Y-102694294D02*
X136615952Y-101360960D01*
X136615952Y-101741913D02*
X136711190Y-101551436D01*
X136711190Y-101551436D02*
X136806428Y-101456198D01*
X136806428Y-101456198D02*
X136996904Y-101360960D01*
X136996904Y-101360960D02*
X137187381Y-101360960D01*
X137854047Y-102694294D02*
X137854047Y-101360960D01*
X137854047Y-100694294D02*
X137758809Y-100789532D01*
X137758809Y-100789532D02*
X137854047Y-100884770D01*
X137854047Y-100884770D02*
X137949285Y-100789532D01*
X137949285Y-100789532D02*
X137854047Y-100694294D01*
X137854047Y-100694294D02*
X137854047Y-100884770D01*
X138615952Y-101360960D02*
X139092142Y-102694294D01*
X139092142Y-102694294D02*
X139568333Y-101360960D01*
X141092143Y-102599056D02*
X140901667Y-102694294D01*
X140901667Y-102694294D02*
X140520714Y-102694294D01*
X140520714Y-102694294D02*
X140330238Y-102599056D01*
X140330238Y-102599056D02*
X140235000Y-102408579D01*
X140235000Y-102408579D02*
X140235000Y-101646675D01*
X140235000Y-101646675D02*
X140330238Y-101456198D01*
X140330238Y-101456198D02*
X140520714Y-101360960D01*
X140520714Y-101360960D02*
X140901667Y-101360960D01*
X140901667Y-101360960D02*
X141092143Y-101456198D01*
X141092143Y-101456198D02*
X141187381Y-101646675D01*
X141187381Y-101646675D02*
X141187381Y-101837151D01*
X141187381Y-101837151D02*
X140235000Y-102027627D01*
X142044524Y-102694294D02*
X142044524Y-101360960D01*
X142044524Y-101741913D02*
X142139762Y-101551436D01*
X142139762Y-101551436D02*
X142235000Y-101456198D01*
X142235000Y-101456198D02*
X142425476Y-101360960D01*
X142425476Y-101360960D02*
X142615953Y-101360960D01*
X144806429Y-102694294D02*
X144806429Y-100694294D01*
X144806429Y-100694294D02*
X145568334Y-100694294D01*
X145568334Y-100694294D02*
X145758810Y-100789532D01*
X145758810Y-100789532D02*
X145854048Y-100884770D01*
X145854048Y-100884770D02*
X145949286Y-101075246D01*
X145949286Y-101075246D02*
X145949286Y-101360960D01*
X145949286Y-101360960D02*
X145854048Y-101551436D01*
X145854048Y-101551436D02*
X145758810Y-101646675D01*
X145758810Y-101646675D02*
X145568334Y-101741913D01*
X145568334Y-101741913D02*
X144806429Y-101741913D01*
X146806429Y-102694294D02*
X146806429Y-101360960D01*
X146806429Y-101741913D02*
X146901667Y-101551436D01*
X146901667Y-101551436D02*
X146996905Y-101456198D01*
X146996905Y-101456198D02*
X147187381Y-101360960D01*
X147187381Y-101360960D02*
X147377858Y-101360960D01*
X148330238Y-102694294D02*
X148139762Y-102599056D01*
X148139762Y-102599056D02*
X148044524Y-102503817D01*
X148044524Y-102503817D02*
X147949286Y-102313341D01*
X147949286Y-102313341D02*
X147949286Y-101741913D01*
X147949286Y-101741913D02*
X148044524Y-101551436D01*
X148044524Y-101551436D02*
X148139762Y-101456198D01*
X148139762Y-101456198D02*
X148330238Y-101360960D01*
X148330238Y-101360960D02*
X148615953Y-101360960D01*
X148615953Y-101360960D02*
X148806429Y-101456198D01*
X148806429Y-101456198D02*
X148901667Y-101551436D01*
X148901667Y-101551436D02*
X148996905Y-101741913D01*
X148996905Y-101741913D02*
X148996905Y-102313341D01*
X148996905Y-102313341D02*
X148901667Y-102503817D01*
X148901667Y-102503817D02*
X148806429Y-102599056D01*
X148806429Y-102599056D02*
X148615953Y-102694294D01*
X148615953Y-102694294D02*
X148330238Y-102694294D01*
X149568334Y-101360960D02*
X150330238Y-101360960D01*
X149854048Y-100694294D02*
X149854048Y-102408579D01*
X149854048Y-102408579D02*
X149949286Y-102599056D01*
X149949286Y-102599056D02*
X150139762Y-102694294D01*
X150139762Y-102694294D02*
X150330238Y-102694294D01*
X151282619Y-102694294D02*
X151092143Y-102599056D01*
X151092143Y-102599056D02*
X150996905Y-102503817D01*
X150996905Y-102503817D02*
X150901667Y-102313341D01*
X150901667Y-102313341D02*
X150901667Y-101741913D01*
X150901667Y-101741913D02*
X150996905Y-101551436D01*
X150996905Y-101551436D02*
X151092143Y-101456198D01*
X151092143Y-101456198D02*
X151282619Y-101360960D01*
X151282619Y-101360960D02*
X151568334Y-101360960D01*
X151568334Y-101360960D02*
X151758810Y-101456198D01*
X151758810Y-101456198D02*
X151854048Y-101551436D01*
X151854048Y-101551436D02*
X151949286Y-101741913D01*
X151949286Y-101741913D02*
X151949286Y-102313341D01*
X151949286Y-102313341D02*
X151854048Y-102503817D01*
X151854048Y-102503817D02*
X151758810Y-102599056D01*
X151758810Y-102599056D02*
X151568334Y-102694294D01*
X151568334Y-102694294D02*
X151282619Y-102694294D01*
X138949285Y-105914182D02*
X138282618Y-104961801D01*
X137806428Y-105914182D02*
X137806428Y-103914182D01*
X137806428Y-103914182D02*
X138568333Y-103914182D01*
X138568333Y-103914182D02*
X138758809Y-104009420D01*
X138758809Y-104009420D02*
X138854047Y-104104658D01*
X138854047Y-104104658D02*
X138949285Y-104295134D01*
X138949285Y-104295134D02*
X138949285Y-104580848D01*
X138949285Y-104580848D02*
X138854047Y-104771324D01*
X138854047Y-104771324D02*
X138758809Y-104866563D01*
X138758809Y-104866563D02*
X138568333Y-104961801D01*
X138568333Y-104961801D02*
X137806428Y-104961801D01*
X139806428Y-105723705D02*
X139901666Y-105818944D01*
X139901666Y-105818944D02*
X139806428Y-105914182D01*
X139806428Y-105914182D02*
X139711190Y-105818944D01*
X139711190Y-105818944D02*
X139806428Y-105723705D01*
X139806428Y-105723705D02*
X139806428Y-105914182D01*
X141901666Y-105723705D02*
X141806428Y-105818944D01*
X141806428Y-105818944D02*
X141520714Y-105914182D01*
X141520714Y-105914182D02*
X141330238Y-105914182D01*
X141330238Y-105914182D02*
X141044523Y-105818944D01*
X141044523Y-105818944D02*
X140854047Y-105628467D01*
X140854047Y-105628467D02*
X140758809Y-105437991D01*
X140758809Y-105437991D02*
X140663571Y-105057039D01*
X140663571Y-105057039D02*
X140663571Y-104771324D01*
X140663571Y-104771324D02*
X140758809Y-104390372D01*
X140758809Y-104390372D02*
X140854047Y-104199896D01*
X140854047Y-104199896D02*
X141044523Y-104009420D01*
X141044523Y-104009420D02*
X141330238Y-103914182D01*
X141330238Y-103914182D02*
X141520714Y-103914182D01*
X141520714Y-103914182D02*
X141806428Y-104009420D01*
X141806428Y-104009420D02*
X141901666Y-104104658D01*
X143615952Y-105914182D02*
X143615952Y-104866563D01*
X143615952Y-104866563D02*
X143520714Y-104676086D01*
X143520714Y-104676086D02*
X143330238Y-104580848D01*
X143330238Y-104580848D02*
X142949285Y-104580848D01*
X142949285Y-104580848D02*
X142758809Y-104676086D01*
X143615952Y-105818944D02*
X143425476Y-105914182D01*
X143425476Y-105914182D02*
X142949285Y-105914182D01*
X142949285Y-105914182D02*
X142758809Y-105818944D01*
X142758809Y-105818944D02*
X142663571Y-105628467D01*
X142663571Y-105628467D02*
X142663571Y-105437991D01*
X142663571Y-105437991D02*
X142758809Y-105247515D01*
X142758809Y-105247515D02*
X142949285Y-105152277D01*
X142949285Y-105152277D02*
X143425476Y-105152277D01*
X143425476Y-105152277D02*
X143615952Y-105057039D01*
X144473095Y-105818944D02*
X144663571Y-105914182D01*
X144663571Y-105914182D02*
X145044523Y-105914182D01*
X145044523Y-105914182D02*
X145235000Y-105818944D01*
X145235000Y-105818944D02*
X145330238Y-105628467D01*
X145330238Y-105628467D02*
X145330238Y-105533229D01*
X145330238Y-105533229D02*
X145235000Y-105342753D01*
X145235000Y-105342753D02*
X145044523Y-105247515D01*
X145044523Y-105247515D02*
X144758809Y-105247515D01*
X144758809Y-105247515D02*
X144568333Y-105152277D01*
X144568333Y-105152277D02*
X144473095Y-104961801D01*
X144473095Y-104961801D02*
X144473095Y-104866563D01*
X144473095Y-104866563D02*
X144568333Y-104676086D01*
X144568333Y-104676086D02*
X144758809Y-104580848D01*
X144758809Y-104580848D02*
X145044523Y-104580848D01*
X145044523Y-104580848D02*
X145235000Y-104676086D01*
X147044524Y-105914182D02*
X147044524Y-104866563D01*
X147044524Y-104866563D02*
X146949286Y-104676086D01*
X146949286Y-104676086D02*
X146758810Y-104580848D01*
X146758810Y-104580848D02*
X146377857Y-104580848D01*
X146377857Y-104580848D02*
X146187381Y-104676086D01*
X147044524Y-105818944D02*
X146854048Y-105914182D01*
X146854048Y-105914182D02*
X146377857Y-105914182D01*
X146377857Y-105914182D02*
X146187381Y-105818944D01*
X146187381Y-105818944D02*
X146092143Y-105628467D01*
X146092143Y-105628467D02*
X146092143Y-105437991D01*
X146092143Y-105437991D02*
X146187381Y-105247515D01*
X146187381Y-105247515D02*
X146377857Y-105152277D01*
X146377857Y-105152277D02*
X146854048Y-105152277D01*
X146854048Y-105152277D02*
X147044524Y-105057039D01*
X147901667Y-105818944D02*
X148092143Y-105914182D01*
X148092143Y-105914182D02*
X148473095Y-105914182D01*
X148473095Y-105914182D02*
X148663572Y-105818944D01*
X148663572Y-105818944D02*
X148758810Y-105628467D01*
X148758810Y-105628467D02*
X148758810Y-105533229D01*
X148758810Y-105533229D02*
X148663572Y-105342753D01*
X148663572Y-105342753D02*
X148473095Y-105247515D01*
X148473095Y-105247515D02*
X148187381Y-105247515D01*
X148187381Y-105247515D02*
X147996905Y-105152277D01*
X147996905Y-105152277D02*
X147901667Y-104961801D01*
X147901667Y-104961801D02*
X147901667Y-104866563D01*
X147901667Y-104866563D02*
X147996905Y-104676086D01*
X147996905Y-104676086D02*
X148187381Y-104580848D01*
X148187381Y-104580848D02*
X148473095Y-104580848D01*
X148473095Y-104580848D02*
X148663572Y-104676086D01*
D12*
%TO.P,C201,1*%
%TO.N,VCC_12V*%
X113771000Y-80913000D03*
%TO.P,C201,2*%
%TO.N,GNDREF*%
X115671000Y-80913000D03*
%TD*%
D13*
%TO.P,C403,1*%
%TO.N,/DRIVERS/M1_VREF*%
X107849000Y-84596000D03*
%TO.P,C403,2*%
%TO.N,GNDREF*%
X109399000Y-84596000D03*
%TD*%
D14*
%TO.P,C411,1*%
%TO.N,VCC_12V*%
X174477000Y-77825000D03*
%TO.P,C411,2*%
%TO.N,GNDREF*%
X174477000Y-69025000D03*
%TD*%
D15*
%TO.P,J107,1,Pin_1*%
%TO.N,GNDREF*%
X100055000Y-86120000D03*
D16*
%TO.P,J107,2,Pin_2*%
X101325000Y-86120000D03*
%TO.P,J107,3,Pin_3*%
X102595000Y-86120000D03*
%TD*%
D17*
%TO.P,U401,1,GND*%
%TO.N,GNDREF*%
X96397400Y-89071400D03*
%TO.P,U401,2,OUT1B*%
%TO.N,/DRIVERS/M1_OUT1B*%
X97057800Y-89071400D03*
%TO.P,U401,3,RNF1*%
%TO.N,Net-(U401-RNF1)*%
X97718200Y-89071400D03*
%TO.P,U401,4,RNF1S*%
X98378600Y-89071400D03*
%TO.P,U401,5,OUT1A*%
%TO.N,/DRIVERS/M1_OUT1A*%
X99039000Y-89071400D03*
%TO.P,U401,6,NC*%
%TO.N,unconnected-(U401-NC-Pad6)*%
X99699400Y-89071400D03*
%TO.P,U401,7,VCC1*%
%TO.N,VCC_12V*%
X100359800Y-89071400D03*
%TO.P,U401,8,NC*%
%TO.N,unconnected-(U401-NC-Pad8)*%
X101020200Y-89071400D03*
%TO.P,U401,9,GND*%
%TO.N,GNDREF*%
X101680600Y-89071400D03*
%TO.P,U401,10,CR*%
%TO.N,/DRIVERS/M1_CR*%
X102341000Y-89071400D03*
%TO.P,U401,11,TEST0*%
%TO.N,GNDREF*%
X103001400Y-89071400D03*
%TO.P,U401,12,MTH*%
%TO.N,/DRIVERS/M1_MTH*%
X103661800Y-89071400D03*
%TO.P,U401,13,VREF*%
%TO.N,/DRIVERS/M1_VREF*%
X104322200Y-89071400D03*
%TO.P,U401,14,PS*%
%TO.N,/M1_PS*%
X104982600Y-89071400D03*
%TO.P,U401,15,CLK*%
%TO.N,/M1_CLK*%
X104982600Y-83178600D03*
%TO.P,U401,16,CW_CCW*%
%TO.N,/M1_CK*%
X104322200Y-83178600D03*
%TO.P,U401,17,TEST1*%
%TO.N,GNDREF*%
X103661800Y-83178600D03*
%TO.P,U401,18,MODE0*%
%TO.N,/M1_MODE0*%
X103001400Y-83178600D03*
%TO.P,U401,19,MODE1*%
%TO.N,/M1_MODE1*%
X102341000Y-83178600D03*
%TO.P,U401,20,ENABLE*%
%TO.N,/M1_EN*%
X101680600Y-83178600D03*
%TO.P,U401,21,NC*%
%TO.N,unconnected-(U401-NC-Pad21)*%
X101020200Y-83178600D03*
%TO.P,U401,22,VCC2*%
%TO.N,VCC_12V*%
X100359800Y-83178600D03*
%TO.P,U401,23,NC*%
%TO.N,unconnected-(U401-NC-Pad23)*%
X99699400Y-83178600D03*
%TO.P,U401,24,OUT2A*%
%TO.N,/DRIVERS/M1_OUT2A*%
X99039000Y-83178600D03*
%TO.P,U401,25,RNF2S*%
%TO.N,Net-(U401-RNF2)*%
X98378600Y-83178600D03*
%TO.P,U401,26,RNF2*%
X97718200Y-83178600D03*
%TO.P,U401,27,OUT2B*%
%TO.N,/DRIVERS/M1_OUT2B*%
X97057800Y-83178600D03*
%TO.P,U401,28,NC*%
%TO.N,unconnected-(U401-NC-Pad28)*%
X96397400Y-83178600D03*
D18*
%TO.P,U401,EPAD,EPAD*%
%TO.N,GNDREF*%
X100690000Y-86125000D03*
%TD*%
D19*
%TO.P,FID104,*%
%TO.N,*%
X184891000Y-106440000D03*
%TD*%
D20*
%TO.P,C404,1*%
%TO.N,/DRIVERS/M2_CR*%
X172585000Y-83728000D03*
%TO.P,C404,2*%
%TO.N,GNDREF*%
X171035000Y-83728000D03*
%TD*%
D21*
%TO.P,C302,1*%
%TO.N,VCC_3V3*%
X123423000Y-95036000D03*
%TO.P,C302,2*%
%TO.N,GNDREF*%
X123423000Y-93486000D03*
%TD*%
D22*
%TO.P,D201,1,K*%
%TO.N,VCC_12V*%
X108945000Y-75420000D03*
%TO.P,D201,2,A*%
%TO.N,VDD*%
X108945000Y-71420000D03*
%TD*%
D23*
%TO.P,RV403,1,1*%
%TO.N,VCC_3V3*%
X163480000Y-82585000D03*
D24*
%TO.P,RV403,2,2*%
%TO.N,/DRIVERS/M2_MTH*%
X166730000Y-83585000D03*
D23*
%TO.P,RV403,3,3*%
%TO.N,GNDREF*%
X163480000Y-84585000D03*
%TD*%
%TO.P,RV401,1,1*%
%TO.N,VCC_3V3*%
X111380000Y-92200000D03*
D24*
%TO.P,RV401,2,2*%
%TO.N,/DRIVERS/M1_MTH*%
X108130000Y-91200000D03*
D23*
%TO.P,RV401,3,3*%
%TO.N,GNDREF*%
X111380000Y-90200000D03*
%TD*%
D25*
%TO.P,U302,1,I1*%
%TO.N,/MCU/IN1*%
X157205000Y-77230000D03*
D26*
%TO.P,U302,2,I2*%
%TO.N,/MCU/IN2*%
X154665000Y-77230000D03*
%TO.P,U302,3,I3*%
%TO.N,/MCU/IN3*%
X152125000Y-77230000D03*
%TO.P,U302,4,I4*%
%TO.N,/MCU/IN4*%
X149585000Y-77230000D03*
%TO.P,U302,5,I5*%
%TO.N,/MCU/IN5*%
X147045000Y-77230000D03*
%TO.P,U302,6,I6*%
%TO.N,/MCU/IN6*%
X144505000Y-77230000D03*
%TO.P,U302,7,I7*%
%TO.N,/MCU/IN7*%
X141965000Y-77230000D03*
%TO.P,U302,8,GND*%
%TO.N,GNDREF*%
X139425000Y-77230000D03*
%TO.P,U302,9,COM*%
%TO.N,VCC_3V3*%
X139425000Y-84850000D03*
%TO.P,U302,10,O7*%
%TO.N,/MCU/INI7*%
X141965000Y-84850000D03*
%TO.P,U302,11,O6*%
%TO.N,/MCU/INI6*%
X144505000Y-84850000D03*
%TO.P,U302,12,O5*%
%TO.N,/MCU/INI5*%
X147045000Y-84850000D03*
%TO.P,U302,13,O4*%
%TO.N,/MCU/INI4*%
X149585000Y-84850000D03*
%TO.P,U302,14,O3*%
%TO.N,/MCU/INI3*%
X152125000Y-84850000D03*
%TO.P,U302,15,O2*%
%TO.N,/MCU/INI2*%
X154665000Y-84850000D03*
%TO.P,U302,16,O1*%
%TO.N,/MCU/INI1*%
X157205000Y-84850000D03*
%TD*%
D27*
%TO.P,R308,1*%
%TO.N,VCC_3V3*%
X147045000Y-88723000D03*
%TO.P,R308,2*%
%TO.N,/MCU/INI5*%
X147045000Y-87073000D03*
%TD*%
D13*
%TO.P,C412,1*%
%TO.N,VCC_12V*%
X174591000Y-81442000D03*
%TO.P,C412,2*%
%TO.N,GNDREF*%
X176141000Y-81442000D03*
%TD*%
D27*
%TO.P,R303,1*%
%TO.N,/MCU/BOOT0*%
X135869000Y-86945000D03*
%TO.P,R303,2*%
%TO.N,GNDREF*%
X135869000Y-85295000D03*
%TD*%
%TO.P,R310,1*%
%TO.N,VCC_3V3*%
X141965000Y-88723000D03*
%TO.P,R310,2*%
%TO.N,/MCU/INI7*%
X141965000Y-87073000D03*
%TD*%
D20*
%TO.P,C405,1*%
%TO.N,/DRIVERS/M2_MTH*%
X167071000Y-80791000D03*
%TO.P,C405,2*%
%TO.N,GNDREF*%
X165521000Y-80791000D03*
%TD*%
D28*
%TO.P,C407,1*%
%TO.N,VCC_12V*%
X100142600Y-96960000D03*
%TO.P,C407,2*%
%TO.N,GNDREF*%
X100142600Y-105760000D03*
%TD*%
D23*
%TO.P,RV404,1,1*%
%TO.N,VCC_3V3*%
X163480000Y-86395000D03*
D24*
%TO.P,RV404,2,2*%
%TO.N,/DRIVERS/M2_VREF*%
X166730000Y-87395000D03*
D23*
%TO.P,RV404,3,3*%
%TO.N,GNDREF*%
X163480000Y-88395000D03*
%TD*%
D19*
%TO.P,FID101,*%
%TO.N,*%
X89895000Y-106440000D03*
%TD*%
D21*
%TO.P,C301,1*%
%TO.N,/MCU/NRST*%
X128757000Y-81625000D03*
%TO.P,C301,2*%
%TO.N,GNDREF*%
X128757000Y-80075000D03*
%TD*%
D19*
%TO.P,FID103,*%
%TO.N,*%
X184891000Y-68340000D03*
%TD*%
D29*
%TO.P,J105,1,Pin_1*%
%TO.N,/DRIVERS/M1_OUT1A*%
X91120100Y-89940000D03*
D30*
%TO.P,J105,2,Pin_2*%
%TO.N,/DRIVERS/M1_OUT1B*%
X91120100Y-87400000D03*
%TO.P,J105,3,Pin_3*%
%TO.N,/DRIVERS/M1_OUT2B*%
X91120100Y-84860000D03*
%TO.P,J105,4,Pin_4*%
%TO.N,/DRIVERS/M1_OUT2A*%
X91120100Y-82320000D03*
%TD*%
D19*
%TO.P,FID102,*%
%TO.N,*%
X89895000Y-68340000D03*
%TD*%
D27*
%TO.P,R305,1*%
%TO.N,VCC_3V3*%
X154665000Y-88723000D03*
%TO.P,R305,2*%
%TO.N,/MCU/INI2*%
X154665000Y-87073000D03*
%TD*%
%TO.P,R309,1*%
%TO.N,VCC_3V3*%
X144505000Y-88723000D03*
%TO.P,R309,2*%
%TO.N,/MCU/INI6*%
X144505000Y-87073000D03*
%TD*%
D13*
%TO.P,C307,1*%
%TO.N,VCC_3V3*%
X130802000Y-80151000D03*
%TO.P,C307,2*%
%TO.N,GNDREF*%
X132352000Y-80151000D03*
%TD*%
D27*
%TO.P,R307,1*%
%TO.N,VCC_3V3*%
X149585000Y-88723000D03*
%TO.P,R307,2*%
%TO.N,/MCU/INI4*%
X149585000Y-87073000D03*
%TD*%
D31*
%TO.P,R302,1*%
%TO.N,VCC_3V3*%
X134345000Y-85295000D03*
%TO.P,R302,2*%
%TO.N,/MCU/BOOT0*%
X134345000Y-86945000D03*
%TD*%
D32*
%TO.P,J102,1,Pin_1*%
%TO.N,GNDREF*%
X133710000Y-69609000D03*
D30*
%TO.P,J102,2,Pin_2*%
X136250000Y-69609000D03*
%TO.P,J102,3,Pin_3*%
%TO.N,/MCU/IN7*%
X138790000Y-69609000D03*
%TO.P,J102,4,Pin_4*%
%TO.N,/MCU/IN6*%
X141330000Y-69609000D03*
%TO.P,J102,5,Pin_5*%
%TO.N,/MCU/IN5*%
X143870000Y-69609000D03*
%TO.P,J102,6,Pin_6*%
%TO.N,/MCU/IN4*%
X146410000Y-69609000D03*
%TO.P,J102,7,Pin_7*%
%TO.N,/MCU/IN3*%
X148950000Y-69609000D03*
%TO.P,J102,8,Pin_8*%
%TO.N,/MCU/IN2*%
X151490000Y-69609000D03*
%TO.P,J102,9,Pin_9*%
%TO.N,/MCU/IN1*%
X154030000Y-69609000D03*
%TO.P,J102,10,Pin_10*%
%TO.N,VCC_12V*%
X156570000Y-69609000D03*
%TD*%
D21*
%TO.P,C304,1*%
%TO.N,VCC_3V3*%
X120375000Y-95023000D03*
%TO.P,C304,2*%
%TO.N,GNDREF*%
X120375000Y-93473000D03*
%TD*%
D33*
%TO.P,U301,1,VDD*%
%TO.N,VCC_3V3*%
X130795000Y-85120000D03*
%TO.P,U301,2,PF0*%
%TO.N,unconnected-(U301-PF0-Pad2)*%
X129995000Y-85120000D03*
%TO.P,U301,3,PF1*%
%TO.N,unconnected-(U301-PF1-Pad3)*%
X129195000Y-85120000D03*
%TO.P,U301,4,NRST*%
%TO.N,/MCU/NRST*%
X128395000Y-85120000D03*
%TO.P,U301,5,VDDA*%
%TO.N,VCC_3V3*%
X127595000Y-85120000D03*
%TO.P,U301,6,PA0*%
%TO.N,/M1_CK*%
X126795000Y-85120000D03*
%TO.P,U301,7,PA1*%
%TO.N,/M1_PS*%
X125995000Y-85120000D03*
%TO.P,U301,8,USART1_TX*%
%TO.N,/MCU/USART1_TX*%
X125195000Y-85120000D03*
D34*
%TO.P,U301,9,USART1_RX*%
%TO.N,/MCU/USART1_RX*%
X123820000Y-86495000D03*
%TO.P,U301,10,PA4*%
%TO.N,/M1_CLK*%
X123820000Y-87295000D03*
%TO.P,U301,11,PA5*%
%TO.N,/M1_MODE0*%
X123820000Y-88095000D03*
%TO.P,U301,12,PA6*%
%TO.N,/M1_MODE1*%
X123820000Y-88895000D03*
%TO.P,U301,13,PA7*%
%TO.N,/M1_EN*%
X123820000Y-89695000D03*
%TO.P,U301,14,PB0*%
%TO.N,/MCU/INI1*%
X123820000Y-90495000D03*
%TO.P,U301,15,PB1*%
%TO.N,/MCU/INI2*%
X123820000Y-91295000D03*
%TO.P,U301,16,VSS*%
%TO.N,GNDREF*%
X123820000Y-92095000D03*
D33*
%TO.P,U301,17,VDD*%
%TO.N,VCC_3V3*%
X125195000Y-93470000D03*
%TO.P,U301,18,PA8*%
%TO.N,/M2_EN*%
X125995000Y-93470000D03*
%TO.P,U301,19,PA9*%
%TO.N,/M2_MODE1*%
X126795000Y-93470000D03*
%TO.P,U301,20,PA10*%
%TO.N,/M2_MODE0*%
X127595000Y-93470000D03*
%TO.P,U301,21,PA11*%
%TO.N,/M2_CK*%
X128395000Y-93470000D03*
%TO.P,U301,22,PA12*%
%TO.N,/M2_CLK*%
X129195000Y-93470000D03*
%TO.P,U301,23,SYS_SWDIO*%
%TO.N,/MCU/SYS_SWDIO*%
X129995000Y-93470000D03*
%TO.P,U301,24,SYS_SWCLK*%
%TO.N,/MCU/SYS_SWCLK*%
X130795000Y-93470000D03*
D34*
%TO.P,U301,25,PA15*%
%TO.N,/M2_PS*%
X132170000Y-92095000D03*
%TO.P,U301,26,PB3*%
%TO.N,/MCU/INI3*%
X132170000Y-91295000D03*
%TO.P,U301,27,PB4*%
%TO.N,/MCU/INI4*%
X132170000Y-90495000D03*
%TO.P,U301,28,PB5*%
%TO.N,/MCU/INI5*%
X132170000Y-89695000D03*
%TO.P,U301,29,PB6*%
%TO.N,/MCU/INI6*%
X132170000Y-88895000D03*
%TO.P,U301,30,PB7*%
%TO.N,/MCU/INI7*%
X132170000Y-88095000D03*
%TO.P,U301,31,BOOT0*%
%TO.N,/MCU/BOOT0*%
X132170000Y-87295000D03*
%TO.P,U301,32,VSS*%
%TO.N,GNDREF*%
X132170000Y-86495000D03*
%TD*%
D27*
%TO.P,R304,1*%
%TO.N,VCC_3V3*%
X157205000Y-88723000D03*
%TO.P,R304,2*%
%TO.N,/MCU/INI1*%
X157205000Y-87073000D03*
%TD*%
D32*
%TO.P,J103,1,Pin_1*%
%TO.N,/MCU/USART1_RX*%
X122915000Y-69610000D03*
D30*
%TO.P,J103,2,Pin_2*%
%TO.N,/MCU/USART1_TX*%
X125455000Y-69610000D03*
%TD*%
D21*
%TO.P,C309,1*%
%TO.N,VCC_3V3*%
X124185000Y-81625000D03*
%TO.P,C309,2*%
%TO.N,GNDREF*%
X124185000Y-80075000D03*
%TD*%
D20*
%TO.P,C408,1*%
%TO.N,VCC_12V*%
X100155600Y-93105000D03*
%TO.P,C408,2*%
%TO.N,GNDREF*%
X98605600Y-93105000D03*
%TD*%
D27*
%TO.P,R306,1*%
%TO.N,VCC_3V3*%
X152125000Y-88723000D03*
%TO.P,R306,2*%
%TO.N,/MCU/INI3*%
X152125000Y-87073000D03*
%TD*%
D20*
%TO.P,C414,1*%
%TO.N,VCC_12V*%
X171950000Y-95015000D03*
%TO.P,C414,2*%
%TO.N,GNDREF*%
X170400000Y-95015000D03*
%TD*%
D14*
%TO.P,C409,1*%
%TO.N,VCC_12V*%
X100142600Y-77820000D03*
%TO.P,C409,2*%
%TO.N,GNDREF*%
X100142600Y-69020000D03*
%TD*%
D13*
%TO.P,C402,1*%
%TO.N,/DRIVERS/M1_MTH*%
X107849000Y-93994000D03*
%TO.P,C402,2*%
%TO.N,GNDREF*%
X109399000Y-93994000D03*
%TD*%
%TO.P,C306,1*%
%TO.N,VCC_3V3*%
X130802000Y-81675000D03*
%TO.P,C306,2*%
%TO.N,GNDREF*%
X132352000Y-81675000D03*
%TD*%
D23*
%TO.P,RV402,1,1*%
%TO.N,VCC_3V3*%
X111380000Y-88390000D03*
D24*
%TO.P,RV402,2,2*%
%TO.N,/DRIVERS/M1_VREF*%
X108130000Y-87390000D03*
D23*
%TO.P,RV402,3,3*%
%TO.N,GNDREF*%
X111380000Y-86390000D03*
%TD*%
D20*
%TO.P,C202,1*%
%TO.N,VCC_3V3*%
X118864000Y-80913000D03*
%TO.P,C202,2*%
%TO.N,GNDREF*%
X117314000Y-80913000D03*
%TD*%
D13*
%TO.P,C410,1*%
%TO.N,VCC_12V*%
X102455000Y-79770000D03*
%TO.P,C410,2*%
%TO.N,GNDREF*%
X104005000Y-79770000D03*
%TD*%
D35*
%TO.P,U201,1,VI*%
%TO.N,VCC_12V*%
X113771000Y-78180000D03*
D36*
%TO.P,U201,2,GND*%
%TO.N,GNDREF*%
X116311000Y-78180000D03*
%TO.P,U201,3,VO*%
%TO.N,VCC_3V3*%
X118851000Y-78180000D03*
%TD*%
D21*
%TO.P,C303,1*%
%TO.N,VCC_3V3*%
X121899000Y-95023000D03*
%TO.P,C303,2*%
%TO.N,GNDREF*%
X121899000Y-93473000D03*
%TD*%
D28*
%TO.P,C413,1*%
%TO.N,VCC_12V*%
X174350000Y-96965000D03*
%TO.P,C413,2*%
%TO.N,GNDREF*%
X174350000Y-105765000D03*
%TD*%
D32*
%TO.P,J101,1,Pin_1*%
%TO.N,VDD*%
X113772000Y-69610000D03*
D30*
%TO.P,J101,2,Pin_2*%
%TO.N,GNDREF*%
X116312000Y-69610000D03*
%TD*%
D37*
%TO.P,R406,1*%
%TO.N,/DRIVERS/M2_CR*%
X172635000Y-82204000D03*
%TO.P,R406,2*%
%TO.N,GNDREF*%
X170985000Y-82204000D03*
%TD*%
D31*
%TO.P,R301,1*%
%TO.N,VCC_3V3*%
X127233000Y-80025000D03*
%TO.P,R301,2*%
%TO.N,/MCU/NRST*%
X127233000Y-81675000D03*
%TD*%
D21*
%TO.P,C308,1*%
%TO.N,VCC_3V3*%
X125709000Y-81625000D03*
%TO.P,C308,2*%
%TO.N,GNDREF*%
X125709000Y-80075000D03*
%TD*%
D38*
%TO.P,R403,1*%
%TO.N,/DRIVERS/M1_CR*%
X102341000Y-90946000D03*
%TO.P,R403,2*%
%TO.N,GNDREF*%
X103991000Y-90946000D03*
%TD*%
D20*
%TO.P,C406,1*%
%TO.N,/DRIVERS/M2_VREF*%
X167020200Y-90189000D03*
%TO.P,C406,2*%
%TO.N,GNDREF*%
X165470200Y-90189000D03*
%TD*%
D39*
%TO.P,J106,1,Pin_1*%
%TO.N,/DRIVERS/M2_OUT1A*%
X183626500Y-84850000D03*
D30*
%TO.P,J106,2,Pin_2*%
%TO.N,/DRIVERS/M2_OUT1B*%
X183626500Y-87390000D03*
%TO.P,J106,3,Pin_3*%
%TO.N,/DRIVERS/M2_OUT2B*%
X183626500Y-89930000D03*
%TO.P,J106,4,Pin_4*%
%TO.N,/DRIVERS/M2_OUT2A*%
X183626500Y-92470000D03*
%TD*%
D40*
%TO.P,J104,1,Pin_1*%
%TO.N,GNDREF*%
X126471000Y-100090000D03*
D30*
%TO.P,J104,2,Pin_2*%
%TO.N,/MCU/SYS_SWCLK*%
X123931000Y-100090000D03*
%TO.P,J104,3,Pin_3*%
%TO.N,/MCU/SYS_SWDIO*%
X121391000Y-100090000D03*
%TO.P,J104,4,Pin_4*%
%TO.N,VCC_3V3*%
X118851000Y-100090000D03*
%TD*%
D17*
%TO.P,U402,1,GND*%
%TO.N,GNDREF*%
X178374000Y-85718600D03*
%TO.P,U402,2,OUT1B*%
%TO.N,/DRIVERS/M2_OUT1B*%
X177713600Y-85718600D03*
%TO.P,U402,3,RNF1*%
%TO.N,Net-(U402-RNF1)*%
X177053200Y-85718600D03*
%TO.P,U402,4,RNF1S*%
X176392800Y-85718600D03*
%TO.P,U402,5,OUT1A*%
%TO.N,/DRIVERS/M2_OUT1A*%
X175732400Y-85718600D03*
%TO.P,U402,6,NC*%
%TO.N,unconnected-(U402-NC-Pad6)*%
X175072000Y-85718600D03*
%TO.P,U402,7,VCC1*%
%TO.N,VCC_12V*%
X174411600Y-85718600D03*
%TO.P,U402,8,NC*%
%TO.N,unconnected-(U402-NC-Pad8)*%
X173751200Y-85718600D03*
%TO.P,U402,9,GND*%
%TO.N,GNDREF*%
X173090800Y-85718600D03*
%TO.P,U402,10,CR*%
%TO.N,/DRIVERS/M2_CR*%
X172430400Y-85718600D03*
%TO.P,U402,11,TEST0*%
%TO.N,GNDREF*%
X171770000Y-85718600D03*
%TO.P,U402,12,MTH*%
%TO.N,/DRIVERS/M2_MTH*%
X171109600Y-85718600D03*
%TO.P,U402,13,VREF*%
%TO.N,/DRIVERS/M2_VREF*%
X170449200Y-85718600D03*
%TO.P,U402,14,PS*%
%TO.N,/M2_PS*%
X169788800Y-85718600D03*
%TO.P,U402,15,CLK*%
%TO.N,/M2_CLK*%
X169788800Y-91611400D03*
%TO.P,U402,16,CW_CCW*%
%TO.N,/M2_CK*%
X170449200Y-91611400D03*
%TO.P,U402,17,TEST1*%
%TO.N,GNDREF*%
X171109600Y-91611400D03*
%TO.P,U402,18,MODE0*%
%TO.N,/M2_MODE0*%
X171770000Y-91611400D03*
%TO.P,U402,19,MODE1*%
%TO.N,/M2_MODE1*%
X172430400Y-91611400D03*
%TO.P,U402,20,ENABLE*%
%TO.N,/M2_EN*%
X173090800Y-91611400D03*
%TO.P,U402,21,NC*%
%TO.N,unconnected-(U402-NC-Pad21)*%
X173751200Y-91611400D03*
%TO.P,U402,22,VCC2*%
%TO.N,VCC_12V*%
X174411600Y-91611400D03*
%TO.P,U402,23,NC*%
%TO.N,unconnected-(U402-NC-Pad23)*%
X175072000Y-91611400D03*
%TO.P,U402,24,OUT2A*%
%TO.N,/DRIVERS/M2_OUT2A*%
X175732400Y-91611400D03*
%TO.P,U402,25,RNF2S*%
%TO.N,Net-(U402-RNF2)*%
X176392800Y-91611400D03*
%TO.P,U402,26,RNF2*%
X177053200Y-91611400D03*
%TO.P,U402,27,OUT2B*%
%TO.N,/DRIVERS/M2_OUT2B*%
X177713600Y-91611400D03*
%TO.P,U402,28,NC*%
%TO.N,unconnected-(U402-NC-Pad28)*%
X178374000Y-91611400D03*
D18*
%TO.P,U402,EPAD,EPAD*%
%TO.N,GNDREF*%
X174081400Y-88665000D03*
%TD*%
D13*
%TO.P,C305,1*%
%TO.N,VCC_3V3*%
X130789000Y-83199000D03*
%TO.P,C305,2*%
%TO.N,GNDREF*%
X132339000Y-83199000D03*
%TD*%
D15*
%TO.P,J108,1,Pin_1*%
%TO.N,GNDREF*%
X174731000Y-88665000D03*
D16*
%TO.P,J108,2,Pin_2*%
X173461000Y-88665000D03*
%TO.P,J108,3,Pin_3*%
X172191000Y-88665000D03*
%TD*%
D13*
%TO.P,C401,1*%
%TO.N,/DRIVERS/M1_CR*%
X102391000Y-92470000D03*
%TO.P,C401,2*%
%TO.N,GNDREF*%
X103941000Y-92470000D03*
%TD*%
D41*
%TO.N,GNDREF*%
X176509000Y-79262000D03*
X105897000Y-79770000D03*
X110215000Y-90184000D03*
X176255000Y-107456000D03*
X172699000Y-89676000D03*
X172445000Y-107456000D03*
X110469000Y-93994000D03*
X172445000Y-67070000D03*
X121899000Y-92216000D03*
X174223000Y-87644000D03*
X100563000Y-87136000D03*
X102849000Y-85104000D03*
X120375000Y-92216000D03*
X173461000Y-89676000D03*
X135869000Y-83961000D03*
D42*
X176001000Y-88660000D03*
D41*
X164317000Y-80786000D03*
X101325000Y-87136000D03*
X102087000Y-67324000D03*
X100563000Y-85104000D03*
X164571000Y-84596000D03*
X98277000Y-107456000D03*
X103611000Y-87136000D03*
X133329000Y-80024000D03*
X171175000Y-89676000D03*
X164571000Y-88406000D03*
X94975000Y-96026000D03*
D42*
X98785000Y-86120000D03*
D41*
X173461000Y-87644000D03*
X172699000Y-87644000D03*
X171937000Y-87644000D03*
X167619000Y-95010000D03*
X133329000Y-81548000D03*
X110469000Y-84596000D03*
X125709000Y-79008000D03*
X102087000Y-87136000D03*
X171175000Y-87644000D03*
X101325000Y-85104000D03*
X109961000Y-87390000D03*
X102087000Y-85104000D03*
X94213000Y-95772000D03*
X98277000Y-67324000D03*
X169905000Y-82818000D03*
X103611000Y-85104000D03*
X102087000Y-107456000D03*
X174223000Y-89676000D03*
X171937000Y-89676000D03*
X164317000Y-90184000D03*
X176255000Y-67070000D03*
X106659000Y-79770000D03*
X124185000Y-79008000D03*
X102849000Y-87136000D03*
X133329000Y-83072000D03*
X128757000Y-79008000D03*
%TO.N,/DRIVERS/M2_OUT1B*%
X178541000Y-84088000D03*
X179303000Y-84088000D03*
%TO.N,/MCU/SYS_SWDIO*%
X129995000Y-95010000D03*
%TO.N,/MCU/SYS_SWCLK*%
X130795000Y-95010000D03*
%TO.N,/DRIVERS/M2_OUT1A*%
X175747000Y-83580000D03*
X176001000Y-82818000D03*
%TO.N,/DRIVERS/M2_OUT2B*%
X179049000Y-92983000D03*
X179811000Y-92978000D03*
%TO.N,/DRIVERS/M2_OUT2A*%
X176509000Y-94248000D03*
X175747000Y-93775500D03*
%TO.N,/DRIVERS/M1_OUT2B*%
X95483000Y-81548000D03*
X96245000Y-81675000D03*
%TO.N,/DRIVERS/M1_OUT2A*%
X98785000Y-81040000D03*
X98277000Y-80532000D03*
%TO.N,/DRIVERS/M1_OUT1B*%
X95725300Y-90449700D03*
X96499000Y-90438000D03*
%TO.N,/DRIVERS/M1_OUT1A*%
X98277000Y-91708000D03*
X98785000Y-91200000D03*
%TO.N,/MCU/USART1_RX*%
X123423000Y-85358000D03*
%TO.N,/MCU/USART1_TX*%
X124439000Y-83834000D03*
%TO.N,/M1_PS*%
X125963000Y-86374000D03*
X105897000Y-89168000D03*
%TO.N,VCC_12V*%
X102849000Y-76214000D03*
X168635000Y-96280000D03*
X180573000Y-98058000D03*
X181335000Y-79008000D03*
X97515000Y-96026000D03*
X98023000Y-76468000D03*
X103611000Y-95391000D03*
X98277000Y-95629000D03*
X97515000Y-75960000D03*
X181335000Y-98566000D03*
X104373000Y-95391000D03*
X168635000Y-95645000D03*
X102087000Y-76468000D03*
X168635000Y-79135000D03*
%TO.N,VCC_3V3*%
X159745000Y-86374000D03*
X162285000Y-86374000D03*
X115295000Y-88406000D03*
X112755000Y-88406000D03*
%TO.N,/M2_MODE1*%
X126794994Y-95010000D03*
X171797006Y-93486000D03*
%TO.N,/M2_CK*%
X168381000Y-92508003D03*
X128395000Y-95010000D03*
%TO.N,/M2_EN*%
X172953000Y-93486000D03*
X125994991Y-95010000D03*
%TO.N,/M2_CLK*%
X168381000Y-91708000D03*
X129195000Y-95010000D03*
%TO.N,/M2_PS*%
X168889000Y-85612000D03*
X133583000Y-93740000D03*
%TO.N,/M2_MODE0*%
X170997006Y-93486000D03*
X127594997Y-95010000D03*
%TO.N,/M1_EN*%
X122407000Y-89764003D03*
X101326875Y-82056493D03*
%TO.N,/M1_MODE1*%
X102341000Y-81950281D03*
X122407000Y-88914000D03*
%TO.N,/M1_CLK*%
X106151000Y-83326000D03*
X122407000Y-87047997D03*
%TO.N,/M1_CK*%
X106151000Y-82310000D03*
X126217000Y-83834000D03*
%TO.N,/M1_MODE0*%
X122350759Y-88035300D03*
X103357000Y-82056000D03*
%TO.N,Net-(U401-RNF1)*%
X97769000Y-90619893D03*
%TO.N,Net-(U401-RNF2)*%
X97467318Y-81715243D03*
%TO.N,Net-(U402-RNF1)*%
X177069871Y-84270000D03*
%TO.N,Net-(U402-RNF2)*%
X176964030Y-92883892D03*
%TO.N,/MCU/INI1*%
X125201000Y-90438000D03*
%TO.N,/MCU/INI2*%
X125201000Y-91295000D03*
%TO.N,/MCU/INI3*%
X133583000Y-91314009D03*
%TO.N,/MCU/INI4*%
X133583000Y-90514006D03*
%TO.N,/MCU/INI5*%
X133583000Y-89714003D03*
%TO.N,/MCU/INI6*%
X133583000Y-88914000D03*
%TO.N,/MCU/INI7*%
X133583000Y-88113997D03*
%TD*%
D43*
%TO.N,/MCU/NRST*%
X128707000Y-81675000D02*
X128757000Y-81625000D01*
X127233000Y-81675000D02*
X128707000Y-81675000D01*
X128395000Y-81987000D02*
X128757000Y-81625000D01*
X128395000Y-85120000D02*
X128395000Y-81987000D01*
%TO.N,GNDREF*%
X121899000Y-93473000D02*
X120375000Y-93473000D01*
X170079000Y-94694000D02*
X170400000Y-95015000D01*
X125709000Y-80075000D02*
X125709000Y-79008000D01*
D44*
X178374000Y-85718600D02*
X178374000Y-86795000D01*
X103001400Y-89956400D02*
X103991000Y-90946000D01*
X165521000Y-80791000D02*
X164322000Y-80791000D01*
D43*
X124185000Y-80075000D02*
X124185000Y-79008000D01*
D44*
X102849000Y-85104000D02*
X103661800Y-84291200D01*
X171770000Y-85718600D02*
X171770000Y-87477000D01*
D43*
X121912000Y-93486000D02*
X121899000Y-93473000D01*
D45*
X95483000Y-95518000D02*
X94975000Y-96026000D01*
D44*
X103991000Y-90946000D02*
X103991000Y-92420000D01*
D43*
X135869000Y-85295000D02*
X135869000Y-83961000D01*
D44*
X103001400Y-87288400D02*
X102849000Y-87136000D01*
D45*
X116311000Y-80466000D02*
X116311000Y-79910000D01*
D43*
X109399000Y-84596000D02*
X110469000Y-84596000D01*
D45*
X98277000Y-107456000D02*
X102087000Y-107456000D01*
X94213000Y-95772000D02*
X95229000Y-95772000D01*
X116311000Y-79910000D02*
X116311000Y-78180000D01*
X105897000Y-79770000D02*
X104627000Y-79770000D01*
D44*
X110215000Y-90184000D02*
X111364000Y-90184000D01*
D43*
X123820000Y-93089000D02*
X123820000Y-92095000D01*
D45*
X98277000Y-67324000D02*
X102087000Y-67324000D01*
D43*
X132352000Y-81675000D02*
X133202000Y-81675000D01*
D44*
X103001400Y-89071400D02*
X103001400Y-87288400D01*
D43*
X167935000Y-94694000D02*
X170079000Y-94694000D01*
D44*
X164322000Y-80791000D02*
X164317000Y-80786000D01*
X103001400Y-89071400D02*
X103001400Y-89956400D01*
X101680600Y-87491600D02*
X101325000Y-87136000D01*
X170985000Y-82204000D02*
X170519000Y-82204000D01*
X170519000Y-82204000D02*
X169905000Y-82818000D01*
X171035000Y-83728000D02*
X170815000Y-83728000D01*
D43*
X132170000Y-86495000D02*
X132339000Y-86326000D01*
X133202000Y-81675000D02*
X133329000Y-81548000D01*
D45*
X176509000Y-81074000D02*
X176141000Y-81442000D01*
D44*
X165470200Y-90189000D02*
X164322000Y-90189000D01*
X164322000Y-90189000D02*
X164317000Y-90184000D01*
X171109600Y-91611400D02*
X171109600Y-89741400D01*
D43*
X124185000Y-80075000D02*
X125709000Y-80075000D01*
X121899000Y-93473000D02*
X121899000Y-92216000D01*
D45*
X115864000Y-80913000D02*
X116311000Y-80466000D01*
D44*
X173090800Y-85718600D02*
X173090800Y-87273800D01*
X173090800Y-87273800D02*
X173461000Y-87644000D01*
X170815000Y-83728000D02*
X169905000Y-82818000D01*
X171770000Y-87477000D02*
X171937000Y-87644000D01*
D43*
X123423000Y-93486000D02*
X121912000Y-93486000D01*
X132352000Y-80151000D02*
X133202000Y-80151000D01*
D44*
X163480000Y-84585000D02*
X164560000Y-84585000D01*
D45*
X97896000Y-93105000D02*
X95483000Y-95518000D01*
D44*
X171109600Y-89741400D02*
X171175000Y-89676000D01*
X109961000Y-87390000D02*
X110380000Y-87390000D01*
X103661800Y-84291200D02*
X103661800Y-83178600D01*
D45*
X172445000Y-107456000D02*
X176255000Y-107456000D01*
D44*
X101680600Y-89071400D02*
X101680600Y-87491600D01*
D43*
X132339000Y-86326000D02*
X132339000Y-83199000D01*
D45*
X172445000Y-67070000D02*
X176255000Y-67070000D01*
X176509000Y-79262000D02*
X176509000Y-81074000D01*
D44*
X164560000Y-84585000D02*
X164571000Y-84596000D01*
D45*
X98605600Y-93105000D02*
X97896000Y-93105000D01*
D43*
X132352000Y-83186000D02*
X132339000Y-83199000D01*
X123423000Y-93486000D02*
X123820000Y-93089000D01*
D44*
X178374000Y-86795000D02*
X176509000Y-88660000D01*
D43*
X133202000Y-83199000D02*
X133329000Y-83072000D01*
D45*
X117314000Y-80913000D02*
X116311000Y-79910000D01*
D43*
X109399000Y-93994000D02*
X110469000Y-93994000D01*
D45*
X106659000Y-79770000D02*
X104627000Y-79770000D01*
D43*
X120375000Y-93473000D02*
X120375000Y-92216000D01*
D44*
X97515000Y-87136000D02*
X98277000Y-87136000D01*
X96397400Y-89071400D02*
X96397400Y-88253600D01*
D43*
X132339000Y-83199000D02*
X133202000Y-83199000D01*
D44*
X96397400Y-88253600D02*
X97515000Y-87136000D01*
X110380000Y-87390000D02*
X111380000Y-86390000D01*
D43*
X133202000Y-80151000D02*
X133329000Y-80024000D01*
D44*
X164560000Y-88395000D02*
X164571000Y-88406000D01*
D45*
X104005000Y-79770000D02*
X104627000Y-79770000D01*
D43*
X132352000Y-80151000D02*
X132352000Y-81675000D01*
D44*
X103991000Y-92420000D02*
X103941000Y-92470000D01*
D43*
X132352000Y-81675000D02*
X132352000Y-83186000D01*
X167619000Y-95010000D02*
X167935000Y-94694000D01*
D45*
X95229000Y-95772000D02*
X95483000Y-95518000D01*
D44*
X111364000Y-90184000D02*
X111380000Y-90200000D01*
D43*
X128757000Y-80075000D02*
X128757000Y-79008000D01*
D44*
X163480000Y-88395000D02*
X164560000Y-88395000D01*
%TO.N,/DRIVERS/M2_OUT1B*%
X178233800Y-84288800D02*
X177713600Y-84809000D01*
D45*
X178434600Y-84088000D02*
X178233800Y-84288800D01*
X179303000Y-84088000D02*
X178434600Y-84088000D01*
X182605000Y-87390000D02*
X179303000Y-84088000D01*
D44*
X178541000Y-84088000D02*
X178434600Y-84088000D01*
X177713600Y-84809000D02*
X177713600Y-85718600D01*
D45*
X183626500Y-87390000D02*
X182605000Y-87390000D01*
D43*
%TO.N,/MCU/SYS_SWDIO*%
X129995000Y-95010000D02*
X129995000Y-93470000D01*
%TO.N,/MCU/SYS_SWCLK*%
X130795000Y-95010000D02*
X130795000Y-93470000D01*
D45*
%TO.N,/DRIVERS/M2_OUT1A*%
X175747000Y-83580000D02*
X175747000Y-83072000D01*
X175747000Y-84596000D02*
X175747000Y-83580000D01*
X181594500Y-82818000D02*
X183626500Y-84850000D01*
D44*
X175732400Y-84610600D02*
X175732400Y-85718600D01*
D45*
X175732400Y-84610600D02*
X175747000Y-84596000D01*
X175747000Y-83072000D02*
X176001000Y-82818000D01*
X176001000Y-82818000D02*
X181594500Y-82818000D01*
D44*
%TO.N,/DRIVERS/M2_OUT2B*%
X177713600Y-92658600D02*
X177713600Y-91611400D01*
D45*
X178038000Y-92983000D02*
X178033000Y-92978000D01*
X179049000Y-92983000D02*
X180573500Y-92983000D01*
D44*
X178033000Y-92978000D02*
X177713600Y-92658600D01*
D45*
X179049000Y-92983000D02*
X178038000Y-92983000D01*
X180573500Y-92983000D02*
X183626500Y-89930000D01*
X178033000Y-92978000D02*
X177977000Y-92922000D01*
%TO.N,/DRIVERS/M2_OUT2A*%
X176219500Y-94248000D02*
X175747000Y-93775500D01*
X175747000Y-92795000D02*
X175732400Y-92780400D01*
X181363802Y-94732698D02*
X176993698Y-94732698D01*
X175747000Y-93775500D02*
X175747000Y-92795000D01*
X176509000Y-94248000D02*
X176219500Y-94248000D01*
X176993698Y-94732698D02*
X176509000Y-94248000D01*
D44*
X175732400Y-92780400D02*
X175732400Y-91611400D01*
D45*
X183626500Y-92470000D02*
X181363802Y-94732698D01*
D43*
%TO.N,/MCU/BOOT0*%
X132170000Y-87295000D02*
X133995000Y-87295000D01*
X133995000Y-87295000D02*
X134345000Y-86945000D01*
X135869000Y-86945000D02*
X134345000Y-86945000D01*
D44*
%TO.N,/DRIVERS/M1_CR*%
X102391000Y-92470000D02*
X102391000Y-90996000D01*
X102341000Y-90946000D02*
X102341000Y-89071400D01*
X102391000Y-90996000D02*
X102341000Y-90946000D01*
%TO.N,/DRIVERS/M2_CR*%
X172585000Y-82254000D02*
X172635000Y-82204000D01*
X172585000Y-83728000D02*
X172585000Y-82254000D01*
X172430400Y-83882600D02*
X172585000Y-83728000D01*
X172430400Y-85718600D02*
X172430400Y-83882600D01*
D43*
%TO.N,/DRIVERS/M1_OUT2B*%
X96245000Y-81734082D02*
X96628918Y-82118000D01*
D44*
X97057800Y-83178600D02*
X97057800Y-82546882D01*
D43*
X96628918Y-82118000D02*
X96659959Y-82118000D01*
D44*
X96245000Y-81734082D02*
X96245000Y-81675000D01*
D45*
X96245000Y-81675000D02*
X94305100Y-81675000D01*
D44*
X97057800Y-82546882D02*
X96245000Y-81734082D01*
D45*
X94305100Y-81675000D02*
X91120100Y-84860000D01*
%TO.N,/DRIVERS/M1_OUT2A*%
X99039000Y-81294000D02*
X98785000Y-81040000D01*
X98785000Y-81040000D02*
X97769000Y-80024000D01*
X93416100Y-80024000D02*
X91120100Y-82320000D01*
X99039000Y-82056000D02*
X99039000Y-81294000D01*
X97769000Y-80024000D02*
X93416100Y-80024000D01*
D44*
X99039000Y-83178600D02*
X99039000Y-82056000D01*
D45*
%TO.N,/DRIVERS/M1_OUT1B*%
X95280800Y-90005200D02*
X92675600Y-87400000D01*
X95725300Y-90449700D02*
X95280800Y-90005200D01*
D44*
X96600800Y-90438000D02*
X95713600Y-90438000D01*
X97057800Y-89071400D02*
X97057800Y-89803000D01*
X97057800Y-89803000D02*
X97057800Y-89981000D01*
D43*
X96499000Y-90438000D02*
X97057800Y-89879200D01*
D44*
X97057800Y-89981000D02*
X96600800Y-90438000D01*
D43*
X97057800Y-89879200D02*
X97057800Y-89803000D01*
D45*
X92675600Y-87400000D02*
X91120100Y-87400000D01*
X96499000Y-90438000D02*
X95713600Y-90438000D01*
D44*
X95713600Y-90438000D02*
X95280800Y-90005200D01*
D45*
%TO.N,/DRIVERS/M1_OUT1A*%
X92888100Y-91708000D02*
X91120100Y-89940000D01*
D44*
X99039000Y-90382000D02*
X99039000Y-89071400D01*
D45*
X99039000Y-90946000D02*
X99039000Y-90382000D01*
X98785000Y-91200000D02*
X98277000Y-91708000D01*
X98785000Y-91200000D02*
X99039000Y-90946000D01*
X92888100Y-91708000D02*
X98277000Y-91708000D01*
D43*
%TO.N,/MCU/USART1_RX*%
X123820000Y-86495000D02*
X123423000Y-86098000D01*
X123423000Y-86098000D02*
X123423000Y-85358000D01*
%TO.N,/MCU/USART1_TX*%
X125195000Y-85120000D02*
X125195000Y-84590000D01*
X125195000Y-84590000D02*
X124439000Y-83834000D01*
D44*
%TO.N,/M1_PS*%
X105800400Y-89071400D02*
X105897000Y-89168000D01*
D43*
X105079200Y-89168000D02*
X104982600Y-89071400D01*
X125995000Y-86342000D02*
X125995000Y-85120000D01*
X105897000Y-89168000D02*
X105079200Y-89168000D01*
X125963000Y-86374000D02*
X125995000Y-86342000D01*
D45*
%TO.N,VCC_12V*%
X97515000Y-96026000D02*
X97570500Y-96081500D01*
X99608000Y-96960000D02*
X98729500Y-96081500D01*
D44*
X100359800Y-89071400D02*
X100359800Y-90382000D01*
D45*
X103362600Y-81040000D02*
X100142600Y-77820000D01*
X174477000Y-81328000D02*
X174591000Y-81442000D01*
X100735000Y-77820000D02*
X102087000Y-76468000D01*
X168635000Y-77230000D02*
X173882000Y-77230000D01*
D44*
X174591000Y-81495600D02*
X174411600Y-81675000D01*
D45*
X174350000Y-94502000D02*
X174297000Y-94449000D01*
X174350000Y-96965000D02*
X174350000Y-94502000D01*
D46*
X156570000Y-69609000D02*
X156570000Y-74563000D01*
D45*
X108945000Y-75420000D02*
X109675000Y-74690000D01*
X161015000Y-77230000D02*
X168635000Y-77230000D01*
X98023000Y-76468000D02*
X97515000Y-75960000D01*
X180573000Y-98058000D02*
X180827000Y-98058000D01*
X171950000Y-95015000D02*
X173837000Y-95015000D01*
X104119000Y-95645000D02*
X104373000Y-95391000D01*
X113771000Y-78180000D02*
X113771000Y-74817000D01*
X174477000Y-77825000D02*
X174477000Y-81328000D01*
X113771000Y-74817000D02*
X113644000Y-74690000D01*
X174297000Y-94449000D02*
X174297000Y-93036600D01*
X114030000Y-78439000D02*
X113771000Y-78180000D01*
X113771000Y-78180000D02*
X113771000Y-80913000D01*
X173837000Y-95015000D02*
X174350000Y-94502000D01*
X168635000Y-77230000D02*
X168635000Y-79135000D01*
X173882000Y-77230000D02*
X174477000Y-77825000D01*
X108945000Y-81040000D02*
X103362600Y-81040000D01*
D46*
X156570000Y-74563000D02*
X156697000Y-74690000D01*
D45*
X102087000Y-76468000D02*
X102341000Y-76214000D01*
X99375000Y-77820000D02*
X98023000Y-76468000D01*
D47*
X158475000Y-74690000D02*
X161015000Y-77230000D01*
D45*
X174350000Y-96965000D02*
X175443000Y-98058000D01*
X168635000Y-96965000D02*
X168635000Y-95645000D01*
X104119000Y-96960000D02*
X104119000Y-95645000D01*
X174411600Y-81621400D02*
X174411600Y-84408000D01*
D44*
X100359800Y-83178600D02*
X100359800Y-81802000D01*
D45*
X108945000Y-81040000D02*
X114030000Y-86125000D01*
X114030000Y-93735000D02*
X110805000Y-96960000D01*
X175443000Y-98058000D02*
X180573000Y-98058000D01*
D47*
X115295000Y-74690000D02*
X156697000Y-74690000D01*
D45*
X104119000Y-96960000D02*
X100142600Y-96960000D01*
X174297000Y-93036600D02*
X174411600Y-92922000D01*
D47*
X108945000Y-75420000D02*
X108945000Y-81040000D01*
D45*
X103611000Y-95391000D02*
X103865000Y-95391000D01*
X168635000Y-96965000D02*
X174350000Y-96965000D01*
X97570500Y-96081500D02*
X98729500Y-96081500D01*
X100142600Y-96960000D02*
X99608000Y-96960000D01*
X114030000Y-86125000D02*
X114030000Y-93735000D01*
X100155600Y-93105000D02*
X100359800Y-92900800D01*
X167415000Y-96965000D02*
X168635000Y-96965000D01*
X161015000Y-77230000D02*
X161015000Y-90565000D01*
X100142600Y-77820000D02*
X100735000Y-77820000D01*
X103865000Y-95391000D02*
X104119000Y-95645000D01*
X98729500Y-96081500D02*
X98277000Y-95629000D01*
D47*
X156697000Y-74690000D02*
X158475000Y-74690000D01*
D45*
X180827000Y-98058000D02*
X181335000Y-98566000D01*
X110805000Y-96960000D02*
X104119000Y-96960000D01*
X100359800Y-81802000D02*
X100359800Y-78037200D01*
X100142600Y-77820000D02*
X99375000Y-77820000D01*
D44*
X174591000Y-81442000D02*
X174591000Y-81495600D01*
D45*
X100359800Y-78037200D02*
X100142600Y-77820000D01*
X174477000Y-77825000D02*
X180152000Y-77825000D01*
D44*
X174411600Y-85718600D02*
X174411600Y-84408000D01*
X174350000Y-96965000D02*
X174411600Y-96903400D01*
D45*
X100142600Y-93118000D02*
X100155600Y-93105000D01*
X174591000Y-81442000D02*
X174411600Y-81621400D01*
D47*
X109675000Y-74690000D02*
X113644000Y-74690000D01*
D44*
X174411600Y-92922000D02*
X174411600Y-91611400D01*
D45*
X161015000Y-90565000D02*
X167415000Y-96965000D01*
X100142600Y-96960000D02*
X100142600Y-93118000D01*
X100359800Y-92900800D02*
X100359800Y-90382000D01*
X102341000Y-76214000D02*
X102849000Y-76214000D01*
D44*
X174477000Y-77825000D02*
X174411600Y-77890400D01*
D47*
X113644000Y-74690000D02*
X115295000Y-74690000D01*
D45*
X180152000Y-77825000D02*
X181335000Y-79008000D01*
D43*
%TO.N,VCC_3V3*%
X123423000Y-95036000D02*
X121912000Y-95036000D01*
X112755000Y-88406000D02*
X111396000Y-88406000D01*
X144505000Y-88723000D02*
X144505000Y-90692000D01*
X112755000Y-88406000D02*
X112755000Y-91200000D01*
D45*
X118851000Y-98307000D02*
X118846000Y-98312000D01*
X119547000Y-77484000D02*
X122407000Y-77484000D01*
X118851000Y-78180000D02*
X118851000Y-88406000D01*
D43*
X125195000Y-94254000D02*
X124413000Y-95036000D01*
D45*
X152125000Y-90692000D02*
X154665000Y-90692000D01*
X141965000Y-90692000D02*
X144505000Y-90692000D01*
X118851000Y-88406000D02*
X118851000Y-95010000D01*
X158221000Y-90692000D02*
X159745000Y-89168000D01*
D43*
X163459000Y-86374000D02*
X163480000Y-86395000D01*
X127233000Y-77484000D02*
X127233000Y-80025000D01*
X157205000Y-88723000D02*
X157205000Y-90692000D01*
X147045000Y-88723000D02*
X147045000Y-90692000D01*
D45*
X137647000Y-87898000D02*
X140441000Y-90692000D01*
D43*
X149585000Y-88723000D02*
X149585000Y-90692000D01*
D45*
X159745000Y-89168000D02*
X159745000Y-86374000D01*
D43*
X127595000Y-85120000D02*
X127595000Y-83942000D01*
D45*
X147045000Y-90692000D02*
X149585000Y-90692000D01*
D43*
X112755000Y-91200000D02*
X111755000Y-92200000D01*
D45*
X118851000Y-78180000D02*
X119547000Y-77484000D01*
X137647000Y-81548000D02*
X137647000Y-84850000D01*
X157205000Y-90692000D02*
X158221000Y-90692000D01*
X149585000Y-90692000D02*
X152125000Y-90692000D01*
D43*
X134345000Y-85295000D02*
X134345000Y-82818000D01*
D45*
X137647000Y-84850000D02*
X137647000Y-87898000D01*
X133583000Y-77484000D02*
X136631000Y-80532000D01*
D43*
X121912000Y-95036000D02*
X121899000Y-95023000D01*
X125195000Y-93470000D02*
X125195000Y-94254000D01*
X163459000Y-82564000D02*
X163480000Y-82585000D01*
X111755000Y-92200000D02*
X111380000Y-92200000D01*
X111396000Y-88406000D02*
X111380000Y-88390000D01*
X134345000Y-82818000D02*
X136631000Y-80532000D01*
D45*
X140441000Y-90692000D02*
X141965000Y-90692000D01*
D43*
X125709000Y-81625000D02*
X125709000Y-81549000D01*
D45*
X136631000Y-80532000D02*
X137647000Y-81548000D01*
X130789000Y-77484000D02*
X133583000Y-77484000D01*
D43*
X115295000Y-88406000D02*
X118851000Y-88406000D01*
X130789000Y-77484000D02*
X130789000Y-83199000D01*
X162285000Y-86374000D02*
X163459000Y-86374000D01*
X162285000Y-86374000D02*
X162285000Y-82564000D01*
D45*
X122407000Y-77484000D02*
X127233000Y-77484000D01*
D43*
X120375000Y-95023000D02*
X121899000Y-95023000D01*
X118864000Y-95023000D02*
X120375000Y-95023000D01*
D45*
X154665000Y-90692000D02*
X157205000Y-90692000D01*
X139425000Y-84850000D02*
X137647000Y-84850000D01*
D43*
X125709000Y-81549000D02*
X127233000Y-80025000D01*
X154665000Y-88723000D02*
X154665000Y-90692000D01*
D45*
X118851000Y-98317000D02*
X118846000Y-98312000D01*
X127233000Y-77484000D02*
X130789000Y-77484000D01*
D43*
X125709000Y-81625000D02*
X124185000Y-81625000D01*
D45*
X144505000Y-90692000D02*
X147045000Y-90692000D01*
D43*
X127595000Y-83942000D02*
X125709000Y-82056000D01*
X130789000Y-85114000D02*
X130795000Y-85120000D01*
D45*
X118851000Y-95010000D02*
X118851000Y-98307000D01*
D43*
X152125000Y-88723000D02*
X152125000Y-90692000D01*
D44*
X130795000Y-83205000D02*
X130789000Y-83199000D01*
D45*
X118851000Y-100090000D02*
X118851000Y-98317000D01*
D43*
X125709000Y-82056000D02*
X125709000Y-81625000D01*
X141965000Y-88723000D02*
X141965000Y-90692000D01*
X162285000Y-82564000D02*
X163459000Y-82564000D01*
X130789000Y-83199000D02*
X130789000Y-85114000D01*
X124413000Y-95036000D02*
X123423000Y-95036000D01*
X118851000Y-95010000D02*
X118864000Y-95023000D01*
D45*
%TO.N,VDD*%
X113771000Y-69610000D02*
X110755000Y-69610000D01*
X110755000Y-69610000D02*
X108945000Y-71420000D01*
D44*
%TO.N,/M2_MODE1*%
X171797006Y-93486000D02*
X172430400Y-92852606D01*
D43*
X126794994Y-95010000D02*
X126794994Y-93470006D01*
X126794994Y-93470006D02*
X126795000Y-93470000D01*
D44*
X172430400Y-92852606D02*
X172430400Y-91611400D01*
%TO.N,/M2_CK*%
X170449200Y-92415000D02*
X170292200Y-92572000D01*
X170449200Y-91611400D02*
X170449200Y-92415000D01*
X168444997Y-92572000D02*
X168381000Y-92508003D01*
X170292200Y-92572000D02*
X168444997Y-92572000D01*
D43*
X128395000Y-95010000D02*
X128395000Y-93470000D01*
%TO.N,/M2_EN*%
X125994991Y-93470009D02*
X125995000Y-93470000D01*
X125994991Y-95010000D02*
X125994991Y-93470009D01*
D44*
X173090800Y-93348200D02*
X173090800Y-91611400D01*
X172953000Y-93486000D02*
X173090800Y-93348200D01*
%TO.N,/M2_CLK*%
X168477600Y-91611400D02*
X168381000Y-91708000D01*
D43*
X129195000Y-95010000D02*
X129195000Y-93470000D01*
D44*
X169788800Y-91611400D02*
X168477600Y-91611400D01*
D43*
%TO.N,/M2_PS*%
X132954000Y-92095000D02*
X133583000Y-92724000D01*
X133583000Y-93740000D02*
X133583000Y-92724000D01*
X132170000Y-92095000D02*
X132954000Y-92095000D01*
X168889000Y-85612000D02*
X169682200Y-85612000D01*
X169682200Y-85612000D02*
X169788800Y-85718600D01*
D44*
X168995600Y-85718600D02*
X168889000Y-85612000D01*
D43*
%TO.N,/M2_MODE0*%
X127594997Y-93470003D02*
X127595000Y-93470000D01*
D44*
X171770000Y-92421000D02*
X171770000Y-91611400D01*
X170997006Y-93193994D02*
X171770000Y-92421000D01*
D43*
X127594997Y-95010000D02*
X127594997Y-93470003D01*
D44*
X170997006Y-93486000D02*
X170997006Y-93193994D01*
D43*
%TO.N,/M1_EN*%
X122476003Y-89695000D02*
X122407000Y-89764003D01*
X123820000Y-89695000D02*
X122476003Y-89695000D01*
D44*
X101680600Y-82410218D02*
X101326875Y-82056493D01*
X101680600Y-83178600D02*
X101680600Y-82410218D01*
%TO.N,/M1_MODE1*%
X102341000Y-81950281D02*
X102341000Y-83178600D01*
D43*
X123820000Y-88895000D02*
X122426000Y-88895000D01*
X122426000Y-88895000D02*
X122407000Y-88914000D01*
D44*
%TO.N,/M1_CLK*%
X106003600Y-83178600D02*
X106151000Y-83326000D01*
D43*
X123820000Y-87295000D02*
X122654003Y-87295000D01*
X122654003Y-87295000D02*
X122407000Y-87047997D01*
D44*
X104982600Y-83178600D02*
X106003600Y-83178600D01*
D43*
%TO.N,/M1_CK*%
X126795000Y-84351950D02*
X126277050Y-83834000D01*
D44*
X104322200Y-83178600D02*
X104322200Y-82375000D01*
X106059000Y-82218000D02*
X106151000Y-82310000D01*
D43*
X126795000Y-85120000D02*
X126795000Y-84351950D01*
D44*
X104322200Y-82375000D02*
X104479200Y-82218000D01*
X104479200Y-82218000D02*
X106059000Y-82218000D01*
D43*
X126277050Y-83834000D02*
X126217000Y-83834000D01*
%TO.N,/M1_MODE0*%
X123820000Y-88095000D02*
X122410459Y-88095000D01*
X122410459Y-88095000D02*
X122350759Y-88035300D01*
D44*
X103357000Y-82056000D02*
X103001400Y-82411600D01*
X103001400Y-82411600D02*
X103001400Y-83178600D01*
%TO.N,Net-(U401-RNF1)*%
X98378600Y-89828400D02*
X97769000Y-90438000D01*
X97718200Y-89071400D02*
X97718200Y-90569093D01*
X98378600Y-89071400D02*
X98378600Y-89828400D01*
X97769000Y-90438000D02*
X97769000Y-90619893D01*
X97718200Y-90569093D02*
X97769000Y-90619893D01*
%TO.N,Net-(U401-RNF2)*%
X97467318Y-81715243D02*
X97718200Y-81966125D01*
X97718200Y-81966125D02*
X98378600Y-82626525D01*
X98378600Y-82626525D02*
X98378600Y-83178600D01*
X97718200Y-81966125D02*
X97718200Y-83178600D01*
%TO.N,Net-(U402-RNF1)*%
X177069871Y-85041529D02*
X177069871Y-84270000D01*
X176392800Y-85718600D02*
X177069871Y-85041529D01*
%TO.N,Net-(U402-RNF2)*%
X176964030Y-92182630D02*
X176964030Y-92883892D01*
X176392800Y-91611400D02*
X176964030Y-92182630D01*
X177053200Y-92794722D02*
X176964030Y-92883892D01*
X177053200Y-91611400D02*
X177053200Y-92794722D01*
%TO.N,/DRIVERS/M1_MTH*%
X108130000Y-91200000D02*
X107849000Y-91481000D01*
X103818800Y-90032000D02*
X103661800Y-89875000D01*
X103661800Y-89875000D02*
X103661800Y-89071400D01*
X108130000Y-91200000D02*
X106151000Y-91200000D01*
X106151000Y-91200000D02*
X104983000Y-90032000D01*
X107849000Y-91481000D02*
X107849000Y-93994000D01*
X104983000Y-90032000D02*
X103818800Y-90032000D01*
%TO.N,/DRIVERS/M1_VREF*%
X104322200Y-89071400D02*
X104322200Y-88161800D01*
X104322200Y-88161800D02*
X105094000Y-87390000D01*
X108130000Y-87390000D02*
X107849000Y-87109000D01*
X107849000Y-87109000D02*
X107849000Y-84596000D01*
X105094000Y-87390000D02*
X108130000Y-87390000D01*
%TO.N,/DRIVERS/M2_MTH*%
X169596178Y-83585000D02*
X166730000Y-83585000D01*
X171109600Y-85718600D02*
X171109600Y-85098422D01*
X167071000Y-83244000D02*
X166730000Y-83585000D01*
X171109600Y-85098422D02*
X169596178Y-83585000D01*
X167071000Y-80791000D02*
X167071000Y-83244000D01*
%TO.N,/DRIVERS/M2_VREF*%
X170449200Y-86628200D02*
X170449200Y-85718600D01*
X169682400Y-87395000D02*
X170449200Y-86628200D01*
X167020200Y-87685200D02*
X166730000Y-87395000D01*
X167020200Y-90189000D02*
X167020200Y-87685200D01*
X166730000Y-87395000D02*
X169682400Y-87395000D01*
D43*
%TO.N,/MCU/INI1*%
X157205000Y-87073000D02*
X157205000Y-84850000D01*
X125144000Y-90495000D02*
X125201000Y-90438000D01*
X123820000Y-90495000D02*
X125144000Y-90495000D01*
%TO.N,/MCU/INI2*%
X123820000Y-91295000D02*
X125201000Y-91295000D01*
X154665000Y-87073000D02*
X154665000Y-84850000D01*
%TO.N,/MCU/INI3*%
X132170000Y-91295000D02*
X133563991Y-91295000D01*
X152125000Y-87073000D02*
X152125000Y-84850000D01*
X133563991Y-91295000D02*
X133583000Y-91314009D01*
%TO.N,/MCU/INI4*%
X132170000Y-90495000D02*
X133563994Y-90495000D01*
X133563994Y-90495000D02*
X133583000Y-90514006D01*
X149585000Y-87073000D02*
X149585000Y-84850000D01*
%TO.N,/MCU/INI5*%
X147045000Y-87073000D02*
X147045000Y-84850000D01*
X133563997Y-89695000D02*
X133583000Y-89714003D01*
X132170000Y-89695000D02*
X133563997Y-89695000D01*
%TO.N,/MCU/INI6*%
X133564000Y-88895000D02*
X133583000Y-88914000D01*
X144505000Y-87073000D02*
X144505000Y-84850000D01*
X132170000Y-88895000D02*
X133564000Y-88895000D01*
%TO.N,/MCU/INI7*%
X133564003Y-88095000D02*
X133583000Y-88113997D01*
X132170000Y-88095000D02*
X133564003Y-88095000D01*
X141965000Y-87073000D02*
X141965000Y-84850000D01*
%TD*%
%TA.AperFunction,Conductor*%
%TO.N,/MCU/NRST*%
G36*
X127591331Y-81291973D02*
G01*
X128099218Y-81422738D01*
X128106375Y-81428119D01*
X128108000Y-81434068D01*
X128108000Y-81915931D01*
X128104573Y-81924204D01*
X128099217Y-81927261D01*
X127591337Y-82058025D01*
X127582471Y-82056770D01*
X127579795Y-82054601D01*
X127239240Y-81682902D01*
X127236179Y-81674489D01*
X127239240Y-81667097D01*
X127579795Y-81295398D01*
X127587909Y-81291615D01*
X127591331Y-81291973D01*
G37*
%TD.AperFunction*%
%TD*%
%TA.AperFunction,Conductor*%
%TO.N,/MCU/NRST*%
G36*
X128421030Y-81195944D02*
G01*
X128425596Y-81199475D01*
X128752381Y-81617808D01*
X128754774Y-81626438D01*
X128752392Y-81632200D01*
X128425458Y-82052014D01*
X128417671Y-82056436D01*
X128413652Y-82056238D01*
X127841125Y-81927058D01*
X127833809Y-81921894D01*
X127832000Y-81915645D01*
X127832000Y-81432956D01*
X127835427Y-81424683D01*
X127839398Y-81422076D01*
X128412077Y-81195797D01*
X128421030Y-81195944D01*
G37*
%TD.AperFunction*%
%TD*%
%TA.AperFunction,Conductor*%
%TO.N,/MCU/NRST*%
G36*
X128751338Y-81623638D02*
G01*
X128759374Y-81627585D01*
X128760221Y-81628669D01*
X129055285Y-82056385D01*
X129057162Y-82065141D01*
X129054030Y-82071198D01*
X128677526Y-82457220D01*
X128656412Y-82478870D01*
X128648444Y-82487039D01*
X128640214Y-82490569D01*
X128640068Y-82490570D01*
X128158623Y-82490570D01*
X128150350Y-82487143D01*
X128146923Y-82478870D01*
X128147057Y-82477103D01*
X128211318Y-82056385D01*
X128280382Y-81604224D01*
X128285019Y-81596565D01*
X128292692Y-81594316D01*
X128751338Y-81623638D01*
G37*
%TD.AperFunction*%
%TD*%
%TA.AperFunction,Conductor*%
%TO.N,GNDREF*%
G36*
X121564084Y-93043347D02*
G01*
X121567868Y-93046512D01*
X121894401Y-93465811D01*
X121896781Y-93474444D01*
X121894401Y-93480189D01*
X121567868Y-93899487D01*
X121560081Y-93903909D01*
X121555167Y-93903472D01*
X120982230Y-93725555D01*
X120975346Y-93719828D01*
X120974000Y-93714381D01*
X120974000Y-93231618D01*
X120977427Y-93223345D01*
X120982228Y-93220444D01*
X121555167Y-93042527D01*
X121564084Y-93043347D01*
G37*
%TD.AperFunction*%
%TD*%
%TA.AperFunction,Conductor*%
%TO.N,GNDREF*%
G36*
X120718832Y-93042527D02*
G01*
X120731665Y-93046512D01*
X121291770Y-93220444D01*
X121298654Y-93226171D01*
X121300000Y-93231618D01*
X121300000Y-93714381D01*
X121296573Y-93722654D01*
X121291770Y-93725555D01*
X120718832Y-93903472D01*
X120709915Y-93902652D01*
X120706131Y-93899487D01*
X120561978Y-93714381D01*
X120379597Y-93480188D01*
X120377218Y-93471556D01*
X120379597Y-93465812D01*
X120706132Y-93046511D01*
X120713918Y-93042090D01*
X120718832Y-93042527D01*
G37*
%TD.AperFunction*%
%TD*%
%TA.AperFunction,Conductor*%
%TO.N,GNDREF*%
G36*
X125958945Y-79178427D02*
G01*
X125961727Y-79182869D01*
X126156145Y-79743877D01*
X126155616Y-79752816D01*
X126151925Y-79757204D01*
X125715835Y-80071080D01*
X125707118Y-80073132D01*
X125702165Y-80071080D01*
X125266074Y-79757204D01*
X125261361Y-79749590D01*
X125261854Y-79743877D01*
X125456273Y-79182869D01*
X125462220Y-79176174D01*
X125467328Y-79175000D01*
X125950672Y-79175000D01*
X125958945Y-79178427D01*
G37*
%TD.AperFunction*%
%TD*%
%TA.AperFunction,Conductor*%
%TO.N,GNDREF*%
G36*
X125993039Y-79064464D02*
G01*
X126000468Y-79069464D01*
X126002379Y-79076895D01*
X125959887Y-79591499D01*
X125955791Y-79599462D01*
X125948227Y-79602236D01*
X125469773Y-79602236D01*
X125461500Y-79598809D01*
X125458113Y-79591499D01*
X125415620Y-79076895D01*
X125418354Y-79068368D01*
X125424959Y-79064464D01*
X125706682Y-79007469D01*
X125711318Y-79007469D01*
X125993039Y-79064464D01*
G37*
%TD.AperFunction*%
%TD*%
%TA.AperFunction,Conductor*%
%TO.N,GNDREF*%
G36*
X103450112Y-90188913D02*
G01*
X103502208Y-90212181D01*
X103505707Y-90214589D01*
X103603588Y-90312470D01*
X103603589Y-90312471D01*
X103603591Y-90312472D01*
X103683509Y-90358613D01*
X103683513Y-90358615D01*
X103753815Y-90377451D01*
X103772653Y-90382499D01*
X103772655Y-90382500D01*
X103772656Y-90382500D01*
X103772657Y-90382500D01*
X103864944Y-90382500D01*
X103881046Y-90382500D01*
X103885816Y-90383516D01*
X104073241Y-90467228D01*
X104079398Y-90473731D01*
X104079966Y-90480085D01*
X103992885Y-90940476D01*
X103987980Y-90947969D01*
X103985843Y-90949121D01*
X103601017Y-91107560D01*
X103592063Y-91107541D01*
X103586118Y-91102013D01*
X103234445Y-90405319D01*
X103233776Y-90396389D01*
X103236615Y-90391776D01*
X103437069Y-90191322D01*
X103445341Y-90187896D01*
X103450112Y-90188913D01*
G37*
%TD.AperFunction*%
%TD*%
%TA.AperFunction,Conductor*%
%TO.N,GNDREF*%
G36*
X165204025Y-80349214D02*
G01*
X165517080Y-80784165D01*
X165519132Y-80792882D01*
X165517080Y-80797835D01*
X165204025Y-81232785D01*
X165196411Y-81237498D01*
X165189133Y-81236331D01*
X164627304Y-80944277D01*
X164621544Y-80937421D01*
X164621000Y-80933896D01*
X164621000Y-80648103D01*
X164624427Y-80639830D01*
X164627299Y-80637725D01*
X165189133Y-80345667D01*
X165198054Y-80344893D01*
X165204025Y-80349214D01*
G37*
%TD.AperFunction*%
%TD*%
%TA.AperFunction,Conductor*%
%TO.N,GNDREF*%
G36*
X164387623Y-80495133D02*
G01*
X164902676Y-80638615D01*
X164909726Y-80644136D01*
X164911236Y-80649886D01*
X164911236Y-80931952D01*
X164907809Y-80940225D01*
X164902479Y-80943276D01*
X164387487Y-81077127D01*
X164378618Y-81075891D01*
X164373220Y-81068746D01*
X164373076Y-81068123D01*
X164347818Y-80943276D01*
X164316469Y-80788318D01*
X164316469Y-80783680D01*
X164343537Y-80649886D01*
X164373033Y-80504087D01*
X164378033Y-80496660D01*
X164386821Y-80494941D01*
X164387623Y-80495133D01*
G37*
%TD.AperFunction*%
%TD*%
%TA.AperFunction,Conductor*%
%TO.N,GNDREF*%
G36*
X124434945Y-79178427D02*
G01*
X124437727Y-79182869D01*
X124632145Y-79743877D01*
X124631616Y-79752816D01*
X124627925Y-79757204D01*
X124191835Y-80071080D01*
X124183118Y-80073132D01*
X124178165Y-80071080D01*
X123742074Y-79757204D01*
X123737361Y-79749590D01*
X123737854Y-79743877D01*
X123932273Y-79182869D01*
X123938220Y-79176174D01*
X123943328Y-79175000D01*
X124426672Y-79175000D01*
X124434945Y-79178427D01*
G37*
%TD.AperFunction*%
%TD*%
%TA.AperFunction,Conductor*%
%TO.N,GNDREF*%
G36*
X124469039Y-79064464D02*
G01*
X124476468Y-79069464D01*
X124478379Y-79076895D01*
X124435887Y-79591499D01*
X124431791Y-79599462D01*
X124424227Y-79602236D01*
X123945773Y-79602236D01*
X123937500Y-79598809D01*
X123934113Y-79591499D01*
X123891620Y-79076895D01*
X123894354Y-79068368D01*
X123900959Y-79064464D01*
X124182682Y-79007469D01*
X124187318Y-79007469D01*
X124469039Y-79064464D01*
G37*
%TD.AperFunction*%
%TD*%
%TA.AperFunction,Conductor*%
%TO.N,GNDREF*%
G36*
X103804999Y-83840513D02*
G01*
X103808426Y-83848786D01*
X103808060Y-83851685D01*
X103708042Y-84242166D01*
X103447518Y-85259283D01*
X103442146Y-85266447D01*
X103439671Y-85267548D01*
X100708164Y-86120328D01*
X100699245Y-86119523D01*
X100693509Y-86112647D01*
X100693137Y-86107235D01*
X100931061Y-84684195D01*
X100935804Y-84676603D01*
X100938971Y-84675004D01*
X103044504Y-83989274D01*
X103048126Y-83988700D01*
X103173547Y-83988700D01*
X103173548Y-83988700D01*
X103232031Y-83977067D01*
X103298352Y-83932752D01*
X103318434Y-83902696D01*
X103324536Y-83898073D01*
X103510034Y-83837660D01*
X103513657Y-83837086D01*
X103796726Y-83837086D01*
X103804999Y-83840513D01*
G37*
%TD.AperFunction*%
%TD*%
%TA.AperFunction,Conductor*%
%TO.N,GNDREF*%
G36*
X103169462Y-84584086D02*
G01*
X103368913Y-84783537D01*
X103372340Y-84791810D01*
X103370780Y-84797648D01*
X103104660Y-85259867D01*
X103097562Y-85265327D01*
X103088682Y-85264169D01*
X103088052Y-85263778D01*
X102850265Y-85106015D01*
X102846984Y-85102734D01*
X102689221Y-84864947D01*
X102687502Y-84856159D01*
X102692502Y-84848730D01*
X102693132Y-84848339D01*
X103155353Y-84582218D01*
X103164231Y-84581061D01*
X103169462Y-84584086D01*
G37*
%TD.AperFunction*%
%TD*%
%TA.AperFunction,Conductor*%
%TO.N,GNDREF*%
G36*
X171922331Y-86218274D02*
G01*
X172070699Y-86286678D01*
X172076777Y-86293254D01*
X172077500Y-86297303D01*
X172077500Y-86347947D01*
X172089133Y-86406431D01*
X172100199Y-86422993D01*
X172133448Y-86472752D01*
X172199769Y-86517067D01*
X172258252Y-86528700D01*
X172258253Y-86528700D01*
X172593077Y-86528700D01*
X172597975Y-86529774D01*
X174069267Y-87208102D01*
X174082160Y-87214046D01*
X174088238Y-87220622D01*
X174088961Y-87224732D01*
X174081501Y-88646702D01*
X174078031Y-88654957D01*
X174069740Y-88658341D01*
X174064336Y-88656986D01*
X171347136Y-87221614D01*
X171341422Y-87214720D01*
X171341338Y-87208103D01*
X171617600Y-86225732D01*
X171623138Y-86218696D01*
X171628863Y-86217200D01*
X171917433Y-86217200D01*
X171922331Y-86218274D01*
G37*
%TD.AperFunction*%
%TD*%
%TA.AperFunction,Conductor*%
%TO.N,GNDREF*%
G36*
X171922165Y-87098315D02*
G01*
X171923490Y-87099898D01*
X172179640Y-87467567D01*
X172181557Y-87476314D01*
X172176728Y-87483855D01*
X172176567Y-87483965D01*
X171938963Y-87643680D01*
X171934681Y-87645453D01*
X171656188Y-87699902D01*
X171647411Y-87698126D01*
X171642460Y-87690664D01*
X171642252Y-87688868D01*
X171620455Y-87107026D01*
X171623570Y-87098630D01*
X171631709Y-87094896D01*
X171632147Y-87094888D01*
X171913892Y-87094888D01*
X171922165Y-87098315D01*
G37*
%TD.AperFunction*%
%TD*%
%TA.AperFunction,Conductor*%
%TO.N,GNDREF*%
G36*
X103998902Y-90952240D02*
G01*
X104328200Y-91253947D01*
X104369547Y-91291830D01*
X104373332Y-91299946D01*
X104372318Y-91305245D01*
X104144100Y-91814088D01*
X104137588Y-91820234D01*
X104133425Y-91821000D01*
X103848575Y-91821000D01*
X103840302Y-91817573D01*
X103837900Y-91814088D01*
X103609681Y-91305245D01*
X103609422Y-91296294D01*
X103612450Y-91291832D01*
X103983097Y-90952240D01*
X103991511Y-90949179D01*
X103998902Y-90952240D01*
G37*
%TD.AperFunction*%
%TD*%
%TA.AperFunction,Conductor*%
%TO.N,GNDREF*%
G36*
X104141318Y-91548427D02*
G01*
X104143925Y-91552398D01*
X104370650Y-92125746D01*
X104370506Y-92134699D01*
X104366959Y-92139279D01*
X103948200Y-92465392D01*
X103939567Y-92467772D01*
X103933808Y-92465381D01*
X103680521Y-92267523D01*
X103516522Y-92139413D01*
X103512113Y-92131622D01*
X103513539Y-92124441D01*
X103837641Y-91550944D01*
X103844695Y-91545427D01*
X103847827Y-91545000D01*
X104133045Y-91545000D01*
X104141318Y-91548427D01*
G37*
%TD.AperFunction*%
%TD*%
%TA.AperFunction,Conductor*%
%TO.N,GNDREF*%
G36*
X136118854Y-84498427D02*
G01*
X136121675Y-84502982D01*
X136266536Y-84935253D01*
X136265915Y-84944187D01*
X136263189Y-84947739D01*
X135876747Y-85289155D01*
X135868278Y-85292065D01*
X135861253Y-85289155D01*
X135474810Y-84947739D01*
X135470879Y-84939693D01*
X135471462Y-84935258D01*
X135616325Y-84502981D01*
X135622203Y-84496227D01*
X135627419Y-84495000D01*
X136110581Y-84495000D01*
X136118854Y-84498427D01*
G37*
%TD.AperFunction*%
%TD*%
%TA.AperFunction,Conductor*%
%TO.N,GNDREF*%
G36*
X136153039Y-84017464D02*
G01*
X136160468Y-84022464D01*
X136162379Y-84029895D01*
X136119887Y-84544499D01*
X136115791Y-84552462D01*
X136108227Y-84555236D01*
X135629773Y-84555236D01*
X135621500Y-84551809D01*
X135618113Y-84544499D01*
X135575620Y-84029895D01*
X135578354Y-84021368D01*
X135584959Y-84017464D01*
X135866682Y-83960469D01*
X135871318Y-83960469D01*
X136153039Y-84017464D01*
G37*
%TD.AperFunction*%
%TD*%
%TA.AperFunction,Conductor*%
%TO.N,GNDREF*%
G36*
X109730122Y-84148854D02*
G01*
X110291132Y-84343273D01*
X110297826Y-84349219D01*
X110299000Y-84354327D01*
X110299000Y-84837672D01*
X110295573Y-84845945D01*
X110291131Y-84848727D01*
X109730122Y-85043145D01*
X109721183Y-85042616D01*
X109716795Y-85038925D01*
X109402919Y-84602835D01*
X109400867Y-84594118D01*
X109402919Y-84589165D01*
X109716795Y-84153073D01*
X109724409Y-84148361D01*
X109730122Y-84148854D01*
G37*
%TD.AperFunction*%
%TD*%
%TA.AperFunction,Conductor*%
%TO.N,GNDREF*%
G36*
X110408631Y-84305354D02*
G01*
X110412535Y-84311960D01*
X110469530Y-84593680D01*
X110469530Y-84598320D01*
X110412535Y-84880039D01*
X110407535Y-84887468D01*
X110400104Y-84889379D01*
X109885501Y-84846886D01*
X109877538Y-84842790D01*
X109874764Y-84835226D01*
X109874764Y-84356773D01*
X109878191Y-84348500D01*
X109885499Y-84345113D01*
X110400104Y-84302620D01*
X110408631Y-84305354D01*
G37*
%TD.AperFunction*%
%TD*%
%TA.AperFunction,Conductor*%
%TO.N,GNDREF*%
G36*
X117232884Y-78410241D02*
G01*
X117240078Y-78415574D01*
X117241393Y-78424432D01*
X117241124Y-78425346D01*
X116809819Y-79698250D01*
X116807011Y-79702768D01*
X116114829Y-80394950D01*
X116106556Y-80398377D01*
X116098283Y-80394950D01*
X116095560Y-80390674D01*
X115381233Y-78425515D01*
X115381627Y-78416569D01*
X115388232Y-78410522D01*
X115389372Y-78410172D01*
X116307453Y-78180004D01*
X116313133Y-78180004D01*
X117232884Y-78410241D01*
G37*
%TD.AperFunction*%
%TD*%
%TA.AperFunction,Conductor*%
%TO.N,GNDREF*%
G36*
X110787259Y-89607247D02*
G01*
X111372648Y-90191662D01*
X111376082Y-90199932D01*
X111372662Y-90208208D01*
X111372591Y-90208279D01*
X110787450Y-90784472D01*
X110779151Y-90787835D01*
X110771875Y-90785225D01*
X110219334Y-90337511D01*
X110215064Y-90329640D01*
X110215000Y-90328421D01*
X110215000Y-90039766D01*
X110218427Y-90031493D01*
X110219573Y-90030487D01*
X110770566Y-89607247D01*
X110771866Y-89606247D01*
X110780514Y-89603926D01*
X110787259Y-89607247D01*
G37*
%TD.AperFunction*%
%TD*%
%TA.AperFunction,Conductor*%
%TO.N,GNDREF*%
G36*
X110285564Y-89893005D02*
G01*
X110318910Y-89901983D01*
X110800579Y-90031669D01*
X110807676Y-90037128D01*
X110809236Y-90042966D01*
X110809236Y-90325033D01*
X110805809Y-90333306D01*
X110800578Y-90336331D01*
X110285564Y-90474994D01*
X110276684Y-90473836D01*
X110271224Y-90466738D01*
X110271059Y-90466039D01*
X110214469Y-90186318D01*
X110214469Y-90181680D01*
X110271055Y-89901980D01*
X110276054Y-89894554D01*
X110284842Y-89892835D01*
X110285564Y-89893005D01*
G37*
%TD.AperFunction*%
%TD*%
%TA.AperFunction,Conductor*%
%TO.N,GNDREF*%
G36*
X132672632Y-81223018D02*
G01*
X133059423Y-81462153D01*
X133061543Y-81463832D01*
X133401710Y-81803999D01*
X133405137Y-81812272D01*
X133401710Y-81820545D01*
X133397882Y-81823095D01*
X132702334Y-82108764D01*
X132693379Y-82108737D01*
X132688689Y-82105169D01*
X132356580Y-81682436D01*
X132354163Y-81673813D01*
X132356104Y-81668631D01*
X132656805Y-81226389D01*
X132664289Y-81221477D01*
X132672632Y-81223018D01*
G37*
%TD.AperFunction*%
%TD*%
%TA.AperFunction,Conductor*%
%TO.N,GNDREF*%
G36*
X133266830Y-81258611D02*
G01*
X133272723Y-81265353D01*
X133273105Y-81266775D01*
X133330000Y-81548000D01*
X133330015Y-81548075D01*
X133385139Y-81830026D01*
X133383363Y-81838803D01*
X133375901Y-81843754D01*
X133375193Y-81843870D01*
X132776364Y-81923245D01*
X132767713Y-81920935D01*
X132763228Y-81913183D01*
X132763127Y-81911646D01*
X132763127Y-81433400D01*
X132766554Y-81425127D01*
X132771085Y-81422314D01*
X133231923Y-81266775D01*
X133257895Y-81258009D01*
X133266830Y-81258611D01*
G37*
%TD.AperFunction*%
%TD*%
%TA.AperFunction,Conductor*%
%TO.N,GNDREF*%
G36*
X100707060Y-86133012D02*
G01*
X103424263Y-87568385D01*
X103429977Y-87575279D01*
X103430061Y-87581897D01*
X103242328Y-88249465D01*
X103172789Y-88496744D01*
X103153800Y-88564267D01*
X103148262Y-88571304D01*
X103142537Y-88572800D01*
X102853967Y-88572800D01*
X102849068Y-88571725D01*
X102700701Y-88503320D01*
X102694623Y-88496744D01*
X102693900Y-88492695D01*
X102693900Y-88442052D01*
X102691500Y-88429986D01*
X102682267Y-88383569D01*
X102637952Y-88317248D01*
X102571631Y-88272933D01*
X102513148Y-88261300D01*
X102178323Y-88261300D01*
X102173424Y-88260225D01*
X101713128Y-88048009D01*
X100689239Y-87575953D01*
X100683161Y-87569377D01*
X100682438Y-87565269D01*
X100689898Y-86143295D01*
X100693368Y-86135042D01*
X100701659Y-86131658D01*
X100707060Y-86133012D01*
G37*
%TD.AperFunction*%
%TD*%
%TA.AperFunction,Conductor*%
%TO.N,GNDREF*%
G36*
X103138255Y-87081938D02*
G01*
X103143206Y-87089400D01*
X103143422Y-87091489D01*
X103151242Y-87679496D01*
X103147925Y-87687814D01*
X103139699Y-87691351D01*
X103139543Y-87691352D01*
X102857760Y-87691352D01*
X102849487Y-87687925D01*
X102847941Y-87686014D01*
X102605814Y-87312325D01*
X102604191Y-87303519D01*
X102609105Y-87296254D01*
X102847040Y-87136317D01*
X102851314Y-87134547D01*
X103129480Y-87080162D01*
X103138255Y-87081938D01*
G37*
%TD.AperFunction*%
%TD*%
%TA.AperFunction,Conductor*%
%TO.N,GNDREF*%
G36*
X169527052Y-94445384D02*
G01*
X170400185Y-94538857D01*
X170408047Y-94543146D01*
X170410637Y-94550734D01*
X170401119Y-95009222D01*
X170397522Y-95017422D01*
X170396340Y-95018415D01*
X169971545Y-95329871D01*
X169962847Y-95331999D01*
X169956947Y-95329262D01*
X169518143Y-94947497D01*
X169514151Y-94939481D01*
X169514123Y-94938670D01*
X169514123Y-94457019D01*
X169517550Y-94448746D01*
X169525823Y-94445319D01*
X169527052Y-94445384D01*
G37*
%TD.AperFunction*%
%TD*%
%TA.AperFunction,Conductor*%
%TO.N,GNDREF*%
G36*
X101578851Y-86980445D02*
G01*
X101579902Y-86982411D01*
X101823834Y-87566734D01*
X101823859Y-87575688D01*
X101817544Y-87582038D01*
X101813037Y-87582941D01*
X101533512Y-87582941D01*
X101528029Y-87581577D01*
X101169747Y-87391498D01*
X101164044Y-87384593D01*
X101164894Y-87375679D01*
X101165485Y-87374688D01*
X101323696Y-87136958D01*
X101326959Y-87133698D01*
X101562632Y-86977171D01*
X101571419Y-86975449D01*
X101578851Y-86980445D01*
G37*
%TD.AperFunction*%
%TD*%
%TA.AperFunction,Conductor*%
%TO.N,GNDREF*%
G36*
X170595878Y-81921215D02*
G01*
X170976997Y-82196990D01*
X170981690Y-82204616D01*
X170980161Y-82212504D01*
X170713450Y-82655492D01*
X170706247Y-82660812D01*
X170699388Y-82660438D01*
X170391306Y-82547126D01*
X170387072Y-82544418D01*
X170184956Y-82342302D01*
X170181529Y-82334029D01*
X170184877Y-82325836D01*
X170580671Y-81922498D01*
X170588910Y-81918996D01*
X170595878Y-81921215D01*
G37*
%TD.AperFunction*%
%TD*%
%TA.AperFunction,Conductor*%
%TO.N,GNDREF*%
G36*
X170225462Y-82298086D02*
G01*
X170424913Y-82497537D01*
X170428340Y-82505810D01*
X170426780Y-82511648D01*
X170160660Y-82973867D01*
X170153562Y-82979327D01*
X170144682Y-82978169D01*
X170144052Y-82977778D01*
X169906265Y-82820015D01*
X169902984Y-82816734D01*
X169745221Y-82578947D01*
X169743502Y-82570159D01*
X169748502Y-82562730D01*
X169749132Y-82562339D01*
X170211353Y-82296218D01*
X170220231Y-82295061D01*
X170225462Y-82298086D01*
G37*
%TD.AperFunction*%
%TD*%
%TA.AperFunction,Conductor*%
%TO.N,GNDREF*%
G36*
X165153225Y-89747214D02*
G01*
X165466280Y-90182165D01*
X165468332Y-90190882D01*
X165466280Y-90195835D01*
X165153225Y-90630785D01*
X165145611Y-90635498D01*
X165138333Y-90634331D01*
X164576504Y-90342277D01*
X164570744Y-90335421D01*
X164570200Y-90331896D01*
X164570200Y-90046103D01*
X164573627Y-90037830D01*
X164576499Y-90035725D01*
X165138333Y-89743667D01*
X165147254Y-89742893D01*
X165153225Y-89747214D01*
G37*
%TD.AperFunction*%
%TD*%
%TA.AperFunction,Conductor*%
%TO.N,GNDREF*%
G36*
X164387623Y-89893133D02*
G01*
X164902676Y-90036615D01*
X164909726Y-90042136D01*
X164911236Y-90047886D01*
X164911236Y-90329952D01*
X164907809Y-90338225D01*
X164902479Y-90341276D01*
X164387487Y-90475127D01*
X164378618Y-90473891D01*
X164373220Y-90466746D01*
X164373076Y-90466123D01*
X164347818Y-90341276D01*
X164316469Y-90186318D01*
X164316469Y-90181680D01*
X164343537Y-90047886D01*
X164373033Y-89902087D01*
X164378033Y-89894660D01*
X164386821Y-89892941D01*
X164387623Y-89893133D01*
G37*
%TD.AperFunction*%
%TD*%
%TA.AperFunction,Conductor*%
%TO.N,GNDREF*%
G36*
X171455559Y-89731760D02*
G01*
X171462988Y-89736760D01*
X171464707Y-89745548D01*
X171464127Y-89747511D01*
X171262518Y-90259972D01*
X171256300Y-90266417D01*
X171251630Y-90267389D01*
X170969696Y-90267389D01*
X170961423Y-90263962D01*
X170958122Y-90257401D01*
X170882685Y-89747511D01*
X170882388Y-89745505D01*
X170884567Y-89736821D01*
X170891641Y-89732326D01*
X171172682Y-89675469D01*
X171177318Y-89675469D01*
X171455559Y-89731760D01*
G37*
%TD.AperFunction*%
%TD*%
%TA.AperFunction,Conductor*%
%TO.N,GNDREF*%
G36*
X125374084Y-79645347D02*
G01*
X125377868Y-79648512D01*
X125704401Y-80067811D01*
X125706781Y-80076444D01*
X125704401Y-80082189D01*
X125377868Y-80501487D01*
X125370081Y-80505909D01*
X125365167Y-80505472D01*
X124792230Y-80327555D01*
X124785346Y-80321828D01*
X124784000Y-80316381D01*
X124784000Y-79833618D01*
X124787427Y-79825345D01*
X124792228Y-79822444D01*
X125365167Y-79644527D01*
X125374084Y-79645347D01*
G37*
%TD.AperFunction*%
%TD*%
%TA.AperFunction,Conductor*%
%TO.N,GNDREF*%
G36*
X124528832Y-79644527D02*
G01*
X124541665Y-79648512D01*
X125101770Y-79822444D01*
X125108654Y-79828171D01*
X125110000Y-79833618D01*
X125110000Y-80316381D01*
X125106573Y-80324654D01*
X125101770Y-80327555D01*
X124528832Y-80505472D01*
X124519915Y-80504652D01*
X124516131Y-80501487D01*
X124371978Y-80316381D01*
X124189597Y-80082188D01*
X124187218Y-80073556D01*
X124189597Y-80067812D01*
X124516132Y-79648511D01*
X124523918Y-79644090D01*
X124528832Y-79644527D01*
G37*
%TD.AperFunction*%
%TD*%
%TA.AperFunction,Conductor*%
%TO.N,GNDREF*%
G36*
X122148945Y-92576427D02*
G01*
X122151727Y-92580869D01*
X122346145Y-93141877D01*
X122345616Y-93150816D01*
X122341925Y-93155204D01*
X121905835Y-93469080D01*
X121897118Y-93471132D01*
X121892165Y-93469080D01*
X121456074Y-93155204D01*
X121451361Y-93147590D01*
X121451854Y-93141877D01*
X121646273Y-92580869D01*
X121652220Y-92574174D01*
X121657328Y-92573000D01*
X122140672Y-92573000D01*
X122148945Y-92576427D01*
G37*
%TD.AperFunction*%
%TD*%
%TA.AperFunction,Conductor*%
%TO.N,GNDREF*%
G36*
X122183039Y-92272464D02*
G01*
X122190468Y-92277464D01*
X122192379Y-92284895D01*
X122149887Y-92799499D01*
X122145791Y-92807462D01*
X122138227Y-92810236D01*
X121659773Y-92810236D01*
X121651500Y-92806809D01*
X121648113Y-92799499D01*
X121605620Y-92284895D01*
X121608354Y-92276368D01*
X121614959Y-92272464D01*
X121896682Y-92215469D01*
X121901318Y-92215469D01*
X122183039Y-92272464D01*
G37*
%TD.AperFunction*%
%TD*%
%TA.AperFunction,Conductor*%
%TO.N,GNDREF*%
G36*
X173243919Y-86219539D02*
G01*
X173393621Y-86331823D01*
X173398182Y-86339527D01*
X173398300Y-86341181D01*
X173398300Y-86347947D01*
X173409933Y-86406431D01*
X173420999Y-86422993D01*
X173454248Y-86472752D01*
X173520569Y-86517067D01*
X173579052Y-86528700D01*
X173579053Y-86528700D01*
X173652206Y-86528700D01*
X173659226Y-86531040D01*
X174567256Y-87212107D01*
X174571818Y-87219813D01*
X174571313Y-87225234D01*
X174087010Y-88649499D01*
X174081102Y-88656228D01*
X174072166Y-88656809D01*
X174068252Y-88654558D01*
X172423577Y-87223269D01*
X172419586Y-87215253D01*
X172420894Y-87209013D01*
X172937514Y-86223467D01*
X172944391Y-86217732D01*
X172947877Y-86217200D01*
X173236900Y-86217200D01*
X173243919Y-86219539D01*
G37*
%TD.AperFunction*%
%TD*%
%TA.AperFunction,Conductor*%
%TO.N,GNDREF*%
G36*
X173243253Y-87204320D02*
G01*
X173274067Y-87219569D01*
X173615752Y-87388661D01*
X173621647Y-87395401D01*
X173621049Y-87404335D01*
X173620303Y-87405628D01*
X173462304Y-87643039D01*
X173459037Y-87646303D01*
X173223086Y-87803014D01*
X173214299Y-87804737D01*
X173206867Y-87799741D01*
X173205926Y-87798031D01*
X172948137Y-87219569D01*
X172947900Y-87210617D01*
X172954061Y-87204119D01*
X172958824Y-87203106D01*
X173238064Y-87203106D01*
X173243253Y-87204320D01*
G37*
%TD.AperFunction*%
%TD*%
%TA.AperFunction,Conductor*%
%TO.N,GNDREF*%
G36*
X170379192Y-83075206D02*
G01*
X171132499Y-83250363D01*
X171139781Y-83255574D01*
X171141258Y-83264352D01*
X171036917Y-83723381D01*
X171031742Y-83730689D01*
X171030847Y-83731199D01*
X170594533Y-83954967D01*
X170585608Y-83955693D01*
X170579292Y-83950789D01*
X170165710Y-83293770D01*
X170164203Y-83284943D01*
X170167337Y-83279266D01*
X170368274Y-83078329D01*
X170376546Y-83074903D01*
X170379192Y-83075206D01*
G37*
%TD.AperFunction*%
%TD*%
%TA.AperFunction,Conductor*%
%TO.N,GNDREF*%
G36*
X170160269Y-82661502D02*
G01*
X170160660Y-82662132D01*
X170426780Y-83124351D01*
X170427938Y-83133231D01*
X170424913Y-83138462D01*
X170225462Y-83337913D01*
X170217189Y-83341340D01*
X170211351Y-83339780D01*
X169749132Y-83073660D01*
X169743672Y-83066562D01*
X169744830Y-83057682D01*
X169745210Y-83057068D01*
X169902985Y-82819263D01*
X169906263Y-82815985D01*
X170144053Y-82658220D01*
X170152840Y-82656502D01*
X170160269Y-82661502D01*
G37*
%TD.AperFunction*%
%TD*%
%TA.AperFunction,Conductor*%
%TO.N,GNDREF*%
G36*
X122242948Y-93042736D02*
G01*
X122815994Y-93233337D01*
X122822761Y-93239199D01*
X122824000Y-93244438D01*
X122824000Y-93727197D01*
X122820573Y-93735470D01*
X122815543Y-93738439D01*
X122242712Y-93903678D01*
X122233813Y-93902678D01*
X122230238Y-93899625D01*
X122104713Y-93738439D01*
X121903597Y-93480188D01*
X121901218Y-93471556D01*
X121903597Y-93465812D01*
X122230025Y-93046648D01*
X122237811Y-93042227D01*
X122242948Y-93042736D01*
G37*
%TD.AperFunction*%
%TD*%
%TA.AperFunction,Conductor*%
%TO.N,GNDREF*%
G36*
X123088084Y-93056347D02*
G01*
X123091868Y-93059512D01*
X123418401Y-93478811D01*
X123420781Y-93487444D01*
X123418401Y-93493189D01*
X123091868Y-93912487D01*
X123084081Y-93916909D01*
X123079167Y-93916472D01*
X122506230Y-93738555D01*
X122499346Y-93732828D01*
X122498000Y-93727381D01*
X122498000Y-93244618D01*
X122501427Y-93236345D01*
X122506228Y-93233444D01*
X123079167Y-93055527D01*
X123088084Y-93056347D01*
G37*
%TD.AperFunction*%
%TD*%
%TA.AperFunction,Conductor*%
%TO.N,GNDREF*%
G36*
X132672632Y-79699018D02*
G01*
X133059423Y-79938153D01*
X133061543Y-79939832D01*
X133401710Y-80279999D01*
X133405137Y-80288272D01*
X133401710Y-80296545D01*
X133397882Y-80299095D01*
X132702334Y-80584764D01*
X132693379Y-80584737D01*
X132688689Y-80581169D01*
X132356580Y-80158436D01*
X132354163Y-80149813D01*
X132356104Y-80144631D01*
X132656805Y-79702389D01*
X132664289Y-79697477D01*
X132672632Y-79699018D01*
G37*
%TD.AperFunction*%
%TD*%
%TA.AperFunction,Conductor*%
%TO.N,GNDREF*%
G36*
X133266830Y-79734611D02*
G01*
X133272723Y-79741353D01*
X133273105Y-79742775D01*
X133330000Y-80024000D01*
X133330015Y-80024075D01*
X133385139Y-80306026D01*
X133383363Y-80314803D01*
X133375901Y-80319754D01*
X133375193Y-80319870D01*
X132776364Y-80399245D01*
X132767713Y-80396935D01*
X132763228Y-80389183D01*
X132763127Y-80387646D01*
X132763127Y-79909400D01*
X132766554Y-79901127D01*
X132771085Y-79898314D01*
X133231923Y-79742775D01*
X133257895Y-79734009D01*
X133266830Y-79734611D01*
G37*
%TD.AperFunction*%
%TD*%
%TA.AperFunction,Conductor*%
%TO.N,GNDREF*%
G36*
X164088161Y-83997523D02*
G01*
X164667252Y-84481729D01*
X164671401Y-84489665D01*
X164668723Y-84498210D01*
X164668020Y-84498978D01*
X164464938Y-84702059D01*
X164088162Y-85174760D01*
X164080326Y-85179093D01*
X164071720Y-85176616D01*
X164070740Y-85175740D01*
X163487615Y-84592615D01*
X163484188Y-84584342D01*
X163487614Y-84576069D01*
X164072432Y-83998176D01*
X164080726Y-83994799D01*
X164088161Y-83997523D01*
G37*
%TD.AperFunction*%
%TD*%
%TA.AperFunction,Conductor*%
%TO.N,GNDREF*%
G36*
X164509461Y-84306044D02*
G01*
X164514783Y-84313245D01*
X164514897Y-84313749D01*
X164571530Y-84593680D01*
X164571530Y-84598320D01*
X164514992Y-84877781D01*
X164509992Y-84885210D01*
X164501204Y-84886929D01*
X164500268Y-84886699D01*
X163985208Y-84737446D01*
X163978215Y-84731852D01*
X163976764Y-84726208D01*
X163976764Y-84444146D01*
X163980191Y-84435873D01*
X163985638Y-84432792D01*
X164500606Y-84304715D01*
X164509461Y-84306044D01*
G37*
%TD.AperFunction*%
%TD*%
%TA.AperFunction,Conductor*%
%TO.N,GNDREF*%
G36*
X110394168Y-87159399D02*
G01*
X110400481Y-87162661D01*
X110598995Y-87361175D01*
X110602422Y-87369448D01*
X110598995Y-87377721D01*
X110596393Y-87379682D01*
X110137057Y-87634239D01*
X110128160Y-87635251D01*
X110121679Y-87630537D01*
X109963018Y-87394756D01*
X109961242Y-87385980D01*
X110017291Y-87106895D01*
X110022280Y-87099460D01*
X110030719Y-87097665D01*
X110394168Y-87159399D01*
G37*
%TD.AperFunction*%
%TD*%
%TA.AperFunction,Conductor*%
%TO.N,GNDREF*%
G36*
X100703147Y-86135441D02*
G01*
X102347822Y-87566730D01*
X102351813Y-87574746D01*
X102350504Y-87580988D01*
X101995114Y-88258960D01*
X101894725Y-88450471D01*
X101833886Y-88566532D01*
X101827009Y-88572268D01*
X101823523Y-88572800D01*
X101534500Y-88572800D01*
X101527480Y-88570460D01*
X101377780Y-88458177D01*
X101373218Y-88450471D01*
X101373100Y-88448817D01*
X101373100Y-88442052D01*
X101361467Y-88383569D01*
X101317152Y-88317248D01*
X101250831Y-88272933D01*
X101192348Y-88261300D01*
X101119194Y-88261300D01*
X101112174Y-88258960D01*
X100204143Y-87577892D01*
X100199581Y-87570186D01*
X100200086Y-87564765D01*
X100684389Y-86140500D01*
X100690297Y-86133771D01*
X100699233Y-86133190D01*
X100703147Y-86135441D01*
G37*
%TD.AperFunction*%
%TD*%
%TA.AperFunction,Conductor*%
%TO.N,GNDREF*%
G36*
X132346187Y-83203597D02*
G01*
X132664857Y-83451764D01*
X132765487Y-83530131D01*
X132769909Y-83537918D01*
X132769472Y-83542832D01*
X132591556Y-84115770D01*
X132585829Y-84122654D01*
X132580382Y-84124000D01*
X132097618Y-84124000D01*
X132089345Y-84120573D01*
X132086444Y-84115770D01*
X131908527Y-83542832D01*
X131909347Y-83533915D01*
X131912510Y-83530132D01*
X132331811Y-83203597D01*
X132340444Y-83201218D01*
X132346187Y-83203597D01*
G37*
%TD.AperFunction*%
%TD*%
%TA.AperFunction,Conductor*%
%TO.N,GNDREF*%
G36*
X124064099Y-92646510D02*
G01*
X124067526Y-92654783D01*
X124067314Y-92657000D01*
X123900023Y-93523930D01*
X123895091Y-93531404D01*
X123887373Y-93533355D01*
X123578003Y-93502472D01*
X123428578Y-93487556D01*
X123420687Y-93483325D01*
X123419946Y-93482312D01*
X123139632Y-93052009D01*
X123137987Y-93043207D01*
X123141514Y-93037011D01*
X123566642Y-92646169D01*
X123574561Y-92643083D01*
X124055826Y-92643083D01*
X124064099Y-92646510D01*
G37*
%TD.AperFunction*%
%TD*%
%TA.AperFunction,Conductor*%
%TO.N,GNDREF*%
G36*
X176842661Y-87219888D02*
G01*
X177436649Y-87517680D01*
X177439678Y-87519866D01*
X177643499Y-87723687D01*
X177646926Y-87731960D01*
X177644781Y-87738712D01*
X176841137Y-88875899D01*
X176833564Y-88880678D01*
X176830670Y-88880811D01*
X174121113Y-88668868D01*
X174113132Y-88664807D01*
X174110361Y-88656292D01*
X174114422Y-88648311D01*
X174116576Y-88646851D01*
X176831985Y-87219992D01*
X176840900Y-87219178D01*
X176842661Y-87219888D01*
G37*
%TD.AperFunction*%
%TD*%
%TA.AperFunction,Conductor*%
%TO.N,GNDREF*%
G36*
X109730122Y-93546854D02*
G01*
X110291132Y-93741273D01*
X110297826Y-93747219D01*
X110299000Y-93752327D01*
X110299000Y-94235672D01*
X110295573Y-94243945D01*
X110291131Y-94246727D01*
X109730122Y-94441145D01*
X109721183Y-94440616D01*
X109716795Y-94436925D01*
X109402919Y-94000835D01*
X109400867Y-93992118D01*
X109402919Y-93987165D01*
X109716795Y-93551073D01*
X109724409Y-93546361D01*
X109730122Y-93546854D01*
G37*
%TD.AperFunction*%
%TD*%
%TA.AperFunction,Conductor*%
%TO.N,GNDREF*%
G36*
X110408631Y-93703354D02*
G01*
X110412535Y-93709960D01*
X110469530Y-93991680D01*
X110469530Y-93996320D01*
X110412535Y-94278039D01*
X110407535Y-94285468D01*
X110400104Y-94287379D01*
X109885501Y-94244886D01*
X109877538Y-94240790D01*
X109874764Y-94233226D01*
X109874764Y-93754773D01*
X109878191Y-93746500D01*
X109885499Y-93743113D01*
X110400104Y-93700620D01*
X110408631Y-93703354D01*
G37*
%TD.AperFunction*%
%TD*%
%TA.AperFunction,Conductor*%
%TO.N,GNDREF*%
G36*
X120624945Y-92576427D02*
G01*
X120627727Y-92580869D01*
X120822145Y-93141877D01*
X120821616Y-93150816D01*
X120817925Y-93155204D01*
X120381835Y-93469080D01*
X120373118Y-93471132D01*
X120368165Y-93469080D01*
X119932074Y-93155204D01*
X119927361Y-93147590D01*
X119927854Y-93141877D01*
X120122273Y-92580869D01*
X120128220Y-92574174D01*
X120133328Y-92573000D01*
X120616672Y-92573000D01*
X120624945Y-92576427D01*
G37*
%TD.AperFunction*%
%TD*%
%TA.AperFunction,Conductor*%
%TO.N,GNDREF*%
G36*
X120659039Y-92272464D02*
G01*
X120666468Y-92277464D01*
X120668379Y-92284895D01*
X120625887Y-92799499D01*
X120621791Y-92807462D01*
X120614227Y-92810236D01*
X120135773Y-92810236D01*
X120127500Y-92806809D01*
X120124113Y-92799499D01*
X120081620Y-92284895D01*
X120084354Y-92276368D01*
X120090959Y-92272464D01*
X120372682Y-92215469D01*
X120377318Y-92215469D01*
X120659039Y-92272464D01*
G37*
%TD.AperFunction*%
%TD*%
%TA.AperFunction,Conductor*%
%TO.N,GNDREF*%
G36*
X100677300Y-86127805D02*
G01*
X100680780Y-86136057D01*
X100678895Y-86142499D01*
X99754285Y-87567666D01*
X99746908Y-87572741D01*
X99744838Y-87572992D01*
X97215368Y-87652664D01*
X97206991Y-87649500D01*
X97206727Y-87649243D01*
X97005213Y-87447729D01*
X97001786Y-87439456D01*
X97003992Y-87432619D01*
X97930625Y-86146658D01*
X97938241Y-86141950D01*
X97940040Y-86141799D01*
X100669006Y-86124431D01*
X100677300Y-86127805D01*
G37*
%TD.AperFunction*%
%TD*%
%TA.AperFunction,Conductor*%
%TO.N,GNDREF*%
G36*
X132659676Y-82747208D02*
G01*
X133050301Y-82995371D01*
X133052300Y-82996974D01*
X133392367Y-83337041D01*
X133395794Y-83345314D01*
X133392367Y-83353587D01*
X133388419Y-83356185D01*
X132683994Y-83636449D01*
X132675040Y-83636323D01*
X132670386Y-83632699D01*
X132343436Y-83206413D01*
X132341121Y-83197764D01*
X132343044Y-83192719D01*
X132643727Y-82750504D01*
X132651212Y-82745591D01*
X132659676Y-82747208D01*
G37*
%TD.AperFunction*%
%TD*%
%TA.AperFunction,Conductor*%
%TO.N,GNDREF*%
G36*
X133266830Y-82782611D02*
G01*
X133272723Y-82789353D01*
X133273105Y-82790775D01*
X133330000Y-83072000D01*
X133330015Y-83072075D01*
X133385139Y-83354026D01*
X133383363Y-83362803D01*
X133375901Y-83367754D01*
X133375193Y-83367870D01*
X132776364Y-83447245D01*
X132767713Y-83444935D01*
X132763228Y-83437183D01*
X132763127Y-83435646D01*
X132763127Y-82957400D01*
X132766554Y-82949127D01*
X132771085Y-82946314D01*
X133231923Y-82790775D01*
X133257895Y-82782009D01*
X133266830Y-82782611D01*
G37*
%TD.AperFunction*%
%TD*%
%TA.AperFunction,Conductor*%
%TO.N,GNDREF*%
G36*
X110791012Y-86140965D02*
G01*
X111234651Y-86328225D01*
X111376522Y-86388110D01*
X111382811Y-86394484D01*
X111382820Y-86394506D01*
X111619165Y-86979393D01*
X111619087Y-86988347D01*
X111612943Y-86994523D01*
X110362011Y-87532972D01*
X110353057Y-87533095D01*
X110346638Y-87526851D01*
X110345685Y-87522225D01*
X110345685Y-87242218D01*
X110346498Y-87237934D01*
X110442284Y-86994523D01*
X110775609Y-86147473D01*
X110781827Y-86141030D01*
X110790780Y-86140871D01*
X110791012Y-86140965D01*
G37*
%TD.AperFunction*%
%TD*%
%TA.AperFunction,Conductor*%
%TO.N,GNDREF*%
G36*
X132601655Y-80753427D02*
G01*
X132604556Y-80758230D01*
X132782472Y-81331167D01*
X132781652Y-81340084D01*
X132778487Y-81343868D01*
X132359189Y-81670401D01*
X132350556Y-81672781D01*
X132344811Y-81670401D01*
X131925512Y-81343868D01*
X131921090Y-81336081D01*
X131921527Y-81331167D01*
X132099444Y-80758230D01*
X132105171Y-80751346D01*
X132110618Y-80750000D01*
X132593382Y-80750000D01*
X132601655Y-80753427D01*
G37*
%TD.AperFunction*%
%TD*%
%TA.AperFunction,Conductor*%
%TO.N,GNDREF*%
G36*
X132359187Y-80155597D02*
G01*
X132677857Y-80403764D01*
X132778487Y-80482131D01*
X132782909Y-80489918D01*
X132782472Y-80494832D01*
X132604556Y-81067770D01*
X132598829Y-81074654D01*
X132593382Y-81076000D01*
X132110618Y-81076000D01*
X132102345Y-81072573D01*
X132099444Y-81067770D01*
X131921527Y-80494832D01*
X131922347Y-80485915D01*
X131925510Y-80482132D01*
X132344811Y-80155597D01*
X132353444Y-80153218D01*
X132359187Y-80155597D01*
G37*
%TD.AperFunction*%
%TD*%
%TA.AperFunction,Conductor*%
%TO.N,GNDREF*%
G36*
X132601471Y-82277427D02*
G01*
X132604440Y-82282457D01*
X132769678Y-82855287D01*
X132768678Y-82864186D01*
X132765625Y-82867761D01*
X132346189Y-83194401D01*
X132337556Y-83196781D01*
X132331811Y-83194401D01*
X131912649Y-82867975D01*
X131908227Y-82860188D01*
X131908736Y-82855051D01*
X132099337Y-82282007D01*
X132105200Y-82275239D01*
X132110439Y-82274000D01*
X132593198Y-82274000D01*
X132601471Y-82277427D01*
G37*
%TD.AperFunction*%
%TD*%
%TA.AperFunction,Conductor*%
%TO.N,GNDREF*%
G36*
X132359187Y-81679597D02*
G01*
X132677857Y-81927764D01*
X132778487Y-82006131D01*
X132782909Y-82013918D01*
X132782472Y-82018832D01*
X132604556Y-82591770D01*
X132598829Y-82598654D01*
X132593382Y-82600000D01*
X132110618Y-82600000D01*
X132102345Y-82596573D01*
X132099444Y-82591770D01*
X131921527Y-82018832D01*
X131922347Y-82009915D01*
X131925510Y-82006132D01*
X132344811Y-81679597D01*
X132353444Y-81677218D01*
X132359187Y-81679597D01*
G37*
%TD.AperFunction*%
%TD*%
%TA.AperFunction,Conductor*%
%TO.N,GNDREF*%
G36*
X168081098Y-94457719D02*
G01*
X168082344Y-94462972D01*
X168082344Y-94939439D01*
X168079257Y-94947357D01*
X167875210Y-95169308D01*
X167867088Y-95173080D01*
X167860115Y-95171130D01*
X167619960Y-95011304D01*
X167616696Y-95008037D01*
X167459634Y-94771557D01*
X167457911Y-94762770D01*
X167462907Y-94755338D01*
X167464114Y-94754637D01*
X168065391Y-94452517D01*
X168074322Y-94451865D01*
X168081098Y-94457719D01*
G37*
%TD.AperFunction*%
%TD*%
%TA.AperFunction,Conductor*%
%TO.N,GNDREF*%
G36*
X129006945Y-79178427D02*
G01*
X129009727Y-79182869D01*
X129204145Y-79743877D01*
X129203616Y-79752816D01*
X129199925Y-79757204D01*
X128763835Y-80071080D01*
X128755118Y-80073132D01*
X128750165Y-80071080D01*
X128314074Y-79757204D01*
X128309361Y-79749590D01*
X128309854Y-79743877D01*
X128504273Y-79182869D01*
X128510220Y-79176174D01*
X128515328Y-79175000D01*
X128998672Y-79175000D01*
X129006945Y-79178427D01*
G37*
%TD.AperFunction*%
%TD*%
%TA.AperFunction,Conductor*%
%TO.N,GNDREF*%
G36*
X129041039Y-79064464D02*
G01*
X129048468Y-79069464D01*
X129050379Y-79076895D01*
X129007887Y-79591499D01*
X129003791Y-79599462D01*
X128996227Y-79602236D01*
X128517773Y-79602236D01*
X128509500Y-79598809D01*
X128506113Y-79591499D01*
X128463620Y-79076895D01*
X128466354Y-79068368D01*
X128472959Y-79064464D01*
X128754682Y-79007469D01*
X128759318Y-79007469D01*
X129041039Y-79064464D01*
G37*
%TD.AperFunction*%
%TD*%
%TA.AperFunction,Conductor*%
%TO.N,GNDREF*%
G36*
X164088161Y-87807523D02*
G01*
X164667252Y-88291729D01*
X164671401Y-88299665D01*
X164668723Y-88308210D01*
X164668020Y-88308978D01*
X164464938Y-88512059D01*
X164088162Y-88984760D01*
X164080326Y-88989093D01*
X164071720Y-88986616D01*
X164070740Y-88985740D01*
X163487615Y-88402615D01*
X163484188Y-88394342D01*
X163487614Y-88386069D01*
X164072432Y-87808176D01*
X164080726Y-87804799D01*
X164088161Y-87807523D01*
G37*
%TD.AperFunction*%
%TD*%
%TA.AperFunction,Conductor*%
%TO.N,GNDREF*%
G36*
X164509461Y-88116044D02*
G01*
X164514783Y-88123245D01*
X164514897Y-88123749D01*
X164571530Y-88403680D01*
X164571530Y-88408320D01*
X164514992Y-88687781D01*
X164509992Y-88695210D01*
X164501204Y-88696929D01*
X164500268Y-88696699D01*
X163985208Y-88547446D01*
X163978215Y-88541852D01*
X163976764Y-88536208D01*
X163976764Y-88254146D01*
X163980191Y-88245873D01*
X163985638Y-88242792D01*
X164500606Y-88114715D01*
X164509461Y-88116044D01*
G37*
%TD.AperFunction*%
%TD*%
%TA.AperFunction,Conductor*%
%TO.N,/DRIVERS/M2_OUT1B*%
G36*
X182248110Y-86321144D02*
G01*
X183738266Y-86359841D01*
X183746447Y-86363481D01*
X183749658Y-86371841D01*
X183749578Y-86372934D01*
X183627595Y-87387479D01*
X183625211Y-87393270D01*
X182996996Y-88200122D01*
X182989209Y-88204544D01*
X182980576Y-88202166D01*
X182980385Y-88202013D01*
X181546080Y-87036302D01*
X181541821Y-87028425D01*
X181544380Y-87019844D01*
X181545176Y-87018960D01*
X182239569Y-86324567D01*
X182247841Y-86321141D01*
X182248110Y-86321144D01*
G37*
%TD.AperFunction*%
%TD*%
%TA.AperFunction,Conductor*%
%TO.N,/MCU/SYS_SWDIO*%
G36*
X130242500Y-94419191D02*
G01*
X130245887Y-94426501D01*
X130288379Y-94941104D01*
X130285645Y-94949631D01*
X130279039Y-94953535D01*
X129997320Y-95010530D01*
X129992680Y-95010530D01*
X129710960Y-94953535D01*
X129703531Y-94948535D01*
X129701620Y-94941104D01*
X129744113Y-94426501D01*
X129748209Y-94418538D01*
X129755773Y-94415764D01*
X130234227Y-94415764D01*
X130242500Y-94419191D01*
G37*
%TD.AperFunction*%
%TD*%
%TA.AperFunction,Conductor*%
%TO.N,/MCU/SYS_SWCLK*%
G36*
X131042500Y-94419191D02*
G01*
X131045887Y-94426501D01*
X131088379Y-94941104D01*
X131085645Y-94949631D01*
X131079039Y-94953535D01*
X130797320Y-95010530D01*
X130792680Y-95010530D01*
X130510960Y-94953535D01*
X130503531Y-94948535D01*
X130501620Y-94941104D01*
X130544113Y-94426501D01*
X130548209Y-94418538D01*
X130555773Y-94415764D01*
X131034227Y-94415764D01*
X131042500Y-94419191D01*
G37*
%TD.AperFunction*%
%TD*%
%TA.AperFunction,Conductor*%
%TO.N,/DRIVERS/M2_OUT1A*%
G36*
X182303957Y-82817101D02*
G01*
X183982402Y-83795156D01*
X183987824Y-83802282D01*
X183987568Y-83809090D01*
X183629065Y-84845333D01*
X183623122Y-84852031D01*
X183621833Y-84852565D01*
X182585590Y-85211068D01*
X182576651Y-85210534D01*
X182571656Y-85205902D01*
X181593601Y-83527458D01*
X181592398Y-83518586D01*
X181595436Y-83513298D01*
X182289797Y-82818937D01*
X182298069Y-82815511D01*
X182303957Y-82817101D01*
G37*
%TD.AperFunction*%
%TD*%
%TA.AperFunction,Conductor*%
%TO.N,/DRIVERS/M2_OUT2B*%
G36*
X182733816Y-89424410D02*
G01*
X183624376Y-89927693D01*
X183628806Y-89932123D01*
X184132050Y-90822611D01*
X184133137Y-90831499D01*
X184127620Y-90838553D01*
X184127551Y-90838592D01*
X183410430Y-91237413D01*
X183406573Y-91238744D01*
X183333681Y-91250289D01*
X183333669Y-91250292D01*
X183146479Y-91311114D01*
X182971088Y-91400479D01*
X182811863Y-91516164D01*
X182811847Y-91516178D01*
X182691042Y-91636982D01*
X182688456Y-91638934D01*
X182552467Y-91714564D01*
X182543571Y-91715590D01*
X182538507Y-91712612D01*
X181843887Y-91017992D01*
X181840460Y-91009719D01*
X181841934Y-91004034D01*
X182717906Y-89428947D01*
X182724921Y-89423385D01*
X182733816Y-89424410D01*
G37*
%TD.AperFunction*%
%TD*%
%TA.AperFunction,Conductor*%
%TO.N,/DRIVERS/M2_OUT2A*%
G36*
X182733816Y-91964410D02*
G01*
X183624376Y-92467693D01*
X183628806Y-92472123D01*
X184132050Y-93362611D01*
X184133137Y-93371499D01*
X184127620Y-93378553D01*
X184127551Y-93378592D01*
X182552467Y-94254564D01*
X182543571Y-94255590D01*
X182538507Y-94252612D01*
X181843887Y-93557992D01*
X181840460Y-93549719D01*
X181841934Y-93544034D01*
X182717906Y-91968947D01*
X182724921Y-91963385D01*
X182733816Y-91964410D01*
G37*
%TD.AperFunction*%
%TD*%
%TA.AperFunction,Conductor*%
%TO.N,/MCU/BOOT0*%
G36*
X133883830Y-86716790D02*
G01*
X134203481Y-86874627D01*
X134340886Y-86942475D01*
X134346787Y-86949211D01*
X134347161Y-86950582D01*
X134426890Y-87333731D01*
X134425220Y-87342529D01*
X134418006Y-87347529D01*
X133555689Y-87541785D01*
X133546865Y-87540260D01*
X133541704Y-87532942D01*
X133541418Y-87530371D01*
X133541418Y-87049878D01*
X133544845Y-87041605D01*
X133544882Y-87041567D01*
X133638079Y-86949211D01*
X133870416Y-86718970D01*
X133878705Y-86715582D01*
X133883830Y-86716790D01*
G37*
%TD.AperFunction*%
%TD*%
%TA.AperFunction,Conductor*%
%TO.N,/MCU/BOOT0*%
G36*
X134703331Y-86561973D02*
G01*
X135211218Y-86692738D01*
X135218375Y-86698119D01*
X135220000Y-86704068D01*
X135220000Y-87185931D01*
X135216573Y-87194204D01*
X135211217Y-87197261D01*
X134703337Y-87328025D01*
X134694471Y-87326770D01*
X134691795Y-87324601D01*
X134351240Y-86952902D01*
X134348179Y-86944489D01*
X134351240Y-86937097D01*
X134691795Y-86565398D01*
X134699909Y-86561615D01*
X134703331Y-86561973D01*
G37*
%TD.AperFunction*%
%TD*%
%TA.AperFunction,Conductor*%
%TO.N,/MCU/BOOT0*%
G36*
X135519528Y-86563229D02*
G01*
X135522203Y-86565397D01*
X135638874Y-86692738D01*
X135862758Y-86937096D01*
X135865820Y-86945511D01*
X135862758Y-86952904D01*
X135522206Y-87324599D01*
X135514090Y-87328384D01*
X135510662Y-87328025D01*
X135002783Y-87197261D01*
X134995625Y-87191880D01*
X134994000Y-87185931D01*
X134994000Y-86704068D01*
X134997427Y-86695795D01*
X135002780Y-86692739D01*
X135510664Y-86561974D01*
X135519528Y-86563229D01*
G37*
%TD.AperFunction*%
%TD*%
%TA.AperFunction,Conductor*%
%TO.N,/DRIVERS/M1_CR*%
G36*
X102349029Y-90952356D02*
G01*
X102720071Y-91292310D01*
X102723856Y-91300426D01*
X102723200Y-91304831D01*
X102543755Y-91813194D01*
X102537770Y-91819855D01*
X102532722Y-91821000D01*
X102247965Y-91821000D01*
X102239692Y-91817573D01*
X102237680Y-91814878D01*
X102156537Y-91665265D01*
X101965151Y-91312386D01*
X101964220Y-91303482D01*
X101967396Y-91298310D01*
X102333087Y-90952482D01*
X102341452Y-90949289D01*
X102349029Y-90952356D01*
G37*
%TD.AperFunction*%
%TD*%
%TA.AperFunction,Conductor*%
%TO.N,/DRIVERS/M1_CR*%
G36*
X102541914Y-91548427D02*
G01*
X102544187Y-91551634D01*
X102819788Y-92125393D01*
X102820282Y-92134334D01*
X102816431Y-92139690D01*
X102398189Y-92465401D01*
X102389556Y-92467781D01*
X102383811Y-92465401D01*
X101965568Y-92139690D01*
X101961146Y-92131903D01*
X101962211Y-92125393D01*
X102237813Y-91551634D01*
X102244484Y-91545660D01*
X102248359Y-91545000D01*
X102533641Y-91545000D01*
X102541914Y-91548427D01*
G37*
%TD.AperFunction*%
%TD*%
%TA.AperFunction,Conductor*%
%TO.N,/DRIVERS/M1_CR*%
G36*
X102491698Y-90074427D02*
G01*
X102494100Y-90077912D01*
X102722318Y-90586754D01*
X102722577Y-90595705D01*
X102719547Y-90600169D01*
X102348904Y-90939758D01*
X102340489Y-90942820D01*
X102333096Y-90939758D01*
X101962452Y-90600169D01*
X101958667Y-90592053D01*
X101959680Y-90586756D01*
X102187900Y-90077912D01*
X102194412Y-90071766D01*
X102198575Y-90071000D01*
X102483425Y-90071000D01*
X102491698Y-90074427D01*
G37*
%TD.AperFunction*%
%TD*%
%TA.AperFunction,Conductor*%
%TO.N,/DRIVERS/M2_CR*%
G36*
X172642912Y-82210483D02*
G01*
X173008600Y-82556309D01*
X173012256Y-82564484D01*
X173010846Y-82570388D01*
X172738320Y-83072878D01*
X172731363Y-83078517D01*
X172728035Y-83079000D01*
X172443278Y-83079000D01*
X172435005Y-83075573D01*
X172432245Y-83071194D01*
X172252799Y-82562831D01*
X172253277Y-82553889D01*
X172255925Y-82550312D01*
X172626971Y-82210356D01*
X172635384Y-82207295D01*
X172642912Y-82210483D01*
G37*
%TD.AperFunction*%
%TD*%
%TA.AperFunction,Conductor*%
%TO.N,/DRIVERS/M2_CR*%
G36*
X172735914Y-82806427D02*
G01*
X172738187Y-82809634D01*
X173013788Y-83383393D01*
X173014282Y-83392334D01*
X173010431Y-83397690D01*
X172592189Y-83723401D01*
X172583556Y-83725781D01*
X172577811Y-83723401D01*
X172159568Y-83397690D01*
X172155146Y-83389903D01*
X172156211Y-83383393D01*
X172431813Y-82809634D01*
X172438484Y-82803660D01*
X172442359Y-82803000D01*
X172727641Y-82803000D01*
X172735914Y-82806427D01*
G37*
%TD.AperFunction*%
%TD*%
%TA.AperFunction,Conductor*%
%TO.N,/DRIVERS/M2_CR*%
G36*
X172592301Y-83734795D02*
G01*
X172962372Y-84129917D01*
X172965527Y-84138298D01*
X172963178Y-84144956D01*
X172583910Y-84648341D01*
X172576194Y-84652886D01*
X172574565Y-84653000D01*
X172289826Y-84653000D01*
X172281553Y-84649573D01*
X172278394Y-84643790D01*
X172168288Y-84138298D01*
X172153694Y-84071298D01*
X172155282Y-84062487D01*
X172157935Y-84059580D01*
X172576574Y-83733561D01*
X172585206Y-83731182D01*
X172592301Y-83734795D01*
G37*
%TD.AperFunction*%
%TD*%
%TA.AperFunction,Conductor*%
%TO.N,/DRIVERS/M1_OUT2B*%
G36*
X96538439Y-81620124D02*
G01*
X96542817Y-81625555D01*
X96637618Y-81865930D01*
X96638434Y-81870223D01*
X96638434Y-82343810D01*
X96635007Y-82352083D01*
X96626734Y-82355510D01*
X96619470Y-82352982D01*
X96086764Y-81931121D01*
X96082406Y-81923299D01*
X96084281Y-81915479D01*
X96241305Y-81679056D01*
X96248737Y-81674061D01*
X96248744Y-81674059D01*
X96529659Y-81618371D01*
X96538439Y-81620124D01*
G37*
%TD.AperFunction*%
%TD*%
%TA.AperFunction,Conductor*%
%TO.N,/DRIVERS/M1_OUT2B*%
G36*
X96499499Y-81519013D02*
G01*
X96500279Y-81520379D01*
X96738083Y-82011173D01*
X96738607Y-82020113D01*
X96735827Y-82024548D01*
X96536421Y-82223954D01*
X96528148Y-82227381D01*
X96521577Y-82225361D01*
X96087905Y-81930942D01*
X96082985Y-81923460D01*
X96084727Y-81914797D01*
X96242985Y-81676263D01*
X96246263Y-81672985D01*
X96483283Y-81515731D01*
X96492070Y-81514013D01*
X96499499Y-81519013D01*
G37*
%TD.AperFunction*%
%TD*%
%TA.AperFunction,Conductor*%
%TO.N,/DRIVERS/M1_OUT2B*%
G36*
X92208092Y-83077387D02*
G01*
X92902712Y-83772007D01*
X92906139Y-83780280D01*
X92904664Y-83785967D01*
X92028692Y-85361051D01*
X92021676Y-85366615D01*
X92012780Y-85365589D01*
X92012711Y-85365550D01*
X91122223Y-84862306D01*
X91117793Y-84857876D01*
X90614550Y-83967386D01*
X90613463Y-83958498D01*
X90618979Y-83951444D01*
X91336175Y-83552581D01*
X91340014Y-83551256D01*
X91412926Y-83539709D01*
X91600125Y-83478884D01*
X91775505Y-83389524D01*
X91934746Y-83273828D01*
X92055564Y-83153009D01*
X92058134Y-83151069D01*
X92194133Y-83075434D01*
X92203028Y-83074409D01*
X92208092Y-83077387D01*
G37*
%TD.AperFunction*%
%TD*%
%TA.AperFunction,Conductor*%
%TO.N,/DRIVERS/M1_OUT2A*%
G36*
X92208092Y-80537387D02*
G01*
X92902712Y-81232007D01*
X92906139Y-81240280D01*
X92904664Y-81245967D01*
X92028692Y-82821051D01*
X92021676Y-82826615D01*
X92012780Y-82825589D01*
X92012711Y-82825550D01*
X91122223Y-82322306D01*
X91117793Y-82317876D01*
X90614550Y-81427386D01*
X90613463Y-81418498D01*
X90618979Y-81411444D01*
X92194133Y-80535434D01*
X92203028Y-80534409D01*
X92208092Y-80537387D01*
G37*
%TD.AperFunction*%
%TD*%
%TA.AperFunction,Conductor*%
%TO.N,/DRIVERS/M1_OUT1B*%
G36*
X95795673Y-90158394D02*
G01*
X96310647Y-90285800D01*
X96317854Y-90291114D01*
X96319536Y-90297158D01*
X96319536Y-90579219D01*
X96316109Y-90587492D01*
X96311106Y-90590453D01*
X95796042Y-90740380D01*
X95787141Y-90739402D01*
X95781538Y-90732416D01*
X95781304Y-90731466D01*
X95752776Y-90590453D01*
X95724769Y-90452018D01*
X95724769Y-90447380D01*
X95756384Y-90291114D01*
X95781405Y-90167434D01*
X95786405Y-90160006D01*
X95795193Y-90158287D01*
X95795673Y-90158394D01*
G37*
%TD.AperFunction*%
%TD*%
%TA.AperFunction,Conductor*%
%TO.N,/DRIVERS/M1_OUT1B*%
G36*
X96437315Y-90148163D02*
G01*
X96442775Y-90155261D01*
X96442945Y-90155983D01*
X96499530Y-90435680D01*
X96499530Y-90440320D01*
X96442945Y-90720016D01*
X96437945Y-90727445D01*
X96429157Y-90729164D01*
X96428435Y-90728994D01*
X95913422Y-90590331D01*
X95906324Y-90584871D01*
X95904764Y-90579033D01*
X95904764Y-90296966D01*
X95908191Y-90288693D01*
X95913419Y-90285669D01*
X96428435Y-90147005D01*
X96437315Y-90148163D01*
G37*
%TD.AperFunction*%
%TD*%
%TA.AperFunction,Conductor*%
%TO.N,/DRIVERS/M1_OUT1B*%
G36*
X96750029Y-89848654D02*
G01*
X97088345Y-90186970D01*
X97091772Y-90195243D01*
X97088998Y-90202807D01*
X96755166Y-90596734D01*
X96747203Y-90600830D01*
X96739772Y-90598919D01*
X96500265Y-90440015D01*
X96496984Y-90436734D01*
X96338080Y-90197227D01*
X96336361Y-90188439D01*
X96340264Y-90181834D01*
X96734192Y-89848000D01*
X96742719Y-89845267D01*
X96750029Y-89848654D01*
G37*
%TD.AperFunction*%
%TD*%
%TA.AperFunction,Conductor*%
%TO.N,/DRIVERS/M1_OUT1B*%
G36*
X96865641Y-89972147D02*
G01*
X97064990Y-90171496D01*
X97068417Y-90179769D01*
X97066032Y-90186849D01*
X96755080Y-90595935D01*
X96747345Y-90600448D01*
X96739297Y-90598604D01*
X96500265Y-90440015D01*
X96496984Y-90436734D01*
X96340141Y-90200333D01*
X96338422Y-90191545D01*
X96343422Y-90184116D01*
X96345347Y-90183083D01*
X96852834Y-89969634D01*
X96861787Y-89969586D01*
X96865641Y-89972147D01*
G37*
%TD.AperFunction*%
%TD*%
%TA.AperFunction,Conductor*%
%TO.N,/DRIVERS/M1_OUT1B*%
G36*
X91712721Y-86531728D02*
G01*
X91720288Y-86535623D01*
X93350293Y-87374508D01*
X93356081Y-87381341D01*
X93355342Y-87390265D01*
X93353212Y-87393184D01*
X92659713Y-88086683D01*
X92654340Y-88089745D01*
X91336904Y-88426765D01*
X91328039Y-88425495D01*
X91322669Y-88418330D01*
X91322530Y-88417719D01*
X91120342Y-87404052D01*
X91122083Y-87395274D01*
X91697647Y-86535621D01*
X91705096Y-86530655D01*
X91712721Y-86531728D01*
G37*
%TD.AperFunction*%
%TD*%
%TA.AperFunction,Conductor*%
%TO.N,/DRIVERS/M1_OUT1B*%
G36*
X95418946Y-89927918D02*
G01*
X95704098Y-90092092D01*
X95881167Y-90194039D01*
X95886627Y-90201137D01*
X95885469Y-90210017D01*
X95885078Y-90210647D01*
X95727315Y-90448434D01*
X95724034Y-90451715D01*
X95486247Y-90609478D01*
X95477459Y-90611197D01*
X95470030Y-90606197D01*
X95469639Y-90605567D01*
X95242266Y-90210647D01*
X95203518Y-90143346D01*
X95202361Y-90134468D01*
X95205384Y-90129239D01*
X95404838Y-89929785D01*
X95413110Y-89926359D01*
X95418946Y-89927918D01*
G37*
%TD.AperFunction*%
%TD*%
%TA.AperFunction,Conductor*%
%TO.N,/MCU/USART1_RX*%
G36*
X123707039Y-85414464D02*
G01*
X123714468Y-85419464D01*
X123716379Y-85426895D01*
X123673887Y-85941499D01*
X123669791Y-85949462D01*
X123662227Y-85952236D01*
X123183773Y-85952236D01*
X123175500Y-85948809D01*
X123172113Y-85941499D01*
X123129620Y-85426895D01*
X123132354Y-85418368D01*
X123138959Y-85414464D01*
X123420682Y-85357469D01*
X123425318Y-85357469D01*
X123707039Y-85414464D01*
G37*
%TD.AperFunction*%
%TD*%
%TA.AperFunction,Conductor*%
%TO.N,/MCU/USART1_TX*%
G36*
X124695166Y-83675265D02*
G01*
X125028998Y-84069192D01*
X125031732Y-84077719D01*
X125028345Y-84085029D01*
X124690029Y-84423345D01*
X124681756Y-84426772D01*
X124674192Y-84423998D01*
X124280265Y-84090166D01*
X124276169Y-84082203D01*
X124278079Y-84074773D01*
X124436985Y-83835263D01*
X124440263Y-83831985D01*
X124679773Y-83673079D01*
X124688560Y-83671361D01*
X124695166Y-83675265D01*
G37*
%TD.AperFunction*%
%TD*%
%TA.AperFunction,Conductor*%
%TO.N,/M1_PS*%
G36*
X126241837Y-85783191D02*
G01*
X126245261Y-85791197D01*
X126257012Y-86305680D01*
X126253775Y-86314029D01*
X126247635Y-86317415D01*
X125965320Y-86374530D01*
X125960680Y-86374530D01*
X125679582Y-86317661D01*
X125672153Y-86312661D01*
X125670319Y-86304545D01*
X125743570Y-85789816D01*
X125748128Y-85782108D01*
X125755153Y-85779764D01*
X126233564Y-85779764D01*
X126241837Y-85783191D01*
G37*
%TD.AperFunction*%
%TD*%
%TA.AperFunction,Conductor*%
%TO.N,/M1_PS*%
G36*
X105836631Y-88877354D02*
G01*
X105840535Y-88883960D01*
X105897530Y-89165680D01*
X105897530Y-89170320D01*
X105840535Y-89452039D01*
X105835535Y-89459468D01*
X105828104Y-89461379D01*
X105313501Y-89418886D01*
X105305538Y-89414790D01*
X105302764Y-89407226D01*
X105302764Y-88928773D01*
X105306191Y-88920500D01*
X105313499Y-88917113D01*
X105828104Y-88874620D01*
X105836631Y-88877354D01*
G37*
%TD.AperFunction*%
%TD*%
%TA.AperFunction,Conductor*%
%TO.N,VCC_12V*%
G36*
X99093450Y-95375864D02*
G01*
X99097147Y-95379414D01*
X99237013Y-95590670D01*
X100136777Y-96949694D01*
X100138486Y-96958484D01*
X100133480Y-96965909D01*
X100132936Y-96966248D01*
X99101048Y-97570911D01*
X99092178Y-97572137D01*
X99086238Y-97568416D01*
X98245806Y-96584782D01*
X98243001Y-96577182D01*
X98243001Y-95590670D01*
X98246428Y-95582397D01*
X98251905Y-95579310D01*
X99084600Y-95374513D01*
X99093450Y-95375864D01*
G37*
%TD.AperFunction*%
%TD*%
%TA.AperFunction,Conductor*%
%TO.N,VCC_12V*%
G36*
X101192564Y-77459424D02*
G01*
X101197483Y-77463927D01*
X102248560Y-79215719D01*
X102249878Y-79224577D01*
X102246800Y-79230012D01*
X101548098Y-79928714D01*
X101543545Y-79931534D01*
X101048813Y-80097434D01*
X101039879Y-80096815D01*
X101034203Y-80090619D01*
X100146351Y-77830640D01*
X100146516Y-77821688D01*
X100152963Y-77815473D01*
X100153396Y-77815313D01*
X101183626Y-77458890D01*
X101192564Y-77459424D01*
G37*
%TD.AperFunction*%
%TD*%
%TA.AperFunction,Conductor*%
%TO.N,VCC_12V*%
G36*
X101200715Y-75933776D02*
G01*
X101203584Y-75936012D01*
X101546149Y-76301738D01*
X102245824Y-77001413D01*
X102249251Y-77009686D01*
X102246658Y-77017031D01*
X101198410Y-78316708D01*
X101190549Y-78320996D01*
X101184249Y-78319915D01*
X100153089Y-77826069D01*
X100147108Y-77819405D01*
X100147591Y-77810463D01*
X100147896Y-77809871D01*
X101184811Y-75938339D01*
X101191818Y-75932764D01*
X101200715Y-75933776D01*
G37*
%TD.AperFunction*%
%TD*%
%TA.AperFunction,Conductor*%
%TO.N,VCC_12V*%
G36*
X173428473Y-76482035D02*
G01*
X173431686Y-76484874D01*
X174470417Y-77815288D01*
X174472807Y-77823918D01*
X174468395Y-77831710D01*
X174467908Y-77832070D01*
X173434320Y-78556203D01*
X173425578Y-78558144D01*
X173420127Y-78555618D01*
X172431220Y-77733508D01*
X172427049Y-77725584D01*
X172427000Y-77724511D01*
X172427000Y-76739125D01*
X172430427Y-76730852D01*
X172435848Y-76727777D01*
X173419616Y-76480726D01*
X173428473Y-76482035D01*
G37*
%TD.AperFunction*%
%TD*%
%TA.AperFunction,Conductor*%
%TO.N,VCC_12V*%
G36*
X157560099Y-69883097D02*
G01*
X157567152Y-69888613D01*
X157568549Y-69896021D01*
X157321433Y-71628777D01*
X157316872Y-71636483D01*
X157309850Y-71638825D01*
X155830150Y-71638825D01*
X155821877Y-71635398D01*
X155818567Y-71628777D01*
X155571450Y-69896018D01*
X155573675Y-69887347D01*
X155579898Y-69883097D01*
X156566869Y-69608870D01*
X156573131Y-69608870D01*
X157560099Y-69883097D01*
G37*
%TD.AperFunction*%
%TD*%
%TA.AperFunction,Conductor*%
%TO.N,VCC_12V*%
G36*
X172313637Y-94517293D02*
G01*
X173417879Y-94703018D01*
X173425468Y-94707770D01*
X173426763Y-94710119D01*
X174346374Y-96953714D01*
X174346341Y-96962668D01*
X174339985Y-96968977D01*
X174339532Y-96969152D01*
X173309439Y-97342169D01*
X173300493Y-97341764D01*
X173295187Y-97336777D01*
X172301432Y-95517621D01*
X172300000Y-95512012D01*
X172300000Y-94528832D01*
X172303427Y-94520559D01*
X172311700Y-94517132D01*
X172313637Y-94517293D01*
G37*
%TD.AperFunction*%
%TD*%
%TA.AperFunction,Conductor*%
%TO.N,VCC_12V*%
G36*
X114271878Y-76230927D02*
G01*
X114274173Y-76234179D01*
X114720050Y-77172738D01*
X114720505Y-77181682D01*
X114717958Y-77185824D01*
X113779476Y-78172092D01*
X113771290Y-78175723D01*
X113762935Y-78172503D01*
X113762524Y-78172092D01*
X113457691Y-77851737D01*
X112824040Y-77185822D01*
X112820821Y-77177469D01*
X112821948Y-77172741D01*
X113267827Y-76234178D01*
X113274472Y-76228177D01*
X113278395Y-76227500D01*
X114263605Y-76227500D01*
X114271878Y-76230927D01*
G37*
%TD.AperFunction*%
%TD*%
%TA.AperFunction,Conductor*%
%TO.N,VCC_12V*%
G36*
X174481854Y-77841553D02*
G01*
X174487645Y-77847344D01*
X175474797Y-80012189D01*
X175475112Y-80021138D01*
X175474816Y-80021856D01*
X174980108Y-81118112D01*
X174973582Y-81124243D01*
X174969444Y-81124999D01*
X173984556Y-81124999D01*
X173976283Y-81121572D01*
X173973892Y-81118112D01*
X173479183Y-80021856D01*
X173478903Y-80012905D01*
X173479202Y-80012189D01*
X174466355Y-77847344D01*
X174472905Y-77841238D01*
X174481854Y-77841553D01*
G37*
%TD.AperFunction*%
%TD*%
%TA.AperFunction,Conductor*%
%TO.N,VCC_12V*%
G36*
X113779065Y-78187496D02*
G01*
X113779464Y-78187895D01*
X114717958Y-79174176D01*
X114721178Y-79182530D01*
X114720050Y-79187261D01*
X114274173Y-80125821D01*
X114267528Y-80131823D01*
X114263605Y-80132500D01*
X113278395Y-80132500D01*
X113270122Y-80129073D01*
X113267827Y-80125821D01*
X112821949Y-79187261D01*
X112821494Y-79178317D01*
X112824037Y-79174180D01*
X113762524Y-78187906D01*
X113770710Y-78184276D01*
X113779065Y-78187496D01*
G37*
%TD.AperFunction*%
%TD*%
%TA.AperFunction,Conductor*%
%TO.N,VCC_12V*%
G36*
X99098568Y-76091953D02*
G01*
X99100789Y-76094630D01*
X100136904Y-77810106D01*
X100138248Y-77818959D01*
X100132938Y-77826170D01*
X100132360Y-77826497D01*
X99100713Y-78372279D01*
X99091798Y-78373119D01*
X99086500Y-78369713D01*
X98039274Y-77192292D01*
X98036336Y-77183832D01*
X98039742Y-77176244D01*
X98739047Y-76476940D01*
X99082049Y-76092884D01*
X99090114Y-76088998D01*
X99098568Y-76091953D01*
G37*
%TD.AperFunction*%
%TD*%
%TA.AperFunction,Conductor*%
%TO.N,VCC_12V*%
G36*
X175406144Y-96401937D02*
G01*
X175795271Y-96862832D01*
X176379429Y-97554731D01*
X176382189Y-97562278D01*
X176382189Y-98547508D01*
X176378762Y-98555781D01*
X176371760Y-98559139D01*
X175407339Y-98664529D01*
X175398743Y-98662021D01*
X175396116Y-98659050D01*
X175327170Y-98547508D01*
X174355507Y-96975528D01*
X174354073Y-96966691D01*
X174359308Y-96959426D01*
X174359858Y-96959107D01*
X175391625Y-96399201D01*
X175400529Y-96398268D01*
X175406144Y-96401937D01*
G37*
%TD.AperFunction*%
%TD*%
%TA.AperFunction,Conductor*%
%TO.N,VCC_12V*%
G36*
X101199945Y-95963673D02*
G01*
X102186131Y-96456766D01*
X102191999Y-96463531D01*
X102192599Y-96467231D01*
X102192599Y-97452769D01*
X102189172Y-97461042D01*
X102186131Y-97463234D01*
X101199946Y-97956326D01*
X101191014Y-97956961D01*
X101186649Y-97954337D01*
X100150508Y-96968475D01*
X100146877Y-96960290D01*
X100150097Y-96951934D01*
X100150482Y-96951548D01*
X101186648Y-95965661D01*
X101195004Y-95962442D01*
X101199945Y-95963673D01*
G37*
%TD.AperFunction*%
%TD*%
%TA.AperFunction,Conductor*%
%TO.N,VCC_12V*%
G36*
X173305950Y-95970662D02*
G01*
X174342091Y-96956524D01*
X174345722Y-96964709D01*
X174342502Y-96973065D01*
X174342091Y-96973476D01*
X173305951Y-97959337D01*
X173297595Y-97962557D01*
X173292654Y-97961326D01*
X172306469Y-97468234D01*
X172300601Y-97461469D01*
X172300001Y-97457769D01*
X172300001Y-96472230D01*
X172303428Y-96463957D01*
X172306464Y-96461768D01*
X173292654Y-95968672D01*
X173301585Y-95968038D01*
X173305950Y-95970662D01*
G37*
%TD.AperFunction*%
%TD*%
%TA.AperFunction,Conductor*%
%TO.N,VCC_12V*%
G36*
X100154520Y-77843821D02*
G01*
X101171683Y-79961742D01*
X101172426Y-79969876D01*
X100862146Y-81111368D01*
X100856669Y-81118453D01*
X100850856Y-81119999D01*
X99866641Y-81119999D01*
X99858368Y-81116572D01*
X99856445Y-81114038D01*
X99293827Y-80114497D01*
X99292755Y-80105607D01*
X99293050Y-80104697D01*
X100133007Y-77844808D01*
X100139100Y-77838249D01*
X100148049Y-77837919D01*
X100154520Y-77843821D01*
G37*
%TD.AperFunction*%
%TD*%
%TA.AperFunction,Conductor*%
%TO.N,VCC_12V*%
G36*
X175534345Y-76828673D02*
G01*
X176520531Y-77321766D01*
X176526399Y-77328531D01*
X176526999Y-77332231D01*
X176526999Y-78317769D01*
X176523572Y-78326042D01*
X176520531Y-78328234D01*
X175534346Y-78821326D01*
X175525414Y-78821961D01*
X175521049Y-78819337D01*
X174484908Y-77833475D01*
X174481277Y-77825290D01*
X174484497Y-77816934D01*
X174484882Y-77816548D01*
X175521048Y-76830661D01*
X175529404Y-76827442D01*
X175534345Y-76828673D01*
G37*
%TD.AperFunction*%
%TD*%
%TA.AperFunction,Conductor*%
%TO.N,VCC_12V*%
G36*
X100643317Y-93663428D02*
G01*
X100645708Y-93666888D01*
X101140416Y-94763142D01*
X101140696Y-94772093D01*
X101140397Y-94772809D01*
X100153245Y-96937655D01*
X100146695Y-96943761D01*
X100137746Y-96943446D01*
X100131955Y-96937655D01*
X99144802Y-94772809D01*
X99144487Y-94763860D01*
X99144783Y-94763142D01*
X99639492Y-93666888D01*
X99646018Y-93660757D01*
X99650156Y-93660001D01*
X100635044Y-93660001D01*
X100643317Y-93663428D01*
G37*
%TD.AperFunction*%
%TD*%
%TA.AperFunction,Conductor*%
%TO.N,VCC_3V3*%
G36*
X122242948Y-94592736D02*
G01*
X122815994Y-94783337D01*
X122822761Y-94789199D01*
X122824000Y-94794438D01*
X122824000Y-95277197D01*
X122820573Y-95285470D01*
X122815543Y-95288439D01*
X122242712Y-95453678D01*
X122233813Y-95452678D01*
X122230238Y-95449625D01*
X122104713Y-95288439D01*
X121903597Y-95030188D01*
X121901218Y-95021556D01*
X121903597Y-95015812D01*
X122230025Y-94596648D01*
X122237811Y-94592227D01*
X122242948Y-94592736D01*
G37*
%TD.AperFunction*%
%TD*%
%TA.AperFunction,Conductor*%
%TO.N,VCC_3V3*%
G36*
X123088084Y-94606347D02*
G01*
X123091868Y-94609512D01*
X123418401Y-95028811D01*
X123420781Y-95037444D01*
X123418401Y-95043189D01*
X123091868Y-95462487D01*
X123084081Y-95466909D01*
X123079167Y-95466472D01*
X122506230Y-95288555D01*
X122499346Y-95282828D01*
X122498000Y-95277381D01*
X122498000Y-94794618D01*
X122501427Y-94786345D01*
X122506228Y-94783444D01*
X123079167Y-94605527D01*
X123088084Y-94606347D01*
G37*
%TD.AperFunction*%
%TD*%
%TA.AperFunction,Conductor*%
%TO.N,VCC_3V3*%
G36*
X111987762Y-87802585D02*
G01*
X112574296Y-88152596D01*
X112579644Y-88159778D01*
X112580000Y-88162643D01*
X112580000Y-88649122D01*
X112576573Y-88657395D01*
X112573991Y-88659345D01*
X111987711Y-88985707D01*
X111978815Y-88986737D01*
X111973754Y-88983764D01*
X111387349Y-88398335D01*
X111383915Y-88390065D01*
X111387335Y-88381789D01*
X111973559Y-87804297D01*
X111981857Y-87800933D01*
X111987762Y-87802585D01*
G37*
%TD.AperFunction*%
%TD*%
%TA.AperFunction,Conductor*%
%TO.N,VCC_3V3*%
G36*
X112694631Y-88115354D02*
G01*
X112698535Y-88121960D01*
X112755530Y-88403680D01*
X112755530Y-88408320D01*
X112698535Y-88690039D01*
X112693535Y-88697468D01*
X112686104Y-88699379D01*
X112171501Y-88656886D01*
X112163538Y-88652790D01*
X112160764Y-88645226D01*
X112160764Y-88166773D01*
X112164191Y-88158500D01*
X112171499Y-88155113D01*
X112686104Y-88112620D01*
X112694631Y-88115354D01*
G37*
%TD.AperFunction*%
%TD*%
%TA.AperFunction,Conductor*%
%TO.N,VCC_3V3*%
G36*
X144512747Y-88728844D02*
G01*
X144899189Y-89070259D01*
X144903120Y-89078305D01*
X144902536Y-89082745D01*
X144757675Y-89515018D01*
X144751797Y-89521773D01*
X144746581Y-89523000D01*
X144263419Y-89523000D01*
X144255146Y-89519573D01*
X144252325Y-89515018D01*
X144107463Y-89082743D01*
X144108084Y-89073811D01*
X144110807Y-89070262D01*
X144497253Y-88728843D01*
X144505722Y-88725934D01*
X144512747Y-88728844D01*
G37*
%TD.AperFunction*%
%TD*%
%TA.AperFunction,Conductor*%
%TO.N,VCC_3V3*%
G36*
X113039039Y-88462464D02*
G01*
X113046468Y-88467464D01*
X113048379Y-88474895D01*
X113005887Y-88989499D01*
X113001791Y-88997462D01*
X112994227Y-89000236D01*
X112515773Y-89000236D01*
X112507500Y-88996809D01*
X112504113Y-88989499D01*
X112461620Y-88474895D01*
X112464354Y-88466368D01*
X112470959Y-88462464D01*
X112752682Y-88405469D01*
X112757318Y-88405469D01*
X113039039Y-88462464D01*
G37*
%TD.AperFunction*%
%TD*%
%TA.AperFunction,Conductor*%
%TO.N,VCC_3V3*%
G36*
X119773803Y-78410465D02*
G01*
X119780992Y-78415801D01*
X119782303Y-78424660D01*
X119782291Y-78424707D01*
X119353248Y-80105392D01*
X119347882Y-80112560D01*
X119341912Y-80114198D01*
X118360088Y-80114198D01*
X118351815Y-80110771D01*
X118348752Y-80105392D01*
X117919708Y-78424707D01*
X117920982Y-78415843D01*
X117928148Y-78410477D01*
X118848153Y-78179714D01*
X118853847Y-78179714D01*
X119773803Y-78410465D01*
G37*
%TD.AperFunction*%
%TD*%
%TA.AperFunction,Conductor*%
%TO.N,VCC_3V3*%
G36*
X127482854Y-79228427D02*
G01*
X127485675Y-79232982D01*
X127630536Y-79665253D01*
X127629915Y-79674187D01*
X127627189Y-79677739D01*
X127240747Y-80019155D01*
X127232278Y-80022065D01*
X127225253Y-80019155D01*
X126838810Y-79677739D01*
X126834879Y-79669693D01*
X126835462Y-79665258D01*
X126980325Y-79232981D01*
X126986203Y-79226227D01*
X126991419Y-79225000D01*
X127474581Y-79225000D01*
X127482854Y-79228427D01*
G37*
%TD.AperFunction*%
%TD*%
%TA.AperFunction,Conductor*%
%TO.N,VCC_3V3*%
G36*
X157212747Y-88728844D02*
G01*
X157599189Y-89070259D01*
X157603120Y-89078305D01*
X157602536Y-89082745D01*
X157457675Y-89515018D01*
X157451797Y-89521773D01*
X157446581Y-89523000D01*
X156963419Y-89523000D01*
X156955146Y-89519573D01*
X156952325Y-89515018D01*
X156807463Y-89082743D01*
X156808084Y-89073811D01*
X156810807Y-89070262D01*
X157197253Y-88728843D01*
X157205722Y-88725934D01*
X157212747Y-88728844D01*
G37*
%TD.AperFunction*%
%TD*%
%TA.AperFunction,Conductor*%
%TO.N,VCC_3V3*%
G36*
X147052747Y-88728844D02*
G01*
X147439189Y-89070259D01*
X147443120Y-89078305D01*
X147442536Y-89082745D01*
X147297675Y-89515018D01*
X147291797Y-89521773D01*
X147286581Y-89523000D01*
X146803419Y-89523000D01*
X146795146Y-89519573D01*
X146792325Y-89515018D01*
X146647463Y-89082743D01*
X146648084Y-89073811D01*
X146650807Y-89070262D01*
X147037253Y-88728843D01*
X147045722Y-88725934D01*
X147052747Y-88728844D01*
G37*
%TD.AperFunction*%
%TD*%
%TA.AperFunction,Conductor*%
%TO.N,VCC_3V3*%
G36*
X149592747Y-88728844D02*
G01*
X149979189Y-89070259D01*
X149983120Y-89078305D01*
X149982536Y-89082745D01*
X149837675Y-89515018D01*
X149831797Y-89521773D01*
X149826581Y-89523000D01*
X149343419Y-89523000D01*
X149335146Y-89519573D01*
X149332325Y-89515018D01*
X149187463Y-89082743D01*
X149188084Y-89073811D01*
X149190807Y-89070262D01*
X149577253Y-88728843D01*
X149585722Y-88725934D01*
X149592747Y-88728844D01*
G37*
%TD.AperFunction*%
%TD*%
%TA.AperFunction,Conductor*%
%TO.N,VCC_3V3*%
G36*
X112230041Y-91376905D02*
G01*
X112232024Y-91378497D01*
X112573870Y-91720343D01*
X112577297Y-91728616D01*
X112574963Y-91735628D01*
X111986088Y-92522114D01*
X111978386Y-92526683D01*
X111971095Y-92525360D01*
X111383561Y-92203048D01*
X111377956Y-92196064D01*
X111377945Y-92196029D01*
X111209653Y-91611970D01*
X111210656Y-91603072D01*
X111217657Y-91597488D01*
X111218345Y-91597312D01*
X112221224Y-91375346D01*
X112230041Y-91376905D01*
G37*
%TD.AperFunction*%
%TD*%
%TA.AperFunction,Conductor*%
%TO.N,VCC_3V3*%
G36*
X120478505Y-76987998D02*
G01*
X120482907Y-76995796D01*
X120482993Y-76997211D01*
X120482993Y-77978925D01*
X120479566Y-77987198D01*
X120479288Y-77987467D01*
X119442119Y-78958150D01*
X119433737Y-78961302D01*
X119425582Y-78957603D01*
X119424719Y-78956568D01*
X118851812Y-78182448D01*
X118849612Y-78176978D01*
X118725487Y-77209981D01*
X118727833Y-77201338D01*
X118735599Y-77196887D01*
X120469880Y-76985597D01*
X120478505Y-76987998D01*
G37*
%TD.AperFunction*%
%TD*%
%TA.AperFunction,Conductor*%
%TO.N,VCC_3V3*%
G36*
X134594854Y-84498427D02*
G01*
X134597675Y-84502982D01*
X134742536Y-84935253D01*
X134741915Y-84944187D01*
X134739189Y-84947739D01*
X134352747Y-85289155D01*
X134344278Y-85292065D01*
X134337253Y-85289155D01*
X133950810Y-84947739D01*
X133946879Y-84939693D01*
X133947462Y-84935258D01*
X134092325Y-84502981D01*
X134098203Y-84496227D01*
X134103419Y-84495000D01*
X134586581Y-84495000D01*
X134594854Y-84498427D01*
G37*
%TD.AperFunction*%
%TD*%
%TA.AperFunction,Conductor*%
%TO.N,VCC_3V3*%
G36*
X115878499Y-88155113D02*
G01*
X115886462Y-88159209D01*
X115889236Y-88166773D01*
X115889236Y-88645226D01*
X115885809Y-88653499D01*
X115878499Y-88656886D01*
X115363895Y-88699379D01*
X115355368Y-88696645D01*
X115351464Y-88690039D01*
X115294469Y-88408320D01*
X115294469Y-88403680D01*
X115344578Y-88156000D01*
X115351464Y-88121959D01*
X115356464Y-88114531D01*
X115363894Y-88112620D01*
X115878499Y-88155113D01*
G37*
%TD.AperFunction*%
%TD*%
%TA.AperFunction,Conductor*%
%TO.N,VCC_3V3*%
G36*
X131038655Y-82277427D02*
G01*
X131041556Y-82282230D01*
X131219472Y-82855167D01*
X131218652Y-82864084D01*
X131215487Y-82867868D01*
X130796189Y-83194401D01*
X130787556Y-83196781D01*
X130781811Y-83194401D01*
X130362512Y-82867868D01*
X130358090Y-82860081D01*
X130358527Y-82855167D01*
X130536444Y-82282230D01*
X130542171Y-82275346D01*
X130547618Y-82274000D01*
X131030382Y-82274000D01*
X131038655Y-82277427D01*
G37*
%TD.AperFunction*%
%TD*%
%TA.AperFunction,Conductor*%
%TO.N,VCC_3V3*%
G36*
X162888334Y-85803843D02*
G01*
X162890587Y-85805605D01*
X163471647Y-86387633D01*
X163475067Y-86395909D01*
X163471633Y-86404179D01*
X163471546Y-86404265D01*
X162887062Y-86975691D01*
X162878751Y-86979024D01*
X162872008Y-86976792D01*
X162064150Y-86390167D01*
X162059470Y-86382533D01*
X162061558Y-86373825D01*
X162069192Y-86369145D01*
X162071025Y-86369000D01*
X162534999Y-86369000D01*
X162535000Y-86369000D01*
X162872281Y-85807842D01*
X162879478Y-85802518D01*
X162888334Y-85803843D01*
G37*
%TD.AperFunction*%
%TD*%
%TA.AperFunction,Conductor*%
%TO.N,VCC_3V3*%
G36*
X162868499Y-86123113D02*
G01*
X162876462Y-86127209D01*
X162879236Y-86134773D01*
X162879236Y-86613226D01*
X162875809Y-86621499D01*
X162868499Y-86624886D01*
X162353895Y-86667379D01*
X162345368Y-86664645D01*
X162341464Y-86658039D01*
X162284469Y-86376320D01*
X162284469Y-86371680D01*
X162334578Y-86124000D01*
X162341464Y-86089959D01*
X162346464Y-86082531D01*
X162353894Y-86080620D01*
X162868499Y-86123113D01*
G37*
%TD.AperFunction*%
%TD*%
%TA.AperFunction,Conductor*%
%TO.N,VCC_3V3*%
G36*
X162532500Y-85783191D02*
G01*
X162535887Y-85790501D01*
X162578379Y-86305104D01*
X162575645Y-86313631D01*
X162569039Y-86317535D01*
X162287320Y-86374530D01*
X162282680Y-86374530D01*
X162000960Y-86317535D01*
X161993531Y-86312535D01*
X161991620Y-86305104D01*
X162034113Y-85790501D01*
X162038209Y-85782538D01*
X162045773Y-85779764D01*
X162524227Y-85779764D01*
X162532500Y-85783191D01*
G37*
%TD.AperFunction*%
%TD*%
%TA.AperFunction,Conductor*%
%TO.N,VCC_3V3*%
G36*
X121564084Y-94593347D02*
G01*
X121567868Y-94596512D01*
X121894401Y-95015811D01*
X121896781Y-95024444D01*
X121894401Y-95030189D01*
X121567868Y-95449487D01*
X121560081Y-95453909D01*
X121555167Y-95453472D01*
X120982230Y-95275555D01*
X120975346Y-95269828D01*
X120974000Y-95264381D01*
X120974000Y-94781618D01*
X120977427Y-94773345D01*
X120982228Y-94770444D01*
X121555167Y-94592527D01*
X121564084Y-94593347D01*
G37*
%TD.AperFunction*%
%TD*%
%TA.AperFunction,Conductor*%
%TO.N,VCC_3V3*%
G36*
X120718832Y-94592527D02*
G01*
X120731665Y-94596512D01*
X121291770Y-94770444D01*
X121298654Y-94776171D01*
X121300000Y-94781618D01*
X121300000Y-95264381D01*
X121296573Y-95272654D01*
X121291770Y-95275555D01*
X120718832Y-95453472D01*
X120709915Y-95452652D01*
X120706131Y-95449487D01*
X120561978Y-95264381D01*
X120379597Y-95030188D01*
X120377218Y-95021556D01*
X120379597Y-95015812D01*
X120706132Y-94596511D01*
X120713918Y-94592090D01*
X120718832Y-94592527D01*
G37*
%TD.AperFunction*%
%TD*%
%TA.AperFunction,Conductor*%
%TO.N,VCC_3V3*%
G36*
X120040084Y-94593347D02*
G01*
X120043868Y-94596512D01*
X120370401Y-95015811D01*
X120372781Y-95024444D01*
X120370401Y-95030189D01*
X120043868Y-95449487D01*
X120036081Y-95453909D01*
X120031167Y-95453472D01*
X119458230Y-95275555D01*
X119451346Y-95269828D01*
X119450000Y-95264381D01*
X119450000Y-94781618D01*
X119453427Y-94773345D01*
X119458228Y-94770444D01*
X120031167Y-94592527D01*
X120040084Y-94593347D01*
G37*
%TD.AperFunction*%
%TD*%
%TA.AperFunction,Conductor*%
%TO.N,VCC_3V3*%
G36*
X139266247Y-84069400D02*
G01*
X139271222Y-84076833D01*
X139425540Y-84847703D01*
X139425540Y-84852297D01*
X139271222Y-85623166D01*
X139266238Y-85630605D01*
X139257464Y-85632343D01*
X137849786Y-85351875D01*
X137842342Y-85346898D01*
X137840372Y-85340401D01*
X137840372Y-84359598D01*
X137843799Y-84351325D01*
X137849784Y-84348124D01*
X139257464Y-84067656D01*
X139266247Y-84069400D01*
G37*
%TD.AperFunction*%
%TD*%
%TA.AperFunction,Conductor*%
%TO.N,VCC_3V3*%
G36*
X127227476Y-80023114D02*
G01*
X127234969Y-80028019D01*
X127236121Y-80030156D01*
X127395043Y-80416153D01*
X127395024Y-80425107D01*
X127390738Y-80430326D01*
X126763459Y-80850727D01*
X126754678Y-80852486D01*
X126748672Y-80849281D01*
X126408508Y-80509117D01*
X126405081Y-80500844D01*
X126406866Y-80494633D01*
X126753759Y-79941081D01*
X126761056Y-79935891D01*
X126765845Y-79935799D01*
X127227476Y-80023114D01*
G37*
%TD.AperFunction*%
%TD*%
%TA.AperFunction,Conductor*%
%TO.N,VCC_3V3*%
G36*
X126205819Y-80712316D02*
G01*
X126546470Y-81052967D01*
X126549897Y-81061240D01*
X126548583Y-81066628D01*
X126188472Y-81760814D01*
X126181620Y-81766579D01*
X126174702Y-81766626D01*
X125713425Y-81627257D01*
X125706497Y-81621584D01*
X125706122Y-81620817D01*
X125512147Y-81183930D01*
X125511922Y-81174979D01*
X125516263Y-81169507D01*
X126190970Y-80710912D01*
X126199738Y-80709096D01*
X126205819Y-80712316D01*
G37*
%TD.AperFunction*%
%TD*%
%TA.AperFunction,Conductor*%
%TO.N,VCC_3V3*%
G36*
X154672747Y-88728844D02*
G01*
X155059189Y-89070259D01*
X155063120Y-89078305D01*
X155062536Y-89082745D01*
X154917675Y-89515018D01*
X154911797Y-89521773D01*
X154906581Y-89523000D01*
X154423419Y-89523000D01*
X154415146Y-89519573D01*
X154412325Y-89515018D01*
X154267463Y-89082743D01*
X154268084Y-89073811D01*
X154270807Y-89070262D01*
X154657253Y-88728843D01*
X154665722Y-88725934D01*
X154672747Y-88728844D01*
G37*
%TD.AperFunction*%
%TD*%
%TA.AperFunction,Conductor*%
%TO.N,VCC_3V3*%
G36*
X125374084Y-81195347D02*
G01*
X125377868Y-81198512D01*
X125704401Y-81617811D01*
X125706781Y-81626444D01*
X125704401Y-81632189D01*
X125377868Y-82051487D01*
X125370081Y-82055909D01*
X125365167Y-82055472D01*
X124792230Y-81877555D01*
X124785346Y-81871828D01*
X124784000Y-81866381D01*
X124784000Y-81383618D01*
X124787427Y-81375345D01*
X124792228Y-81372444D01*
X125365167Y-81194527D01*
X125374084Y-81195347D01*
G37*
%TD.AperFunction*%
%TD*%
%TA.AperFunction,Conductor*%
%TO.N,VCC_3V3*%
G36*
X124528832Y-81194527D02*
G01*
X124541665Y-81198512D01*
X125101770Y-81372444D01*
X125108654Y-81378171D01*
X125110000Y-81383618D01*
X125110000Y-81866381D01*
X125106573Y-81874654D01*
X125101770Y-81877555D01*
X124528832Y-82055472D01*
X124519915Y-82054652D01*
X124516131Y-82051487D01*
X124371978Y-81866381D01*
X124189597Y-81632188D01*
X124187218Y-81623556D01*
X124189597Y-81617812D01*
X124516132Y-81198511D01*
X124523918Y-81194090D01*
X124528832Y-81194527D01*
G37*
%TD.AperFunction*%
%TD*%
%TA.AperFunction,Conductor*%
%TO.N,VCC_3V3*%
G36*
X126180681Y-81591961D02*
G01*
X126184723Y-81599952D01*
X126184734Y-81600110D01*
X126222647Y-82211154D01*
X126219739Y-82219624D01*
X126219242Y-82220152D01*
X125878096Y-82561298D01*
X125869823Y-82564725D01*
X125861550Y-82561298D01*
X125861167Y-82560896D01*
X125416776Y-82072170D01*
X125413745Y-82063744D01*
X125415733Y-82057756D01*
X125705125Y-81628985D01*
X125712593Y-81624046D01*
X125713930Y-81623866D01*
X126172174Y-81589168D01*
X126180681Y-81591961D01*
G37*
%TD.AperFunction*%
%TD*%
%TA.AperFunction,Conductor*%
%TO.N,VCC_3V3*%
G36*
X152132747Y-88728844D02*
G01*
X152519189Y-89070259D01*
X152523120Y-89078305D01*
X152522536Y-89082745D01*
X152377675Y-89515018D01*
X152371797Y-89521773D01*
X152366581Y-89523000D01*
X151883419Y-89523000D01*
X151875146Y-89519573D01*
X151872325Y-89515018D01*
X151727463Y-89082743D01*
X151728084Y-89073811D01*
X151730807Y-89070262D01*
X152117253Y-88728843D01*
X152125722Y-88725934D01*
X152132747Y-88728844D01*
G37*
%TD.AperFunction*%
%TD*%
%TA.AperFunction,Conductor*%
%TO.N,VCC_3V3*%
G36*
X119350430Y-98053602D02*
G01*
X119353413Y-98058683D01*
X119847790Y-99801834D01*
X119846751Y-99810728D01*
X119839726Y-99816282D01*
X119839666Y-99816299D01*
X118854132Y-100090129D01*
X118847868Y-100090129D01*
X117862333Y-99816299D01*
X117855279Y-99810782D01*
X117854192Y-99801895D01*
X118348587Y-98058682D01*
X118354141Y-98051658D01*
X118359843Y-98050175D01*
X119342157Y-98050175D01*
X119350430Y-98053602D01*
G37*
%TD.AperFunction*%
%TD*%
%TA.AperFunction,Conductor*%
%TO.N,VCC_3V3*%
G36*
X141972747Y-88728844D02*
G01*
X142359189Y-89070259D01*
X142363120Y-89078305D01*
X142362536Y-89082745D01*
X142217675Y-89515018D01*
X142211797Y-89521773D01*
X142206581Y-89523000D01*
X141723419Y-89523000D01*
X141715146Y-89519573D01*
X141712325Y-89515018D01*
X141567463Y-89082743D01*
X141568084Y-89073811D01*
X141570807Y-89070262D01*
X141957253Y-88728843D01*
X141965722Y-88725934D01*
X141972747Y-88728844D01*
G37*
%TD.AperFunction*%
%TD*%
%TA.AperFunction,Conductor*%
%TO.N,VCC_3V3*%
G36*
X162888355Y-81993859D02*
G01*
X162890670Y-81995653D01*
X163471660Y-82575674D01*
X163475094Y-82583944D01*
X163471674Y-82592220D01*
X163471615Y-82592279D01*
X162887029Y-83169574D01*
X162878735Y-83172949D01*
X162871979Y-83170749D01*
X162064486Y-82590199D01*
X162059770Y-82582588D01*
X162061817Y-82573870D01*
X162069429Y-82569153D01*
X162071317Y-82569000D01*
X162534999Y-82569000D01*
X162535000Y-82569000D01*
X162872331Y-81997980D01*
X162879489Y-81992602D01*
X162888355Y-81993859D01*
G37*
%TD.AperFunction*%
%TD*%
%TA.AperFunction,Conductor*%
%TO.N,VCC_3V3*%
G36*
X130796187Y-83203597D02*
G01*
X131114857Y-83451764D01*
X131215487Y-83530131D01*
X131219909Y-83537918D01*
X131219472Y-83542832D01*
X131041556Y-84115770D01*
X131035829Y-84122654D01*
X131030382Y-84124000D01*
X130547618Y-84124000D01*
X130539345Y-84120573D01*
X130536444Y-84115770D01*
X130358527Y-83542832D01*
X130359347Y-83533915D01*
X130362510Y-83530132D01*
X130781811Y-83203597D01*
X130790444Y-83201218D01*
X130796187Y-83203597D01*
G37*
%TD.AperFunction*%
%TD*%
%TA.AperFunction,Conductor*%
%TO.N,VCC_3V3*%
G36*
X123766832Y-94605527D02*
G01*
X123779665Y-94609512D01*
X124339770Y-94783444D01*
X124346654Y-94789171D01*
X124348000Y-94794618D01*
X124348000Y-95277381D01*
X124344573Y-95285654D01*
X124339770Y-95288555D01*
X123766832Y-95466472D01*
X123757915Y-95465652D01*
X123754131Y-95462487D01*
X123609978Y-95277381D01*
X123427597Y-95043188D01*
X123425218Y-95034556D01*
X123427597Y-95028812D01*
X123754132Y-94609511D01*
X123761918Y-94605090D01*
X123766832Y-94605527D01*
G37*
%TD.AperFunction*%
%TD*%
%TA.AperFunction,Conductor*%
%TO.N,VDD*%
G36*
X112835701Y-68616065D02*
G01*
X113308616Y-69117556D01*
X113765430Y-69601973D01*
X113768613Y-69610343D01*
X113765430Y-69618027D01*
X112835703Y-70603932D01*
X112827534Y-70607600D01*
X112822378Y-70606569D01*
X111728888Y-70113107D01*
X111722757Y-70106581D01*
X111722001Y-70102443D01*
X111722001Y-69117556D01*
X111725428Y-69109283D01*
X111728888Y-69106892D01*
X112822380Y-68613429D01*
X112831329Y-68613150D01*
X112835701Y-68616065D01*
G37*
%TD.AperFunction*%
%TD*%
%TA.AperFunction,Conductor*%
%TO.N,VDD*%
G36*
X110133958Y-69536167D02*
G01*
X110828312Y-70230521D01*
X110831739Y-70238794D01*
X110829910Y-70245075D01*
X109850268Y-71784512D01*
X109842935Y-71789652D01*
X109835930Y-71789045D01*
X108951388Y-71423638D01*
X108945050Y-71417312D01*
X108944157Y-71413031D01*
X108922334Y-70177173D01*
X108925614Y-70168842D01*
X108928541Y-70166638D01*
X110120203Y-69534105D01*
X110129114Y-69533254D01*
X110133958Y-69536167D01*
G37*
%TD.AperFunction*%
%TD*%
%TA.AperFunction,Conductor*%
%TO.N,/M2_MODE1*%
G36*
X172117468Y-92966086D02*
G01*
X172316919Y-93165537D01*
X172320346Y-93173810D01*
X172318786Y-93179648D01*
X172052666Y-93641867D01*
X172045568Y-93647327D01*
X172036688Y-93646169D01*
X172036058Y-93645778D01*
X171798271Y-93488015D01*
X171794990Y-93484734D01*
X171637227Y-93246947D01*
X171635508Y-93238159D01*
X171640508Y-93230730D01*
X171641138Y-93230339D01*
X172103359Y-92964218D01*
X172112237Y-92963061D01*
X172117468Y-92966086D01*
G37*
%TD.AperFunction*%
%TD*%
%TA.AperFunction,Conductor*%
%TO.N,/M2_MODE1*%
G36*
X127042494Y-94419191D02*
G01*
X127045881Y-94426501D01*
X127088373Y-94941104D01*
X127085639Y-94949631D01*
X127079033Y-94953535D01*
X126797314Y-95010530D01*
X126792674Y-95010530D01*
X126510954Y-94953535D01*
X126503525Y-94948535D01*
X126501614Y-94941104D01*
X126544107Y-94426501D01*
X126548203Y-94418538D01*
X126555767Y-94415764D01*
X127034221Y-94415764D01*
X127042494Y-94419191D01*
G37*
%TD.AperFunction*%
%TD*%
%TA.AperFunction,Conductor*%
%TO.N,/M2_CK*%
G36*
X168452487Y-92218826D02*
G01*
X168965526Y-92419094D01*
X168971985Y-92425294D01*
X168972970Y-92429992D01*
X168972970Y-92711928D01*
X168969543Y-92720201D01*
X168963010Y-92723498D01*
X168450528Y-92800584D01*
X168441837Y-92798426D01*
X168437321Y-92791335D01*
X168380469Y-92510321D01*
X168380469Y-92505683D01*
X168395782Y-92429992D01*
X168436767Y-92227404D01*
X168441767Y-92219977D01*
X168450555Y-92218258D01*
X168452487Y-92218826D01*
G37*
%TD.AperFunction*%
%TD*%
%TA.AperFunction,Conductor*%
%TO.N,/M2_CK*%
G36*
X128642500Y-94419191D02*
G01*
X128645887Y-94426501D01*
X128688379Y-94941104D01*
X128685645Y-94949631D01*
X128679039Y-94953535D01*
X128397320Y-95010530D01*
X128392680Y-95010530D01*
X128110960Y-94953535D01*
X128103531Y-94948535D01*
X128101620Y-94941104D01*
X128144113Y-94426501D01*
X128148209Y-94418538D01*
X128155773Y-94415764D01*
X128634227Y-94415764D01*
X128642500Y-94419191D01*
G37*
%TD.AperFunction*%
%TD*%
%TA.AperFunction,Conductor*%
%TO.N,/M2_EN*%
G36*
X126242491Y-94419191D02*
G01*
X126245878Y-94426501D01*
X126288370Y-94941104D01*
X126285636Y-94949631D01*
X126279030Y-94953535D01*
X125997311Y-95010530D01*
X125992671Y-95010530D01*
X125710951Y-94953535D01*
X125703522Y-94948535D01*
X125701611Y-94941104D01*
X125744104Y-94426501D01*
X125748200Y-94418538D01*
X125755764Y-94415764D01*
X126234218Y-94415764D01*
X126242491Y-94419191D01*
G37*
%TD.AperFunction*%
%TD*%
%TA.AperFunction,Conductor*%
%TO.N,/M2_EN*%
G36*
X173237522Y-92928027D02*
G01*
X173240948Y-92936150D01*
X173247111Y-93417777D01*
X173243790Y-93426094D01*
X173237732Y-93429395D01*
X172957789Y-93486030D01*
X172949001Y-93484311D01*
X172948942Y-93484272D01*
X172712789Y-93325533D01*
X172707835Y-93318074D01*
X172709287Y-93309797D01*
X172937390Y-92930272D01*
X172944589Y-92924947D01*
X172947418Y-92924600D01*
X173229249Y-92924600D01*
X173237522Y-92928027D01*
G37*
%TD.AperFunction*%
%TD*%
%TA.AperFunction,Conductor*%
%TO.N,/M2_CLK*%
G36*
X129442500Y-94419191D02*
G01*
X129445887Y-94426501D01*
X129488379Y-94941104D01*
X129485645Y-94949631D01*
X129479039Y-94953535D01*
X129197320Y-95010530D01*
X129192680Y-95010530D01*
X128910960Y-94953535D01*
X128903531Y-94948535D01*
X128901620Y-94941104D01*
X128944113Y-94426501D01*
X128948209Y-94418538D01*
X128955773Y-94415764D01*
X129434227Y-94415764D01*
X129442500Y-94419191D01*
G37*
%TD.AperFunction*%
%TD*%
%TA.AperFunction,Conductor*%
%TO.N,/M2_CLK*%
G36*
X168948834Y-91460425D02*
G01*
X168956759Y-91464592D01*
X168959466Y-91472076D01*
X168959466Y-91754011D01*
X168956039Y-91762284D01*
X168952795Y-91764575D01*
X168556781Y-91953104D01*
X168547838Y-91953566D01*
X168542042Y-91949067D01*
X168382727Y-91712057D01*
X168380956Y-91703279D01*
X168380969Y-91703210D01*
X168437445Y-91424050D01*
X168442445Y-91416623D01*
X168449978Y-91414721D01*
X168948834Y-91460425D01*
G37*
%TD.AperFunction*%
%TD*%
%TA.AperFunction,Conductor*%
%TO.N,/M2_PS*%
G36*
X133830500Y-93149191D02*
G01*
X133833887Y-93156501D01*
X133876379Y-93671104D01*
X133873645Y-93679631D01*
X133867039Y-93683535D01*
X133585320Y-93740530D01*
X133580680Y-93740530D01*
X133298960Y-93683535D01*
X133291531Y-93678535D01*
X133289620Y-93671104D01*
X133332113Y-93156501D01*
X133336209Y-93148538D01*
X133343773Y-93145764D01*
X133822227Y-93145764D01*
X133830500Y-93149191D01*
G37*
%TD.AperFunction*%
%TD*%
%TA.AperFunction,Conductor*%
%TO.N,/M2_PS*%
G36*
X169472499Y-85361113D02*
G01*
X169480462Y-85365209D01*
X169483236Y-85372773D01*
X169483236Y-85851226D01*
X169479809Y-85859499D01*
X169472499Y-85862886D01*
X168957895Y-85905379D01*
X168949368Y-85902645D01*
X168945464Y-85896039D01*
X168888469Y-85614320D01*
X168888469Y-85609680D01*
X168938578Y-85362000D01*
X168945464Y-85327959D01*
X168950464Y-85320531D01*
X168957894Y-85318620D01*
X169472499Y-85361113D01*
G37*
%TD.AperFunction*%
%TD*%
%TA.AperFunction,Conductor*%
%TO.N,/M2_MODE0*%
G36*
X171113581Y-92881943D02*
G01*
X171114531Y-92882795D01*
X171313727Y-93081991D01*
X171317154Y-93090264D01*
X171317135Y-93090931D01*
X171298910Y-93410190D01*
X171298530Y-93412551D01*
X171296506Y-93420105D01*
X171296506Y-93451977D01*
X171296487Y-93452644D01*
X171292006Y-93531131D01*
X171288113Y-93539195D01*
X171279658Y-93542145D01*
X171278074Y-93541945D01*
X170998619Y-93487161D01*
X170994338Y-93485387D01*
X170758123Y-93326433D01*
X170753172Y-93318971D01*
X170754948Y-93310194D01*
X170755520Y-93309416D01*
X171097133Y-92883744D01*
X171104984Y-92879438D01*
X171113581Y-92881943D01*
G37*
%TD.AperFunction*%
%TD*%
%TA.AperFunction,Conductor*%
%TO.N,/M2_MODE0*%
G36*
X127842497Y-94419191D02*
G01*
X127845884Y-94426501D01*
X127888376Y-94941104D01*
X127885642Y-94949631D01*
X127879036Y-94953535D01*
X127597317Y-95010530D01*
X127592677Y-95010530D01*
X127310957Y-94953535D01*
X127303528Y-94948535D01*
X127301617Y-94941104D01*
X127344110Y-94426501D01*
X127348206Y-94418538D01*
X127355770Y-94415764D01*
X127834224Y-94415764D01*
X127842497Y-94419191D01*
G37*
%TD.AperFunction*%
%TD*%
%TA.AperFunction,Conductor*%
%TO.N,/M1_EN*%
G36*
X122993148Y-89448571D02*
G01*
X122996888Y-89456707D01*
X122996897Y-89457154D01*
X122996897Y-89935530D01*
X122993470Y-89943803D01*
X122987636Y-89946973D01*
X122477089Y-90055774D01*
X122468283Y-90054147D01*
X122463207Y-90046770D01*
X122463198Y-90046731D01*
X122406000Y-89764003D01*
X122351095Y-89483179D01*
X122352871Y-89474404D01*
X122360333Y-89469453D01*
X122362126Y-89469245D01*
X122984752Y-89445463D01*
X122993148Y-89448571D01*
G37*
%TD.AperFunction*%
%TD*%
%TA.AperFunction,Conductor*%
%TO.N,/M1_EN*%
G36*
X101620492Y-82001578D02*
G01*
X101624771Y-82006811D01*
X101823907Y-82488037D01*
X101823904Y-82496992D01*
X101817570Y-82503322D01*
X101813096Y-82504211D01*
X101533535Y-82504211D01*
X101528013Y-82502826D01*
X101171556Y-82312010D01*
X101165880Y-82305084D01*
X101166763Y-82296173D01*
X101167329Y-82295227D01*
X101324170Y-82059556D01*
X101331606Y-82054568D01*
X101331602Y-82054568D01*
X101611717Y-81999802D01*
X101620492Y-82001578D01*
G37*
%TD.AperFunction*%
%TD*%
%TA.AperFunction,Conductor*%
%TO.N,/M1_MODE1*%
G36*
X102623017Y-82006336D02*
G01*
X102630445Y-82011335D01*
X102632164Y-82020123D01*
X102631994Y-82020845D01*
X102493331Y-82535859D01*
X102487871Y-82542957D01*
X102482033Y-82544517D01*
X102199967Y-82544517D01*
X102191694Y-82541090D01*
X102188669Y-82535859D01*
X102050005Y-82020845D01*
X102051163Y-82011965D01*
X102058261Y-82006505D01*
X102058953Y-82006341D01*
X102338682Y-81949750D01*
X102343318Y-81949750D01*
X102623017Y-82006336D01*
G37*
%TD.AperFunction*%
%TD*%
%TA.AperFunction,Conductor*%
%TO.N,/M1_MODE1*%
G36*
X122990088Y-88644474D02*
G01*
X122998189Y-88648286D01*
X123001236Y-88656161D01*
X123001236Y-89134600D01*
X122997809Y-89142873D01*
X122990908Y-89146219D01*
X122476230Y-89206972D01*
X122467612Y-89204539D01*
X122463390Y-89197673D01*
X122406469Y-88916320D01*
X122406469Y-88911680D01*
X122463536Y-88629602D01*
X122468536Y-88622174D01*
X122475553Y-88620236D01*
X122990088Y-88644474D01*
G37*
%TD.AperFunction*%
%TD*%
%TA.AperFunction,Conductor*%
%TO.N,/M1_CLK*%
G36*
X122583000Y-86805648D02*
G01*
X122583539Y-86806033D01*
X122894290Y-87041489D01*
X122898814Y-87049215D01*
X122898924Y-87050813D01*
X122898924Y-87528221D01*
X122895497Y-87536494D01*
X122887224Y-87539921D01*
X122883180Y-87539200D01*
X122357824Y-87345677D01*
X122351245Y-87339602D01*
X122350385Y-87332453D01*
X122405449Y-87050813D01*
X122405547Y-87050311D01*
X122407317Y-87046037D01*
X122566765Y-86808829D01*
X122574222Y-86803877D01*
X122583000Y-86805648D01*
G37*
%TD.AperFunction*%
%TD*%
%TA.AperFunction,Conductor*%
%TO.N,/M1_CLK*%
G36*
X106195391Y-83031691D02*
G01*
X106203647Y-83035160D01*
X106207031Y-83043451D01*
X106206814Y-83045636D01*
X106152453Y-83323681D01*
X106150680Y-83327963D01*
X105990673Y-83566002D01*
X105983214Y-83570956D01*
X105974714Y-83569367D01*
X105599028Y-83332043D01*
X105593864Y-83324727D01*
X105593577Y-83322151D01*
X105593577Y-83040360D01*
X105597004Y-83032087D01*
X105605276Y-83028660D01*
X106195391Y-83031691D01*
G37*
%TD.AperFunction*%
%TD*%
%TA.AperFunction,Conductor*%
%TO.N,/M1_CK*%
G36*
X126473208Y-83674141D02*
G01*
X126835770Y-84039113D01*
X126839169Y-84047398D01*
X126835742Y-84055632D01*
X126497478Y-84393896D01*
X126489205Y-84397323D01*
X126482360Y-84395112D01*
X126409802Y-84342768D01*
X126406043Y-84338224D01*
X126390747Y-84305421D01*
X126309579Y-84224253D01*
X126205545Y-84175741D01*
X126205543Y-84175740D01*
X126175109Y-84171734D01*
X126169793Y-84169623D01*
X126059451Y-84090021D01*
X126054747Y-84082403D01*
X126056547Y-84074068D01*
X126214985Y-83835263D01*
X126218263Y-83831985D01*
X126458439Y-83672637D01*
X126467227Y-83670919D01*
X126473208Y-83674141D01*
G37*
%TD.AperFunction*%
%TD*%
%TA.AperFunction,Conductor*%
%TO.N,/M1_CK*%
G36*
X106090512Y-82019404D02*
G01*
X106094572Y-82026140D01*
X106151030Y-82305210D01*
X106149311Y-82313998D01*
X106149272Y-82314057D01*
X105989896Y-82551158D01*
X105982437Y-82556112D01*
X105975272Y-82555249D01*
X105577415Y-82371140D01*
X105571346Y-82364556D01*
X105570629Y-82360522D01*
X105570629Y-82078587D01*
X105574056Y-82070314D01*
X105581162Y-82066945D01*
X106081940Y-82016818D01*
X106090512Y-82019404D01*
G37*
%TD.AperFunction*%
%TD*%
%TA.AperFunction,Conductor*%
%TO.N,/M1_MODE0*%
G36*
X122935039Y-87843161D02*
G01*
X122942508Y-87848102D01*
X122944509Y-87854646D01*
X122944509Y-88333019D01*
X122941082Y-88341292D01*
X122932809Y-88344719D01*
X122932532Y-88344716D01*
X122306099Y-88329864D01*
X122297909Y-88326242D01*
X122294679Y-88317890D01*
X122294892Y-88315930D01*
X122349759Y-88035300D01*
X122406984Y-87752441D01*
X122411984Y-87745013D01*
X122420682Y-87743277D01*
X122935039Y-87843161D01*
G37*
%TD.AperFunction*%
%TD*%
%TA.AperFunction,Conductor*%
%TO.N,/M1_MODE0*%
G36*
X103117401Y-81896121D02*
G01*
X103119367Y-81897172D01*
X103355037Y-82053696D01*
X103358304Y-82056960D01*
X103516509Y-82294680D01*
X103518240Y-82303466D01*
X103513251Y-82310902D01*
X103512252Y-82311498D01*
X103153971Y-82501577D01*
X103148488Y-82502941D01*
X102868963Y-82502941D01*
X102860690Y-82499514D01*
X102857263Y-82491241D01*
X102858166Y-82486734D01*
X102931569Y-82310902D01*
X103102098Y-81902409D01*
X103108447Y-81896096D01*
X103117401Y-81896121D01*
G37*
%TD.AperFunction*%
%TD*%
%TA.AperFunction,Conductor*%
%TO.N,Net-(U401-RNF1)*%
G36*
X97979668Y-90031242D02*
G01*
X98178980Y-90230554D01*
X98182407Y-90238827D01*
X98181997Y-90241899D01*
X98066093Y-90667916D01*
X98060614Y-90674999D01*
X98052552Y-90676325D01*
X97773088Y-90621540D01*
X97765630Y-90616587D01*
X97607788Y-90378680D01*
X97606069Y-90369892D01*
X97609523Y-90363688D01*
X97963383Y-90030989D01*
X97971755Y-90027821D01*
X97979668Y-90031242D01*
G37*
%TD.AperFunction*%
%TD*%
%TA.AperFunction,Conductor*%
%TO.N,Net-(U401-RNF1)*%
G36*
X97868281Y-90029084D02*
G01*
X97871002Y-90033354D01*
X98058584Y-90548590D01*
X98058194Y-90557537D01*
X98051593Y-90563587D01*
X98049910Y-90564061D01*
X97771320Y-90620423D01*
X97766680Y-90620423D01*
X97485926Y-90563624D01*
X97478497Y-90558624D01*
X97476720Y-90550148D01*
X97566510Y-90035347D01*
X97571307Y-90027785D01*
X97578036Y-90025657D01*
X97860008Y-90025657D01*
X97868281Y-90029084D01*
G37*
%TD.AperFunction*%
%TD*%
%TA.AperFunction,Conductor*%
%TO.N,Net-(U401-RNF2)*%
G36*
X97758835Y-81660739D02*
G01*
X97763786Y-81668201D01*
X97763788Y-81668214D01*
X97865493Y-82191628D01*
X97863707Y-82200403D01*
X97856240Y-82205345D01*
X97854008Y-82205560D01*
X97572690Y-82205560D01*
X97564862Y-82202555D01*
X97308158Y-81971446D01*
X97304302Y-81963364D01*
X97306245Y-81956272D01*
X97464613Y-81718306D01*
X97472049Y-81713318D01*
X97472045Y-81713318D01*
X97750059Y-81658963D01*
X97758835Y-81660739D01*
G37*
%TD.AperFunction*%
%TD*%
%TA.AperFunction,Conductor*%
%TO.N,Net-(U402-RNF1)*%
G36*
X177351888Y-84326055D02*
G01*
X177359316Y-84331054D01*
X177361035Y-84339842D01*
X177360865Y-84340564D01*
X177222202Y-84855578D01*
X177216742Y-84862676D01*
X177210904Y-84864236D01*
X176928838Y-84864236D01*
X176920565Y-84860809D01*
X176917540Y-84855578D01*
X176778876Y-84340564D01*
X176780034Y-84331684D01*
X176787132Y-84326224D01*
X176787824Y-84326060D01*
X177067553Y-84269469D01*
X177072189Y-84269469D01*
X177351888Y-84326055D01*
G37*
%TD.AperFunction*%
%TD*%
%TA.AperFunction,Conductor*%
%TO.N,Net-(U402-RNF2)*%
G36*
X177113336Y-92293083D02*
G01*
X177116361Y-92298314D01*
X177255024Y-92813327D01*
X177253866Y-92822207D01*
X177246768Y-92827667D01*
X177246046Y-92827837D01*
X176966350Y-92884422D01*
X176961710Y-92884422D01*
X176682013Y-92827837D01*
X176674584Y-92822837D01*
X176672865Y-92814049D01*
X176673035Y-92813327D01*
X176811699Y-92298314D01*
X176817159Y-92291216D01*
X176822997Y-92289656D01*
X177105063Y-92289656D01*
X177113336Y-92293083D01*
G37*
%TD.AperFunction*%
%TD*%
%TA.AperFunction,Conductor*%
%TO.N,Net-(U402-RNF2)*%
G36*
X177200940Y-92305776D02*
G01*
X177204303Y-92312824D01*
X177257151Y-92814782D01*
X177254609Y-92823368D01*
X177247835Y-92827475D01*
X176968819Y-92883922D01*
X176960031Y-92882203D01*
X176959972Y-92882164D01*
X176722814Y-92722750D01*
X176717860Y-92715291D01*
X176718689Y-92708201D01*
X176900082Y-92309206D01*
X176906626Y-92303094D01*
X176910733Y-92302349D01*
X177192667Y-92302349D01*
X177200940Y-92305776D01*
G37*
%TD.AperFunction*%
%TD*%
%TA.AperFunction,Conductor*%
%TO.N,/DRIVERS/M1_MTH*%
G36*
X107387404Y-90457394D02*
G01*
X108122709Y-91191721D01*
X108126141Y-91199992D01*
X108122720Y-91208268D01*
X108122709Y-91208279D01*
X107387404Y-91942605D01*
X107379128Y-91946026D01*
X107371827Y-91943462D01*
X107126015Y-91746812D01*
X106634391Y-91353512D01*
X106630072Y-91345668D01*
X106630000Y-91344376D01*
X106630000Y-91055623D01*
X106633427Y-91047350D01*
X106634391Y-91046487D01*
X107371829Y-90456536D01*
X107380428Y-90454045D01*
X107387404Y-90457394D01*
G37*
%TD.AperFunction*%
%TD*%
%TA.AperFunction,Conductor*%
%TO.N,/DRIVERS/M1_MTH*%
G36*
X107999914Y-93072427D02*
G01*
X108002187Y-93075634D01*
X108277788Y-93649393D01*
X108278282Y-93658334D01*
X108274431Y-93663690D01*
X107856189Y-93989401D01*
X107847556Y-93991781D01*
X107841811Y-93989401D01*
X107423568Y-93663690D01*
X107419146Y-93655903D01*
X107420211Y-93649393D01*
X107695813Y-93075634D01*
X107702484Y-93069660D01*
X107706359Y-93069000D01*
X107991641Y-93069000D01*
X107999914Y-93072427D01*
G37*
%TD.AperFunction*%
%TD*%
%TA.AperFunction,Conductor*%
%TO.N,/DRIVERS/M1_MTH*%
G36*
X108137130Y-91208503D02*
G01*
X108138397Y-91209899D01*
X108740823Y-91991865D01*
X108743158Y-92000510D01*
X108739839Y-92007268D01*
X108002428Y-92746563D01*
X107994159Y-92750000D01*
X107706738Y-92750000D01*
X107698465Y-92746573D01*
X107695971Y-92742879D01*
X107382982Y-92007012D01*
X107382898Y-91998058D01*
X107385204Y-91994441D01*
X108120593Y-91209046D01*
X108128748Y-91205350D01*
X108137130Y-91208503D01*
G37*
%TD.AperFunction*%
%TD*%
%TA.AperFunction,Conductor*%
%TO.N,/DRIVERS/M1_VREF*%
G36*
X108002417Y-85843427D02*
G01*
X108002428Y-85843437D01*
X108739839Y-86582731D01*
X108743255Y-86591009D01*
X108740823Y-86598134D01*
X108138401Y-87380095D01*
X108130638Y-87384558D01*
X108121993Y-87382223D01*
X108120592Y-87380952D01*
X107951294Y-87200143D01*
X107385207Y-86595561D01*
X107382055Y-86587181D01*
X107382981Y-86582991D01*
X107695971Y-85847120D01*
X107702363Y-85840849D01*
X107706738Y-85840000D01*
X107994144Y-85840000D01*
X108002417Y-85843427D01*
G37*
%TD.AperFunction*%
%TD*%
%TA.AperFunction,Conductor*%
%TO.N,/DRIVERS/M1_VREF*%
G36*
X107856187Y-84600597D02*
G01*
X108060003Y-84759320D01*
X108274431Y-84926309D01*
X108278853Y-84934096D01*
X108277788Y-84940606D01*
X108002187Y-85514366D01*
X107995516Y-85520340D01*
X107991641Y-85521000D01*
X107706359Y-85521000D01*
X107698086Y-85517573D01*
X107695813Y-85514366D01*
X107420211Y-84940606D01*
X107419717Y-84931665D01*
X107423568Y-84926309D01*
X107841811Y-84600597D01*
X107850444Y-84598218D01*
X107856187Y-84600597D01*
G37*
%TD.AperFunction*%
%TD*%
%TA.AperFunction,Conductor*%
%TO.N,/DRIVERS/M1_VREF*%
G36*
X107387404Y-86647394D02*
G01*
X108122709Y-87381721D01*
X108126141Y-87389992D01*
X108122720Y-87398268D01*
X108122709Y-87398279D01*
X107387404Y-88132605D01*
X107379128Y-88136026D01*
X107371827Y-88133462D01*
X107126015Y-87936812D01*
X106634391Y-87543512D01*
X106630072Y-87535668D01*
X106630000Y-87534376D01*
X106630000Y-87245623D01*
X106633427Y-87237350D01*
X106634391Y-87236487D01*
X107371829Y-86646536D01*
X107380428Y-86644045D01*
X107387404Y-86647394D01*
G37*
%TD.AperFunction*%
%TD*%
%TA.AperFunction,Conductor*%
%TO.N,/DRIVERS/M2_MTH*%
G36*
X167488170Y-82841536D02*
G01*
X168225609Y-83431487D01*
X168229928Y-83439331D01*
X168230000Y-83440623D01*
X168230000Y-83729376D01*
X168226573Y-83737649D01*
X168225609Y-83738512D01*
X167488172Y-84328462D01*
X167479571Y-84330954D01*
X167472595Y-84327605D01*
X166881852Y-83737649D01*
X166737289Y-83593278D01*
X166733858Y-83585008D01*
X166737279Y-83576732D01*
X166737290Y-83576721D01*
X167472596Y-82842393D01*
X167480871Y-82838973D01*
X167488170Y-82841536D01*
G37*
%TD.AperFunction*%
%TD*%
%TA.AperFunction,Conductor*%
%TO.N,/DRIVERS/M2_MTH*%
G36*
X167078187Y-80795597D02*
G01*
X167282003Y-80954320D01*
X167496431Y-81121309D01*
X167500853Y-81129096D01*
X167499788Y-81135606D01*
X167224187Y-81709366D01*
X167217516Y-81715340D01*
X167213641Y-81716000D01*
X166928359Y-81716000D01*
X166920086Y-81712573D01*
X166917813Y-81709366D01*
X166642211Y-81135606D01*
X166641717Y-81126665D01*
X166645568Y-81121309D01*
X167063811Y-80795597D01*
X167072444Y-80793218D01*
X167078187Y-80795597D01*
G37*
%TD.AperFunction*%
%TD*%
%TA.AperFunction,Conductor*%
%TO.N,/DRIVERS/M2_MTH*%
G36*
X167220936Y-82038427D02*
G01*
X167223722Y-82042881D01*
X167477697Y-82778332D01*
X167477158Y-82787270D01*
X167475179Y-82790148D01*
X166739602Y-83575744D01*
X166731446Y-83579441D01*
X166723064Y-83576288D01*
X166721651Y-83574700D01*
X166144311Y-82793279D01*
X166142151Y-82784588D01*
X166145626Y-82777879D01*
X166670985Y-82274536D01*
X166917606Y-82038252D01*
X166925700Y-82035000D01*
X167212663Y-82035000D01*
X167220936Y-82038427D01*
G37*
%TD.AperFunction*%
%TD*%
%TA.AperFunction,Conductor*%
%TO.N,/DRIVERS/M2_VREF*%
G36*
X167171114Y-89267427D02*
G01*
X167173387Y-89270634D01*
X167448988Y-89844393D01*
X167449482Y-89853334D01*
X167445631Y-89858690D01*
X167027389Y-90184401D01*
X167018756Y-90186781D01*
X167013011Y-90184401D01*
X166594768Y-89858690D01*
X166590346Y-89850903D01*
X166591411Y-89844393D01*
X166867013Y-89270634D01*
X166873684Y-89264660D01*
X166877559Y-89264000D01*
X167162841Y-89264000D01*
X167171114Y-89267427D01*
G37*
%TD.AperFunction*%
%TD*%
%TA.AperFunction,Conductor*%
%TO.N,/DRIVERS/M2_VREF*%
G36*
X166738009Y-87402786D02*
G01*
X166739438Y-87404080D01*
X167474850Y-88189500D01*
X167478003Y-88197882D01*
X167477123Y-88201964D01*
X167173188Y-88937767D01*
X167166862Y-88944105D01*
X167162374Y-88945000D01*
X166875032Y-88945000D01*
X166866777Y-88941592D01*
X166124135Y-88202247D01*
X166120690Y-88193981D01*
X166123098Y-88186845D01*
X166721607Y-87404964D01*
X166729356Y-87400479D01*
X166738009Y-87402786D01*
G37*
%TD.AperFunction*%
%TD*%
%TA.AperFunction,Conductor*%
%TO.N,/DRIVERS/M2_VREF*%
G36*
X167488170Y-86651536D02*
G01*
X168225609Y-87241487D01*
X168229928Y-87249331D01*
X168230000Y-87250623D01*
X168230000Y-87539376D01*
X168226573Y-87547649D01*
X168225609Y-87548512D01*
X167488172Y-88138462D01*
X167479571Y-88140954D01*
X167472595Y-88137605D01*
X166881852Y-87547649D01*
X166737289Y-87403278D01*
X166733858Y-87395008D01*
X166737279Y-87386732D01*
X166737290Y-87386721D01*
X167472596Y-86652393D01*
X167480871Y-86648973D01*
X167488170Y-86651536D01*
G37*
%TD.AperFunction*%
%TD*%
%TA.AperFunction,Conductor*%
%TO.N,/MCU/INI1*%
G36*
X157454854Y-86276427D02*
G01*
X157457675Y-86280982D01*
X157602536Y-86713253D01*
X157601915Y-86722187D01*
X157599189Y-86725739D01*
X157212747Y-87067155D01*
X157204278Y-87070065D01*
X157197253Y-87067155D01*
X156810810Y-86725739D01*
X156806879Y-86717693D01*
X156807462Y-86713258D01*
X156952325Y-86280981D01*
X156958203Y-86274227D01*
X156963419Y-86273000D01*
X157446581Y-86273000D01*
X157454854Y-86276427D01*
G37*
%TD.AperFunction*%
%TD*%
%TA.AperFunction,Conductor*%
%TO.N,/MCU/INI1*%
G36*
X157976149Y-85003373D02*
G01*
X157983587Y-85008357D01*
X157985323Y-85017142D01*
X157984809Y-85018946D01*
X157457844Y-86427029D01*
X157451735Y-86433576D01*
X157446886Y-86434628D01*
X156963114Y-86434628D01*
X156954841Y-86431201D01*
X156952156Y-86427029D01*
X156425190Y-85018946D01*
X156425500Y-85009996D01*
X156432047Y-85003887D01*
X156433842Y-85003375D01*
X157202707Y-84849459D01*
X157207293Y-84849459D01*
X157976149Y-85003373D01*
G37*
%TD.AperFunction*%
%TD*%
%TA.AperFunction,Conductor*%
%TO.N,/MCU/INI1*%
G36*
X125139888Y-90147739D02*
G01*
X125144763Y-90155085D01*
X125202000Y-90438000D01*
X125202015Y-90438075D01*
X125256854Y-90718565D01*
X125255078Y-90727342D01*
X125247616Y-90732293D01*
X125245600Y-90732508D01*
X124618693Y-90744766D01*
X124610354Y-90741501D01*
X124606766Y-90733297D01*
X124606764Y-90733068D01*
X124606764Y-90254696D01*
X124610191Y-90246423D01*
X124616289Y-90243199D01*
X125131124Y-90145908D01*
X125139888Y-90147739D01*
G37*
%TD.AperFunction*%
%TD*%
%TA.AperFunction,Conductor*%
%TO.N,/MCU/INI2*%
G36*
X125140631Y-91004354D02*
G01*
X125144535Y-91010960D01*
X125201530Y-91292680D01*
X125201530Y-91297320D01*
X125144535Y-91579039D01*
X125139535Y-91586468D01*
X125132104Y-91588379D01*
X124617501Y-91545886D01*
X124609538Y-91541790D01*
X124606764Y-91534226D01*
X124606764Y-91055773D01*
X124610191Y-91047500D01*
X124617499Y-91044113D01*
X125132104Y-91001620D01*
X125140631Y-91004354D01*
G37*
%TD.AperFunction*%
%TD*%
%TA.AperFunction,Conductor*%
%TO.N,/MCU/INI2*%
G36*
X154914854Y-86276427D02*
G01*
X154917675Y-86280982D01*
X155062536Y-86713253D01*
X155061915Y-86722187D01*
X155059189Y-86725739D01*
X154672747Y-87067155D01*
X154664278Y-87070065D01*
X154657253Y-87067155D01*
X154270810Y-86725739D01*
X154266879Y-86717693D01*
X154267462Y-86713258D01*
X154412325Y-86280981D01*
X154418203Y-86274227D01*
X154423419Y-86273000D01*
X154906581Y-86273000D01*
X154914854Y-86276427D01*
G37*
%TD.AperFunction*%
%TD*%
%TA.AperFunction,Conductor*%
%TO.N,/MCU/INI2*%
G36*
X155436149Y-85003373D02*
G01*
X155443587Y-85008357D01*
X155445323Y-85017142D01*
X155444809Y-85018946D01*
X154917844Y-86427029D01*
X154911735Y-86433576D01*
X154906886Y-86434628D01*
X154423114Y-86434628D01*
X154414841Y-86431201D01*
X154412156Y-86427029D01*
X153885190Y-85018946D01*
X153885500Y-85009996D01*
X153892047Y-85003887D01*
X153893842Y-85003375D01*
X154662707Y-84849459D01*
X154667293Y-84849459D01*
X155436149Y-85003373D01*
G37*
%TD.AperFunction*%
%TD*%
%TA.AperFunction,Conductor*%
%TO.N,/MCU/INI3*%
G36*
X133522870Y-91023279D02*
G01*
X133526463Y-91029612D01*
X133583530Y-91311689D01*
X133583530Y-91316329D01*
X133526609Y-91597682D01*
X133521609Y-91605111D01*
X133513769Y-91606981D01*
X132999092Y-91546219D01*
X132991278Y-91541846D01*
X132988764Y-91534600D01*
X132988764Y-91056161D01*
X132992191Y-91047888D01*
X132999911Y-91044475D01*
X133514445Y-91020245D01*
X133522870Y-91023279D01*
G37*
%TD.AperFunction*%
%TD*%
%TA.AperFunction,Conductor*%
%TO.N,/MCU/INI3*%
G36*
X152374854Y-86276427D02*
G01*
X152377675Y-86280982D01*
X152522536Y-86713253D01*
X152521915Y-86722187D01*
X152519189Y-86725739D01*
X152132747Y-87067155D01*
X152124278Y-87070065D01*
X152117253Y-87067155D01*
X151730810Y-86725739D01*
X151726879Y-86717693D01*
X151727462Y-86713258D01*
X151872325Y-86280981D01*
X151878203Y-86274227D01*
X151883419Y-86273000D01*
X152366581Y-86273000D01*
X152374854Y-86276427D01*
G37*
%TD.AperFunction*%
%TD*%
%TA.AperFunction,Conductor*%
%TO.N,/MCU/INI3*%
G36*
X152896149Y-85003373D02*
G01*
X152903587Y-85008357D01*
X152905323Y-85017142D01*
X152904809Y-85018946D01*
X152377844Y-86427029D01*
X152371735Y-86433576D01*
X152366886Y-86434628D01*
X151883114Y-86434628D01*
X151874841Y-86431201D01*
X151872156Y-86427029D01*
X151345190Y-85018946D01*
X151345500Y-85009996D01*
X151352047Y-85003887D01*
X151353842Y-85003375D01*
X152122707Y-84849459D01*
X152127293Y-84849459D01*
X152896149Y-85003373D01*
G37*
%TD.AperFunction*%
%TD*%
%TA.AperFunction,Conductor*%
%TO.N,/MCU/INI4*%
G36*
X133522870Y-90223276D02*
G01*
X133526463Y-90229609D01*
X133583530Y-90511686D01*
X133583530Y-90516326D01*
X133526609Y-90797679D01*
X133521609Y-90805108D01*
X133513769Y-90806978D01*
X132999092Y-90746219D01*
X132991278Y-90741846D01*
X132988764Y-90734600D01*
X132988764Y-90256161D01*
X132992191Y-90247888D01*
X132999911Y-90244474D01*
X133514445Y-90220242D01*
X133522870Y-90223276D01*
G37*
%TD.AperFunction*%
%TD*%
%TA.AperFunction,Conductor*%
%TO.N,/MCU/INI4*%
G36*
X149834854Y-86276427D02*
G01*
X149837675Y-86280982D01*
X149982536Y-86713253D01*
X149981915Y-86722187D01*
X149979189Y-86725739D01*
X149592747Y-87067155D01*
X149584278Y-87070065D01*
X149577253Y-87067155D01*
X149190810Y-86725739D01*
X149186879Y-86717693D01*
X149187462Y-86713258D01*
X149332325Y-86280981D01*
X149338203Y-86274227D01*
X149343419Y-86273000D01*
X149826581Y-86273000D01*
X149834854Y-86276427D01*
G37*
%TD.AperFunction*%
%TD*%
%TA.AperFunction,Conductor*%
%TO.N,/MCU/INI4*%
G36*
X150356149Y-85003373D02*
G01*
X150363587Y-85008357D01*
X150365323Y-85017142D01*
X150364809Y-85018946D01*
X149837844Y-86427029D01*
X149831735Y-86433576D01*
X149826886Y-86434628D01*
X149343114Y-86434628D01*
X149334841Y-86431201D01*
X149332156Y-86427029D01*
X148805190Y-85018946D01*
X148805500Y-85009996D01*
X148812047Y-85003887D01*
X148813842Y-85003375D01*
X149582707Y-84849459D01*
X149587293Y-84849459D01*
X150356149Y-85003373D01*
G37*
%TD.AperFunction*%
%TD*%
%TA.AperFunction,Conductor*%
%TO.N,/MCU/INI5*%
G36*
X147816149Y-85003373D02*
G01*
X147823587Y-85008357D01*
X147825323Y-85017142D01*
X147824809Y-85018946D01*
X147297844Y-86427029D01*
X147291735Y-86433576D01*
X147286886Y-86434628D01*
X146803114Y-86434628D01*
X146794841Y-86431201D01*
X146792156Y-86427029D01*
X146265190Y-85018946D01*
X146265500Y-85009996D01*
X146272047Y-85003887D01*
X146273842Y-85003375D01*
X147042707Y-84849459D01*
X147047293Y-84849459D01*
X147816149Y-85003373D01*
G37*
%TD.AperFunction*%
%TD*%
%TA.AperFunction,Conductor*%
%TO.N,/MCU/INI5*%
G36*
X147294854Y-86276427D02*
G01*
X147297675Y-86280982D01*
X147442536Y-86713253D01*
X147441915Y-86722187D01*
X147439189Y-86725739D01*
X147052747Y-87067155D01*
X147044278Y-87070065D01*
X147037253Y-87067155D01*
X146650810Y-86725739D01*
X146646879Y-86717693D01*
X146647462Y-86713258D01*
X146792325Y-86280981D01*
X146798203Y-86274227D01*
X146803419Y-86273000D01*
X147286581Y-86273000D01*
X147294854Y-86276427D01*
G37*
%TD.AperFunction*%
%TD*%
%TA.AperFunction,Conductor*%
%TO.N,/MCU/INI5*%
G36*
X133522870Y-89423273D02*
G01*
X133526463Y-89429606D01*
X133583530Y-89711683D01*
X133583530Y-89716323D01*
X133526609Y-89997676D01*
X133521609Y-90005105D01*
X133513769Y-90006975D01*
X132999092Y-89946219D01*
X132991278Y-89941846D01*
X132988764Y-89934600D01*
X132988764Y-89456161D01*
X132992191Y-89447888D01*
X132999911Y-89444474D01*
X133514445Y-89420239D01*
X133522870Y-89423273D01*
G37*
%TD.AperFunction*%
%TD*%
%TA.AperFunction,Conductor*%
%TO.N,/MCU/INI6*%
G36*
X144754854Y-86276427D02*
G01*
X144757675Y-86280982D01*
X144902536Y-86713253D01*
X144901915Y-86722187D01*
X144899189Y-86725739D01*
X144512747Y-87067155D01*
X144504278Y-87070065D01*
X144497253Y-87067155D01*
X144110810Y-86725739D01*
X144106879Y-86717693D01*
X144107462Y-86713258D01*
X144252325Y-86280981D01*
X144258203Y-86274227D01*
X144263419Y-86273000D01*
X144746581Y-86273000D01*
X144754854Y-86276427D01*
G37*
%TD.AperFunction*%
%TD*%
%TA.AperFunction,Conductor*%
%TO.N,/MCU/INI6*%
G36*
X145276149Y-85003373D02*
G01*
X145283587Y-85008357D01*
X145285323Y-85017142D01*
X145284809Y-85018946D01*
X144757844Y-86427029D01*
X144751735Y-86433576D01*
X144746886Y-86434628D01*
X144263114Y-86434628D01*
X144254841Y-86431201D01*
X144252156Y-86427029D01*
X143725190Y-85018946D01*
X143725500Y-85009996D01*
X143732047Y-85003887D01*
X143733842Y-85003375D01*
X144502707Y-84849459D01*
X144507293Y-84849459D01*
X145276149Y-85003373D01*
G37*
%TD.AperFunction*%
%TD*%
%TA.AperFunction,Conductor*%
%TO.N,/MCU/INI6*%
G36*
X133522870Y-88623270D02*
G01*
X133526463Y-88629603D01*
X133583530Y-88911680D01*
X133583530Y-88916320D01*
X133526609Y-89197673D01*
X133521609Y-89205102D01*
X133513769Y-89206972D01*
X132999092Y-89146219D01*
X132991278Y-89141846D01*
X132988764Y-89134600D01*
X132988764Y-88656161D01*
X132992191Y-88647888D01*
X132999910Y-88644474D01*
X133514445Y-88620236D01*
X133522870Y-88623270D01*
G37*
%TD.AperFunction*%
%TD*%
%TA.AperFunction,Conductor*%
%TO.N,/MCU/INI7*%
G36*
X133522870Y-87823267D02*
G01*
X133526463Y-87829600D01*
X133583530Y-88111677D01*
X133583530Y-88116317D01*
X133526609Y-88397670D01*
X133521609Y-88405099D01*
X133513770Y-88406969D01*
X132999093Y-88346219D01*
X132991278Y-88341846D01*
X132988764Y-88334600D01*
X132988764Y-87856161D01*
X132992191Y-87847888D01*
X132999911Y-87844474D01*
X133514445Y-87820233D01*
X133522870Y-87823267D01*
G37*
%TD.AperFunction*%
%TD*%
%TA.AperFunction,Conductor*%
%TO.N,/MCU/INI7*%
G36*
X142214854Y-86276427D02*
G01*
X142217675Y-86280982D01*
X142362536Y-86713253D01*
X142361915Y-86722187D01*
X142359189Y-86725739D01*
X141972747Y-87067155D01*
X141964278Y-87070065D01*
X141957253Y-87067155D01*
X141570810Y-86725739D01*
X141566879Y-86717693D01*
X141567462Y-86713258D01*
X141712325Y-86280981D01*
X141718203Y-86274227D01*
X141723419Y-86273000D01*
X142206581Y-86273000D01*
X142214854Y-86276427D01*
G37*
%TD.AperFunction*%
%TD*%
%TA.AperFunction,Conductor*%
%TO.N,/MCU/INI7*%
G36*
X142736149Y-85003373D02*
G01*
X142743587Y-85008357D01*
X142745323Y-85017142D01*
X142744809Y-85018946D01*
X142217844Y-86427029D01*
X142211735Y-86433576D01*
X142206886Y-86434628D01*
X141723114Y-86434628D01*
X141714841Y-86431201D01*
X141712156Y-86427029D01*
X141185190Y-85018946D01*
X141185500Y-85009996D01*
X141192047Y-85003887D01*
X141193842Y-85003375D01*
X141962707Y-84849459D01*
X141967293Y-84849459D01*
X142736149Y-85003373D01*
G37*
%TD.AperFunction*%
%TD*%
M02*
