%TF.GenerationSoftware,KiCad,Pcbnew,9.0.3*%
%TF.CreationDate,2025-10-17T11:05:45+02:00*%
%TF.ProjectId,PCB_Driver_Stepper,5043425f-4472-4697-9665-725f53746570,rev?*%
%TF.SameCoordinates,Original*%
%TF.FileFunction,Paste,Bot*%
%TF.FilePolarity,Positive*%
%FSLAX46Y46*%
G04 Gerber Fmt 4.6, Leading zero omitted, Abs format (unit mm)*
G04 Created by KiCad (PCBNEW 9.0.3) date 2025-10-17 11:05:45*
%MOMM*%
%LPD*%
G01*
G04 APERTURE LIST*
G04 Aperture macros list*
%AMRoundRect*
0 Rectangle with rounded corners*
0 $1 Rounding radius*
0 $2 $3 $4 $5 $6 $7 $8 $9 X,Y pos of 4 corners*
0 Add a 4 corners polygon primitive as box body*
4,1,4,$2,$3,$4,$5,$6,$7,$8,$9,$2,$3,0*
0 Add four circle primitives for the rounded corners*
1,1,$1+$1,$2,$3*
1,1,$1+$1,$4,$5*
1,1,$1+$1,$6,$7*
1,1,$1+$1,$8,$9*
0 Add four rect primitives between the rounded corners*
20,1,$1+$1,$2,$3,$4,$5,0*
20,1,$1+$1,$4,$5,$6,$7,0*
20,1,$1+$1,$6,$7,$8,$9,0*
20,1,$1+$1,$8,$9,$2,$3,0*%
G04 Aperture macros list end*
%ADD10RoundRect,0.250000X1.000000X0.650000X-1.000000X0.650000X-1.000000X-0.650000X1.000000X-0.650000X0*%
%ADD11RoundRect,0.250000X-0.650000X1.000000X-0.650000X-1.000000X0.650000X-1.000000X0.650000X1.000000X0*%
%ADD12RoundRect,0.250000X0.362500X1.425000X-0.362500X1.425000X-0.362500X-1.425000X0.362500X-1.425000X0*%
%ADD13RoundRect,0.250000X0.650000X-1.000000X0.650000X1.000000X-0.650000X1.000000X-0.650000X-1.000000X0*%
%ADD14RoundRect,0.250000X-1.000000X-0.650000X1.000000X-0.650000X1.000000X0.650000X-1.000000X0.650000X0*%
%ADD15RoundRect,0.250000X-0.362500X-1.425000X0.362500X-1.425000X0.362500X1.425000X-0.362500X1.425000X0*%
G04 APERTURE END LIST*
D10*
%TO.C,D402*%
X104142600Y-93851000D03*
X100142600Y-93851000D03*
%TD*%
%TO.C,D414*%
X174572000Y-77418000D03*
X170572000Y-77418000D03*
%TD*%
D11*
%TO.C,D415*%
X177866000Y-95952000D03*
X177866000Y-99952000D03*
%TD*%
D12*
%TO.C,R405*%
X176114000Y-91205000D03*
X170189000Y-91205000D03*
%TD*%
D13*
%TO.C,D401*%
X96864600Y-97629000D03*
X96864600Y-93629000D03*
%TD*%
D14*
%TO.C,D412*%
X170572000Y-96214000D03*
X174572000Y-96214000D03*
%TD*%
D15*
%TO.C,R401*%
X98632600Y-88665000D03*
X104557600Y-88665000D03*
%TD*%
D10*
%TO.C,D416*%
X174572000Y-99730000D03*
X170572000Y-99730000D03*
%TD*%
D11*
%TO.C,D409*%
X181502000Y-77156000D03*
X181502000Y-81156000D03*
%TD*%
D12*
%TO.C,R404*%
X176114000Y-86125000D03*
X170189000Y-86125000D03*
%TD*%
D11*
%TO.C,D405*%
X93308600Y-93629000D03*
X93308600Y-97629000D03*
%TD*%
D14*
%TO.C,D408*%
X100174600Y-78357000D03*
X104174600Y-78357000D03*
%TD*%
D11*
%TO.C,D403*%
X96840600Y-74579000D03*
X96840600Y-78579000D03*
%TD*%
D10*
%TO.C,D404*%
X104174600Y-74801000D03*
X100174600Y-74801000D03*
%TD*%
D15*
%TO.C,R402*%
X98632600Y-83585000D03*
X104557600Y-83585000D03*
%TD*%
D13*
%TO.C,D407*%
X93284600Y-78579000D03*
X93284600Y-74579000D03*
%TD*%
%TO.C,D413*%
X177906000Y-81156000D03*
X177906000Y-77156000D03*
%TD*%
%TO.C,D411*%
X181462000Y-99952000D03*
X181462000Y-95952000D03*
%TD*%
D14*
%TO.C,D406*%
X100142600Y-97407000D03*
X104142600Y-97407000D03*
%TD*%
%TO.C,D410*%
X170572000Y-80934000D03*
X174572000Y-80934000D03*
%TD*%
M02*
