%TF.GenerationSoftware,KiCad,Pcbnew,9.0.3*%
%TF.CreationDate,2025-10-17T11:05:45+02:00*%
%TF.ProjectId,PCB_Driver_Stepper,5043425f-4472-4697-9665-725f53746570,rev?*%
%TF.SameCoordinates,Original*%
%TF.FileFunction,Legend,Top*%
%TF.FilePolarity,Positive*%
%FSLAX46Y46*%
G04 Gerber Fmt 4.6, Leading zero omitted, Abs format (unit mm)*
G04 Created by KiCad (PCBNEW 9.0.3) date 2025-10-17 11:05:45*
%MOMM*%
%LPD*%
G01*
G04 APERTURE LIST*
%ADD10C,0.150000*%
%ADD11C,0.120000*%
%ADD12C,0.152400*%
%ADD13C,0.000000*%
G04 APERTURE END LIST*
D10*
X113601952Y-83177580D02*
X113554333Y-83225200D01*
X113554333Y-83225200D02*
X113411476Y-83272819D01*
X113411476Y-83272819D02*
X113316238Y-83272819D01*
X113316238Y-83272819D02*
X113173381Y-83225200D01*
X113173381Y-83225200D02*
X113078143Y-83129961D01*
X113078143Y-83129961D02*
X113030524Y-83034723D01*
X113030524Y-83034723D02*
X112982905Y-82844247D01*
X112982905Y-82844247D02*
X112982905Y-82701390D01*
X112982905Y-82701390D02*
X113030524Y-82510914D01*
X113030524Y-82510914D02*
X113078143Y-82415676D01*
X113078143Y-82415676D02*
X113173381Y-82320438D01*
X113173381Y-82320438D02*
X113316238Y-82272819D01*
X113316238Y-82272819D02*
X113411476Y-82272819D01*
X113411476Y-82272819D02*
X113554333Y-82320438D01*
X113554333Y-82320438D02*
X113601952Y-82368057D01*
X113982905Y-82368057D02*
X114030524Y-82320438D01*
X114030524Y-82320438D02*
X114125762Y-82272819D01*
X114125762Y-82272819D02*
X114363857Y-82272819D01*
X114363857Y-82272819D02*
X114459095Y-82320438D01*
X114459095Y-82320438D02*
X114506714Y-82368057D01*
X114506714Y-82368057D02*
X114554333Y-82463295D01*
X114554333Y-82463295D02*
X114554333Y-82558533D01*
X114554333Y-82558533D02*
X114506714Y-82701390D01*
X114506714Y-82701390D02*
X113935286Y-83272819D01*
X113935286Y-83272819D02*
X114554333Y-83272819D01*
X115173381Y-82272819D02*
X115268619Y-82272819D01*
X115268619Y-82272819D02*
X115363857Y-82320438D01*
X115363857Y-82320438D02*
X115411476Y-82368057D01*
X115411476Y-82368057D02*
X115459095Y-82463295D01*
X115459095Y-82463295D02*
X115506714Y-82653771D01*
X115506714Y-82653771D02*
X115506714Y-82891866D01*
X115506714Y-82891866D02*
X115459095Y-83082342D01*
X115459095Y-83082342D02*
X115411476Y-83177580D01*
X115411476Y-83177580D02*
X115363857Y-83225200D01*
X115363857Y-83225200D02*
X115268619Y-83272819D01*
X115268619Y-83272819D02*
X115173381Y-83272819D01*
X115173381Y-83272819D02*
X115078143Y-83225200D01*
X115078143Y-83225200D02*
X115030524Y-83177580D01*
X115030524Y-83177580D02*
X114982905Y-83082342D01*
X114982905Y-83082342D02*
X114935286Y-82891866D01*
X114935286Y-82891866D02*
X114935286Y-82653771D01*
X114935286Y-82653771D02*
X114982905Y-82463295D01*
X114982905Y-82463295D02*
X115030524Y-82368057D01*
X115030524Y-82368057D02*
X115078143Y-82320438D01*
X115078143Y-82320438D02*
X115173381Y-82272819D01*
X116459095Y-83272819D02*
X115887667Y-83272819D01*
X116173381Y-83272819D02*
X116173381Y-82272819D01*
X116173381Y-82272819D02*
X116078143Y-82415676D01*
X116078143Y-82415676D02*
X115982905Y-82510914D01*
X115982905Y-82510914D02*
X115887667Y-82558533D01*
X107504952Y-83525580D02*
X107457333Y-83573200D01*
X107457333Y-83573200D02*
X107314476Y-83620819D01*
X107314476Y-83620819D02*
X107219238Y-83620819D01*
X107219238Y-83620819D02*
X107076381Y-83573200D01*
X107076381Y-83573200D02*
X106981143Y-83477961D01*
X106981143Y-83477961D02*
X106933524Y-83382723D01*
X106933524Y-83382723D02*
X106885905Y-83192247D01*
X106885905Y-83192247D02*
X106885905Y-83049390D01*
X106885905Y-83049390D02*
X106933524Y-82858914D01*
X106933524Y-82858914D02*
X106981143Y-82763676D01*
X106981143Y-82763676D02*
X107076381Y-82668438D01*
X107076381Y-82668438D02*
X107219238Y-82620819D01*
X107219238Y-82620819D02*
X107314476Y-82620819D01*
X107314476Y-82620819D02*
X107457333Y-82668438D01*
X107457333Y-82668438D02*
X107504952Y-82716057D01*
X108362095Y-82954152D02*
X108362095Y-83620819D01*
X108124000Y-82573200D02*
X107885905Y-83287485D01*
X107885905Y-83287485D02*
X108504952Y-83287485D01*
X109076381Y-82620819D02*
X109171619Y-82620819D01*
X109171619Y-82620819D02*
X109266857Y-82668438D01*
X109266857Y-82668438D02*
X109314476Y-82716057D01*
X109314476Y-82716057D02*
X109362095Y-82811295D01*
X109362095Y-82811295D02*
X109409714Y-83001771D01*
X109409714Y-83001771D02*
X109409714Y-83239866D01*
X109409714Y-83239866D02*
X109362095Y-83430342D01*
X109362095Y-83430342D02*
X109314476Y-83525580D01*
X109314476Y-83525580D02*
X109266857Y-83573200D01*
X109266857Y-83573200D02*
X109171619Y-83620819D01*
X109171619Y-83620819D02*
X109076381Y-83620819D01*
X109076381Y-83620819D02*
X108981143Y-83573200D01*
X108981143Y-83573200D02*
X108933524Y-83525580D01*
X108933524Y-83525580D02*
X108885905Y-83430342D01*
X108885905Y-83430342D02*
X108838286Y-83239866D01*
X108838286Y-83239866D02*
X108838286Y-83001771D01*
X108838286Y-83001771D02*
X108885905Y-82811295D01*
X108885905Y-82811295D02*
X108933524Y-82716057D01*
X108933524Y-82716057D02*
X108981143Y-82668438D01*
X108981143Y-82668438D02*
X109076381Y-82620819D01*
X109743048Y-82620819D02*
X110362095Y-82620819D01*
X110362095Y-82620819D02*
X110028762Y-83001771D01*
X110028762Y-83001771D02*
X110171619Y-83001771D01*
X110171619Y-83001771D02*
X110266857Y-83049390D01*
X110266857Y-83049390D02*
X110314476Y-83097009D01*
X110314476Y-83097009D02*
X110362095Y-83192247D01*
X110362095Y-83192247D02*
X110362095Y-83430342D01*
X110362095Y-83430342D02*
X110314476Y-83525580D01*
X110314476Y-83525580D02*
X110266857Y-83573200D01*
X110266857Y-83573200D02*
X110171619Y-83620819D01*
X110171619Y-83620819D02*
X109885905Y-83620819D01*
X109885905Y-83620819D02*
X109790667Y-83573200D01*
X109790667Y-83573200D02*
X109743048Y-83525580D01*
X168636580Y-74544047D02*
X168684200Y-74591666D01*
X168684200Y-74591666D02*
X168731819Y-74734523D01*
X168731819Y-74734523D02*
X168731819Y-74829761D01*
X168731819Y-74829761D02*
X168684200Y-74972618D01*
X168684200Y-74972618D02*
X168588961Y-75067856D01*
X168588961Y-75067856D02*
X168493723Y-75115475D01*
X168493723Y-75115475D02*
X168303247Y-75163094D01*
X168303247Y-75163094D02*
X168160390Y-75163094D01*
X168160390Y-75163094D02*
X167969914Y-75115475D01*
X167969914Y-75115475D02*
X167874676Y-75067856D01*
X167874676Y-75067856D02*
X167779438Y-74972618D01*
X167779438Y-74972618D02*
X167731819Y-74829761D01*
X167731819Y-74829761D02*
X167731819Y-74734523D01*
X167731819Y-74734523D02*
X167779438Y-74591666D01*
X167779438Y-74591666D02*
X167827057Y-74544047D01*
X168065152Y-73686904D02*
X168731819Y-73686904D01*
X167684200Y-73924999D02*
X168398485Y-74163094D01*
X168398485Y-74163094D02*
X168398485Y-73544047D01*
X168731819Y-72639285D02*
X168731819Y-73210713D01*
X168731819Y-72924999D02*
X167731819Y-72924999D01*
X167731819Y-72924999D02*
X167874676Y-73020237D01*
X167874676Y-73020237D02*
X167969914Y-73115475D01*
X167969914Y-73115475D02*
X168017533Y-73210713D01*
X168731819Y-71686904D02*
X168731819Y-72258332D01*
X168731819Y-71972618D02*
X167731819Y-71972618D01*
X167731819Y-71972618D02*
X167874676Y-72067856D01*
X167874676Y-72067856D02*
X167969914Y-72163094D01*
X167969914Y-72163094D02*
X168017533Y-72258332D01*
X95800714Y-81002819D02*
X95800714Y-81812342D01*
X95800714Y-81812342D02*
X95848333Y-81907580D01*
X95848333Y-81907580D02*
X95895952Y-81955200D01*
X95895952Y-81955200D02*
X95991190Y-82002819D01*
X95991190Y-82002819D02*
X96181666Y-82002819D01*
X96181666Y-82002819D02*
X96276904Y-81955200D01*
X96276904Y-81955200D02*
X96324523Y-81907580D01*
X96324523Y-81907580D02*
X96372142Y-81812342D01*
X96372142Y-81812342D02*
X96372142Y-81002819D01*
X97276904Y-81336152D02*
X97276904Y-82002819D01*
X97038809Y-80955200D02*
X96800714Y-81669485D01*
X96800714Y-81669485D02*
X97419761Y-81669485D01*
X97991190Y-81002819D02*
X98086428Y-81002819D01*
X98086428Y-81002819D02*
X98181666Y-81050438D01*
X98181666Y-81050438D02*
X98229285Y-81098057D01*
X98229285Y-81098057D02*
X98276904Y-81193295D01*
X98276904Y-81193295D02*
X98324523Y-81383771D01*
X98324523Y-81383771D02*
X98324523Y-81621866D01*
X98324523Y-81621866D02*
X98276904Y-81812342D01*
X98276904Y-81812342D02*
X98229285Y-81907580D01*
X98229285Y-81907580D02*
X98181666Y-81955200D01*
X98181666Y-81955200D02*
X98086428Y-82002819D01*
X98086428Y-82002819D02*
X97991190Y-82002819D01*
X97991190Y-82002819D02*
X97895952Y-81955200D01*
X97895952Y-81955200D02*
X97848333Y-81907580D01*
X97848333Y-81907580D02*
X97800714Y-81812342D01*
X97800714Y-81812342D02*
X97753095Y-81621866D01*
X97753095Y-81621866D02*
X97753095Y-81383771D01*
X97753095Y-81383771D02*
X97800714Y-81193295D01*
X97800714Y-81193295D02*
X97848333Y-81098057D01*
X97848333Y-81098057D02*
X97895952Y-81050438D01*
X97895952Y-81050438D02*
X97991190Y-81002819D01*
X99276904Y-82002819D02*
X98705476Y-82002819D01*
X98991190Y-82002819D02*
X98991190Y-81002819D01*
X98991190Y-81002819D02*
X98895952Y-81145676D01*
X98895952Y-81145676D02*
X98800714Y-81240914D01*
X98800714Y-81240914D02*
X98705476Y-81288533D01*
X94404419Y-89325399D02*
X94642514Y-89325399D01*
X94547276Y-89563494D02*
X94642514Y-89325399D01*
X94642514Y-89325399D02*
X94547276Y-89087304D01*
X94832990Y-89468256D02*
X94642514Y-89325399D01*
X94642514Y-89325399D02*
X94832990Y-89182542D01*
X94404419Y-89325399D02*
X94642514Y-89325399D01*
X94547276Y-89563494D02*
X94642514Y-89325399D01*
X94642514Y-89325399D02*
X94547276Y-89087304D01*
X94832990Y-89468256D02*
X94642514Y-89325399D01*
X94642514Y-89325399D02*
X94832990Y-89182542D01*
X184822009Y-103891809D02*
X184822009Y-104225142D01*
X185345819Y-104225142D02*
X184345819Y-104225142D01*
X184345819Y-104225142D02*
X184345819Y-103748952D01*
X185345819Y-103367999D02*
X184345819Y-103367999D01*
X185345819Y-102891809D02*
X184345819Y-102891809D01*
X184345819Y-102891809D02*
X184345819Y-102653714D01*
X184345819Y-102653714D02*
X184393438Y-102510857D01*
X184393438Y-102510857D02*
X184488676Y-102415619D01*
X184488676Y-102415619D02*
X184583914Y-102368000D01*
X184583914Y-102368000D02*
X184774390Y-102320381D01*
X184774390Y-102320381D02*
X184917247Y-102320381D01*
X184917247Y-102320381D02*
X185107723Y-102368000D01*
X185107723Y-102368000D02*
X185202961Y-102415619D01*
X185202961Y-102415619D02*
X185298200Y-102510857D01*
X185298200Y-102510857D02*
X185345819Y-102653714D01*
X185345819Y-102653714D02*
X185345819Y-102891809D01*
X185345819Y-101368000D02*
X185345819Y-101939428D01*
X185345819Y-101653714D02*
X184345819Y-101653714D01*
X184345819Y-101653714D02*
X184488676Y-101748952D01*
X184488676Y-101748952D02*
X184583914Y-101844190D01*
X184583914Y-101844190D02*
X184631533Y-101939428D01*
X184345819Y-100748952D02*
X184345819Y-100653714D01*
X184345819Y-100653714D02*
X184393438Y-100558476D01*
X184393438Y-100558476D02*
X184441057Y-100510857D01*
X184441057Y-100510857D02*
X184536295Y-100463238D01*
X184536295Y-100463238D02*
X184726771Y-100415619D01*
X184726771Y-100415619D02*
X184964866Y-100415619D01*
X184964866Y-100415619D02*
X185155342Y-100463238D01*
X185155342Y-100463238D02*
X185250580Y-100510857D01*
X185250580Y-100510857D02*
X185298200Y-100558476D01*
X185298200Y-100558476D02*
X185345819Y-100653714D01*
X185345819Y-100653714D02*
X185345819Y-100748952D01*
X185345819Y-100748952D02*
X185298200Y-100844190D01*
X185298200Y-100844190D02*
X185250580Y-100891809D01*
X185250580Y-100891809D02*
X185155342Y-100939428D01*
X185155342Y-100939428D02*
X184964866Y-100987047D01*
X184964866Y-100987047D02*
X184726771Y-100987047D01*
X184726771Y-100987047D02*
X184536295Y-100939428D01*
X184536295Y-100939428D02*
X184441057Y-100891809D01*
X184441057Y-100891809D02*
X184393438Y-100844190D01*
X184393438Y-100844190D02*
X184345819Y-100748952D01*
X184679152Y-99558476D02*
X185345819Y-99558476D01*
X184298200Y-99796571D02*
X185012485Y-100034666D01*
X185012485Y-100034666D02*
X185012485Y-99415619D01*
X174119952Y-84359740D02*
X174072333Y-84407360D01*
X174072333Y-84407360D02*
X173929476Y-84454979D01*
X173929476Y-84454979D02*
X173834238Y-84454979D01*
X173834238Y-84454979D02*
X173691381Y-84407360D01*
X173691381Y-84407360D02*
X173596143Y-84312121D01*
X173596143Y-84312121D02*
X173548524Y-84216883D01*
X173548524Y-84216883D02*
X173500905Y-84026407D01*
X173500905Y-84026407D02*
X173500905Y-83883550D01*
X173500905Y-83883550D02*
X173548524Y-83693074D01*
X173548524Y-83693074D02*
X173596143Y-83597836D01*
X173596143Y-83597836D02*
X173691381Y-83502598D01*
X173691381Y-83502598D02*
X173834238Y-83454979D01*
X173834238Y-83454979D02*
X173929476Y-83454979D01*
X173929476Y-83454979D02*
X174072333Y-83502598D01*
X174072333Y-83502598D02*
X174119952Y-83550217D01*
X174977095Y-83788312D02*
X174977095Y-84454979D01*
X174739000Y-83407360D02*
X174500905Y-84121645D01*
X174500905Y-84121645D02*
X175119952Y-84121645D01*
X175691381Y-83454979D02*
X175786619Y-83454979D01*
X175786619Y-83454979D02*
X175881857Y-83502598D01*
X175881857Y-83502598D02*
X175929476Y-83550217D01*
X175929476Y-83550217D02*
X175977095Y-83645455D01*
X175977095Y-83645455D02*
X176024714Y-83835931D01*
X176024714Y-83835931D02*
X176024714Y-84074026D01*
X176024714Y-84074026D02*
X175977095Y-84264502D01*
X175977095Y-84264502D02*
X175929476Y-84359740D01*
X175929476Y-84359740D02*
X175881857Y-84407360D01*
X175881857Y-84407360D02*
X175786619Y-84454979D01*
X175786619Y-84454979D02*
X175691381Y-84454979D01*
X175691381Y-84454979D02*
X175596143Y-84407360D01*
X175596143Y-84407360D02*
X175548524Y-84359740D01*
X175548524Y-84359740D02*
X175500905Y-84264502D01*
X175500905Y-84264502D02*
X175453286Y-84074026D01*
X175453286Y-84074026D02*
X175453286Y-83835931D01*
X175453286Y-83835931D02*
X175500905Y-83645455D01*
X175500905Y-83645455D02*
X175548524Y-83550217D01*
X175548524Y-83550217D02*
X175596143Y-83502598D01*
X175596143Y-83502598D02*
X175691381Y-83454979D01*
X176881857Y-83788312D02*
X176881857Y-84454979D01*
X176643762Y-83407360D02*
X176405667Y-84121645D01*
X176405667Y-84121645D02*
X177024714Y-84121645D01*
X125097952Y-95877580D02*
X125050333Y-95925200D01*
X125050333Y-95925200D02*
X124907476Y-95972819D01*
X124907476Y-95972819D02*
X124812238Y-95972819D01*
X124812238Y-95972819D02*
X124669381Y-95925200D01*
X124669381Y-95925200D02*
X124574143Y-95829961D01*
X124574143Y-95829961D02*
X124526524Y-95734723D01*
X124526524Y-95734723D02*
X124478905Y-95544247D01*
X124478905Y-95544247D02*
X124478905Y-95401390D01*
X124478905Y-95401390D02*
X124526524Y-95210914D01*
X124526524Y-95210914D02*
X124574143Y-95115676D01*
X124574143Y-95115676D02*
X124669381Y-95020438D01*
X124669381Y-95020438D02*
X124812238Y-94972819D01*
X124812238Y-94972819D02*
X124907476Y-94972819D01*
X124907476Y-94972819D02*
X125050333Y-95020438D01*
X125050333Y-95020438D02*
X125097952Y-95068057D01*
X125431286Y-94972819D02*
X126050333Y-94972819D01*
X126050333Y-94972819D02*
X125717000Y-95353771D01*
X125717000Y-95353771D02*
X125859857Y-95353771D01*
X125859857Y-95353771D02*
X125955095Y-95401390D01*
X125955095Y-95401390D02*
X126002714Y-95449009D01*
X126002714Y-95449009D02*
X126050333Y-95544247D01*
X126050333Y-95544247D02*
X126050333Y-95782342D01*
X126050333Y-95782342D02*
X126002714Y-95877580D01*
X126002714Y-95877580D02*
X125955095Y-95925200D01*
X125955095Y-95925200D02*
X125859857Y-95972819D01*
X125859857Y-95972819D02*
X125574143Y-95972819D01*
X125574143Y-95972819D02*
X125478905Y-95925200D01*
X125478905Y-95925200D02*
X125431286Y-95877580D01*
X126669381Y-94972819D02*
X126764619Y-94972819D01*
X126764619Y-94972819D02*
X126859857Y-95020438D01*
X126859857Y-95020438D02*
X126907476Y-95068057D01*
X126907476Y-95068057D02*
X126955095Y-95163295D01*
X126955095Y-95163295D02*
X127002714Y-95353771D01*
X127002714Y-95353771D02*
X127002714Y-95591866D01*
X127002714Y-95591866D02*
X126955095Y-95782342D01*
X126955095Y-95782342D02*
X126907476Y-95877580D01*
X126907476Y-95877580D02*
X126859857Y-95925200D01*
X126859857Y-95925200D02*
X126764619Y-95972819D01*
X126764619Y-95972819D02*
X126669381Y-95972819D01*
X126669381Y-95972819D02*
X126574143Y-95925200D01*
X126574143Y-95925200D02*
X126526524Y-95877580D01*
X126526524Y-95877580D02*
X126478905Y-95782342D01*
X126478905Y-95782342D02*
X126431286Y-95591866D01*
X126431286Y-95591866D02*
X126431286Y-95353771D01*
X126431286Y-95353771D02*
X126478905Y-95163295D01*
X126478905Y-95163295D02*
X126526524Y-95068057D01*
X126526524Y-95068057D02*
X126574143Y-95020438D01*
X126574143Y-95020438D02*
X126669381Y-94972819D01*
X127383667Y-95068057D02*
X127431286Y-95020438D01*
X127431286Y-95020438D02*
X127526524Y-94972819D01*
X127526524Y-94972819D02*
X127764619Y-94972819D01*
X127764619Y-94972819D02*
X127859857Y-95020438D01*
X127859857Y-95020438D02*
X127907476Y-95068057D01*
X127907476Y-95068057D02*
X127955095Y-95163295D01*
X127955095Y-95163295D02*
X127955095Y-95258533D01*
X127955095Y-95258533D02*
X127907476Y-95401390D01*
X127907476Y-95401390D02*
X127336048Y-95972819D01*
X127336048Y-95972819D02*
X127955095Y-95972819D01*
X106899819Y-75110475D02*
X105899819Y-75110475D01*
X105899819Y-75110475D02*
X105899819Y-74872380D01*
X105899819Y-74872380D02*
X105947438Y-74729523D01*
X105947438Y-74729523D02*
X106042676Y-74634285D01*
X106042676Y-74634285D02*
X106137914Y-74586666D01*
X106137914Y-74586666D02*
X106328390Y-74539047D01*
X106328390Y-74539047D02*
X106471247Y-74539047D01*
X106471247Y-74539047D02*
X106661723Y-74586666D01*
X106661723Y-74586666D02*
X106756961Y-74634285D01*
X106756961Y-74634285D02*
X106852200Y-74729523D01*
X106852200Y-74729523D02*
X106899819Y-74872380D01*
X106899819Y-74872380D02*
X106899819Y-75110475D01*
X105995057Y-74158094D02*
X105947438Y-74110475D01*
X105947438Y-74110475D02*
X105899819Y-74015237D01*
X105899819Y-74015237D02*
X105899819Y-73777142D01*
X105899819Y-73777142D02*
X105947438Y-73681904D01*
X105947438Y-73681904D02*
X105995057Y-73634285D01*
X105995057Y-73634285D02*
X106090295Y-73586666D01*
X106090295Y-73586666D02*
X106185533Y-73586666D01*
X106185533Y-73586666D02*
X106328390Y-73634285D01*
X106328390Y-73634285D02*
X106899819Y-74205713D01*
X106899819Y-74205713D02*
X106899819Y-73586666D01*
X105899819Y-72967618D02*
X105899819Y-72872380D01*
X105899819Y-72872380D02*
X105947438Y-72777142D01*
X105947438Y-72777142D02*
X105995057Y-72729523D01*
X105995057Y-72729523D02*
X106090295Y-72681904D01*
X106090295Y-72681904D02*
X106280771Y-72634285D01*
X106280771Y-72634285D02*
X106518866Y-72634285D01*
X106518866Y-72634285D02*
X106709342Y-72681904D01*
X106709342Y-72681904D02*
X106804580Y-72729523D01*
X106804580Y-72729523D02*
X106852200Y-72777142D01*
X106852200Y-72777142D02*
X106899819Y-72872380D01*
X106899819Y-72872380D02*
X106899819Y-72967618D01*
X106899819Y-72967618D02*
X106852200Y-73062856D01*
X106852200Y-73062856D02*
X106804580Y-73110475D01*
X106804580Y-73110475D02*
X106709342Y-73158094D01*
X106709342Y-73158094D02*
X106518866Y-73205713D01*
X106518866Y-73205713D02*
X106280771Y-73205713D01*
X106280771Y-73205713D02*
X106090295Y-73158094D01*
X106090295Y-73158094D02*
X105995057Y-73110475D01*
X105995057Y-73110475D02*
X105947438Y-73062856D01*
X105947438Y-73062856D02*
X105899819Y-72967618D01*
X106899819Y-71681904D02*
X106899819Y-72253332D01*
X106899819Y-71967618D02*
X105899819Y-71967618D01*
X105899819Y-71967618D02*
X106042676Y-72062856D01*
X106042676Y-72062856D02*
X106137914Y-72158094D01*
X106137914Y-72158094D02*
X106185533Y-72253332D01*
X162231819Y-84111619D02*
X161755628Y-84444952D01*
X162231819Y-84683047D02*
X161231819Y-84683047D01*
X161231819Y-84683047D02*
X161231819Y-84302095D01*
X161231819Y-84302095D02*
X161279438Y-84206857D01*
X161279438Y-84206857D02*
X161327057Y-84159238D01*
X161327057Y-84159238D02*
X161422295Y-84111619D01*
X161422295Y-84111619D02*
X161565152Y-84111619D01*
X161565152Y-84111619D02*
X161660390Y-84159238D01*
X161660390Y-84159238D02*
X161708009Y-84206857D01*
X161708009Y-84206857D02*
X161755628Y-84302095D01*
X161755628Y-84302095D02*
X161755628Y-84683047D01*
X161231819Y-83825904D02*
X162231819Y-83492571D01*
X162231819Y-83492571D02*
X161231819Y-83159238D01*
X161565152Y-82397333D02*
X162231819Y-82397333D01*
X161184200Y-82635428D02*
X161898485Y-82873523D01*
X161898485Y-82873523D02*
X161898485Y-82254476D01*
X161231819Y-81683047D02*
X161231819Y-81587809D01*
X161231819Y-81587809D02*
X161279438Y-81492571D01*
X161279438Y-81492571D02*
X161327057Y-81444952D01*
X161327057Y-81444952D02*
X161422295Y-81397333D01*
X161422295Y-81397333D02*
X161612771Y-81349714D01*
X161612771Y-81349714D02*
X161850866Y-81349714D01*
X161850866Y-81349714D02*
X162041342Y-81397333D01*
X162041342Y-81397333D02*
X162136580Y-81444952D01*
X162136580Y-81444952D02*
X162184200Y-81492571D01*
X162184200Y-81492571D02*
X162231819Y-81587809D01*
X162231819Y-81587809D02*
X162231819Y-81683047D01*
X162231819Y-81683047D02*
X162184200Y-81778285D01*
X162184200Y-81778285D02*
X162136580Y-81825904D01*
X162136580Y-81825904D02*
X162041342Y-81873523D01*
X162041342Y-81873523D02*
X161850866Y-81921142D01*
X161850866Y-81921142D02*
X161612771Y-81921142D01*
X161612771Y-81921142D02*
X161422295Y-81873523D01*
X161422295Y-81873523D02*
X161327057Y-81825904D01*
X161327057Y-81825904D02*
X161279438Y-81778285D01*
X161279438Y-81778285D02*
X161231819Y-81683047D01*
X161231819Y-81016380D02*
X161231819Y-80397333D01*
X161231819Y-80397333D02*
X161612771Y-80730666D01*
X161612771Y-80730666D02*
X161612771Y-80587809D01*
X161612771Y-80587809D02*
X161660390Y-80492571D01*
X161660390Y-80492571D02*
X161708009Y-80444952D01*
X161708009Y-80444952D02*
X161803247Y-80397333D01*
X161803247Y-80397333D02*
X162041342Y-80397333D01*
X162041342Y-80397333D02*
X162136580Y-80444952D01*
X162136580Y-80444952D02*
X162184200Y-80492571D01*
X162184200Y-80492571D02*
X162231819Y-80587809D01*
X162231819Y-80587809D02*
X162231819Y-80873523D01*
X162231819Y-80873523D02*
X162184200Y-80968761D01*
X162184200Y-80968761D02*
X162136580Y-81016380D01*
X113463819Y-93763619D02*
X112987628Y-94096952D01*
X113463819Y-94335047D02*
X112463819Y-94335047D01*
X112463819Y-94335047D02*
X112463819Y-93954095D01*
X112463819Y-93954095D02*
X112511438Y-93858857D01*
X112511438Y-93858857D02*
X112559057Y-93811238D01*
X112559057Y-93811238D02*
X112654295Y-93763619D01*
X112654295Y-93763619D02*
X112797152Y-93763619D01*
X112797152Y-93763619D02*
X112892390Y-93811238D01*
X112892390Y-93811238D02*
X112940009Y-93858857D01*
X112940009Y-93858857D02*
X112987628Y-93954095D01*
X112987628Y-93954095D02*
X112987628Y-94335047D01*
X112463819Y-93477904D02*
X113463819Y-93144571D01*
X113463819Y-93144571D02*
X112463819Y-92811238D01*
X112797152Y-92049333D02*
X113463819Y-92049333D01*
X112416200Y-92287428D02*
X113130485Y-92525523D01*
X113130485Y-92525523D02*
X113130485Y-91906476D01*
X112463819Y-91335047D02*
X112463819Y-91239809D01*
X112463819Y-91239809D02*
X112511438Y-91144571D01*
X112511438Y-91144571D02*
X112559057Y-91096952D01*
X112559057Y-91096952D02*
X112654295Y-91049333D01*
X112654295Y-91049333D02*
X112844771Y-91001714D01*
X112844771Y-91001714D02*
X113082866Y-91001714D01*
X113082866Y-91001714D02*
X113273342Y-91049333D01*
X113273342Y-91049333D02*
X113368580Y-91096952D01*
X113368580Y-91096952D02*
X113416200Y-91144571D01*
X113416200Y-91144571D02*
X113463819Y-91239809D01*
X113463819Y-91239809D02*
X113463819Y-91335047D01*
X113463819Y-91335047D02*
X113416200Y-91430285D01*
X113416200Y-91430285D02*
X113368580Y-91477904D01*
X113368580Y-91477904D02*
X113273342Y-91525523D01*
X113273342Y-91525523D02*
X113082866Y-91573142D01*
X113082866Y-91573142D02*
X112844771Y-91573142D01*
X112844771Y-91573142D02*
X112654295Y-91525523D01*
X112654295Y-91525523D02*
X112559057Y-91477904D01*
X112559057Y-91477904D02*
X112511438Y-91430285D01*
X112511438Y-91430285D02*
X112463819Y-91335047D01*
X113463819Y-90049333D02*
X113463819Y-90620761D01*
X113463819Y-90335047D02*
X112463819Y-90335047D01*
X112463819Y-90335047D02*
X112606676Y-90430285D01*
X112606676Y-90430285D02*
X112701914Y-90525523D01*
X112701914Y-90525523D02*
X112749533Y-90620761D01*
X158989819Y-82754285D02*
X159799342Y-82754285D01*
X159799342Y-82754285D02*
X159894580Y-82706666D01*
X159894580Y-82706666D02*
X159942200Y-82659047D01*
X159942200Y-82659047D02*
X159989819Y-82563809D01*
X159989819Y-82563809D02*
X159989819Y-82373333D01*
X159989819Y-82373333D02*
X159942200Y-82278095D01*
X159942200Y-82278095D02*
X159894580Y-82230476D01*
X159894580Y-82230476D02*
X159799342Y-82182857D01*
X159799342Y-82182857D02*
X158989819Y-82182857D01*
X158989819Y-81801904D02*
X158989819Y-81182857D01*
X158989819Y-81182857D02*
X159370771Y-81516190D01*
X159370771Y-81516190D02*
X159370771Y-81373333D01*
X159370771Y-81373333D02*
X159418390Y-81278095D01*
X159418390Y-81278095D02*
X159466009Y-81230476D01*
X159466009Y-81230476D02*
X159561247Y-81182857D01*
X159561247Y-81182857D02*
X159799342Y-81182857D01*
X159799342Y-81182857D02*
X159894580Y-81230476D01*
X159894580Y-81230476D02*
X159942200Y-81278095D01*
X159942200Y-81278095D02*
X159989819Y-81373333D01*
X159989819Y-81373333D02*
X159989819Y-81659047D01*
X159989819Y-81659047D02*
X159942200Y-81754285D01*
X159942200Y-81754285D02*
X159894580Y-81801904D01*
X158989819Y-80563809D02*
X158989819Y-80468571D01*
X158989819Y-80468571D02*
X159037438Y-80373333D01*
X159037438Y-80373333D02*
X159085057Y-80325714D01*
X159085057Y-80325714D02*
X159180295Y-80278095D01*
X159180295Y-80278095D02*
X159370771Y-80230476D01*
X159370771Y-80230476D02*
X159608866Y-80230476D01*
X159608866Y-80230476D02*
X159799342Y-80278095D01*
X159799342Y-80278095D02*
X159894580Y-80325714D01*
X159894580Y-80325714D02*
X159942200Y-80373333D01*
X159942200Y-80373333D02*
X159989819Y-80468571D01*
X159989819Y-80468571D02*
X159989819Y-80563809D01*
X159989819Y-80563809D02*
X159942200Y-80659047D01*
X159942200Y-80659047D02*
X159894580Y-80706666D01*
X159894580Y-80706666D02*
X159799342Y-80754285D01*
X159799342Y-80754285D02*
X159608866Y-80801904D01*
X159608866Y-80801904D02*
X159370771Y-80801904D01*
X159370771Y-80801904D02*
X159180295Y-80754285D01*
X159180295Y-80754285D02*
X159085057Y-80706666D01*
X159085057Y-80706666D02*
X159037438Y-80659047D01*
X159037438Y-80659047D02*
X158989819Y-80563809D01*
X159085057Y-79849523D02*
X159037438Y-79801904D01*
X159037438Y-79801904D02*
X158989819Y-79706666D01*
X158989819Y-79706666D02*
X158989819Y-79468571D01*
X158989819Y-79468571D02*
X159037438Y-79373333D01*
X159037438Y-79373333D02*
X159085057Y-79325714D01*
X159085057Y-79325714D02*
X159180295Y-79278095D01*
X159180295Y-79278095D02*
X159275533Y-79278095D01*
X159275533Y-79278095D02*
X159418390Y-79325714D01*
X159418390Y-79325714D02*
X159989819Y-79897142D01*
X159989819Y-79897142D02*
X159989819Y-79278095D01*
X147499819Y-92573047D02*
X147023628Y-92906380D01*
X147499819Y-93144475D02*
X146499819Y-93144475D01*
X146499819Y-93144475D02*
X146499819Y-92763523D01*
X146499819Y-92763523D02*
X146547438Y-92668285D01*
X146547438Y-92668285D02*
X146595057Y-92620666D01*
X146595057Y-92620666D02*
X146690295Y-92573047D01*
X146690295Y-92573047D02*
X146833152Y-92573047D01*
X146833152Y-92573047D02*
X146928390Y-92620666D01*
X146928390Y-92620666D02*
X146976009Y-92668285D01*
X146976009Y-92668285D02*
X147023628Y-92763523D01*
X147023628Y-92763523D02*
X147023628Y-93144475D01*
X146499819Y-92239713D02*
X146499819Y-91620666D01*
X146499819Y-91620666D02*
X146880771Y-91953999D01*
X146880771Y-91953999D02*
X146880771Y-91811142D01*
X146880771Y-91811142D02*
X146928390Y-91715904D01*
X146928390Y-91715904D02*
X146976009Y-91668285D01*
X146976009Y-91668285D02*
X147071247Y-91620666D01*
X147071247Y-91620666D02*
X147309342Y-91620666D01*
X147309342Y-91620666D02*
X147404580Y-91668285D01*
X147404580Y-91668285D02*
X147452200Y-91715904D01*
X147452200Y-91715904D02*
X147499819Y-91811142D01*
X147499819Y-91811142D02*
X147499819Y-92096856D01*
X147499819Y-92096856D02*
X147452200Y-92192094D01*
X147452200Y-92192094D02*
X147404580Y-92239713D01*
X146499819Y-91001618D02*
X146499819Y-90906380D01*
X146499819Y-90906380D02*
X146547438Y-90811142D01*
X146547438Y-90811142D02*
X146595057Y-90763523D01*
X146595057Y-90763523D02*
X146690295Y-90715904D01*
X146690295Y-90715904D02*
X146880771Y-90668285D01*
X146880771Y-90668285D02*
X147118866Y-90668285D01*
X147118866Y-90668285D02*
X147309342Y-90715904D01*
X147309342Y-90715904D02*
X147404580Y-90763523D01*
X147404580Y-90763523D02*
X147452200Y-90811142D01*
X147452200Y-90811142D02*
X147499819Y-90906380D01*
X147499819Y-90906380D02*
X147499819Y-91001618D01*
X147499819Y-91001618D02*
X147452200Y-91096856D01*
X147452200Y-91096856D02*
X147404580Y-91144475D01*
X147404580Y-91144475D02*
X147309342Y-91192094D01*
X147309342Y-91192094D02*
X147118866Y-91239713D01*
X147118866Y-91239713D02*
X146880771Y-91239713D01*
X146880771Y-91239713D02*
X146690295Y-91192094D01*
X146690295Y-91192094D02*
X146595057Y-91144475D01*
X146595057Y-91144475D02*
X146547438Y-91096856D01*
X146547438Y-91096856D02*
X146499819Y-91001618D01*
X146928390Y-90096856D02*
X146880771Y-90192094D01*
X146880771Y-90192094D02*
X146833152Y-90239713D01*
X146833152Y-90239713D02*
X146737914Y-90287332D01*
X146737914Y-90287332D02*
X146690295Y-90287332D01*
X146690295Y-90287332D02*
X146595057Y-90239713D01*
X146595057Y-90239713D02*
X146547438Y-90192094D01*
X146547438Y-90192094D02*
X146499819Y-90096856D01*
X146499819Y-90096856D02*
X146499819Y-89906380D01*
X146499819Y-89906380D02*
X146547438Y-89811142D01*
X146547438Y-89811142D02*
X146595057Y-89763523D01*
X146595057Y-89763523D02*
X146690295Y-89715904D01*
X146690295Y-89715904D02*
X146737914Y-89715904D01*
X146737914Y-89715904D02*
X146833152Y-89763523D01*
X146833152Y-89763523D02*
X146880771Y-89811142D01*
X146880771Y-89811142D02*
X146928390Y-89906380D01*
X146928390Y-89906380D02*
X146928390Y-90096856D01*
X146928390Y-90096856D02*
X146976009Y-90192094D01*
X146976009Y-90192094D02*
X147023628Y-90239713D01*
X147023628Y-90239713D02*
X147118866Y-90287332D01*
X147118866Y-90287332D02*
X147309342Y-90287332D01*
X147309342Y-90287332D02*
X147404580Y-90239713D01*
X147404580Y-90239713D02*
X147452200Y-90192094D01*
X147452200Y-90192094D02*
X147499819Y-90096856D01*
X147499819Y-90096856D02*
X147499819Y-89906380D01*
X147499819Y-89906380D02*
X147452200Y-89811142D01*
X147452200Y-89811142D02*
X147404580Y-89763523D01*
X147404580Y-89763523D02*
X147309342Y-89715904D01*
X147309342Y-89715904D02*
X147118866Y-89715904D01*
X147118866Y-89715904D02*
X147023628Y-89763523D01*
X147023628Y-89763523D02*
X146976009Y-89811142D01*
X146976009Y-89811142D02*
X146928390Y-89906380D01*
X177675952Y-81907580D02*
X177628333Y-81955200D01*
X177628333Y-81955200D02*
X177485476Y-82002819D01*
X177485476Y-82002819D02*
X177390238Y-82002819D01*
X177390238Y-82002819D02*
X177247381Y-81955200D01*
X177247381Y-81955200D02*
X177152143Y-81859961D01*
X177152143Y-81859961D02*
X177104524Y-81764723D01*
X177104524Y-81764723D02*
X177056905Y-81574247D01*
X177056905Y-81574247D02*
X177056905Y-81431390D01*
X177056905Y-81431390D02*
X177104524Y-81240914D01*
X177104524Y-81240914D02*
X177152143Y-81145676D01*
X177152143Y-81145676D02*
X177247381Y-81050438D01*
X177247381Y-81050438D02*
X177390238Y-81002819D01*
X177390238Y-81002819D02*
X177485476Y-81002819D01*
X177485476Y-81002819D02*
X177628333Y-81050438D01*
X177628333Y-81050438D02*
X177675952Y-81098057D01*
X178533095Y-81336152D02*
X178533095Y-82002819D01*
X178295000Y-80955200D02*
X178056905Y-81669485D01*
X178056905Y-81669485D02*
X178675952Y-81669485D01*
X179580714Y-82002819D02*
X179009286Y-82002819D01*
X179295000Y-82002819D02*
X179295000Y-81002819D01*
X179295000Y-81002819D02*
X179199762Y-81145676D01*
X179199762Y-81145676D02*
X179104524Y-81240914D01*
X179104524Y-81240914D02*
X179009286Y-81288533D01*
X179961667Y-81098057D02*
X180009286Y-81050438D01*
X180009286Y-81050438D02*
X180104524Y-81002819D01*
X180104524Y-81002819D02*
X180342619Y-81002819D01*
X180342619Y-81002819D02*
X180437857Y-81050438D01*
X180437857Y-81050438D02*
X180485476Y-81098057D01*
X180485476Y-81098057D02*
X180533095Y-81193295D01*
X180533095Y-81193295D02*
X180533095Y-81288533D01*
X180533095Y-81288533D02*
X180485476Y-81431390D01*
X180485476Y-81431390D02*
X179914048Y-82002819D01*
X179914048Y-82002819D02*
X180533095Y-82002819D01*
X136323819Y-90795047D02*
X135847628Y-91128380D01*
X136323819Y-91366475D02*
X135323819Y-91366475D01*
X135323819Y-91366475D02*
X135323819Y-90985523D01*
X135323819Y-90985523D02*
X135371438Y-90890285D01*
X135371438Y-90890285D02*
X135419057Y-90842666D01*
X135419057Y-90842666D02*
X135514295Y-90795047D01*
X135514295Y-90795047D02*
X135657152Y-90795047D01*
X135657152Y-90795047D02*
X135752390Y-90842666D01*
X135752390Y-90842666D02*
X135800009Y-90890285D01*
X135800009Y-90890285D02*
X135847628Y-90985523D01*
X135847628Y-90985523D02*
X135847628Y-91366475D01*
X135323819Y-90461713D02*
X135323819Y-89842666D01*
X135323819Y-89842666D02*
X135704771Y-90175999D01*
X135704771Y-90175999D02*
X135704771Y-90033142D01*
X135704771Y-90033142D02*
X135752390Y-89937904D01*
X135752390Y-89937904D02*
X135800009Y-89890285D01*
X135800009Y-89890285D02*
X135895247Y-89842666D01*
X135895247Y-89842666D02*
X136133342Y-89842666D01*
X136133342Y-89842666D02*
X136228580Y-89890285D01*
X136228580Y-89890285D02*
X136276200Y-89937904D01*
X136276200Y-89937904D02*
X136323819Y-90033142D01*
X136323819Y-90033142D02*
X136323819Y-90318856D01*
X136323819Y-90318856D02*
X136276200Y-90414094D01*
X136276200Y-90414094D02*
X136228580Y-90461713D01*
X135323819Y-89223618D02*
X135323819Y-89128380D01*
X135323819Y-89128380D02*
X135371438Y-89033142D01*
X135371438Y-89033142D02*
X135419057Y-88985523D01*
X135419057Y-88985523D02*
X135514295Y-88937904D01*
X135514295Y-88937904D02*
X135704771Y-88890285D01*
X135704771Y-88890285D02*
X135942866Y-88890285D01*
X135942866Y-88890285D02*
X136133342Y-88937904D01*
X136133342Y-88937904D02*
X136228580Y-88985523D01*
X136228580Y-88985523D02*
X136276200Y-89033142D01*
X136276200Y-89033142D02*
X136323819Y-89128380D01*
X136323819Y-89128380D02*
X136323819Y-89223618D01*
X136323819Y-89223618D02*
X136276200Y-89318856D01*
X136276200Y-89318856D02*
X136228580Y-89366475D01*
X136228580Y-89366475D02*
X136133342Y-89414094D01*
X136133342Y-89414094D02*
X135942866Y-89461713D01*
X135942866Y-89461713D02*
X135704771Y-89461713D01*
X135704771Y-89461713D02*
X135514295Y-89414094D01*
X135514295Y-89414094D02*
X135419057Y-89366475D01*
X135419057Y-89366475D02*
X135371438Y-89318856D01*
X135371438Y-89318856D02*
X135323819Y-89223618D01*
X135323819Y-88556951D02*
X135323819Y-87937904D01*
X135323819Y-87937904D02*
X135704771Y-88271237D01*
X135704771Y-88271237D02*
X135704771Y-88128380D01*
X135704771Y-88128380D02*
X135752390Y-88033142D01*
X135752390Y-88033142D02*
X135800009Y-87985523D01*
X135800009Y-87985523D02*
X135895247Y-87937904D01*
X135895247Y-87937904D02*
X136133342Y-87937904D01*
X136133342Y-87937904D02*
X136228580Y-87985523D01*
X136228580Y-87985523D02*
X136276200Y-88033142D01*
X136276200Y-88033142D02*
X136323819Y-88128380D01*
X136323819Y-88128380D02*
X136323819Y-88414094D01*
X136323819Y-88414094D02*
X136276200Y-88509332D01*
X136276200Y-88509332D02*
X136228580Y-88556951D01*
X142419819Y-92573047D02*
X141943628Y-92906380D01*
X142419819Y-93144475D02*
X141419819Y-93144475D01*
X141419819Y-93144475D02*
X141419819Y-92763523D01*
X141419819Y-92763523D02*
X141467438Y-92668285D01*
X141467438Y-92668285D02*
X141515057Y-92620666D01*
X141515057Y-92620666D02*
X141610295Y-92573047D01*
X141610295Y-92573047D02*
X141753152Y-92573047D01*
X141753152Y-92573047D02*
X141848390Y-92620666D01*
X141848390Y-92620666D02*
X141896009Y-92668285D01*
X141896009Y-92668285D02*
X141943628Y-92763523D01*
X141943628Y-92763523D02*
X141943628Y-93144475D01*
X141419819Y-92239713D02*
X141419819Y-91620666D01*
X141419819Y-91620666D02*
X141800771Y-91953999D01*
X141800771Y-91953999D02*
X141800771Y-91811142D01*
X141800771Y-91811142D02*
X141848390Y-91715904D01*
X141848390Y-91715904D02*
X141896009Y-91668285D01*
X141896009Y-91668285D02*
X141991247Y-91620666D01*
X141991247Y-91620666D02*
X142229342Y-91620666D01*
X142229342Y-91620666D02*
X142324580Y-91668285D01*
X142324580Y-91668285D02*
X142372200Y-91715904D01*
X142372200Y-91715904D02*
X142419819Y-91811142D01*
X142419819Y-91811142D02*
X142419819Y-92096856D01*
X142419819Y-92096856D02*
X142372200Y-92192094D01*
X142372200Y-92192094D02*
X142324580Y-92239713D01*
X142419819Y-90668285D02*
X142419819Y-91239713D01*
X142419819Y-90953999D02*
X141419819Y-90953999D01*
X141419819Y-90953999D02*
X141562676Y-91049237D01*
X141562676Y-91049237D02*
X141657914Y-91144475D01*
X141657914Y-91144475D02*
X141705533Y-91239713D01*
X141419819Y-90049237D02*
X141419819Y-89953999D01*
X141419819Y-89953999D02*
X141467438Y-89858761D01*
X141467438Y-89858761D02*
X141515057Y-89811142D01*
X141515057Y-89811142D02*
X141610295Y-89763523D01*
X141610295Y-89763523D02*
X141800771Y-89715904D01*
X141800771Y-89715904D02*
X142038866Y-89715904D01*
X142038866Y-89715904D02*
X142229342Y-89763523D01*
X142229342Y-89763523D02*
X142324580Y-89811142D01*
X142324580Y-89811142D02*
X142372200Y-89858761D01*
X142372200Y-89858761D02*
X142419819Y-89953999D01*
X142419819Y-89953999D02*
X142419819Y-90049237D01*
X142419819Y-90049237D02*
X142372200Y-90144475D01*
X142372200Y-90144475D02*
X142324580Y-90192094D01*
X142324580Y-90192094D02*
X142229342Y-90239713D01*
X142229342Y-90239713D02*
X142038866Y-90287332D01*
X142038866Y-90287332D02*
X141800771Y-90287332D01*
X141800771Y-90287332D02*
X141610295Y-90239713D01*
X141610295Y-90239713D02*
X141515057Y-90192094D01*
X141515057Y-90192094D02*
X141467438Y-90144475D01*
X141467438Y-90144475D02*
X141419819Y-90049237D01*
X165176952Y-79621580D02*
X165129333Y-79669200D01*
X165129333Y-79669200D02*
X164986476Y-79716819D01*
X164986476Y-79716819D02*
X164891238Y-79716819D01*
X164891238Y-79716819D02*
X164748381Y-79669200D01*
X164748381Y-79669200D02*
X164653143Y-79573961D01*
X164653143Y-79573961D02*
X164605524Y-79478723D01*
X164605524Y-79478723D02*
X164557905Y-79288247D01*
X164557905Y-79288247D02*
X164557905Y-79145390D01*
X164557905Y-79145390D02*
X164605524Y-78954914D01*
X164605524Y-78954914D02*
X164653143Y-78859676D01*
X164653143Y-78859676D02*
X164748381Y-78764438D01*
X164748381Y-78764438D02*
X164891238Y-78716819D01*
X164891238Y-78716819D02*
X164986476Y-78716819D01*
X164986476Y-78716819D02*
X165129333Y-78764438D01*
X165129333Y-78764438D02*
X165176952Y-78812057D01*
X166034095Y-79050152D02*
X166034095Y-79716819D01*
X165796000Y-78669200D02*
X165557905Y-79383485D01*
X165557905Y-79383485D02*
X166176952Y-79383485D01*
X166748381Y-78716819D02*
X166843619Y-78716819D01*
X166843619Y-78716819D02*
X166938857Y-78764438D01*
X166938857Y-78764438D02*
X166986476Y-78812057D01*
X166986476Y-78812057D02*
X167034095Y-78907295D01*
X167034095Y-78907295D02*
X167081714Y-79097771D01*
X167081714Y-79097771D02*
X167081714Y-79335866D01*
X167081714Y-79335866D02*
X167034095Y-79526342D01*
X167034095Y-79526342D02*
X166986476Y-79621580D01*
X166986476Y-79621580D02*
X166938857Y-79669200D01*
X166938857Y-79669200D02*
X166843619Y-79716819D01*
X166843619Y-79716819D02*
X166748381Y-79716819D01*
X166748381Y-79716819D02*
X166653143Y-79669200D01*
X166653143Y-79669200D02*
X166605524Y-79621580D01*
X166605524Y-79621580D02*
X166557905Y-79526342D01*
X166557905Y-79526342D02*
X166510286Y-79335866D01*
X166510286Y-79335866D02*
X166510286Y-79097771D01*
X166510286Y-79097771D02*
X166557905Y-78907295D01*
X166557905Y-78907295D02*
X166605524Y-78812057D01*
X166605524Y-78812057D02*
X166653143Y-78764438D01*
X166653143Y-78764438D02*
X166748381Y-78716819D01*
X167986476Y-78716819D02*
X167510286Y-78716819D01*
X167510286Y-78716819D02*
X167462667Y-79193009D01*
X167462667Y-79193009D02*
X167510286Y-79145390D01*
X167510286Y-79145390D02*
X167605524Y-79097771D01*
X167605524Y-79097771D02*
X167843619Y-79097771D01*
X167843619Y-79097771D02*
X167938857Y-79145390D01*
X167938857Y-79145390D02*
X167986476Y-79193009D01*
X167986476Y-79193009D02*
X168034095Y-79288247D01*
X168034095Y-79288247D02*
X168034095Y-79526342D01*
X168034095Y-79526342D02*
X167986476Y-79621580D01*
X167986476Y-79621580D02*
X167938857Y-79669200D01*
X167938857Y-79669200D02*
X167843619Y-79716819D01*
X167843619Y-79716819D02*
X167605524Y-79716819D01*
X167605524Y-79716819D02*
X167510286Y-79669200D01*
X167510286Y-79669200D02*
X167462667Y-79621580D01*
X94318580Y-103011266D02*
X94366200Y-103058885D01*
X94366200Y-103058885D02*
X94413819Y-103201742D01*
X94413819Y-103201742D02*
X94413819Y-103296980D01*
X94413819Y-103296980D02*
X94366200Y-103439837D01*
X94366200Y-103439837D02*
X94270961Y-103535075D01*
X94270961Y-103535075D02*
X94175723Y-103582694D01*
X94175723Y-103582694D02*
X93985247Y-103630313D01*
X93985247Y-103630313D02*
X93842390Y-103630313D01*
X93842390Y-103630313D02*
X93651914Y-103582694D01*
X93651914Y-103582694D02*
X93556676Y-103535075D01*
X93556676Y-103535075D02*
X93461438Y-103439837D01*
X93461438Y-103439837D02*
X93413819Y-103296980D01*
X93413819Y-103296980D02*
X93413819Y-103201742D01*
X93413819Y-103201742D02*
X93461438Y-103058885D01*
X93461438Y-103058885D02*
X93509057Y-103011266D01*
X93747152Y-102154123D02*
X94413819Y-102154123D01*
X93366200Y-102392218D02*
X94080485Y-102630313D01*
X94080485Y-102630313D02*
X94080485Y-102011266D01*
X93413819Y-101439837D02*
X93413819Y-101344599D01*
X93413819Y-101344599D02*
X93461438Y-101249361D01*
X93461438Y-101249361D02*
X93509057Y-101201742D01*
X93509057Y-101201742D02*
X93604295Y-101154123D01*
X93604295Y-101154123D02*
X93794771Y-101106504D01*
X93794771Y-101106504D02*
X94032866Y-101106504D01*
X94032866Y-101106504D02*
X94223342Y-101154123D01*
X94223342Y-101154123D02*
X94318580Y-101201742D01*
X94318580Y-101201742D02*
X94366200Y-101249361D01*
X94366200Y-101249361D02*
X94413819Y-101344599D01*
X94413819Y-101344599D02*
X94413819Y-101439837D01*
X94413819Y-101439837D02*
X94366200Y-101535075D01*
X94366200Y-101535075D02*
X94318580Y-101582694D01*
X94318580Y-101582694D02*
X94223342Y-101630313D01*
X94223342Y-101630313D02*
X94032866Y-101677932D01*
X94032866Y-101677932D02*
X93794771Y-101677932D01*
X93794771Y-101677932D02*
X93604295Y-101630313D01*
X93604295Y-101630313D02*
X93509057Y-101582694D01*
X93509057Y-101582694D02*
X93461438Y-101535075D01*
X93461438Y-101535075D02*
X93413819Y-101439837D01*
X93413819Y-100773170D02*
X93413819Y-100106504D01*
X93413819Y-100106504D02*
X94413819Y-100535075D01*
X162231819Y-89953619D02*
X161755628Y-90286952D01*
X162231819Y-90525047D02*
X161231819Y-90525047D01*
X161231819Y-90525047D02*
X161231819Y-90144095D01*
X161231819Y-90144095D02*
X161279438Y-90048857D01*
X161279438Y-90048857D02*
X161327057Y-90001238D01*
X161327057Y-90001238D02*
X161422295Y-89953619D01*
X161422295Y-89953619D02*
X161565152Y-89953619D01*
X161565152Y-89953619D02*
X161660390Y-90001238D01*
X161660390Y-90001238D02*
X161708009Y-90048857D01*
X161708009Y-90048857D02*
X161755628Y-90144095D01*
X161755628Y-90144095D02*
X161755628Y-90525047D01*
X161231819Y-89667904D02*
X162231819Y-89334571D01*
X162231819Y-89334571D02*
X161231819Y-89001238D01*
X161565152Y-88239333D02*
X162231819Y-88239333D01*
X161184200Y-88477428D02*
X161898485Y-88715523D01*
X161898485Y-88715523D02*
X161898485Y-88096476D01*
X161231819Y-87525047D02*
X161231819Y-87429809D01*
X161231819Y-87429809D02*
X161279438Y-87334571D01*
X161279438Y-87334571D02*
X161327057Y-87286952D01*
X161327057Y-87286952D02*
X161422295Y-87239333D01*
X161422295Y-87239333D02*
X161612771Y-87191714D01*
X161612771Y-87191714D02*
X161850866Y-87191714D01*
X161850866Y-87191714D02*
X162041342Y-87239333D01*
X162041342Y-87239333D02*
X162136580Y-87286952D01*
X162136580Y-87286952D02*
X162184200Y-87334571D01*
X162184200Y-87334571D02*
X162231819Y-87429809D01*
X162231819Y-87429809D02*
X162231819Y-87525047D01*
X162231819Y-87525047D02*
X162184200Y-87620285D01*
X162184200Y-87620285D02*
X162136580Y-87667904D01*
X162136580Y-87667904D02*
X162041342Y-87715523D01*
X162041342Y-87715523D02*
X161850866Y-87763142D01*
X161850866Y-87763142D02*
X161612771Y-87763142D01*
X161612771Y-87763142D02*
X161422295Y-87715523D01*
X161422295Y-87715523D02*
X161327057Y-87667904D01*
X161327057Y-87667904D02*
X161279438Y-87620285D01*
X161279438Y-87620285D02*
X161231819Y-87525047D01*
X161565152Y-86334571D02*
X162231819Y-86334571D01*
X161184200Y-86572666D02*
X161898485Y-86810761D01*
X161898485Y-86810761D02*
X161898485Y-86191714D01*
X89826009Y-103891809D02*
X89826009Y-104225142D01*
X90349819Y-104225142D02*
X89349819Y-104225142D01*
X89349819Y-104225142D02*
X89349819Y-103748952D01*
X90349819Y-103367999D02*
X89349819Y-103367999D01*
X90349819Y-102891809D02*
X89349819Y-102891809D01*
X89349819Y-102891809D02*
X89349819Y-102653714D01*
X89349819Y-102653714D02*
X89397438Y-102510857D01*
X89397438Y-102510857D02*
X89492676Y-102415619D01*
X89492676Y-102415619D02*
X89587914Y-102368000D01*
X89587914Y-102368000D02*
X89778390Y-102320381D01*
X89778390Y-102320381D02*
X89921247Y-102320381D01*
X89921247Y-102320381D02*
X90111723Y-102368000D01*
X90111723Y-102368000D02*
X90206961Y-102415619D01*
X90206961Y-102415619D02*
X90302200Y-102510857D01*
X90302200Y-102510857D02*
X90349819Y-102653714D01*
X90349819Y-102653714D02*
X90349819Y-102891809D01*
X90349819Y-101368000D02*
X90349819Y-101939428D01*
X90349819Y-101653714D02*
X89349819Y-101653714D01*
X89349819Y-101653714D02*
X89492676Y-101748952D01*
X89492676Y-101748952D02*
X89587914Y-101844190D01*
X89587914Y-101844190D02*
X89635533Y-101939428D01*
X89349819Y-100748952D02*
X89349819Y-100653714D01*
X89349819Y-100653714D02*
X89397438Y-100558476D01*
X89397438Y-100558476D02*
X89445057Y-100510857D01*
X89445057Y-100510857D02*
X89540295Y-100463238D01*
X89540295Y-100463238D02*
X89730771Y-100415619D01*
X89730771Y-100415619D02*
X89968866Y-100415619D01*
X89968866Y-100415619D02*
X90159342Y-100463238D01*
X90159342Y-100463238D02*
X90254580Y-100510857D01*
X90254580Y-100510857D02*
X90302200Y-100558476D01*
X90302200Y-100558476D02*
X90349819Y-100653714D01*
X90349819Y-100653714D02*
X90349819Y-100748952D01*
X90349819Y-100748952D02*
X90302200Y-100844190D01*
X90302200Y-100844190D02*
X90254580Y-100891809D01*
X90254580Y-100891809D02*
X90159342Y-100939428D01*
X90159342Y-100939428D02*
X89968866Y-100987047D01*
X89968866Y-100987047D02*
X89730771Y-100987047D01*
X89730771Y-100987047D02*
X89540295Y-100939428D01*
X89540295Y-100939428D02*
X89445057Y-100891809D01*
X89445057Y-100891809D02*
X89397438Y-100844190D01*
X89397438Y-100844190D02*
X89349819Y-100748952D01*
X90349819Y-99463238D02*
X90349819Y-100034666D01*
X90349819Y-99748952D02*
X89349819Y-99748952D01*
X89349819Y-99748952D02*
X89492676Y-99844190D01*
X89492676Y-99844190D02*
X89587914Y-99939428D01*
X89587914Y-99939428D02*
X89635533Y-100034666D01*
X129116580Y-78603047D02*
X129164200Y-78650666D01*
X129164200Y-78650666D02*
X129211819Y-78793523D01*
X129211819Y-78793523D02*
X129211819Y-78888761D01*
X129211819Y-78888761D02*
X129164200Y-79031618D01*
X129164200Y-79031618D02*
X129068961Y-79126856D01*
X129068961Y-79126856D02*
X128973723Y-79174475D01*
X128973723Y-79174475D02*
X128783247Y-79222094D01*
X128783247Y-79222094D02*
X128640390Y-79222094D01*
X128640390Y-79222094D02*
X128449914Y-79174475D01*
X128449914Y-79174475D02*
X128354676Y-79126856D01*
X128354676Y-79126856D02*
X128259438Y-79031618D01*
X128259438Y-79031618D02*
X128211819Y-78888761D01*
X128211819Y-78888761D02*
X128211819Y-78793523D01*
X128211819Y-78793523D02*
X128259438Y-78650666D01*
X128259438Y-78650666D02*
X128307057Y-78603047D01*
X128211819Y-78269713D02*
X128211819Y-77650666D01*
X128211819Y-77650666D02*
X128592771Y-77983999D01*
X128592771Y-77983999D02*
X128592771Y-77841142D01*
X128592771Y-77841142D02*
X128640390Y-77745904D01*
X128640390Y-77745904D02*
X128688009Y-77698285D01*
X128688009Y-77698285D02*
X128783247Y-77650666D01*
X128783247Y-77650666D02*
X129021342Y-77650666D01*
X129021342Y-77650666D02*
X129116580Y-77698285D01*
X129116580Y-77698285D02*
X129164200Y-77745904D01*
X129164200Y-77745904D02*
X129211819Y-77841142D01*
X129211819Y-77841142D02*
X129211819Y-78126856D01*
X129211819Y-78126856D02*
X129164200Y-78222094D01*
X129164200Y-78222094D02*
X129116580Y-78269713D01*
X128211819Y-77031618D02*
X128211819Y-76936380D01*
X128211819Y-76936380D02*
X128259438Y-76841142D01*
X128259438Y-76841142D02*
X128307057Y-76793523D01*
X128307057Y-76793523D02*
X128402295Y-76745904D01*
X128402295Y-76745904D02*
X128592771Y-76698285D01*
X128592771Y-76698285D02*
X128830866Y-76698285D01*
X128830866Y-76698285D02*
X129021342Y-76745904D01*
X129021342Y-76745904D02*
X129116580Y-76793523D01*
X129116580Y-76793523D02*
X129164200Y-76841142D01*
X129164200Y-76841142D02*
X129211819Y-76936380D01*
X129211819Y-76936380D02*
X129211819Y-77031618D01*
X129211819Y-77031618D02*
X129164200Y-77126856D01*
X129164200Y-77126856D02*
X129116580Y-77174475D01*
X129116580Y-77174475D02*
X129021342Y-77222094D01*
X129021342Y-77222094D02*
X128830866Y-77269713D01*
X128830866Y-77269713D02*
X128592771Y-77269713D01*
X128592771Y-77269713D02*
X128402295Y-77222094D01*
X128402295Y-77222094D02*
X128307057Y-77174475D01*
X128307057Y-77174475D02*
X128259438Y-77126856D01*
X128259438Y-77126856D02*
X128211819Y-77031618D01*
X129211819Y-75745904D02*
X129211819Y-76317332D01*
X129211819Y-76031618D02*
X128211819Y-76031618D01*
X128211819Y-76031618D02*
X128354676Y-76126856D01*
X128354676Y-76126856D02*
X128449914Y-76222094D01*
X128449914Y-76222094D02*
X128497533Y-76317332D01*
X184822009Y-75189809D02*
X184822009Y-75523142D01*
X185345819Y-75523142D02*
X184345819Y-75523142D01*
X184345819Y-75523142D02*
X184345819Y-75046952D01*
X185345819Y-74665999D02*
X184345819Y-74665999D01*
X185345819Y-74189809D02*
X184345819Y-74189809D01*
X184345819Y-74189809D02*
X184345819Y-73951714D01*
X184345819Y-73951714D02*
X184393438Y-73808857D01*
X184393438Y-73808857D02*
X184488676Y-73713619D01*
X184488676Y-73713619D02*
X184583914Y-73666000D01*
X184583914Y-73666000D02*
X184774390Y-73618381D01*
X184774390Y-73618381D02*
X184917247Y-73618381D01*
X184917247Y-73618381D02*
X185107723Y-73666000D01*
X185107723Y-73666000D02*
X185202961Y-73713619D01*
X185202961Y-73713619D02*
X185298200Y-73808857D01*
X185298200Y-73808857D02*
X185345819Y-73951714D01*
X185345819Y-73951714D02*
X185345819Y-74189809D01*
X185345819Y-72666000D02*
X185345819Y-73237428D01*
X185345819Y-72951714D02*
X184345819Y-72951714D01*
X184345819Y-72951714D02*
X184488676Y-73046952D01*
X184488676Y-73046952D02*
X184583914Y-73142190D01*
X184583914Y-73142190D02*
X184631533Y-73237428D01*
X184345819Y-72046952D02*
X184345819Y-71951714D01*
X184345819Y-71951714D02*
X184393438Y-71856476D01*
X184393438Y-71856476D02*
X184441057Y-71808857D01*
X184441057Y-71808857D02*
X184536295Y-71761238D01*
X184536295Y-71761238D02*
X184726771Y-71713619D01*
X184726771Y-71713619D02*
X184964866Y-71713619D01*
X184964866Y-71713619D02*
X185155342Y-71761238D01*
X185155342Y-71761238D02*
X185250580Y-71808857D01*
X185250580Y-71808857D02*
X185298200Y-71856476D01*
X185298200Y-71856476D02*
X185345819Y-71951714D01*
X185345819Y-71951714D02*
X185345819Y-72046952D01*
X185345819Y-72046952D02*
X185298200Y-72142190D01*
X185298200Y-72142190D02*
X185250580Y-72189809D01*
X185250580Y-72189809D02*
X185155342Y-72237428D01*
X185155342Y-72237428D02*
X184964866Y-72285047D01*
X184964866Y-72285047D02*
X184726771Y-72285047D01*
X184726771Y-72285047D02*
X184536295Y-72237428D01*
X184536295Y-72237428D02*
X184441057Y-72189809D01*
X184441057Y-72189809D02*
X184393438Y-72142190D01*
X184393438Y-72142190D02*
X184345819Y-72046952D01*
X184345819Y-71380285D02*
X184345819Y-70761238D01*
X184345819Y-70761238D02*
X184726771Y-71094571D01*
X184726771Y-71094571D02*
X184726771Y-70951714D01*
X184726771Y-70951714D02*
X184774390Y-70856476D01*
X184774390Y-70856476D02*
X184822009Y-70808857D01*
X184822009Y-70808857D02*
X184917247Y-70761238D01*
X184917247Y-70761238D02*
X185155342Y-70761238D01*
X185155342Y-70761238D02*
X185250580Y-70808857D01*
X185250580Y-70808857D02*
X185298200Y-70856476D01*
X185298200Y-70856476D02*
X185345819Y-70951714D01*
X185345819Y-70951714D02*
X185345819Y-71237428D01*
X185345819Y-71237428D02*
X185298200Y-71332666D01*
X185298200Y-71332666D02*
X185250580Y-71380285D01*
X89879285Y-92432819D02*
X89879285Y-93147104D01*
X89879285Y-93147104D02*
X89831666Y-93289961D01*
X89831666Y-93289961D02*
X89736428Y-93385200D01*
X89736428Y-93385200D02*
X89593571Y-93432819D01*
X89593571Y-93432819D02*
X89498333Y-93432819D01*
X90879285Y-93432819D02*
X90307857Y-93432819D01*
X90593571Y-93432819D02*
X90593571Y-92432819D01*
X90593571Y-92432819D02*
X90498333Y-92575676D01*
X90498333Y-92575676D02*
X90403095Y-92670914D01*
X90403095Y-92670914D02*
X90307857Y-92718533D01*
X91498333Y-92432819D02*
X91593571Y-92432819D01*
X91593571Y-92432819D02*
X91688809Y-92480438D01*
X91688809Y-92480438D02*
X91736428Y-92528057D01*
X91736428Y-92528057D02*
X91784047Y-92623295D01*
X91784047Y-92623295D02*
X91831666Y-92813771D01*
X91831666Y-92813771D02*
X91831666Y-93051866D01*
X91831666Y-93051866D02*
X91784047Y-93242342D01*
X91784047Y-93242342D02*
X91736428Y-93337580D01*
X91736428Y-93337580D02*
X91688809Y-93385200D01*
X91688809Y-93385200D02*
X91593571Y-93432819D01*
X91593571Y-93432819D02*
X91498333Y-93432819D01*
X91498333Y-93432819D02*
X91403095Y-93385200D01*
X91403095Y-93385200D02*
X91355476Y-93337580D01*
X91355476Y-93337580D02*
X91307857Y-93242342D01*
X91307857Y-93242342D02*
X91260238Y-93051866D01*
X91260238Y-93051866D02*
X91260238Y-92813771D01*
X91260238Y-92813771D02*
X91307857Y-92623295D01*
X91307857Y-92623295D02*
X91355476Y-92528057D01*
X91355476Y-92528057D02*
X91403095Y-92480438D01*
X91403095Y-92480438D02*
X91498333Y-92432819D01*
X92736428Y-92432819D02*
X92260238Y-92432819D01*
X92260238Y-92432819D02*
X92212619Y-92909009D01*
X92212619Y-92909009D02*
X92260238Y-92861390D01*
X92260238Y-92861390D02*
X92355476Y-92813771D01*
X92355476Y-92813771D02*
X92593571Y-92813771D01*
X92593571Y-92813771D02*
X92688809Y-92861390D01*
X92688809Y-92861390D02*
X92736428Y-92909009D01*
X92736428Y-92909009D02*
X92784047Y-93004247D01*
X92784047Y-93004247D02*
X92784047Y-93242342D01*
X92784047Y-93242342D02*
X92736428Y-93337580D01*
X92736428Y-93337580D02*
X92688809Y-93385200D01*
X92688809Y-93385200D02*
X92593571Y-93432819D01*
X92593571Y-93432819D02*
X92355476Y-93432819D01*
X92355476Y-93432819D02*
X92260238Y-93385200D01*
X92260238Y-93385200D02*
X92212619Y-93337580D01*
X89826009Y-75189809D02*
X89826009Y-75523142D01*
X90349819Y-75523142D02*
X89349819Y-75523142D01*
X89349819Y-75523142D02*
X89349819Y-75046952D01*
X90349819Y-74665999D02*
X89349819Y-74665999D01*
X90349819Y-74189809D02*
X89349819Y-74189809D01*
X89349819Y-74189809D02*
X89349819Y-73951714D01*
X89349819Y-73951714D02*
X89397438Y-73808857D01*
X89397438Y-73808857D02*
X89492676Y-73713619D01*
X89492676Y-73713619D02*
X89587914Y-73666000D01*
X89587914Y-73666000D02*
X89778390Y-73618381D01*
X89778390Y-73618381D02*
X89921247Y-73618381D01*
X89921247Y-73618381D02*
X90111723Y-73666000D01*
X90111723Y-73666000D02*
X90206961Y-73713619D01*
X90206961Y-73713619D02*
X90302200Y-73808857D01*
X90302200Y-73808857D02*
X90349819Y-73951714D01*
X90349819Y-73951714D02*
X90349819Y-74189809D01*
X90349819Y-72666000D02*
X90349819Y-73237428D01*
X90349819Y-72951714D02*
X89349819Y-72951714D01*
X89349819Y-72951714D02*
X89492676Y-73046952D01*
X89492676Y-73046952D02*
X89587914Y-73142190D01*
X89587914Y-73142190D02*
X89635533Y-73237428D01*
X89349819Y-72046952D02*
X89349819Y-71951714D01*
X89349819Y-71951714D02*
X89397438Y-71856476D01*
X89397438Y-71856476D02*
X89445057Y-71808857D01*
X89445057Y-71808857D02*
X89540295Y-71761238D01*
X89540295Y-71761238D02*
X89730771Y-71713619D01*
X89730771Y-71713619D02*
X89968866Y-71713619D01*
X89968866Y-71713619D02*
X90159342Y-71761238D01*
X90159342Y-71761238D02*
X90254580Y-71808857D01*
X90254580Y-71808857D02*
X90302200Y-71856476D01*
X90302200Y-71856476D02*
X90349819Y-71951714D01*
X90349819Y-71951714D02*
X90349819Y-72046952D01*
X90349819Y-72046952D02*
X90302200Y-72142190D01*
X90302200Y-72142190D02*
X90254580Y-72189809D01*
X90254580Y-72189809D02*
X90159342Y-72237428D01*
X90159342Y-72237428D02*
X89968866Y-72285047D01*
X89968866Y-72285047D02*
X89730771Y-72285047D01*
X89730771Y-72285047D02*
X89540295Y-72237428D01*
X89540295Y-72237428D02*
X89445057Y-72189809D01*
X89445057Y-72189809D02*
X89397438Y-72142190D01*
X89397438Y-72142190D02*
X89349819Y-72046952D01*
X89445057Y-71332666D02*
X89397438Y-71285047D01*
X89397438Y-71285047D02*
X89349819Y-71189809D01*
X89349819Y-71189809D02*
X89349819Y-70951714D01*
X89349819Y-70951714D02*
X89397438Y-70856476D01*
X89397438Y-70856476D02*
X89445057Y-70808857D01*
X89445057Y-70808857D02*
X89540295Y-70761238D01*
X89540295Y-70761238D02*
X89635533Y-70761238D01*
X89635533Y-70761238D02*
X89778390Y-70808857D01*
X89778390Y-70808857D02*
X90349819Y-71380285D01*
X90349819Y-71380285D02*
X90349819Y-70761238D01*
X155119819Y-92573047D02*
X154643628Y-92906380D01*
X155119819Y-93144475D02*
X154119819Y-93144475D01*
X154119819Y-93144475D02*
X154119819Y-92763523D01*
X154119819Y-92763523D02*
X154167438Y-92668285D01*
X154167438Y-92668285D02*
X154215057Y-92620666D01*
X154215057Y-92620666D02*
X154310295Y-92573047D01*
X154310295Y-92573047D02*
X154453152Y-92573047D01*
X154453152Y-92573047D02*
X154548390Y-92620666D01*
X154548390Y-92620666D02*
X154596009Y-92668285D01*
X154596009Y-92668285D02*
X154643628Y-92763523D01*
X154643628Y-92763523D02*
X154643628Y-93144475D01*
X154119819Y-92239713D02*
X154119819Y-91620666D01*
X154119819Y-91620666D02*
X154500771Y-91953999D01*
X154500771Y-91953999D02*
X154500771Y-91811142D01*
X154500771Y-91811142D02*
X154548390Y-91715904D01*
X154548390Y-91715904D02*
X154596009Y-91668285D01*
X154596009Y-91668285D02*
X154691247Y-91620666D01*
X154691247Y-91620666D02*
X154929342Y-91620666D01*
X154929342Y-91620666D02*
X155024580Y-91668285D01*
X155024580Y-91668285D02*
X155072200Y-91715904D01*
X155072200Y-91715904D02*
X155119819Y-91811142D01*
X155119819Y-91811142D02*
X155119819Y-92096856D01*
X155119819Y-92096856D02*
X155072200Y-92192094D01*
X155072200Y-92192094D02*
X155024580Y-92239713D01*
X154119819Y-91001618D02*
X154119819Y-90906380D01*
X154119819Y-90906380D02*
X154167438Y-90811142D01*
X154167438Y-90811142D02*
X154215057Y-90763523D01*
X154215057Y-90763523D02*
X154310295Y-90715904D01*
X154310295Y-90715904D02*
X154500771Y-90668285D01*
X154500771Y-90668285D02*
X154738866Y-90668285D01*
X154738866Y-90668285D02*
X154929342Y-90715904D01*
X154929342Y-90715904D02*
X155024580Y-90763523D01*
X155024580Y-90763523D02*
X155072200Y-90811142D01*
X155072200Y-90811142D02*
X155119819Y-90906380D01*
X155119819Y-90906380D02*
X155119819Y-91001618D01*
X155119819Y-91001618D02*
X155072200Y-91096856D01*
X155072200Y-91096856D02*
X155024580Y-91144475D01*
X155024580Y-91144475D02*
X154929342Y-91192094D01*
X154929342Y-91192094D02*
X154738866Y-91239713D01*
X154738866Y-91239713D02*
X154500771Y-91239713D01*
X154500771Y-91239713D02*
X154310295Y-91192094D01*
X154310295Y-91192094D02*
X154215057Y-91144475D01*
X154215057Y-91144475D02*
X154167438Y-91096856D01*
X154167438Y-91096856D02*
X154119819Y-91001618D01*
X154119819Y-89763523D02*
X154119819Y-90239713D01*
X154119819Y-90239713D02*
X154596009Y-90287332D01*
X154596009Y-90287332D02*
X154548390Y-90239713D01*
X154548390Y-90239713D02*
X154500771Y-90144475D01*
X154500771Y-90144475D02*
X154500771Y-89906380D01*
X154500771Y-89906380D02*
X154548390Y-89811142D01*
X154548390Y-89811142D02*
X154596009Y-89763523D01*
X154596009Y-89763523D02*
X154691247Y-89715904D01*
X154691247Y-89715904D02*
X154929342Y-89715904D01*
X154929342Y-89715904D02*
X155024580Y-89763523D01*
X155024580Y-89763523D02*
X155072200Y-89811142D01*
X155072200Y-89811142D02*
X155119819Y-89906380D01*
X155119819Y-89906380D02*
X155119819Y-90144475D01*
X155119819Y-90144475D02*
X155072200Y-90239713D01*
X155072200Y-90239713D02*
X155024580Y-90287332D01*
X144959819Y-92573047D02*
X144483628Y-92906380D01*
X144959819Y-93144475D02*
X143959819Y-93144475D01*
X143959819Y-93144475D02*
X143959819Y-92763523D01*
X143959819Y-92763523D02*
X144007438Y-92668285D01*
X144007438Y-92668285D02*
X144055057Y-92620666D01*
X144055057Y-92620666D02*
X144150295Y-92573047D01*
X144150295Y-92573047D02*
X144293152Y-92573047D01*
X144293152Y-92573047D02*
X144388390Y-92620666D01*
X144388390Y-92620666D02*
X144436009Y-92668285D01*
X144436009Y-92668285D02*
X144483628Y-92763523D01*
X144483628Y-92763523D02*
X144483628Y-93144475D01*
X143959819Y-92239713D02*
X143959819Y-91620666D01*
X143959819Y-91620666D02*
X144340771Y-91953999D01*
X144340771Y-91953999D02*
X144340771Y-91811142D01*
X144340771Y-91811142D02*
X144388390Y-91715904D01*
X144388390Y-91715904D02*
X144436009Y-91668285D01*
X144436009Y-91668285D02*
X144531247Y-91620666D01*
X144531247Y-91620666D02*
X144769342Y-91620666D01*
X144769342Y-91620666D02*
X144864580Y-91668285D01*
X144864580Y-91668285D02*
X144912200Y-91715904D01*
X144912200Y-91715904D02*
X144959819Y-91811142D01*
X144959819Y-91811142D02*
X144959819Y-92096856D01*
X144959819Y-92096856D02*
X144912200Y-92192094D01*
X144912200Y-92192094D02*
X144864580Y-92239713D01*
X143959819Y-91001618D02*
X143959819Y-90906380D01*
X143959819Y-90906380D02*
X144007438Y-90811142D01*
X144007438Y-90811142D02*
X144055057Y-90763523D01*
X144055057Y-90763523D02*
X144150295Y-90715904D01*
X144150295Y-90715904D02*
X144340771Y-90668285D01*
X144340771Y-90668285D02*
X144578866Y-90668285D01*
X144578866Y-90668285D02*
X144769342Y-90715904D01*
X144769342Y-90715904D02*
X144864580Y-90763523D01*
X144864580Y-90763523D02*
X144912200Y-90811142D01*
X144912200Y-90811142D02*
X144959819Y-90906380D01*
X144959819Y-90906380D02*
X144959819Y-91001618D01*
X144959819Y-91001618D02*
X144912200Y-91096856D01*
X144912200Y-91096856D02*
X144864580Y-91144475D01*
X144864580Y-91144475D02*
X144769342Y-91192094D01*
X144769342Y-91192094D02*
X144578866Y-91239713D01*
X144578866Y-91239713D02*
X144340771Y-91239713D01*
X144340771Y-91239713D02*
X144150295Y-91192094D01*
X144150295Y-91192094D02*
X144055057Y-91144475D01*
X144055057Y-91144475D02*
X144007438Y-91096856D01*
X144007438Y-91096856D02*
X143959819Y-91001618D01*
X144959819Y-90192094D02*
X144959819Y-90001618D01*
X144959819Y-90001618D02*
X144912200Y-89906380D01*
X144912200Y-89906380D02*
X144864580Y-89858761D01*
X144864580Y-89858761D02*
X144721723Y-89763523D01*
X144721723Y-89763523D02*
X144531247Y-89715904D01*
X144531247Y-89715904D02*
X144150295Y-89715904D01*
X144150295Y-89715904D02*
X144055057Y-89763523D01*
X144055057Y-89763523D02*
X144007438Y-89811142D01*
X144007438Y-89811142D02*
X143959819Y-89906380D01*
X143959819Y-89906380D02*
X143959819Y-90096856D01*
X143959819Y-90096856D02*
X144007438Y-90192094D01*
X144007438Y-90192094D02*
X144055057Y-90239713D01*
X144055057Y-90239713D02*
X144150295Y-90287332D01*
X144150295Y-90287332D02*
X144388390Y-90287332D01*
X144388390Y-90287332D02*
X144483628Y-90239713D01*
X144483628Y-90239713D02*
X144531247Y-90192094D01*
X144531247Y-90192094D02*
X144578866Y-90096856D01*
X144578866Y-90096856D02*
X144578866Y-89906380D01*
X144578866Y-89906380D02*
X144531247Y-89811142D01*
X144531247Y-89811142D02*
X144483628Y-89763523D01*
X144483628Y-89763523D02*
X144388390Y-89715904D01*
X133733952Y-80637580D02*
X133686333Y-80685200D01*
X133686333Y-80685200D02*
X133543476Y-80732819D01*
X133543476Y-80732819D02*
X133448238Y-80732819D01*
X133448238Y-80732819D02*
X133305381Y-80685200D01*
X133305381Y-80685200D02*
X133210143Y-80589961D01*
X133210143Y-80589961D02*
X133162524Y-80494723D01*
X133162524Y-80494723D02*
X133114905Y-80304247D01*
X133114905Y-80304247D02*
X133114905Y-80161390D01*
X133114905Y-80161390D02*
X133162524Y-79970914D01*
X133162524Y-79970914D02*
X133210143Y-79875676D01*
X133210143Y-79875676D02*
X133305381Y-79780438D01*
X133305381Y-79780438D02*
X133448238Y-79732819D01*
X133448238Y-79732819D02*
X133543476Y-79732819D01*
X133543476Y-79732819D02*
X133686333Y-79780438D01*
X133686333Y-79780438D02*
X133733952Y-79828057D01*
X134067286Y-79732819D02*
X134686333Y-79732819D01*
X134686333Y-79732819D02*
X134353000Y-80113771D01*
X134353000Y-80113771D02*
X134495857Y-80113771D01*
X134495857Y-80113771D02*
X134591095Y-80161390D01*
X134591095Y-80161390D02*
X134638714Y-80209009D01*
X134638714Y-80209009D02*
X134686333Y-80304247D01*
X134686333Y-80304247D02*
X134686333Y-80542342D01*
X134686333Y-80542342D02*
X134638714Y-80637580D01*
X134638714Y-80637580D02*
X134591095Y-80685200D01*
X134591095Y-80685200D02*
X134495857Y-80732819D01*
X134495857Y-80732819D02*
X134210143Y-80732819D01*
X134210143Y-80732819D02*
X134114905Y-80685200D01*
X134114905Y-80685200D02*
X134067286Y-80637580D01*
X135305381Y-79732819D02*
X135400619Y-79732819D01*
X135400619Y-79732819D02*
X135495857Y-79780438D01*
X135495857Y-79780438D02*
X135543476Y-79828057D01*
X135543476Y-79828057D02*
X135591095Y-79923295D01*
X135591095Y-79923295D02*
X135638714Y-80113771D01*
X135638714Y-80113771D02*
X135638714Y-80351866D01*
X135638714Y-80351866D02*
X135591095Y-80542342D01*
X135591095Y-80542342D02*
X135543476Y-80637580D01*
X135543476Y-80637580D02*
X135495857Y-80685200D01*
X135495857Y-80685200D02*
X135400619Y-80732819D01*
X135400619Y-80732819D02*
X135305381Y-80732819D01*
X135305381Y-80732819D02*
X135210143Y-80685200D01*
X135210143Y-80685200D02*
X135162524Y-80637580D01*
X135162524Y-80637580D02*
X135114905Y-80542342D01*
X135114905Y-80542342D02*
X135067286Y-80351866D01*
X135067286Y-80351866D02*
X135067286Y-80113771D01*
X135067286Y-80113771D02*
X135114905Y-79923295D01*
X135114905Y-79923295D02*
X135162524Y-79828057D01*
X135162524Y-79828057D02*
X135210143Y-79780438D01*
X135210143Y-79780438D02*
X135305381Y-79732819D01*
X135972048Y-79732819D02*
X136638714Y-79732819D01*
X136638714Y-79732819D02*
X136210143Y-80732819D01*
X150039819Y-92573047D02*
X149563628Y-92906380D01*
X150039819Y-93144475D02*
X149039819Y-93144475D01*
X149039819Y-93144475D02*
X149039819Y-92763523D01*
X149039819Y-92763523D02*
X149087438Y-92668285D01*
X149087438Y-92668285D02*
X149135057Y-92620666D01*
X149135057Y-92620666D02*
X149230295Y-92573047D01*
X149230295Y-92573047D02*
X149373152Y-92573047D01*
X149373152Y-92573047D02*
X149468390Y-92620666D01*
X149468390Y-92620666D02*
X149516009Y-92668285D01*
X149516009Y-92668285D02*
X149563628Y-92763523D01*
X149563628Y-92763523D02*
X149563628Y-93144475D01*
X149039819Y-92239713D02*
X149039819Y-91620666D01*
X149039819Y-91620666D02*
X149420771Y-91953999D01*
X149420771Y-91953999D02*
X149420771Y-91811142D01*
X149420771Y-91811142D02*
X149468390Y-91715904D01*
X149468390Y-91715904D02*
X149516009Y-91668285D01*
X149516009Y-91668285D02*
X149611247Y-91620666D01*
X149611247Y-91620666D02*
X149849342Y-91620666D01*
X149849342Y-91620666D02*
X149944580Y-91668285D01*
X149944580Y-91668285D02*
X149992200Y-91715904D01*
X149992200Y-91715904D02*
X150039819Y-91811142D01*
X150039819Y-91811142D02*
X150039819Y-92096856D01*
X150039819Y-92096856D02*
X149992200Y-92192094D01*
X149992200Y-92192094D02*
X149944580Y-92239713D01*
X149039819Y-91001618D02*
X149039819Y-90906380D01*
X149039819Y-90906380D02*
X149087438Y-90811142D01*
X149087438Y-90811142D02*
X149135057Y-90763523D01*
X149135057Y-90763523D02*
X149230295Y-90715904D01*
X149230295Y-90715904D02*
X149420771Y-90668285D01*
X149420771Y-90668285D02*
X149658866Y-90668285D01*
X149658866Y-90668285D02*
X149849342Y-90715904D01*
X149849342Y-90715904D02*
X149944580Y-90763523D01*
X149944580Y-90763523D02*
X149992200Y-90811142D01*
X149992200Y-90811142D02*
X150039819Y-90906380D01*
X150039819Y-90906380D02*
X150039819Y-91001618D01*
X150039819Y-91001618D02*
X149992200Y-91096856D01*
X149992200Y-91096856D02*
X149944580Y-91144475D01*
X149944580Y-91144475D02*
X149849342Y-91192094D01*
X149849342Y-91192094D02*
X149658866Y-91239713D01*
X149658866Y-91239713D02*
X149420771Y-91239713D01*
X149420771Y-91239713D02*
X149230295Y-91192094D01*
X149230295Y-91192094D02*
X149135057Y-91144475D01*
X149135057Y-91144475D02*
X149087438Y-91096856D01*
X149087438Y-91096856D02*
X149039819Y-91001618D01*
X149039819Y-90334951D02*
X149039819Y-89668285D01*
X149039819Y-89668285D02*
X150039819Y-90096856D01*
X134799819Y-90795047D02*
X134323628Y-91128380D01*
X134799819Y-91366475D02*
X133799819Y-91366475D01*
X133799819Y-91366475D02*
X133799819Y-90985523D01*
X133799819Y-90985523D02*
X133847438Y-90890285D01*
X133847438Y-90890285D02*
X133895057Y-90842666D01*
X133895057Y-90842666D02*
X133990295Y-90795047D01*
X133990295Y-90795047D02*
X134133152Y-90795047D01*
X134133152Y-90795047D02*
X134228390Y-90842666D01*
X134228390Y-90842666D02*
X134276009Y-90890285D01*
X134276009Y-90890285D02*
X134323628Y-90985523D01*
X134323628Y-90985523D02*
X134323628Y-91366475D01*
X133799819Y-90461713D02*
X133799819Y-89842666D01*
X133799819Y-89842666D02*
X134180771Y-90175999D01*
X134180771Y-90175999D02*
X134180771Y-90033142D01*
X134180771Y-90033142D02*
X134228390Y-89937904D01*
X134228390Y-89937904D02*
X134276009Y-89890285D01*
X134276009Y-89890285D02*
X134371247Y-89842666D01*
X134371247Y-89842666D02*
X134609342Y-89842666D01*
X134609342Y-89842666D02*
X134704580Y-89890285D01*
X134704580Y-89890285D02*
X134752200Y-89937904D01*
X134752200Y-89937904D02*
X134799819Y-90033142D01*
X134799819Y-90033142D02*
X134799819Y-90318856D01*
X134799819Y-90318856D02*
X134752200Y-90414094D01*
X134752200Y-90414094D02*
X134704580Y-90461713D01*
X133799819Y-89223618D02*
X133799819Y-89128380D01*
X133799819Y-89128380D02*
X133847438Y-89033142D01*
X133847438Y-89033142D02*
X133895057Y-88985523D01*
X133895057Y-88985523D02*
X133990295Y-88937904D01*
X133990295Y-88937904D02*
X134180771Y-88890285D01*
X134180771Y-88890285D02*
X134418866Y-88890285D01*
X134418866Y-88890285D02*
X134609342Y-88937904D01*
X134609342Y-88937904D02*
X134704580Y-88985523D01*
X134704580Y-88985523D02*
X134752200Y-89033142D01*
X134752200Y-89033142D02*
X134799819Y-89128380D01*
X134799819Y-89128380D02*
X134799819Y-89223618D01*
X134799819Y-89223618D02*
X134752200Y-89318856D01*
X134752200Y-89318856D02*
X134704580Y-89366475D01*
X134704580Y-89366475D02*
X134609342Y-89414094D01*
X134609342Y-89414094D02*
X134418866Y-89461713D01*
X134418866Y-89461713D02*
X134180771Y-89461713D01*
X134180771Y-89461713D02*
X133990295Y-89414094D01*
X133990295Y-89414094D02*
X133895057Y-89366475D01*
X133895057Y-89366475D02*
X133847438Y-89318856D01*
X133847438Y-89318856D02*
X133799819Y-89223618D01*
X133895057Y-88509332D02*
X133847438Y-88461713D01*
X133847438Y-88461713D02*
X133799819Y-88366475D01*
X133799819Y-88366475D02*
X133799819Y-88128380D01*
X133799819Y-88128380D02*
X133847438Y-88033142D01*
X133847438Y-88033142D02*
X133895057Y-87985523D01*
X133895057Y-87985523D02*
X133990295Y-87937904D01*
X133990295Y-87937904D02*
X134085533Y-87937904D01*
X134085533Y-87937904D02*
X134228390Y-87985523D01*
X134228390Y-87985523D02*
X134799819Y-88556951D01*
X134799819Y-88556951D02*
X134799819Y-87937904D01*
X159072819Y-71171562D02*
X159787104Y-71171562D01*
X159787104Y-71171562D02*
X159929961Y-71219181D01*
X159929961Y-71219181D02*
X160025200Y-71314419D01*
X160025200Y-71314419D02*
X160072819Y-71457276D01*
X160072819Y-71457276D02*
X160072819Y-71552514D01*
X160072819Y-70171562D02*
X160072819Y-70742990D01*
X160072819Y-70457276D02*
X159072819Y-70457276D01*
X159072819Y-70457276D02*
X159215676Y-70552514D01*
X159215676Y-70552514D02*
X159310914Y-70647752D01*
X159310914Y-70647752D02*
X159358533Y-70742990D01*
X159072819Y-69552514D02*
X159072819Y-69457276D01*
X159072819Y-69457276D02*
X159120438Y-69362038D01*
X159120438Y-69362038D02*
X159168057Y-69314419D01*
X159168057Y-69314419D02*
X159263295Y-69266800D01*
X159263295Y-69266800D02*
X159453771Y-69219181D01*
X159453771Y-69219181D02*
X159691866Y-69219181D01*
X159691866Y-69219181D02*
X159882342Y-69266800D01*
X159882342Y-69266800D02*
X159977580Y-69314419D01*
X159977580Y-69314419D02*
X160025200Y-69362038D01*
X160025200Y-69362038D02*
X160072819Y-69457276D01*
X160072819Y-69457276D02*
X160072819Y-69552514D01*
X160072819Y-69552514D02*
X160025200Y-69647752D01*
X160025200Y-69647752D02*
X159977580Y-69695371D01*
X159977580Y-69695371D02*
X159882342Y-69742990D01*
X159882342Y-69742990D02*
X159691866Y-69790609D01*
X159691866Y-69790609D02*
X159453771Y-69790609D01*
X159453771Y-69790609D02*
X159263295Y-69742990D01*
X159263295Y-69742990D02*
X159168057Y-69695371D01*
X159168057Y-69695371D02*
X159120438Y-69647752D01*
X159120438Y-69647752D02*
X159072819Y-69552514D01*
X159168057Y-68838228D02*
X159120438Y-68790609D01*
X159120438Y-68790609D02*
X159072819Y-68695371D01*
X159072819Y-68695371D02*
X159072819Y-68457276D01*
X159072819Y-68457276D02*
X159120438Y-68362038D01*
X159120438Y-68362038D02*
X159168057Y-68314419D01*
X159168057Y-68314419D02*
X159263295Y-68266800D01*
X159263295Y-68266800D02*
X159358533Y-68266800D01*
X159358533Y-68266800D02*
X159501390Y-68314419D01*
X159501390Y-68314419D02*
X160072819Y-68885847D01*
X160072819Y-68885847D02*
X160072819Y-68266800D01*
X119304580Y-95367047D02*
X119352200Y-95414666D01*
X119352200Y-95414666D02*
X119399819Y-95557523D01*
X119399819Y-95557523D02*
X119399819Y-95652761D01*
X119399819Y-95652761D02*
X119352200Y-95795618D01*
X119352200Y-95795618D02*
X119256961Y-95890856D01*
X119256961Y-95890856D02*
X119161723Y-95938475D01*
X119161723Y-95938475D02*
X118971247Y-95986094D01*
X118971247Y-95986094D02*
X118828390Y-95986094D01*
X118828390Y-95986094D02*
X118637914Y-95938475D01*
X118637914Y-95938475D02*
X118542676Y-95890856D01*
X118542676Y-95890856D02*
X118447438Y-95795618D01*
X118447438Y-95795618D02*
X118399819Y-95652761D01*
X118399819Y-95652761D02*
X118399819Y-95557523D01*
X118399819Y-95557523D02*
X118447438Y-95414666D01*
X118447438Y-95414666D02*
X118495057Y-95367047D01*
X118399819Y-95033713D02*
X118399819Y-94414666D01*
X118399819Y-94414666D02*
X118780771Y-94747999D01*
X118780771Y-94747999D02*
X118780771Y-94605142D01*
X118780771Y-94605142D02*
X118828390Y-94509904D01*
X118828390Y-94509904D02*
X118876009Y-94462285D01*
X118876009Y-94462285D02*
X118971247Y-94414666D01*
X118971247Y-94414666D02*
X119209342Y-94414666D01*
X119209342Y-94414666D02*
X119304580Y-94462285D01*
X119304580Y-94462285D02*
X119352200Y-94509904D01*
X119352200Y-94509904D02*
X119399819Y-94605142D01*
X119399819Y-94605142D02*
X119399819Y-94890856D01*
X119399819Y-94890856D02*
X119352200Y-94986094D01*
X119352200Y-94986094D02*
X119304580Y-95033713D01*
X118399819Y-93795618D02*
X118399819Y-93700380D01*
X118399819Y-93700380D02*
X118447438Y-93605142D01*
X118447438Y-93605142D02*
X118495057Y-93557523D01*
X118495057Y-93557523D02*
X118590295Y-93509904D01*
X118590295Y-93509904D02*
X118780771Y-93462285D01*
X118780771Y-93462285D02*
X119018866Y-93462285D01*
X119018866Y-93462285D02*
X119209342Y-93509904D01*
X119209342Y-93509904D02*
X119304580Y-93557523D01*
X119304580Y-93557523D02*
X119352200Y-93605142D01*
X119352200Y-93605142D02*
X119399819Y-93700380D01*
X119399819Y-93700380D02*
X119399819Y-93795618D01*
X119399819Y-93795618D02*
X119352200Y-93890856D01*
X119352200Y-93890856D02*
X119304580Y-93938475D01*
X119304580Y-93938475D02*
X119209342Y-93986094D01*
X119209342Y-93986094D02*
X119018866Y-94033713D01*
X119018866Y-94033713D02*
X118780771Y-94033713D01*
X118780771Y-94033713D02*
X118590295Y-93986094D01*
X118590295Y-93986094D02*
X118495057Y-93938475D01*
X118495057Y-93938475D02*
X118447438Y-93890856D01*
X118447438Y-93890856D02*
X118399819Y-93795618D01*
X118733152Y-92605142D02*
X119399819Y-92605142D01*
X118352200Y-92843237D02*
X119066485Y-93081332D01*
X119066485Y-93081332D02*
X119066485Y-92462285D01*
X132122714Y-93448819D02*
X132122714Y-94258342D01*
X132122714Y-94258342D02*
X132170333Y-94353580D01*
X132170333Y-94353580D02*
X132217952Y-94401200D01*
X132217952Y-94401200D02*
X132313190Y-94448819D01*
X132313190Y-94448819D02*
X132503666Y-94448819D01*
X132503666Y-94448819D02*
X132598904Y-94401200D01*
X132598904Y-94401200D02*
X132646523Y-94353580D01*
X132646523Y-94353580D02*
X132694142Y-94258342D01*
X132694142Y-94258342D02*
X132694142Y-93448819D01*
X133075095Y-93448819D02*
X133694142Y-93448819D01*
X133694142Y-93448819D02*
X133360809Y-93829771D01*
X133360809Y-93829771D02*
X133503666Y-93829771D01*
X133503666Y-93829771D02*
X133598904Y-93877390D01*
X133598904Y-93877390D02*
X133646523Y-93925009D01*
X133646523Y-93925009D02*
X133694142Y-94020247D01*
X133694142Y-94020247D02*
X133694142Y-94258342D01*
X133694142Y-94258342D02*
X133646523Y-94353580D01*
X133646523Y-94353580D02*
X133598904Y-94401200D01*
X133598904Y-94401200D02*
X133503666Y-94448819D01*
X133503666Y-94448819D02*
X133217952Y-94448819D01*
X133217952Y-94448819D02*
X133122714Y-94401200D01*
X133122714Y-94401200D02*
X133075095Y-94353580D01*
X134313190Y-93448819D02*
X134408428Y-93448819D01*
X134408428Y-93448819D02*
X134503666Y-93496438D01*
X134503666Y-93496438D02*
X134551285Y-93544057D01*
X134551285Y-93544057D02*
X134598904Y-93639295D01*
X134598904Y-93639295D02*
X134646523Y-93829771D01*
X134646523Y-93829771D02*
X134646523Y-94067866D01*
X134646523Y-94067866D02*
X134598904Y-94258342D01*
X134598904Y-94258342D02*
X134551285Y-94353580D01*
X134551285Y-94353580D02*
X134503666Y-94401200D01*
X134503666Y-94401200D02*
X134408428Y-94448819D01*
X134408428Y-94448819D02*
X134313190Y-94448819D01*
X134313190Y-94448819D02*
X134217952Y-94401200D01*
X134217952Y-94401200D02*
X134170333Y-94353580D01*
X134170333Y-94353580D02*
X134122714Y-94258342D01*
X134122714Y-94258342D02*
X134075095Y-94067866D01*
X134075095Y-94067866D02*
X134075095Y-93829771D01*
X134075095Y-93829771D02*
X134122714Y-93639295D01*
X134122714Y-93639295D02*
X134170333Y-93544057D01*
X134170333Y-93544057D02*
X134217952Y-93496438D01*
X134217952Y-93496438D02*
X134313190Y-93448819D01*
X135598904Y-94448819D02*
X135027476Y-94448819D01*
X135313190Y-94448819D02*
X135313190Y-93448819D01*
X135313190Y-93448819D02*
X135217952Y-93591676D01*
X135217952Y-93591676D02*
X135122714Y-93686914D01*
X135122714Y-93686914D02*
X135027476Y-93734533D01*
X157659819Y-92573047D02*
X157183628Y-92906380D01*
X157659819Y-93144475D02*
X156659819Y-93144475D01*
X156659819Y-93144475D02*
X156659819Y-92763523D01*
X156659819Y-92763523D02*
X156707438Y-92668285D01*
X156707438Y-92668285D02*
X156755057Y-92620666D01*
X156755057Y-92620666D02*
X156850295Y-92573047D01*
X156850295Y-92573047D02*
X156993152Y-92573047D01*
X156993152Y-92573047D02*
X157088390Y-92620666D01*
X157088390Y-92620666D02*
X157136009Y-92668285D01*
X157136009Y-92668285D02*
X157183628Y-92763523D01*
X157183628Y-92763523D02*
X157183628Y-93144475D01*
X156659819Y-92239713D02*
X156659819Y-91620666D01*
X156659819Y-91620666D02*
X157040771Y-91953999D01*
X157040771Y-91953999D02*
X157040771Y-91811142D01*
X157040771Y-91811142D02*
X157088390Y-91715904D01*
X157088390Y-91715904D02*
X157136009Y-91668285D01*
X157136009Y-91668285D02*
X157231247Y-91620666D01*
X157231247Y-91620666D02*
X157469342Y-91620666D01*
X157469342Y-91620666D02*
X157564580Y-91668285D01*
X157564580Y-91668285D02*
X157612200Y-91715904D01*
X157612200Y-91715904D02*
X157659819Y-91811142D01*
X157659819Y-91811142D02*
X157659819Y-92096856D01*
X157659819Y-92096856D02*
X157612200Y-92192094D01*
X157612200Y-92192094D02*
X157564580Y-92239713D01*
X156659819Y-91001618D02*
X156659819Y-90906380D01*
X156659819Y-90906380D02*
X156707438Y-90811142D01*
X156707438Y-90811142D02*
X156755057Y-90763523D01*
X156755057Y-90763523D02*
X156850295Y-90715904D01*
X156850295Y-90715904D02*
X157040771Y-90668285D01*
X157040771Y-90668285D02*
X157278866Y-90668285D01*
X157278866Y-90668285D02*
X157469342Y-90715904D01*
X157469342Y-90715904D02*
X157564580Y-90763523D01*
X157564580Y-90763523D02*
X157612200Y-90811142D01*
X157612200Y-90811142D02*
X157659819Y-90906380D01*
X157659819Y-90906380D02*
X157659819Y-91001618D01*
X157659819Y-91001618D02*
X157612200Y-91096856D01*
X157612200Y-91096856D02*
X157564580Y-91144475D01*
X157564580Y-91144475D02*
X157469342Y-91192094D01*
X157469342Y-91192094D02*
X157278866Y-91239713D01*
X157278866Y-91239713D02*
X157040771Y-91239713D01*
X157040771Y-91239713D02*
X156850295Y-91192094D01*
X156850295Y-91192094D02*
X156755057Y-91144475D01*
X156755057Y-91144475D02*
X156707438Y-91096856D01*
X156707438Y-91096856D02*
X156659819Y-91001618D01*
X156993152Y-89811142D02*
X157659819Y-89811142D01*
X156612200Y-90049237D02*
X157326485Y-90287332D01*
X157326485Y-90287332D02*
X157326485Y-89668285D01*
X127830819Y-71028214D02*
X128545104Y-71028214D01*
X128545104Y-71028214D02*
X128687961Y-71075833D01*
X128687961Y-71075833D02*
X128783200Y-71171071D01*
X128783200Y-71171071D02*
X128830819Y-71313928D01*
X128830819Y-71313928D02*
X128830819Y-71409166D01*
X128830819Y-70028214D02*
X128830819Y-70599642D01*
X128830819Y-70313928D02*
X127830819Y-70313928D01*
X127830819Y-70313928D02*
X127973676Y-70409166D01*
X127973676Y-70409166D02*
X128068914Y-70504404D01*
X128068914Y-70504404D02*
X128116533Y-70599642D01*
X127830819Y-69409166D02*
X127830819Y-69313928D01*
X127830819Y-69313928D02*
X127878438Y-69218690D01*
X127878438Y-69218690D02*
X127926057Y-69171071D01*
X127926057Y-69171071D02*
X128021295Y-69123452D01*
X128021295Y-69123452D02*
X128211771Y-69075833D01*
X128211771Y-69075833D02*
X128449866Y-69075833D01*
X128449866Y-69075833D02*
X128640342Y-69123452D01*
X128640342Y-69123452D02*
X128735580Y-69171071D01*
X128735580Y-69171071D02*
X128783200Y-69218690D01*
X128783200Y-69218690D02*
X128830819Y-69313928D01*
X128830819Y-69313928D02*
X128830819Y-69409166D01*
X128830819Y-69409166D02*
X128783200Y-69504404D01*
X128783200Y-69504404D02*
X128735580Y-69552023D01*
X128735580Y-69552023D02*
X128640342Y-69599642D01*
X128640342Y-69599642D02*
X128449866Y-69647261D01*
X128449866Y-69647261D02*
X128211771Y-69647261D01*
X128211771Y-69647261D02*
X128021295Y-69599642D01*
X128021295Y-69599642D02*
X127926057Y-69552023D01*
X127926057Y-69552023D02*
X127878438Y-69504404D01*
X127878438Y-69504404D02*
X127830819Y-69409166D01*
X127830819Y-68742499D02*
X127830819Y-68123452D01*
X127830819Y-68123452D02*
X128211771Y-68456785D01*
X128211771Y-68456785D02*
X128211771Y-68313928D01*
X128211771Y-68313928D02*
X128259390Y-68218690D01*
X128259390Y-68218690D02*
X128307009Y-68171071D01*
X128307009Y-68171071D02*
X128402247Y-68123452D01*
X128402247Y-68123452D02*
X128640342Y-68123452D01*
X128640342Y-68123452D02*
X128735580Y-68171071D01*
X128735580Y-68171071D02*
X128783200Y-68218690D01*
X128783200Y-68218690D02*
X128830819Y-68313928D01*
X128830819Y-68313928D02*
X128830819Y-68599642D01*
X128830819Y-68599642D02*
X128783200Y-68694880D01*
X128783200Y-68694880D02*
X128735580Y-68742499D01*
X124651399Y-78603047D02*
X124699019Y-78650666D01*
X124699019Y-78650666D02*
X124746638Y-78793523D01*
X124746638Y-78793523D02*
X124746638Y-78888761D01*
X124746638Y-78888761D02*
X124699019Y-79031618D01*
X124699019Y-79031618D02*
X124603780Y-79126856D01*
X124603780Y-79126856D02*
X124508542Y-79174475D01*
X124508542Y-79174475D02*
X124318066Y-79222094D01*
X124318066Y-79222094D02*
X124175209Y-79222094D01*
X124175209Y-79222094D02*
X123984733Y-79174475D01*
X123984733Y-79174475D02*
X123889495Y-79126856D01*
X123889495Y-79126856D02*
X123794257Y-79031618D01*
X123794257Y-79031618D02*
X123746638Y-78888761D01*
X123746638Y-78888761D02*
X123746638Y-78793523D01*
X123746638Y-78793523D02*
X123794257Y-78650666D01*
X123794257Y-78650666D02*
X123841876Y-78603047D01*
X123746638Y-78269713D02*
X123746638Y-77650666D01*
X123746638Y-77650666D02*
X124127590Y-77983999D01*
X124127590Y-77983999D02*
X124127590Y-77841142D01*
X124127590Y-77841142D02*
X124175209Y-77745904D01*
X124175209Y-77745904D02*
X124222828Y-77698285D01*
X124222828Y-77698285D02*
X124318066Y-77650666D01*
X124318066Y-77650666D02*
X124556161Y-77650666D01*
X124556161Y-77650666D02*
X124651399Y-77698285D01*
X124651399Y-77698285D02*
X124699019Y-77745904D01*
X124699019Y-77745904D02*
X124746638Y-77841142D01*
X124746638Y-77841142D02*
X124746638Y-78126856D01*
X124746638Y-78126856D02*
X124699019Y-78222094D01*
X124699019Y-78222094D02*
X124651399Y-78269713D01*
X123746638Y-77031618D02*
X123746638Y-76936380D01*
X123746638Y-76936380D02*
X123794257Y-76841142D01*
X123794257Y-76841142D02*
X123841876Y-76793523D01*
X123841876Y-76793523D02*
X123937114Y-76745904D01*
X123937114Y-76745904D02*
X124127590Y-76698285D01*
X124127590Y-76698285D02*
X124365685Y-76698285D01*
X124365685Y-76698285D02*
X124556161Y-76745904D01*
X124556161Y-76745904D02*
X124651399Y-76793523D01*
X124651399Y-76793523D02*
X124699019Y-76841142D01*
X124699019Y-76841142D02*
X124746638Y-76936380D01*
X124746638Y-76936380D02*
X124746638Y-77031618D01*
X124746638Y-77031618D02*
X124699019Y-77126856D01*
X124699019Y-77126856D02*
X124651399Y-77174475D01*
X124651399Y-77174475D02*
X124556161Y-77222094D01*
X124556161Y-77222094D02*
X124365685Y-77269713D01*
X124365685Y-77269713D02*
X124127590Y-77269713D01*
X124127590Y-77269713D02*
X123937114Y-77222094D01*
X123937114Y-77222094D02*
X123841876Y-77174475D01*
X123841876Y-77174475D02*
X123794257Y-77126856D01*
X123794257Y-77126856D02*
X123746638Y-77031618D01*
X124746638Y-76222094D02*
X124746638Y-76031618D01*
X124746638Y-76031618D02*
X124699019Y-75936380D01*
X124699019Y-75936380D02*
X124651399Y-75888761D01*
X124651399Y-75888761D02*
X124508542Y-75793523D01*
X124508542Y-75793523D02*
X124318066Y-75745904D01*
X124318066Y-75745904D02*
X123937114Y-75745904D01*
X123937114Y-75745904D02*
X123841876Y-75793523D01*
X123841876Y-75793523D02*
X123794257Y-75841142D01*
X123794257Y-75841142D02*
X123746638Y-75936380D01*
X123746638Y-75936380D02*
X123746638Y-76126856D01*
X123746638Y-76126856D02*
X123794257Y-76222094D01*
X123794257Y-76222094D02*
X123841876Y-76269713D01*
X123841876Y-76269713D02*
X123937114Y-76317332D01*
X123937114Y-76317332D02*
X124175209Y-76317332D01*
X124175209Y-76317332D02*
X124270447Y-76269713D01*
X124270447Y-76269713D02*
X124318066Y-76222094D01*
X124318066Y-76222094D02*
X124365685Y-76126856D01*
X124365685Y-76126856D02*
X124365685Y-75936380D01*
X124365685Y-75936380D02*
X124318066Y-75841142D01*
X124318066Y-75841142D02*
X124270447Y-75793523D01*
X124270447Y-75793523D02*
X124175209Y-75745904D01*
X94617952Y-93591580D02*
X94570333Y-93639200D01*
X94570333Y-93639200D02*
X94427476Y-93686819D01*
X94427476Y-93686819D02*
X94332238Y-93686819D01*
X94332238Y-93686819D02*
X94189381Y-93639200D01*
X94189381Y-93639200D02*
X94094143Y-93543961D01*
X94094143Y-93543961D02*
X94046524Y-93448723D01*
X94046524Y-93448723D02*
X93998905Y-93258247D01*
X93998905Y-93258247D02*
X93998905Y-93115390D01*
X93998905Y-93115390D02*
X94046524Y-92924914D01*
X94046524Y-92924914D02*
X94094143Y-92829676D01*
X94094143Y-92829676D02*
X94189381Y-92734438D01*
X94189381Y-92734438D02*
X94332238Y-92686819D01*
X94332238Y-92686819D02*
X94427476Y-92686819D01*
X94427476Y-92686819D02*
X94570333Y-92734438D01*
X94570333Y-92734438D02*
X94617952Y-92782057D01*
X95475095Y-93020152D02*
X95475095Y-93686819D01*
X95237000Y-92639200D02*
X94998905Y-93353485D01*
X94998905Y-93353485D02*
X95617952Y-93353485D01*
X96189381Y-92686819D02*
X96284619Y-92686819D01*
X96284619Y-92686819D02*
X96379857Y-92734438D01*
X96379857Y-92734438D02*
X96427476Y-92782057D01*
X96427476Y-92782057D02*
X96475095Y-92877295D01*
X96475095Y-92877295D02*
X96522714Y-93067771D01*
X96522714Y-93067771D02*
X96522714Y-93305866D01*
X96522714Y-93305866D02*
X96475095Y-93496342D01*
X96475095Y-93496342D02*
X96427476Y-93591580D01*
X96427476Y-93591580D02*
X96379857Y-93639200D01*
X96379857Y-93639200D02*
X96284619Y-93686819D01*
X96284619Y-93686819D02*
X96189381Y-93686819D01*
X96189381Y-93686819D02*
X96094143Y-93639200D01*
X96094143Y-93639200D02*
X96046524Y-93591580D01*
X96046524Y-93591580D02*
X95998905Y-93496342D01*
X95998905Y-93496342D02*
X95951286Y-93305866D01*
X95951286Y-93305866D02*
X95951286Y-93067771D01*
X95951286Y-93067771D02*
X95998905Y-92877295D01*
X95998905Y-92877295D02*
X96046524Y-92782057D01*
X96046524Y-92782057D02*
X96094143Y-92734438D01*
X96094143Y-92734438D02*
X96189381Y-92686819D01*
X97094143Y-93115390D02*
X96998905Y-93067771D01*
X96998905Y-93067771D02*
X96951286Y-93020152D01*
X96951286Y-93020152D02*
X96903667Y-92924914D01*
X96903667Y-92924914D02*
X96903667Y-92877295D01*
X96903667Y-92877295D02*
X96951286Y-92782057D01*
X96951286Y-92782057D02*
X96998905Y-92734438D01*
X96998905Y-92734438D02*
X97094143Y-92686819D01*
X97094143Y-92686819D02*
X97284619Y-92686819D01*
X97284619Y-92686819D02*
X97379857Y-92734438D01*
X97379857Y-92734438D02*
X97427476Y-92782057D01*
X97427476Y-92782057D02*
X97475095Y-92877295D01*
X97475095Y-92877295D02*
X97475095Y-92924914D01*
X97475095Y-92924914D02*
X97427476Y-93020152D01*
X97427476Y-93020152D02*
X97379857Y-93067771D01*
X97379857Y-93067771D02*
X97284619Y-93115390D01*
X97284619Y-93115390D02*
X97094143Y-93115390D01*
X97094143Y-93115390D02*
X96998905Y-93163009D01*
X96998905Y-93163009D02*
X96951286Y-93210628D01*
X96951286Y-93210628D02*
X96903667Y-93305866D01*
X96903667Y-93305866D02*
X96903667Y-93496342D01*
X96903667Y-93496342D02*
X96951286Y-93591580D01*
X96951286Y-93591580D02*
X96998905Y-93639200D01*
X96998905Y-93639200D02*
X97094143Y-93686819D01*
X97094143Y-93686819D02*
X97284619Y-93686819D01*
X97284619Y-93686819D02*
X97379857Y-93639200D01*
X97379857Y-93639200D02*
X97427476Y-93591580D01*
X97427476Y-93591580D02*
X97475095Y-93496342D01*
X97475095Y-93496342D02*
X97475095Y-93305866D01*
X97475095Y-93305866D02*
X97427476Y-93210628D01*
X97427476Y-93210628D02*
X97379857Y-93163009D01*
X97379857Y-93163009D02*
X97284619Y-93115390D01*
X152579819Y-92573047D02*
X152103628Y-92906380D01*
X152579819Y-93144475D02*
X151579819Y-93144475D01*
X151579819Y-93144475D02*
X151579819Y-92763523D01*
X151579819Y-92763523D02*
X151627438Y-92668285D01*
X151627438Y-92668285D02*
X151675057Y-92620666D01*
X151675057Y-92620666D02*
X151770295Y-92573047D01*
X151770295Y-92573047D02*
X151913152Y-92573047D01*
X151913152Y-92573047D02*
X152008390Y-92620666D01*
X152008390Y-92620666D02*
X152056009Y-92668285D01*
X152056009Y-92668285D02*
X152103628Y-92763523D01*
X152103628Y-92763523D02*
X152103628Y-93144475D01*
X151579819Y-92239713D02*
X151579819Y-91620666D01*
X151579819Y-91620666D02*
X151960771Y-91953999D01*
X151960771Y-91953999D02*
X151960771Y-91811142D01*
X151960771Y-91811142D02*
X152008390Y-91715904D01*
X152008390Y-91715904D02*
X152056009Y-91668285D01*
X152056009Y-91668285D02*
X152151247Y-91620666D01*
X152151247Y-91620666D02*
X152389342Y-91620666D01*
X152389342Y-91620666D02*
X152484580Y-91668285D01*
X152484580Y-91668285D02*
X152532200Y-91715904D01*
X152532200Y-91715904D02*
X152579819Y-91811142D01*
X152579819Y-91811142D02*
X152579819Y-92096856D01*
X152579819Y-92096856D02*
X152532200Y-92192094D01*
X152532200Y-92192094D02*
X152484580Y-92239713D01*
X151579819Y-91001618D02*
X151579819Y-90906380D01*
X151579819Y-90906380D02*
X151627438Y-90811142D01*
X151627438Y-90811142D02*
X151675057Y-90763523D01*
X151675057Y-90763523D02*
X151770295Y-90715904D01*
X151770295Y-90715904D02*
X151960771Y-90668285D01*
X151960771Y-90668285D02*
X152198866Y-90668285D01*
X152198866Y-90668285D02*
X152389342Y-90715904D01*
X152389342Y-90715904D02*
X152484580Y-90763523D01*
X152484580Y-90763523D02*
X152532200Y-90811142D01*
X152532200Y-90811142D02*
X152579819Y-90906380D01*
X152579819Y-90906380D02*
X152579819Y-91001618D01*
X152579819Y-91001618D02*
X152532200Y-91096856D01*
X152532200Y-91096856D02*
X152484580Y-91144475D01*
X152484580Y-91144475D02*
X152389342Y-91192094D01*
X152389342Y-91192094D02*
X152198866Y-91239713D01*
X152198866Y-91239713D02*
X151960771Y-91239713D01*
X151960771Y-91239713D02*
X151770295Y-91192094D01*
X151770295Y-91192094D02*
X151675057Y-91144475D01*
X151675057Y-91144475D02*
X151627438Y-91096856D01*
X151627438Y-91096856D02*
X151579819Y-91001618D01*
X151579819Y-89811142D02*
X151579819Y-90001618D01*
X151579819Y-90001618D02*
X151627438Y-90096856D01*
X151627438Y-90096856D02*
X151675057Y-90144475D01*
X151675057Y-90144475D02*
X151817914Y-90239713D01*
X151817914Y-90239713D02*
X152008390Y-90287332D01*
X152008390Y-90287332D02*
X152389342Y-90287332D01*
X152389342Y-90287332D02*
X152484580Y-90239713D01*
X152484580Y-90239713D02*
X152532200Y-90192094D01*
X152532200Y-90192094D02*
X152579819Y-90096856D01*
X152579819Y-90096856D02*
X152579819Y-89906380D01*
X152579819Y-89906380D02*
X152532200Y-89811142D01*
X152532200Y-89811142D02*
X152484580Y-89763523D01*
X152484580Y-89763523D02*
X152389342Y-89715904D01*
X152389342Y-89715904D02*
X152151247Y-89715904D01*
X152151247Y-89715904D02*
X152056009Y-89763523D01*
X152056009Y-89763523D02*
X152008390Y-89811142D01*
X152008390Y-89811142D02*
X151960771Y-89906380D01*
X151960771Y-89906380D02*
X151960771Y-90096856D01*
X151960771Y-90096856D02*
X152008390Y-90192094D01*
X152008390Y-90192094D02*
X152056009Y-90239713D01*
X152056009Y-90239713D02*
X152151247Y-90287332D01*
X166245952Y-95369580D02*
X166198333Y-95417200D01*
X166198333Y-95417200D02*
X166055476Y-95464819D01*
X166055476Y-95464819D02*
X165960238Y-95464819D01*
X165960238Y-95464819D02*
X165817381Y-95417200D01*
X165817381Y-95417200D02*
X165722143Y-95321961D01*
X165722143Y-95321961D02*
X165674524Y-95226723D01*
X165674524Y-95226723D02*
X165626905Y-95036247D01*
X165626905Y-95036247D02*
X165626905Y-94893390D01*
X165626905Y-94893390D02*
X165674524Y-94702914D01*
X165674524Y-94702914D02*
X165722143Y-94607676D01*
X165722143Y-94607676D02*
X165817381Y-94512438D01*
X165817381Y-94512438D02*
X165960238Y-94464819D01*
X165960238Y-94464819D02*
X166055476Y-94464819D01*
X166055476Y-94464819D02*
X166198333Y-94512438D01*
X166198333Y-94512438D02*
X166245952Y-94560057D01*
X167103095Y-94798152D02*
X167103095Y-95464819D01*
X166865000Y-94417200D02*
X166626905Y-95131485D01*
X166626905Y-95131485D02*
X167245952Y-95131485D01*
X168150714Y-95464819D02*
X167579286Y-95464819D01*
X167865000Y-95464819D02*
X167865000Y-94464819D01*
X167865000Y-94464819D02*
X167769762Y-94607676D01*
X167769762Y-94607676D02*
X167674524Y-94702914D01*
X167674524Y-94702914D02*
X167579286Y-94750533D01*
X169007857Y-94798152D02*
X169007857Y-95464819D01*
X168769762Y-94417200D02*
X168531667Y-95131485D01*
X168531667Y-95131485D02*
X169150714Y-95131485D01*
X94302180Y-74539047D02*
X94349800Y-74586666D01*
X94349800Y-74586666D02*
X94397419Y-74729523D01*
X94397419Y-74729523D02*
X94397419Y-74824761D01*
X94397419Y-74824761D02*
X94349800Y-74967618D01*
X94349800Y-74967618D02*
X94254561Y-75062856D01*
X94254561Y-75062856D02*
X94159323Y-75110475D01*
X94159323Y-75110475D02*
X93968847Y-75158094D01*
X93968847Y-75158094D02*
X93825990Y-75158094D01*
X93825990Y-75158094D02*
X93635514Y-75110475D01*
X93635514Y-75110475D02*
X93540276Y-75062856D01*
X93540276Y-75062856D02*
X93445038Y-74967618D01*
X93445038Y-74967618D02*
X93397419Y-74824761D01*
X93397419Y-74824761D02*
X93397419Y-74729523D01*
X93397419Y-74729523D02*
X93445038Y-74586666D01*
X93445038Y-74586666D02*
X93492657Y-74539047D01*
X93730752Y-73681904D02*
X94397419Y-73681904D01*
X93349800Y-73919999D02*
X94064085Y-74158094D01*
X94064085Y-74158094D02*
X94064085Y-73539047D01*
X93397419Y-72967618D02*
X93397419Y-72872380D01*
X93397419Y-72872380D02*
X93445038Y-72777142D01*
X93445038Y-72777142D02*
X93492657Y-72729523D01*
X93492657Y-72729523D02*
X93587895Y-72681904D01*
X93587895Y-72681904D02*
X93778371Y-72634285D01*
X93778371Y-72634285D02*
X94016466Y-72634285D01*
X94016466Y-72634285D02*
X94206942Y-72681904D01*
X94206942Y-72681904D02*
X94302180Y-72729523D01*
X94302180Y-72729523D02*
X94349800Y-72777142D01*
X94349800Y-72777142D02*
X94397419Y-72872380D01*
X94397419Y-72872380D02*
X94397419Y-72967618D01*
X94397419Y-72967618D02*
X94349800Y-73062856D01*
X94349800Y-73062856D02*
X94302180Y-73110475D01*
X94302180Y-73110475D02*
X94206942Y-73158094D01*
X94206942Y-73158094D02*
X94016466Y-73205713D01*
X94016466Y-73205713D02*
X93778371Y-73205713D01*
X93778371Y-73205713D02*
X93587895Y-73158094D01*
X93587895Y-73158094D02*
X93492657Y-73110475D01*
X93492657Y-73110475D02*
X93445038Y-73062856D01*
X93445038Y-73062856D02*
X93397419Y-72967618D01*
X94397419Y-72158094D02*
X94397419Y-71967618D01*
X94397419Y-71967618D02*
X94349800Y-71872380D01*
X94349800Y-71872380D02*
X94302180Y-71824761D01*
X94302180Y-71824761D02*
X94159323Y-71729523D01*
X94159323Y-71729523D02*
X93968847Y-71681904D01*
X93968847Y-71681904D02*
X93587895Y-71681904D01*
X93587895Y-71681904D02*
X93492657Y-71729523D01*
X93492657Y-71729523D02*
X93445038Y-71777142D01*
X93445038Y-71777142D02*
X93397419Y-71872380D01*
X93397419Y-71872380D02*
X93397419Y-72062856D01*
X93397419Y-72062856D02*
X93445038Y-72158094D01*
X93445038Y-72158094D02*
X93492657Y-72205713D01*
X93492657Y-72205713D02*
X93587895Y-72253332D01*
X93587895Y-72253332D02*
X93825990Y-72253332D01*
X93825990Y-72253332D02*
X93921228Y-72205713D01*
X93921228Y-72205713D02*
X93968847Y-72158094D01*
X93968847Y-72158094D02*
X94016466Y-72062856D01*
X94016466Y-72062856D02*
X94016466Y-71872380D01*
X94016466Y-71872380D02*
X93968847Y-71777142D01*
X93968847Y-71777142D02*
X93921228Y-71729523D01*
X93921228Y-71729523D02*
X93825990Y-71681904D01*
X107504952Y-96131580D02*
X107457333Y-96179200D01*
X107457333Y-96179200D02*
X107314476Y-96226819D01*
X107314476Y-96226819D02*
X107219238Y-96226819D01*
X107219238Y-96226819D02*
X107076381Y-96179200D01*
X107076381Y-96179200D02*
X106981143Y-96083961D01*
X106981143Y-96083961D02*
X106933524Y-95988723D01*
X106933524Y-95988723D02*
X106885905Y-95798247D01*
X106885905Y-95798247D02*
X106885905Y-95655390D01*
X106885905Y-95655390D02*
X106933524Y-95464914D01*
X106933524Y-95464914D02*
X106981143Y-95369676D01*
X106981143Y-95369676D02*
X107076381Y-95274438D01*
X107076381Y-95274438D02*
X107219238Y-95226819D01*
X107219238Y-95226819D02*
X107314476Y-95226819D01*
X107314476Y-95226819D02*
X107457333Y-95274438D01*
X107457333Y-95274438D02*
X107504952Y-95322057D01*
X108362095Y-95560152D02*
X108362095Y-96226819D01*
X108124000Y-95179200D02*
X107885905Y-95893485D01*
X107885905Y-95893485D02*
X108504952Y-95893485D01*
X109076381Y-95226819D02*
X109171619Y-95226819D01*
X109171619Y-95226819D02*
X109266857Y-95274438D01*
X109266857Y-95274438D02*
X109314476Y-95322057D01*
X109314476Y-95322057D02*
X109362095Y-95417295D01*
X109362095Y-95417295D02*
X109409714Y-95607771D01*
X109409714Y-95607771D02*
X109409714Y-95845866D01*
X109409714Y-95845866D02*
X109362095Y-96036342D01*
X109362095Y-96036342D02*
X109314476Y-96131580D01*
X109314476Y-96131580D02*
X109266857Y-96179200D01*
X109266857Y-96179200D02*
X109171619Y-96226819D01*
X109171619Y-96226819D02*
X109076381Y-96226819D01*
X109076381Y-96226819D02*
X108981143Y-96179200D01*
X108981143Y-96179200D02*
X108933524Y-96131580D01*
X108933524Y-96131580D02*
X108885905Y-96036342D01*
X108885905Y-96036342D02*
X108838286Y-95845866D01*
X108838286Y-95845866D02*
X108838286Y-95607771D01*
X108838286Y-95607771D02*
X108885905Y-95417295D01*
X108885905Y-95417295D02*
X108933524Y-95322057D01*
X108933524Y-95322057D02*
X108981143Y-95274438D01*
X108981143Y-95274438D02*
X109076381Y-95226819D01*
X109790667Y-95322057D02*
X109838286Y-95274438D01*
X109838286Y-95274438D02*
X109933524Y-95226819D01*
X109933524Y-95226819D02*
X110171619Y-95226819D01*
X110171619Y-95226819D02*
X110266857Y-95274438D01*
X110266857Y-95274438D02*
X110314476Y-95322057D01*
X110314476Y-95322057D02*
X110362095Y-95417295D01*
X110362095Y-95417295D02*
X110362095Y-95512533D01*
X110362095Y-95512533D02*
X110314476Y-95655390D01*
X110314476Y-95655390D02*
X109743048Y-96226819D01*
X109743048Y-96226819D02*
X110362095Y-96226819D01*
X133733952Y-82161580D02*
X133686333Y-82209200D01*
X133686333Y-82209200D02*
X133543476Y-82256819D01*
X133543476Y-82256819D02*
X133448238Y-82256819D01*
X133448238Y-82256819D02*
X133305381Y-82209200D01*
X133305381Y-82209200D02*
X133210143Y-82113961D01*
X133210143Y-82113961D02*
X133162524Y-82018723D01*
X133162524Y-82018723D02*
X133114905Y-81828247D01*
X133114905Y-81828247D02*
X133114905Y-81685390D01*
X133114905Y-81685390D02*
X133162524Y-81494914D01*
X133162524Y-81494914D02*
X133210143Y-81399676D01*
X133210143Y-81399676D02*
X133305381Y-81304438D01*
X133305381Y-81304438D02*
X133448238Y-81256819D01*
X133448238Y-81256819D02*
X133543476Y-81256819D01*
X133543476Y-81256819D02*
X133686333Y-81304438D01*
X133686333Y-81304438D02*
X133733952Y-81352057D01*
X134067286Y-81256819D02*
X134686333Y-81256819D01*
X134686333Y-81256819D02*
X134353000Y-81637771D01*
X134353000Y-81637771D02*
X134495857Y-81637771D01*
X134495857Y-81637771D02*
X134591095Y-81685390D01*
X134591095Y-81685390D02*
X134638714Y-81733009D01*
X134638714Y-81733009D02*
X134686333Y-81828247D01*
X134686333Y-81828247D02*
X134686333Y-82066342D01*
X134686333Y-82066342D02*
X134638714Y-82161580D01*
X134638714Y-82161580D02*
X134591095Y-82209200D01*
X134591095Y-82209200D02*
X134495857Y-82256819D01*
X134495857Y-82256819D02*
X134210143Y-82256819D01*
X134210143Y-82256819D02*
X134114905Y-82209200D01*
X134114905Y-82209200D02*
X134067286Y-82161580D01*
X135305381Y-81256819D02*
X135400619Y-81256819D01*
X135400619Y-81256819D02*
X135495857Y-81304438D01*
X135495857Y-81304438D02*
X135543476Y-81352057D01*
X135543476Y-81352057D02*
X135591095Y-81447295D01*
X135591095Y-81447295D02*
X135638714Y-81637771D01*
X135638714Y-81637771D02*
X135638714Y-81875866D01*
X135638714Y-81875866D02*
X135591095Y-82066342D01*
X135591095Y-82066342D02*
X135543476Y-82161580D01*
X135543476Y-82161580D02*
X135495857Y-82209200D01*
X135495857Y-82209200D02*
X135400619Y-82256819D01*
X135400619Y-82256819D02*
X135305381Y-82256819D01*
X135305381Y-82256819D02*
X135210143Y-82209200D01*
X135210143Y-82209200D02*
X135162524Y-82161580D01*
X135162524Y-82161580D02*
X135114905Y-82066342D01*
X135114905Y-82066342D02*
X135067286Y-81875866D01*
X135067286Y-81875866D02*
X135067286Y-81637771D01*
X135067286Y-81637771D02*
X135114905Y-81447295D01*
X135114905Y-81447295D02*
X135162524Y-81352057D01*
X135162524Y-81352057D02*
X135210143Y-81304438D01*
X135210143Y-81304438D02*
X135305381Y-81256819D01*
X136495857Y-81256819D02*
X136305381Y-81256819D01*
X136305381Y-81256819D02*
X136210143Y-81304438D01*
X136210143Y-81304438D02*
X136162524Y-81352057D01*
X136162524Y-81352057D02*
X136067286Y-81494914D01*
X136067286Y-81494914D02*
X136019667Y-81685390D01*
X136019667Y-81685390D02*
X136019667Y-82066342D01*
X136019667Y-82066342D02*
X136067286Y-82161580D01*
X136067286Y-82161580D02*
X136114905Y-82209200D01*
X136114905Y-82209200D02*
X136210143Y-82256819D01*
X136210143Y-82256819D02*
X136400619Y-82256819D01*
X136400619Y-82256819D02*
X136495857Y-82209200D01*
X136495857Y-82209200D02*
X136543476Y-82161580D01*
X136543476Y-82161580D02*
X136591095Y-82066342D01*
X136591095Y-82066342D02*
X136591095Y-81828247D01*
X136591095Y-81828247D02*
X136543476Y-81733009D01*
X136543476Y-81733009D02*
X136495857Y-81685390D01*
X136495857Y-81685390D02*
X136400619Y-81637771D01*
X136400619Y-81637771D02*
X136210143Y-81637771D01*
X136210143Y-81637771D02*
X136114905Y-81685390D01*
X136114905Y-81685390D02*
X136067286Y-81733009D01*
X136067286Y-81733009D02*
X136019667Y-81828247D01*
X113717819Y-88175619D02*
X113241628Y-88508952D01*
X113717819Y-88747047D02*
X112717819Y-88747047D01*
X112717819Y-88747047D02*
X112717819Y-88366095D01*
X112717819Y-88366095D02*
X112765438Y-88270857D01*
X112765438Y-88270857D02*
X112813057Y-88223238D01*
X112813057Y-88223238D02*
X112908295Y-88175619D01*
X112908295Y-88175619D02*
X113051152Y-88175619D01*
X113051152Y-88175619D02*
X113146390Y-88223238D01*
X113146390Y-88223238D02*
X113194009Y-88270857D01*
X113194009Y-88270857D02*
X113241628Y-88366095D01*
X113241628Y-88366095D02*
X113241628Y-88747047D01*
X112717819Y-87889904D02*
X113717819Y-87556571D01*
X113717819Y-87556571D02*
X112717819Y-87223238D01*
X113051152Y-86461333D02*
X113717819Y-86461333D01*
X112670200Y-86699428D02*
X113384485Y-86937523D01*
X113384485Y-86937523D02*
X113384485Y-86318476D01*
X112717819Y-85747047D02*
X112717819Y-85651809D01*
X112717819Y-85651809D02*
X112765438Y-85556571D01*
X112765438Y-85556571D02*
X112813057Y-85508952D01*
X112813057Y-85508952D02*
X112908295Y-85461333D01*
X112908295Y-85461333D02*
X113098771Y-85413714D01*
X113098771Y-85413714D02*
X113336866Y-85413714D01*
X113336866Y-85413714D02*
X113527342Y-85461333D01*
X113527342Y-85461333D02*
X113622580Y-85508952D01*
X113622580Y-85508952D02*
X113670200Y-85556571D01*
X113670200Y-85556571D02*
X113717819Y-85651809D01*
X113717819Y-85651809D02*
X113717819Y-85747047D01*
X113717819Y-85747047D02*
X113670200Y-85842285D01*
X113670200Y-85842285D02*
X113622580Y-85889904D01*
X113622580Y-85889904D02*
X113527342Y-85937523D01*
X113527342Y-85937523D02*
X113336866Y-85985142D01*
X113336866Y-85985142D02*
X113098771Y-85985142D01*
X113098771Y-85985142D02*
X112908295Y-85937523D01*
X112908295Y-85937523D02*
X112813057Y-85889904D01*
X112813057Y-85889904D02*
X112765438Y-85842285D01*
X112765438Y-85842285D02*
X112717819Y-85747047D01*
X112813057Y-85032761D02*
X112765438Y-84985142D01*
X112765438Y-84985142D02*
X112717819Y-84889904D01*
X112717819Y-84889904D02*
X112717819Y-84651809D01*
X112717819Y-84651809D02*
X112765438Y-84556571D01*
X112765438Y-84556571D02*
X112813057Y-84508952D01*
X112813057Y-84508952D02*
X112908295Y-84461333D01*
X112908295Y-84461333D02*
X113003533Y-84461333D01*
X113003533Y-84461333D02*
X113146390Y-84508952D01*
X113146390Y-84508952D02*
X113717819Y-85080380D01*
X113717819Y-85080380D02*
X113717819Y-84461333D01*
X120398952Y-81272580D02*
X120351333Y-81320200D01*
X120351333Y-81320200D02*
X120208476Y-81367819D01*
X120208476Y-81367819D02*
X120113238Y-81367819D01*
X120113238Y-81367819D02*
X119970381Y-81320200D01*
X119970381Y-81320200D02*
X119875143Y-81224961D01*
X119875143Y-81224961D02*
X119827524Y-81129723D01*
X119827524Y-81129723D02*
X119779905Y-80939247D01*
X119779905Y-80939247D02*
X119779905Y-80796390D01*
X119779905Y-80796390D02*
X119827524Y-80605914D01*
X119827524Y-80605914D02*
X119875143Y-80510676D01*
X119875143Y-80510676D02*
X119970381Y-80415438D01*
X119970381Y-80415438D02*
X120113238Y-80367819D01*
X120113238Y-80367819D02*
X120208476Y-80367819D01*
X120208476Y-80367819D02*
X120351333Y-80415438D01*
X120351333Y-80415438D02*
X120398952Y-80463057D01*
X120779905Y-80463057D02*
X120827524Y-80415438D01*
X120827524Y-80415438D02*
X120922762Y-80367819D01*
X120922762Y-80367819D02*
X121160857Y-80367819D01*
X121160857Y-80367819D02*
X121256095Y-80415438D01*
X121256095Y-80415438D02*
X121303714Y-80463057D01*
X121303714Y-80463057D02*
X121351333Y-80558295D01*
X121351333Y-80558295D02*
X121351333Y-80653533D01*
X121351333Y-80653533D02*
X121303714Y-80796390D01*
X121303714Y-80796390D02*
X120732286Y-81367819D01*
X120732286Y-81367819D02*
X121351333Y-81367819D01*
X121970381Y-80367819D02*
X122065619Y-80367819D01*
X122065619Y-80367819D02*
X122160857Y-80415438D01*
X122160857Y-80415438D02*
X122208476Y-80463057D01*
X122208476Y-80463057D02*
X122256095Y-80558295D01*
X122256095Y-80558295D02*
X122303714Y-80748771D01*
X122303714Y-80748771D02*
X122303714Y-80986866D01*
X122303714Y-80986866D02*
X122256095Y-81177342D01*
X122256095Y-81177342D02*
X122208476Y-81272580D01*
X122208476Y-81272580D02*
X122160857Y-81320200D01*
X122160857Y-81320200D02*
X122065619Y-81367819D01*
X122065619Y-81367819D02*
X121970381Y-81367819D01*
X121970381Y-81367819D02*
X121875143Y-81320200D01*
X121875143Y-81320200D02*
X121827524Y-81272580D01*
X121827524Y-81272580D02*
X121779905Y-81177342D01*
X121779905Y-81177342D02*
X121732286Y-80986866D01*
X121732286Y-80986866D02*
X121732286Y-80748771D01*
X121732286Y-80748771D02*
X121779905Y-80558295D01*
X121779905Y-80558295D02*
X121827524Y-80463057D01*
X121827524Y-80463057D02*
X121875143Y-80415438D01*
X121875143Y-80415438D02*
X121970381Y-80367819D01*
X122684667Y-80463057D02*
X122732286Y-80415438D01*
X122732286Y-80415438D02*
X122827524Y-80367819D01*
X122827524Y-80367819D02*
X123065619Y-80367819D01*
X123065619Y-80367819D02*
X123160857Y-80415438D01*
X123160857Y-80415438D02*
X123208476Y-80463057D01*
X123208476Y-80463057D02*
X123256095Y-80558295D01*
X123256095Y-80558295D02*
X123256095Y-80653533D01*
X123256095Y-80653533D02*
X123208476Y-80796390D01*
X123208476Y-80796390D02*
X122637048Y-81367819D01*
X122637048Y-81367819D02*
X123256095Y-81367819D01*
X106047952Y-80129580D02*
X106000333Y-80177200D01*
X106000333Y-80177200D02*
X105857476Y-80224819D01*
X105857476Y-80224819D02*
X105762238Y-80224819D01*
X105762238Y-80224819D02*
X105619381Y-80177200D01*
X105619381Y-80177200D02*
X105524143Y-80081961D01*
X105524143Y-80081961D02*
X105476524Y-79986723D01*
X105476524Y-79986723D02*
X105428905Y-79796247D01*
X105428905Y-79796247D02*
X105428905Y-79653390D01*
X105428905Y-79653390D02*
X105476524Y-79462914D01*
X105476524Y-79462914D02*
X105524143Y-79367676D01*
X105524143Y-79367676D02*
X105619381Y-79272438D01*
X105619381Y-79272438D02*
X105762238Y-79224819D01*
X105762238Y-79224819D02*
X105857476Y-79224819D01*
X105857476Y-79224819D02*
X106000333Y-79272438D01*
X106000333Y-79272438D02*
X106047952Y-79320057D01*
X106905095Y-79558152D02*
X106905095Y-80224819D01*
X106667000Y-79177200D02*
X106428905Y-79891485D01*
X106428905Y-79891485D02*
X107047952Y-79891485D01*
X107952714Y-80224819D02*
X107381286Y-80224819D01*
X107667000Y-80224819D02*
X107667000Y-79224819D01*
X107667000Y-79224819D02*
X107571762Y-79367676D01*
X107571762Y-79367676D02*
X107476524Y-79462914D01*
X107476524Y-79462914D02*
X107381286Y-79510533D01*
X108571762Y-79224819D02*
X108667000Y-79224819D01*
X108667000Y-79224819D02*
X108762238Y-79272438D01*
X108762238Y-79272438D02*
X108809857Y-79320057D01*
X108809857Y-79320057D02*
X108857476Y-79415295D01*
X108857476Y-79415295D02*
X108905095Y-79605771D01*
X108905095Y-79605771D02*
X108905095Y-79843866D01*
X108905095Y-79843866D02*
X108857476Y-80034342D01*
X108857476Y-80034342D02*
X108809857Y-80129580D01*
X108809857Y-80129580D02*
X108762238Y-80177200D01*
X108762238Y-80177200D02*
X108667000Y-80224819D01*
X108667000Y-80224819D02*
X108571762Y-80224819D01*
X108571762Y-80224819D02*
X108476524Y-80177200D01*
X108476524Y-80177200D02*
X108428905Y-80129580D01*
X108428905Y-80129580D02*
X108381286Y-80034342D01*
X108381286Y-80034342D02*
X108333667Y-79843866D01*
X108333667Y-79843866D02*
X108333667Y-79605771D01*
X108333667Y-79605771D02*
X108381286Y-79415295D01*
X108381286Y-79415295D02*
X108428905Y-79320057D01*
X108428905Y-79320057D02*
X108476524Y-79272438D01*
X108476524Y-79272438D02*
X108571762Y-79224819D01*
X114469714Y-73636819D02*
X114469714Y-74446342D01*
X114469714Y-74446342D02*
X114517333Y-74541580D01*
X114517333Y-74541580D02*
X114564952Y-74589200D01*
X114564952Y-74589200D02*
X114660190Y-74636819D01*
X114660190Y-74636819D02*
X114850666Y-74636819D01*
X114850666Y-74636819D02*
X114945904Y-74589200D01*
X114945904Y-74589200D02*
X114993523Y-74541580D01*
X114993523Y-74541580D02*
X115041142Y-74446342D01*
X115041142Y-74446342D02*
X115041142Y-73636819D01*
X115469714Y-73732057D02*
X115517333Y-73684438D01*
X115517333Y-73684438D02*
X115612571Y-73636819D01*
X115612571Y-73636819D02*
X115850666Y-73636819D01*
X115850666Y-73636819D02*
X115945904Y-73684438D01*
X115945904Y-73684438D02*
X115993523Y-73732057D01*
X115993523Y-73732057D02*
X116041142Y-73827295D01*
X116041142Y-73827295D02*
X116041142Y-73922533D01*
X116041142Y-73922533D02*
X115993523Y-74065390D01*
X115993523Y-74065390D02*
X115422095Y-74636819D01*
X115422095Y-74636819D02*
X116041142Y-74636819D01*
X116660190Y-73636819D02*
X116755428Y-73636819D01*
X116755428Y-73636819D02*
X116850666Y-73684438D01*
X116850666Y-73684438D02*
X116898285Y-73732057D01*
X116898285Y-73732057D02*
X116945904Y-73827295D01*
X116945904Y-73827295D02*
X116993523Y-74017771D01*
X116993523Y-74017771D02*
X116993523Y-74255866D01*
X116993523Y-74255866D02*
X116945904Y-74446342D01*
X116945904Y-74446342D02*
X116898285Y-74541580D01*
X116898285Y-74541580D02*
X116850666Y-74589200D01*
X116850666Y-74589200D02*
X116755428Y-74636819D01*
X116755428Y-74636819D02*
X116660190Y-74636819D01*
X116660190Y-74636819D02*
X116564952Y-74589200D01*
X116564952Y-74589200D02*
X116517333Y-74541580D01*
X116517333Y-74541580D02*
X116469714Y-74446342D01*
X116469714Y-74446342D02*
X116422095Y-74255866D01*
X116422095Y-74255866D02*
X116422095Y-74017771D01*
X116422095Y-74017771D02*
X116469714Y-73827295D01*
X116469714Y-73827295D02*
X116517333Y-73732057D01*
X116517333Y-73732057D02*
X116564952Y-73684438D01*
X116564952Y-73684438D02*
X116660190Y-73636819D01*
X117945904Y-74636819D02*
X117374476Y-74636819D01*
X117660190Y-74636819D02*
X117660190Y-73636819D01*
X117660190Y-73636819D02*
X117564952Y-73779676D01*
X117564952Y-73779676D02*
X117469714Y-73874914D01*
X117469714Y-73874914D02*
X117374476Y-73922533D01*
X122258580Y-92065047D02*
X122306200Y-92112666D01*
X122306200Y-92112666D02*
X122353819Y-92255523D01*
X122353819Y-92255523D02*
X122353819Y-92350761D01*
X122353819Y-92350761D02*
X122306200Y-92493618D01*
X122306200Y-92493618D02*
X122210961Y-92588856D01*
X122210961Y-92588856D02*
X122115723Y-92636475D01*
X122115723Y-92636475D02*
X121925247Y-92684094D01*
X121925247Y-92684094D02*
X121782390Y-92684094D01*
X121782390Y-92684094D02*
X121591914Y-92636475D01*
X121591914Y-92636475D02*
X121496676Y-92588856D01*
X121496676Y-92588856D02*
X121401438Y-92493618D01*
X121401438Y-92493618D02*
X121353819Y-92350761D01*
X121353819Y-92350761D02*
X121353819Y-92255523D01*
X121353819Y-92255523D02*
X121401438Y-92112666D01*
X121401438Y-92112666D02*
X121449057Y-92065047D01*
X121353819Y-91731713D02*
X121353819Y-91112666D01*
X121353819Y-91112666D02*
X121734771Y-91445999D01*
X121734771Y-91445999D02*
X121734771Y-91303142D01*
X121734771Y-91303142D02*
X121782390Y-91207904D01*
X121782390Y-91207904D02*
X121830009Y-91160285D01*
X121830009Y-91160285D02*
X121925247Y-91112666D01*
X121925247Y-91112666D02*
X122163342Y-91112666D01*
X122163342Y-91112666D02*
X122258580Y-91160285D01*
X122258580Y-91160285D02*
X122306200Y-91207904D01*
X122306200Y-91207904D02*
X122353819Y-91303142D01*
X122353819Y-91303142D02*
X122353819Y-91588856D01*
X122353819Y-91588856D02*
X122306200Y-91684094D01*
X122306200Y-91684094D02*
X122258580Y-91731713D01*
X121353819Y-90493618D02*
X121353819Y-90398380D01*
X121353819Y-90398380D02*
X121401438Y-90303142D01*
X121401438Y-90303142D02*
X121449057Y-90255523D01*
X121449057Y-90255523D02*
X121544295Y-90207904D01*
X121544295Y-90207904D02*
X121734771Y-90160285D01*
X121734771Y-90160285D02*
X121972866Y-90160285D01*
X121972866Y-90160285D02*
X122163342Y-90207904D01*
X122163342Y-90207904D02*
X122258580Y-90255523D01*
X122258580Y-90255523D02*
X122306200Y-90303142D01*
X122306200Y-90303142D02*
X122353819Y-90398380D01*
X122353819Y-90398380D02*
X122353819Y-90493618D01*
X122353819Y-90493618D02*
X122306200Y-90588856D01*
X122306200Y-90588856D02*
X122258580Y-90636475D01*
X122258580Y-90636475D02*
X122163342Y-90684094D01*
X122163342Y-90684094D02*
X121972866Y-90731713D01*
X121972866Y-90731713D02*
X121734771Y-90731713D01*
X121734771Y-90731713D02*
X121544295Y-90684094D01*
X121544295Y-90684094D02*
X121449057Y-90636475D01*
X121449057Y-90636475D02*
X121401438Y-90588856D01*
X121401438Y-90588856D02*
X121353819Y-90493618D01*
X121353819Y-89826951D02*
X121353819Y-89207904D01*
X121353819Y-89207904D02*
X121734771Y-89541237D01*
X121734771Y-89541237D02*
X121734771Y-89398380D01*
X121734771Y-89398380D02*
X121782390Y-89303142D01*
X121782390Y-89303142D02*
X121830009Y-89255523D01*
X121830009Y-89255523D02*
X121925247Y-89207904D01*
X121925247Y-89207904D02*
X122163342Y-89207904D01*
X122163342Y-89207904D02*
X122258580Y-89255523D01*
X122258580Y-89255523D02*
X122306200Y-89303142D01*
X122306200Y-89303142D02*
X122353819Y-89398380D01*
X122353819Y-89398380D02*
X122353819Y-89684094D01*
X122353819Y-89684094D02*
X122306200Y-89779332D01*
X122306200Y-89779332D02*
X122258580Y-89826951D01*
X168486580Y-102479047D02*
X168534200Y-102526666D01*
X168534200Y-102526666D02*
X168581819Y-102669523D01*
X168581819Y-102669523D02*
X168581819Y-102764761D01*
X168581819Y-102764761D02*
X168534200Y-102907618D01*
X168534200Y-102907618D02*
X168438961Y-103002856D01*
X168438961Y-103002856D02*
X168343723Y-103050475D01*
X168343723Y-103050475D02*
X168153247Y-103098094D01*
X168153247Y-103098094D02*
X168010390Y-103098094D01*
X168010390Y-103098094D02*
X167819914Y-103050475D01*
X167819914Y-103050475D02*
X167724676Y-103002856D01*
X167724676Y-103002856D02*
X167629438Y-102907618D01*
X167629438Y-102907618D02*
X167581819Y-102764761D01*
X167581819Y-102764761D02*
X167581819Y-102669523D01*
X167581819Y-102669523D02*
X167629438Y-102526666D01*
X167629438Y-102526666D02*
X167677057Y-102479047D01*
X167915152Y-101621904D02*
X168581819Y-101621904D01*
X167534200Y-101859999D02*
X168248485Y-102098094D01*
X168248485Y-102098094D02*
X168248485Y-101479047D01*
X168581819Y-100574285D02*
X168581819Y-101145713D01*
X168581819Y-100859999D02*
X167581819Y-100859999D01*
X167581819Y-100859999D02*
X167724676Y-100955237D01*
X167724676Y-100955237D02*
X167819914Y-101050475D01*
X167819914Y-101050475D02*
X167867533Y-101145713D01*
X167581819Y-100240951D02*
X167581819Y-99621904D01*
X167581819Y-99621904D02*
X167962771Y-99955237D01*
X167962771Y-99955237D02*
X167962771Y-99812380D01*
X167962771Y-99812380D02*
X168010390Y-99717142D01*
X168010390Y-99717142D02*
X168058009Y-99669523D01*
X168058009Y-99669523D02*
X168153247Y-99621904D01*
X168153247Y-99621904D02*
X168391342Y-99621904D01*
X168391342Y-99621904D02*
X168486580Y-99669523D01*
X168486580Y-99669523D02*
X168534200Y-99717142D01*
X168534200Y-99717142D02*
X168581819Y-99812380D01*
X168581819Y-99812380D02*
X168581819Y-100098094D01*
X168581819Y-100098094D02*
X168534200Y-100193332D01*
X168534200Y-100193332D02*
X168486580Y-100240951D01*
X118559819Y-70895714D02*
X119274104Y-70895714D01*
X119274104Y-70895714D02*
X119416961Y-70943333D01*
X119416961Y-70943333D02*
X119512200Y-71038571D01*
X119512200Y-71038571D02*
X119559819Y-71181428D01*
X119559819Y-71181428D02*
X119559819Y-71276666D01*
X119559819Y-69895714D02*
X119559819Y-70467142D01*
X119559819Y-70181428D02*
X118559819Y-70181428D01*
X118559819Y-70181428D02*
X118702676Y-70276666D01*
X118702676Y-70276666D02*
X118797914Y-70371904D01*
X118797914Y-70371904D02*
X118845533Y-70467142D01*
X118559819Y-69276666D02*
X118559819Y-69181428D01*
X118559819Y-69181428D02*
X118607438Y-69086190D01*
X118607438Y-69086190D02*
X118655057Y-69038571D01*
X118655057Y-69038571D02*
X118750295Y-68990952D01*
X118750295Y-68990952D02*
X118940771Y-68943333D01*
X118940771Y-68943333D02*
X119178866Y-68943333D01*
X119178866Y-68943333D02*
X119369342Y-68990952D01*
X119369342Y-68990952D02*
X119464580Y-69038571D01*
X119464580Y-69038571D02*
X119512200Y-69086190D01*
X119512200Y-69086190D02*
X119559819Y-69181428D01*
X119559819Y-69181428D02*
X119559819Y-69276666D01*
X119559819Y-69276666D02*
X119512200Y-69371904D01*
X119512200Y-69371904D02*
X119464580Y-69419523D01*
X119464580Y-69419523D02*
X119369342Y-69467142D01*
X119369342Y-69467142D02*
X119178866Y-69514761D01*
X119178866Y-69514761D02*
X118940771Y-69514761D01*
X118940771Y-69514761D02*
X118750295Y-69467142D01*
X118750295Y-69467142D02*
X118655057Y-69419523D01*
X118655057Y-69419523D02*
X118607438Y-69371904D01*
X118607438Y-69371904D02*
X118559819Y-69276666D01*
X119559819Y-67990952D02*
X119559819Y-68562380D01*
X119559819Y-68276666D02*
X118559819Y-68276666D01*
X118559819Y-68276666D02*
X118702676Y-68371904D01*
X118702676Y-68371904D02*
X118797914Y-68467142D01*
X118797914Y-68467142D02*
X118845533Y-68562380D01*
X170453694Y-81240819D02*
X170120361Y-80764628D01*
X169882266Y-81240819D02*
X169882266Y-80240819D01*
X169882266Y-80240819D02*
X170263218Y-80240819D01*
X170263218Y-80240819D02*
X170358456Y-80288438D01*
X170358456Y-80288438D02*
X170406075Y-80336057D01*
X170406075Y-80336057D02*
X170453694Y-80431295D01*
X170453694Y-80431295D02*
X170453694Y-80574152D01*
X170453694Y-80574152D02*
X170406075Y-80669390D01*
X170406075Y-80669390D02*
X170358456Y-80717009D01*
X170358456Y-80717009D02*
X170263218Y-80764628D01*
X170263218Y-80764628D02*
X169882266Y-80764628D01*
X171310837Y-80574152D02*
X171310837Y-81240819D01*
X171072742Y-80193200D02*
X170834647Y-80907485D01*
X170834647Y-80907485D02*
X171453694Y-80907485D01*
X172025123Y-80240819D02*
X172120361Y-80240819D01*
X172120361Y-80240819D02*
X172215599Y-80288438D01*
X172215599Y-80288438D02*
X172263218Y-80336057D01*
X172263218Y-80336057D02*
X172310837Y-80431295D01*
X172310837Y-80431295D02*
X172358456Y-80621771D01*
X172358456Y-80621771D02*
X172358456Y-80859866D01*
X172358456Y-80859866D02*
X172310837Y-81050342D01*
X172310837Y-81050342D02*
X172263218Y-81145580D01*
X172263218Y-81145580D02*
X172215599Y-81193200D01*
X172215599Y-81193200D02*
X172120361Y-81240819D01*
X172120361Y-81240819D02*
X172025123Y-81240819D01*
X172025123Y-81240819D02*
X171929885Y-81193200D01*
X171929885Y-81193200D02*
X171882266Y-81145580D01*
X171882266Y-81145580D02*
X171834647Y-81050342D01*
X171834647Y-81050342D02*
X171787028Y-80859866D01*
X171787028Y-80859866D02*
X171787028Y-80621771D01*
X171787028Y-80621771D02*
X171834647Y-80431295D01*
X171834647Y-80431295D02*
X171882266Y-80336057D01*
X171882266Y-80336057D02*
X171929885Y-80288438D01*
X171929885Y-80288438D02*
X172025123Y-80240819D01*
X173215599Y-80240819D02*
X173025123Y-80240819D01*
X173025123Y-80240819D02*
X172929885Y-80288438D01*
X172929885Y-80288438D02*
X172882266Y-80336057D01*
X172882266Y-80336057D02*
X172787028Y-80478914D01*
X172787028Y-80478914D02*
X172739409Y-80669390D01*
X172739409Y-80669390D02*
X172739409Y-81050342D01*
X172739409Y-81050342D02*
X172787028Y-81145580D01*
X172787028Y-81145580D02*
X172834647Y-81193200D01*
X172834647Y-81193200D02*
X172929885Y-81240819D01*
X172929885Y-81240819D02*
X173120361Y-81240819D01*
X173120361Y-81240819D02*
X173215599Y-81193200D01*
X173215599Y-81193200D02*
X173263218Y-81145580D01*
X173263218Y-81145580D02*
X173310837Y-81050342D01*
X173310837Y-81050342D02*
X173310837Y-80812247D01*
X173310837Y-80812247D02*
X173263218Y-80717009D01*
X173263218Y-80717009D02*
X173215599Y-80669390D01*
X173215599Y-80669390D02*
X173120361Y-80621771D01*
X173120361Y-80621771D02*
X172929885Y-80621771D01*
X172929885Y-80621771D02*
X172834647Y-80669390D01*
X172834647Y-80669390D02*
X172787028Y-80717009D01*
X172787028Y-80717009D02*
X172739409Y-80812247D01*
X127687819Y-78603047D02*
X127211628Y-78936380D01*
X127687819Y-79174475D02*
X126687819Y-79174475D01*
X126687819Y-79174475D02*
X126687819Y-78793523D01*
X126687819Y-78793523D02*
X126735438Y-78698285D01*
X126735438Y-78698285D02*
X126783057Y-78650666D01*
X126783057Y-78650666D02*
X126878295Y-78603047D01*
X126878295Y-78603047D02*
X127021152Y-78603047D01*
X127021152Y-78603047D02*
X127116390Y-78650666D01*
X127116390Y-78650666D02*
X127164009Y-78698285D01*
X127164009Y-78698285D02*
X127211628Y-78793523D01*
X127211628Y-78793523D02*
X127211628Y-79174475D01*
X126687819Y-78269713D02*
X126687819Y-77650666D01*
X126687819Y-77650666D02*
X127068771Y-77983999D01*
X127068771Y-77983999D02*
X127068771Y-77841142D01*
X127068771Y-77841142D02*
X127116390Y-77745904D01*
X127116390Y-77745904D02*
X127164009Y-77698285D01*
X127164009Y-77698285D02*
X127259247Y-77650666D01*
X127259247Y-77650666D02*
X127497342Y-77650666D01*
X127497342Y-77650666D02*
X127592580Y-77698285D01*
X127592580Y-77698285D02*
X127640200Y-77745904D01*
X127640200Y-77745904D02*
X127687819Y-77841142D01*
X127687819Y-77841142D02*
X127687819Y-78126856D01*
X127687819Y-78126856D02*
X127640200Y-78222094D01*
X127640200Y-78222094D02*
X127592580Y-78269713D01*
X126687819Y-77031618D02*
X126687819Y-76936380D01*
X126687819Y-76936380D02*
X126735438Y-76841142D01*
X126735438Y-76841142D02*
X126783057Y-76793523D01*
X126783057Y-76793523D02*
X126878295Y-76745904D01*
X126878295Y-76745904D02*
X127068771Y-76698285D01*
X127068771Y-76698285D02*
X127306866Y-76698285D01*
X127306866Y-76698285D02*
X127497342Y-76745904D01*
X127497342Y-76745904D02*
X127592580Y-76793523D01*
X127592580Y-76793523D02*
X127640200Y-76841142D01*
X127640200Y-76841142D02*
X127687819Y-76936380D01*
X127687819Y-76936380D02*
X127687819Y-77031618D01*
X127687819Y-77031618D02*
X127640200Y-77126856D01*
X127640200Y-77126856D02*
X127592580Y-77174475D01*
X127592580Y-77174475D02*
X127497342Y-77222094D01*
X127497342Y-77222094D02*
X127306866Y-77269713D01*
X127306866Y-77269713D02*
X127068771Y-77269713D01*
X127068771Y-77269713D02*
X126878295Y-77222094D01*
X126878295Y-77222094D02*
X126783057Y-77174475D01*
X126783057Y-77174475D02*
X126735438Y-77126856D01*
X126735438Y-77126856D02*
X126687819Y-77031618D01*
X127687819Y-75745904D02*
X127687819Y-76317332D01*
X127687819Y-76031618D02*
X126687819Y-76031618D01*
X126687819Y-76031618D02*
X126830676Y-76126856D01*
X126830676Y-76126856D02*
X126925914Y-76222094D01*
X126925914Y-76222094D02*
X126973533Y-76317332D01*
X126068580Y-78603047D02*
X126116200Y-78650666D01*
X126116200Y-78650666D02*
X126163819Y-78793523D01*
X126163819Y-78793523D02*
X126163819Y-78888761D01*
X126163819Y-78888761D02*
X126116200Y-79031618D01*
X126116200Y-79031618D02*
X126020961Y-79126856D01*
X126020961Y-79126856D02*
X125925723Y-79174475D01*
X125925723Y-79174475D02*
X125735247Y-79222094D01*
X125735247Y-79222094D02*
X125592390Y-79222094D01*
X125592390Y-79222094D02*
X125401914Y-79174475D01*
X125401914Y-79174475D02*
X125306676Y-79126856D01*
X125306676Y-79126856D02*
X125211438Y-79031618D01*
X125211438Y-79031618D02*
X125163819Y-78888761D01*
X125163819Y-78888761D02*
X125163819Y-78793523D01*
X125163819Y-78793523D02*
X125211438Y-78650666D01*
X125211438Y-78650666D02*
X125259057Y-78603047D01*
X125163819Y-78269713D02*
X125163819Y-77650666D01*
X125163819Y-77650666D02*
X125544771Y-77983999D01*
X125544771Y-77983999D02*
X125544771Y-77841142D01*
X125544771Y-77841142D02*
X125592390Y-77745904D01*
X125592390Y-77745904D02*
X125640009Y-77698285D01*
X125640009Y-77698285D02*
X125735247Y-77650666D01*
X125735247Y-77650666D02*
X125973342Y-77650666D01*
X125973342Y-77650666D02*
X126068580Y-77698285D01*
X126068580Y-77698285D02*
X126116200Y-77745904D01*
X126116200Y-77745904D02*
X126163819Y-77841142D01*
X126163819Y-77841142D02*
X126163819Y-78126856D01*
X126163819Y-78126856D02*
X126116200Y-78222094D01*
X126116200Y-78222094D02*
X126068580Y-78269713D01*
X125163819Y-77031618D02*
X125163819Y-76936380D01*
X125163819Y-76936380D02*
X125211438Y-76841142D01*
X125211438Y-76841142D02*
X125259057Y-76793523D01*
X125259057Y-76793523D02*
X125354295Y-76745904D01*
X125354295Y-76745904D02*
X125544771Y-76698285D01*
X125544771Y-76698285D02*
X125782866Y-76698285D01*
X125782866Y-76698285D02*
X125973342Y-76745904D01*
X125973342Y-76745904D02*
X126068580Y-76793523D01*
X126068580Y-76793523D02*
X126116200Y-76841142D01*
X126116200Y-76841142D02*
X126163819Y-76936380D01*
X126163819Y-76936380D02*
X126163819Y-77031618D01*
X126163819Y-77031618D02*
X126116200Y-77126856D01*
X126116200Y-77126856D02*
X126068580Y-77174475D01*
X126068580Y-77174475D02*
X125973342Y-77222094D01*
X125973342Y-77222094D02*
X125782866Y-77269713D01*
X125782866Y-77269713D02*
X125544771Y-77269713D01*
X125544771Y-77269713D02*
X125354295Y-77222094D01*
X125354295Y-77222094D02*
X125259057Y-77174475D01*
X125259057Y-77174475D02*
X125211438Y-77126856D01*
X125211438Y-77126856D02*
X125163819Y-77031618D01*
X125592390Y-76126856D02*
X125544771Y-76222094D01*
X125544771Y-76222094D02*
X125497152Y-76269713D01*
X125497152Y-76269713D02*
X125401914Y-76317332D01*
X125401914Y-76317332D02*
X125354295Y-76317332D01*
X125354295Y-76317332D02*
X125259057Y-76269713D01*
X125259057Y-76269713D02*
X125211438Y-76222094D01*
X125211438Y-76222094D02*
X125163819Y-76126856D01*
X125163819Y-76126856D02*
X125163819Y-75936380D01*
X125163819Y-75936380D02*
X125211438Y-75841142D01*
X125211438Y-75841142D02*
X125259057Y-75793523D01*
X125259057Y-75793523D02*
X125354295Y-75745904D01*
X125354295Y-75745904D02*
X125401914Y-75745904D01*
X125401914Y-75745904D02*
X125497152Y-75793523D01*
X125497152Y-75793523D02*
X125544771Y-75841142D01*
X125544771Y-75841142D02*
X125592390Y-75936380D01*
X125592390Y-75936380D02*
X125592390Y-76126856D01*
X125592390Y-76126856D02*
X125640009Y-76222094D01*
X125640009Y-76222094D02*
X125687628Y-76269713D01*
X125687628Y-76269713D02*
X125782866Y-76317332D01*
X125782866Y-76317332D02*
X125973342Y-76317332D01*
X125973342Y-76317332D02*
X126068580Y-76269713D01*
X126068580Y-76269713D02*
X126116200Y-76222094D01*
X126116200Y-76222094D02*
X126163819Y-76126856D01*
X126163819Y-76126856D02*
X126163819Y-75936380D01*
X126163819Y-75936380D02*
X126116200Y-75841142D01*
X126116200Y-75841142D02*
X126068580Y-75793523D01*
X126068580Y-75793523D02*
X125973342Y-75745904D01*
X125973342Y-75745904D02*
X125782866Y-75745904D01*
X125782866Y-75745904D02*
X125687628Y-75793523D01*
X125687628Y-75793523D02*
X125640009Y-75841142D01*
X125640009Y-75841142D02*
X125592390Y-75936380D01*
X98427952Y-91400819D02*
X98094619Y-90924628D01*
X97856524Y-91400819D02*
X97856524Y-90400819D01*
X97856524Y-90400819D02*
X98237476Y-90400819D01*
X98237476Y-90400819D02*
X98332714Y-90448438D01*
X98332714Y-90448438D02*
X98380333Y-90496057D01*
X98380333Y-90496057D02*
X98427952Y-90591295D01*
X98427952Y-90591295D02*
X98427952Y-90734152D01*
X98427952Y-90734152D02*
X98380333Y-90829390D01*
X98380333Y-90829390D02*
X98332714Y-90877009D01*
X98332714Y-90877009D02*
X98237476Y-90924628D01*
X98237476Y-90924628D02*
X97856524Y-90924628D01*
X99285095Y-90734152D02*
X99285095Y-91400819D01*
X99047000Y-90353200D02*
X98808905Y-91067485D01*
X98808905Y-91067485D02*
X99427952Y-91067485D01*
X99999381Y-90400819D02*
X100094619Y-90400819D01*
X100094619Y-90400819D02*
X100189857Y-90448438D01*
X100189857Y-90448438D02*
X100237476Y-90496057D01*
X100237476Y-90496057D02*
X100285095Y-90591295D01*
X100285095Y-90591295D02*
X100332714Y-90781771D01*
X100332714Y-90781771D02*
X100332714Y-91019866D01*
X100332714Y-91019866D02*
X100285095Y-91210342D01*
X100285095Y-91210342D02*
X100237476Y-91305580D01*
X100237476Y-91305580D02*
X100189857Y-91353200D01*
X100189857Y-91353200D02*
X100094619Y-91400819D01*
X100094619Y-91400819D02*
X99999381Y-91400819D01*
X99999381Y-91400819D02*
X99904143Y-91353200D01*
X99904143Y-91353200D02*
X99856524Y-91305580D01*
X99856524Y-91305580D02*
X99808905Y-91210342D01*
X99808905Y-91210342D02*
X99761286Y-91019866D01*
X99761286Y-91019866D02*
X99761286Y-90781771D01*
X99761286Y-90781771D02*
X99808905Y-90591295D01*
X99808905Y-90591295D02*
X99856524Y-90496057D01*
X99856524Y-90496057D02*
X99904143Y-90448438D01*
X99904143Y-90448438D02*
X99999381Y-90400819D01*
X100666048Y-90400819D02*
X101285095Y-90400819D01*
X101285095Y-90400819D02*
X100951762Y-90781771D01*
X100951762Y-90781771D02*
X101094619Y-90781771D01*
X101094619Y-90781771D02*
X101189857Y-90829390D01*
X101189857Y-90829390D02*
X101237476Y-90877009D01*
X101237476Y-90877009D02*
X101285095Y-90972247D01*
X101285095Y-90972247D02*
X101285095Y-91210342D01*
X101285095Y-91210342D02*
X101237476Y-91305580D01*
X101237476Y-91305580D02*
X101189857Y-91353200D01*
X101189857Y-91353200D02*
X101094619Y-91400819D01*
X101094619Y-91400819D02*
X100808905Y-91400819D01*
X100808905Y-91400819D02*
X100713667Y-91353200D01*
X100713667Y-91353200D02*
X100666048Y-91305580D01*
X165126152Y-91978580D02*
X165078533Y-92026200D01*
X165078533Y-92026200D02*
X164935676Y-92073819D01*
X164935676Y-92073819D02*
X164840438Y-92073819D01*
X164840438Y-92073819D02*
X164697581Y-92026200D01*
X164697581Y-92026200D02*
X164602343Y-91930961D01*
X164602343Y-91930961D02*
X164554724Y-91835723D01*
X164554724Y-91835723D02*
X164507105Y-91645247D01*
X164507105Y-91645247D02*
X164507105Y-91502390D01*
X164507105Y-91502390D02*
X164554724Y-91311914D01*
X164554724Y-91311914D02*
X164602343Y-91216676D01*
X164602343Y-91216676D02*
X164697581Y-91121438D01*
X164697581Y-91121438D02*
X164840438Y-91073819D01*
X164840438Y-91073819D02*
X164935676Y-91073819D01*
X164935676Y-91073819D02*
X165078533Y-91121438D01*
X165078533Y-91121438D02*
X165126152Y-91169057D01*
X165983295Y-91407152D02*
X165983295Y-92073819D01*
X165745200Y-91026200D02*
X165507105Y-91740485D01*
X165507105Y-91740485D02*
X166126152Y-91740485D01*
X166697581Y-91073819D02*
X166792819Y-91073819D01*
X166792819Y-91073819D02*
X166888057Y-91121438D01*
X166888057Y-91121438D02*
X166935676Y-91169057D01*
X166935676Y-91169057D02*
X166983295Y-91264295D01*
X166983295Y-91264295D02*
X167030914Y-91454771D01*
X167030914Y-91454771D02*
X167030914Y-91692866D01*
X167030914Y-91692866D02*
X166983295Y-91883342D01*
X166983295Y-91883342D02*
X166935676Y-91978580D01*
X166935676Y-91978580D02*
X166888057Y-92026200D01*
X166888057Y-92026200D02*
X166792819Y-92073819D01*
X166792819Y-92073819D02*
X166697581Y-92073819D01*
X166697581Y-92073819D02*
X166602343Y-92026200D01*
X166602343Y-92026200D02*
X166554724Y-91978580D01*
X166554724Y-91978580D02*
X166507105Y-91883342D01*
X166507105Y-91883342D02*
X166459486Y-91692866D01*
X166459486Y-91692866D02*
X166459486Y-91454771D01*
X166459486Y-91454771D02*
X166507105Y-91264295D01*
X166507105Y-91264295D02*
X166554724Y-91169057D01*
X166554724Y-91169057D02*
X166602343Y-91121438D01*
X166602343Y-91121438D02*
X166697581Y-91073819D01*
X167888057Y-91073819D02*
X167697581Y-91073819D01*
X167697581Y-91073819D02*
X167602343Y-91121438D01*
X167602343Y-91121438D02*
X167554724Y-91169057D01*
X167554724Y-91169057D02*
X167459486Y-91311914D01*
X167459486Y-91311914D02*
X167411867Y-91502390D01*
X167411867Y-91502390D02*
X167411867Y-91883342D01*
X167411867Y-91883342D02*
X167459486Y-91978580D01*
X167459486Y-91978580D02*
X167507105Y-92026200D01*
X167507105Y-92026200D02*
X167602343Y-92073819D01*
X167602343Y-92073819D02*
X167792819Y-92073819D01*
X167792819Y-92073819D02*
X167888057Y-92026200D01*
X167888057Y-92026200D02*
X167935676Y-91978580D01*
X167935676Y-91978580D02*
X167983295Y-91883342D01*
X167983295Y-91883342D02*
X167983295Y-91645247D01*
X167983295Y-91645247D02*
X167935676Y-91550009D01*
X167935676Y-91550009D02*
X167888057Y-91502390D01*
X167888057Y-91502390D02*
X167792819Y-91454771D01*
X167792819Y-91454771D02*
X167602343Y-91454771D01*
X167602343Y-91454771D02*
X167507105Y-91502390D01*
X167507105Y-91502390D02*
X167459486Y-91550009D01*
X167459486Y-91550009D02*
X167411867Y-91645247D01*
X182335285Y-94718819D02*
X182335285Y-95433104D01*
X182335285Y-95433104D02*
X182287666Y-95575961D01*
X182287666Y-95575961D02*
X182192428Y-95671200D01*
X182192428Y-95671200D02*
X182049571Y-95718819D01*
X182049571Y-95718819D02*
X181954333Y-95718819D01*
X183335285Y-95718819D02*
X182763857Y-95718819D01*
X183049571Y-95718819D02*
X183049571Y-94718819D01*
X183049571Y-94718819D02*
X182954333Y-94861676D01*
X182954333Y-94861676D02*
X182859095Y-94956914D01*
X182859095Y-94956914D02*
X182763857Y-95004533D01*
X183954333Y-94718819D02*
X184049571Y-94718819D01*
X184049571Y-94718819D02*
X184144809Y-94766438D01*
X184144809Y-94766438D02*
X184192428Y-94814057D01*
X184192428Y-94814057D02*
X184240047Y-94909295D01*
X184240047Y-94909295D02*
X184287666Y-95099771D01*
X184287666Y-95099771D02*
X184287666Y-95337866D01*
X184287666Y-95337866D02*
X184240047Y-95528342D01*
X184240047Y-95528342D02*
X184192428Y-95623580D01*
X184192428Y-95623580D02*
X184144809Y-95671200D01*
X184144809Y-95671200D02*
X184049571Y-95718819D01*
X184049571Y-95718819D02*
X183954333Y-95718819D01*
X183954333Y-95718819D02*
X183859095Y-95671200D01*
X183859095Y-95671200D02*
X183811476Y-95623580D01*
X183811476Y-95623580D02*
X183763857Y-95528342D01*
X183763857Y-95528342D02*
X183716238Y-95337866D01*
X183716238Y-95337866D02*
X183716238Y-95099771D01*
X183716238Y-95099771D02*
X183763857Y-94909295D01*
X183763857Y-94909295D02*
X183811476Y-94814057D01*
X183811476Y-94814057D02*
X183859095Y-94766438D01*
X183859095Y-94766438D02*
X183954333Y-94718819D01*
X185144809Y-94718819D02*
X184954333Y-94718819D01*
X184954333Y-94718819D02*
X184859095Y-94766438D01*
X184859095Y-94766438D02*
X184811476Y-94814057D01*
X184811476Y-94814057D02*
X184716238Y-94956914D01*
X184716238Y-94956914D02*
X184668619Y-95147390D01*
X184668619Y-95147390D02*
X184668619Y-95528342D01*
X184668619Y-95528342D02*
X184716238Y-95623580D01*
X184716238Y-95623580D02*
X184763857Y-95671200D01*
X184763857Y-95671200D02*
X184859095Y-95718819D01*
X184859095Y-95718819D02*
X185049571Y-95718819D01*
X185049571Y-95718819D02*
X185144809Y-95671200D01*
X185144809Y-95671200D02*
X185192428Y-95623580D01*
X185192428Y-95623580D02*
X185240047Y-95528342D01*
X185240047Y-95528342D02*
X185240047Y-95290247D01*
X185240047Y-95290247D02*
X185192428Y-95195009D01*
X185192428Y-95195009D02*
X185144809Y-95147390D01*
X185144809Y-95147390D02*
X185049571Y-95099771D01*
X185049571Y-95099771D02*
X184859095Y-95099771D01*
X184859095Y-95099771D02*
X184763857Y-95147390D01*
X184763857Y-95147390D02*
X184716238Y-95195009D01*
X184716238Y-95195009D02*
X184668619Y-95290247D01*
X121375285Y-104116819D02*
X121375285Y-104831104D01*
X121375285Y-104831104D02*
X121327666Y-104973961D01*
X121327666Y-104973961D02*
X121232428Y-105069200D01*
X121232428Y-105069200D02*
X121089571Y-105116819D01*
X121089571Y-105116819D02*
X120994333Y-105116819D01*
X122375285Y-105116819D02*
X121803857Y-105116819D01*
X122089571Y-105116819D02*
X122089571Y-104116819D01*
X122089571Y-104116819D02*
X121994333Y-104259676D01*
X121994333Y-104259676D02*
X121899095Y-104354914D01*
X121899095Y-104354914D02*
X121803857Y-104402533D01*
X122994333Y-104116819D02*
X123089571Y-104116819D01*
X123089571Y-104116819D02*
X123184809Y-104164438D01*
X123184809Y-104164438D02*
X123232428Y-104212057D01*
X123232428Y-104212057D02*
X123280047Y-104307295D01*
X123280047Y-104307295D02*
X123327666Y-104497771D01*
X123327666Y-104497771D02*
X123327666Y-104735866D01*
X123327666Y-104735866D02*
X123280047Y-104926342D01*
X123280047Y-104926342D02*
X123232428Y-105021580D01*
X123232428Y-105021580D02*
X123184809Y-105069200D01*
X123184809Y-105069200D02*
X123089571Y-105116819D01*
X123089571Y-105116819D02*
X122994333Y-105116819D01*
X122994333Y-105116819D02*
X122899095Y-105069200D01*
X122899095Y-105069200D02*
X122851476Y-105021580D01*
X122851476Y-105021580D02*
X122803857Y-104926342D01*
X122803857Y-104926342D02*
X122756238Y-104735866D01*
X122756238Y-104735866D02*
X122756238Y-104497771D01*
X122756238Y-104497771D02*
X122803857Y-104307295D01*
X122803857Y-104307295D02*
X122851476Y-104212057D01*
X122851476Y-104212057D02*
X122899095Y-104164438D01*
X122899095Y-104164438D02*
X122994333Y-104116819D01*
X124184809Y-104450152D02*
X124184809Y-105116819D01*
X123946714Y-104069200D02*
X123708619Y-104783485D01*
X123708619Y-104783485D02*
X124327666Y-104783485D01*
X176064714Y-93448819D02*
X176064714Y-94258342D01*
X176064714Y-94258342D02*
X176112333Y-94353580D01*
X176112333Y-94353580D02*
X176159952Y-94401200D01*
X176159952Y-94401200D02*
X176255190Y-94448819D01*
X176255190Y-94448819D02*
X176445666Y-94448819D01*
X176445666Y-94448819D02*
X176540904Y-94401200D01*
X176540904Y-94401200D02*
X176588523Y-94353580D01*
X176588523Y-94353580D02*
X176636142Y-94258342D01*
X176636142Y-94258342D02*
X176636142Y-93448819D01*
X177540904Y-93782152D02*
X177540904Y-94448819D01*
X177302809Y-93401200D02*
X177064714Y-94115485D01*
X177064714Y-94115485D02*
X177683761Y-94115485D01*
X178255190Y-93448819D02*
X178350428Y-93448819D01*
X178350428Y-93448819D02*
X178445666Y-93496438D01*
X178445666Y-93496438D02*
X178493285Y-93544057D01*
X178493285Y-93544057D02*
X178540904Y-93639295D01*
X178540904Y-93639295D02*
X178588523Y-93829771D01*
X178588523Y-93829771D02*
X178588523Y-94067866D01*
X178588523Y-94067866D02*
X178540904Y-94258342D01*
X178540904Y-94258342D02*
X178493285Y-94353580D01*
X178493285Y-94353580D02*
X178445666Y-94401200D01*
X178445666Y-94401200D02*
X178350428Y-94448819D01*
X178350428Y-94448819D02*
X178255190Y-94448819D01*
X178255190Y-94448819D02*
X178159952Y-94401200D01*
X178159952Y-94401200D02*
X178112333Y-94353580D01*
X178112333Y-94353580D02*
X178064714Y-94258342D01*
X178064714Y-94258342D02*
X178017095Y-94067866D01*
X178017095Y-94067866D02*
X178017095Y-93829771D01*
X178017095Y-93829771D02*
X178064714Y-93639295D01*
X178064714Y-93639295D02*
X178112333Y-93544057D01*
X178112333Y-93544057D02*
X178159952Y-93496438D01*
X178159952Y-93496438D02*
X178255190Y-93448819D01*
X178969476Y-93544057D02*
X179017095Y-93496438D01*
X179017095Y-93496438D02*
X179112333Y-93448819D01*
X179112333Y-93448819D02*
X179350428Y-93448819D01*
X179350428Y-93448819D02*
X179445666Y-93496438D01*
X179445666Y-93496438D02*
X179493285Y-93544057D01*
X179493285Y-93544057D02*
X179540904Y-93639295D01*
X179540904Y-93639295D02*
X179540904Y-93734533D01*
X179540904Y-93734533D02*
X179493285Y-93877390D01*
X179493285Y-93877390D02*
X178921857Y-94448819D01*
X178921857Y-94448819D02*
X179540904Y-94448819D01*
X180366980Y-85464600D02*
X180128885Y-85464600D01*
X180224123Y-85226505D02*
X180128885Y-85464600D01*
X180128885Y-85464600D02*
X180224123Y-85702695D01*
X179938409Y-85321743D02*
X180128885Y-85464600D01*
X180128885Y-85464600D02*
X179938409Y-85607457D01*
X179276619Y-85464599D02*
X179514714Y-85464599D01*
X179419476Y-85702694D02*
X179514714Y-85464599D01*
X179514714Y-85464599D02*
X179419476Y-85226504D01*
X179705190Y-85607456D02*
X179514714Y-85464599D01*
X179514714Y-85464599D02*
X179705190Y-85321742D01*
X133733952Y-83685580D02*
X133686333Y-83733200D01*
X133686333Y-83733200D02*
X133543476Y-83780819D01*
X133543476Y-83780819D02*
X133448238Y-83780819D01*
X133448238Y-83780819D02*
X133305381Y-83733200D01*
X133305381Y-83733200D02*
X133210143Y-83637961D01*
X133210143Y-83637961D02*
X133162524Y-83542723D01*
X133162524Y-83542723D02*
X133114905Y-83352247D01*
X133114905Y-83352247D02*
X133114905Y-83209390D01*
X133114905Y-83209390D02*
X133162524Y-83018914D01*
X133162524Y-83018914D02*
X133210143Y-82923676D01*
X133210143Y-82923676D02*
X133305381Y-82828438D01*
X133305381Y-82828438D02*
X133448238Y-82780819D01*
X133448238Y-82780819D02*
X133543476Y-82780819D01*
X133543476Y-82780819D02*
X133686333Y-82828438D01*
X133686333Y-82828438D02*
X133733952Y-82876057D01*
X134067286Y-82780819D02*
X134686333Y-82780819D01*
X134686333Y-82780819D02*
X134353000Y-83161771D01*
X134353000Y-83161771D02*
X134495857Y-83161771D01*
X134495857Y-83161771D02*
X134591095Y-83209390D01*
X134591095Y-83209390D02*
X134638714Y-83257009D01*
X134638714Y-83257009D02*
X134686333Y-83352247D01*
X134686333Y-83352247D02*
X134686333Y-83590342D01*
X134686333Y-83590342D02*
X134638714Y-83685580D01*
X134638714Y-83685580D02*
X134591095Y-83733200D01*
X134591095Y-83733200D02*
X134495857Y-83780819D01*
X134495857Y-83780819D02*
X134210143Y-83780819D01*
X134210143Y-83780819D02*
X134114905Y-83733200D01*
X134114905Y-83733200D02*
X134067286Y-83685580D01*
X135305381Y-82780819D02*
X135400619Y-82780819D01*
X135400619Y-82780819D02*
X135495857Y-82828438D01*
X135495857Y-82828438D02*
X135543476Y-82876057D01*
X135543476Y-82876057D02*
X135591095Y-82971295D01*
X135591095Y-82971295D02*
X135638714Y-83161771D01*
X135638714Y-83161771D02*
X135638714Y-83399866D01*
X135638714Y-83399866D02*
X135591095Y-83590342D01*
X135591095Y-83590342D02*
X135543476Y-83685580D01*
X135543476Y-83685580D02*
X135495857Y-83733200D01*
X135495857Y-83733200D02*
X135400619Y-83780819D01*
X135400619Y-83780819D02*
X135305381Y-83780819D01*
X135305381Y-83780819D02*
X135210143Y-83733200D01*
X135210143Y-83733200D02*
X135162524Y-83685580D01*
X135162524Y-83685580D02*
X135114905Y-83590342D01*
X135114905Y-83590342D02*
X135067286Y-83399866D01*
X135067286Y-83399866D02*
X135067286Y-83161771D01*
X135067286Y-83161771D02*
X135114905Y-82971295D01*
X135114905Y-82971295D02*
X135162524Y-82876057D01*
X135162524Y-82876057D02*
X135210143Y-82828438D01*
X135210143Y-82828438D02*
X135305381Y-82780819D01*
X136543476Y-82780819D02*
X136067286Y-82780819D01*
X136067286Y-82780819D02*
X136019667Y-83257009D01*
X136019667Y-83257009D02*
X136067286Y-83209390D01*
X136067286Y-83209390D02*
X136162524Y-83161771D01*
X136162524Y-83161771D02*
X136400619Y-83161771D01*
X136400619Y-83161771D02*
X136495857Y-83209390D01*
X136495857Y-83209390D02*
X136543476Y-83257009D01*
X136543476Y-83257009D02*
X136591095Y-83352247D01*
X136591095Y-83352247D02*
X136591095Y-83590342D01*
X136591095Y-83590342D02*
X136543476Y-83685580D01*
X136543476Y-83685580D02*
X136495857Y-83733200D01*
X136495857Y-83733200D02*
X136400619Y-83780819D01*
X136400619Y-83780819D02*
X136162524Y-83780819D01*
X136162524Y-83780819D02*
X136067286Y-83733200D01*
X136067286Y-83733200D02*
X136019667Y-83685580D01*
X102046952Y-94353580D02*
X101999333Y-94401200D01*
X101999333Y-94401200D02*
X101856476Y-94448819D01*
X101856476Y-94448819D02*
X101761238Y-94448819D01*
X101761238Y-94448819D02*
X101618381Y-94401200D01*
X101618381Y-94401200D02*
X101523143Y-94305961D01*
X101523143Y-94305961D02*
X101475524Y-94210723D01*
X101475524Y-94210723D02*
X101427905Y-94020247D01*
X101427905Y-94020247D02*
X101427905Y-93877390D01*
X101427905Y-93877390D02*
X101475524Y-93686914D01*
X101475524Y-93686914D02*
X101523143Y-93591676D01*
X101523143Y-93591676D02*
X101618381Y-93496438D01*
X101618381Y-93496438D02*
X101761238Y-93448819D01*
X101761238Y-93448819D02*
X101856476Y-93448819D01*
X101856476Y-93448819D02*
X101999333Y-93496438D01*
X101999333Y-93496438D02*
X102046952Y-93544057D01*
X102904095Y-93782152D02*
X102904095Y-94448819D01*
X102666000Y-93401200D02*
X102427905Y-94115485D01*
X102427905Y-94115485D02*
X103046952Y-94115485D01*
X103618381Y-93448819D02*
X103713619Y-93448819D01*
X103713619Y-93448819D02*
X103808857Y-93496438D01*
X103808857Y-93496438D02*
X103856476Y-93544057D01*
X103856476Y-93544057D02*
X103904095Y-93639295D01*
X103904095Y-93639295D02*
X103951714Y-93829771D01*
X103951714Y-93829771D02*
X103951714Y-94067866D01*
X103951714Y-94067866D02*
X103904095Y-94258342D01*
X103904095Y-94258342D02*
X103856476Y-94353580D01*
X103856476Y-94353580D02*
X103808857Y-94401200D01*
X103808857Y-94401200D02*
X103713619Y-94448819D01*
X103713619Y-94448819D02*
X103618381Y-94448819D01*
X103618381Y-94448819D02*
X103523143Y-94401200D01*
X103523143Y-94401200D02*
X103475524Y-94353580D01*
X103475524Y-94353580D02*
X103427905Y-94258342D01*
X103427905Y-94258342D02*
X103380286Y-94067866D01*
X103380286Y-94067866D02*
X103380286Y-93829771D01*
X103380286Y-93829771D02*
X103427905Y-93639295D01*
X103427905Y-93639295D02*
X103475524Y-93544057D01*
X103475524Y-93544057D02*
X103523143Y-93496438D01*
X103523143Y-93496438D02*
X103618381Y-93448819D01*
X104904095Y-94448819D02*
X104332667Y-94448819D01*
X104618381Y-94448819D02*
X104618381Y-93448819D01*
X104618381Y-93448819D02*
X104523143Y-93591676D01*
X104523143Y-93591676D02*
X104427905Y-93686914D01*
X104427905Y-93686914D02*
X104332667Y-93734533D01*
D11*
%TO.C,C201*%
X114459748Y-80178000D02*
X114982252Y-80178000D01*
X114459748Y-81648000D02*
X114982252Y-81648000D01*
%TO.C,C403*%
X108483420Y-84086000D02*
X108764580Y-84086000D01*
X108483420Y-85106000D02*
X108764580Y-85106000D01*
%TO.C,C411*%
X169217000Y-68165000D02*
X173167000Y-68165000D01*
X169217000Y-77620563D02*
X169217000Y-68165000D01*
X170281437Y-78685000D02*
X169217000Y-77620563D01*
X170281437Y-78685000D02*
X173167000Y-78685000D01*
X178672563Y-78685000D02*
X175787000Y-78685000D01*
X178672563Y-78685000D02*
X179737000Y-77620563D01*
X179737000Y-68165000D02*
X175787000Y-68165000D01*
X179737000Y-77620563D02*
X179737000Y-68165000D01*
D12*
%TO.C,U401*%
X95533800Y-83800900D02*
X95533800Y-88449100D01*
X95533800Y-88449100D02*
X95912502Y-88449100D01*
X95912502Y-83800900D02*
X95533800Y-83800900D01*
X105467498Y-88449100D02*
X105846200Y-88449100D01*
X105846200Y-83800900D02*
X105467498Y-83800900D01*
X105846200Y-88449100D02*
X105846200Y-83800900D01*
D13*
G36*
X101871100Y-82315000D02*
G01*
X101490100Y-82315000D01*
X101490100Y-82061000D01*
X101871100Y-82061000D01*
X101871100Y-82315000D01*
G37*
G36*
X102531500Y-90189000D02*
G01*
X102150500Y-90189000D01*
X102150500Y-89935000D01*
X102531500Y-89935000D01*
X102531500Y-90189000D01*
G37*
D11*
%TO.C,C404*%
X171950580Y-83218000D02*
X171669420Y-83218000D01*
X171950580Y-84238000D02*
X171669420Y-84238000D01*
%TO.C,C302*%
X122913000Y-94401580D02*
X122913000Y-94120420D01*
X123933000Y-94401580D02*
X123933000Y-94120420D01*
%TO.C,D201*%
X107295000Y-76930000D02*
X107295000Y-71420000D01*
X107295000Y-76930000D02*
X110595000Y-76930000D01*
X110595000Y-76930000D02*
X110595000Y-71420000D01*
%TO.C,RV403*%
X162680000Y-81785000D02*
X162680000Y-82485000D01*
X163180000Y-83385000D02*
X163180000Y-83785000D01*
X163380000Y-81785000D02*
X162680000Y-81785000D01*
X164280000Y-81985000D02*
X167180000Y-81985000D01*
X164280000Y-85185000D02*
X167180000Y-85185000D01*
X167180000Y-81985000D02*
X167180000Y-82585000D01*
X167180000Y-85185000D02*
X167180000Y-84585000D01*
%TO.C,RV401*%
X107680000Y-89600000D02*
X107680000Y-90200000D01*
X107680000Y-92800000D02*
X107680000Y-92200000D01*
X110580000Y-89600000D02*
X107680000Y-89600000D01*
X110580000Y-92800000D02*
X107680000Y-92800000D01*
X111480000Y-93000000D02*
X112180000Y-93000000D01*
X111680000Y-91400000D02*
X111680000Y-91000000D01*
X112180000Y-93000000D02*
X112180000Y-92300000D01*
%TO.C,U302*%
X138095000Y-78390000D02*
X138095000Y-83690000D01*
X138095000Y-83690000D02*
X158535000Y-83690000D01*
X158535000Y-78390000D02*
X138095000Y-78390000D01*
X158535000Y-80040000D02*
X158535000Y-78390000D01*
X158535000Y-83690000D02*
X158535000Y-82040000D01*
X158535000Y-82040000D02*
G75*
G02*
X158535000Y-80040000I0J1000000D01*
G01*
%TO.C,R308*%
X146522500Y-88135258D02*
X146522500Y-87660742D01*
X147567500Y-88135258D02*
X147567500Y-87660742D01*
%TO.C,C412*%
X175225420Y-80932000D02*
X175506580Y-80932000D01*
X175225420Y-81952000D02*
X175506580Y-81952000D01*
%TO.C,R303*%
X135346500Y-86357258D02*
X135346500Y-85882742D01*
X136391500Y-86357258D02*
X136391500Y-85882742D01*
%TO.C,R310*%
X141442500Y-88135258D02*
X141442500Y-87660742D01*
X142487500Y-88135258D02*
X142487500Y-87660742D01*
%TO.C,C405*%
X166436580Y-80281000D02*
X166155420Y-80281000D01*
X166436580Y-81301000D02*
X166155420Y-81301000D01*
%TO.C,C407*%
X94882600Y-97164437D02*
X94882600Y-106620000D01*
X94882600Y-106620000D02*
X98832600Y-106620000D01*
X95947037Y-96100000D02*
X94882600Y-97164437D01*
X95947037Y-96100000D02*
X98832600Y-96100000D01*
X104338163Y-96100000D02*
X101452600Y-96100000D01*
X104338163Y-96100000D02*
X105402600Y-97164437D01*
X105402600Y-97164437D02*
X105402600Y-106620000D01*
X105402600Y-106620000D02*
X101452600Y-106620000D01*
%TO.C,RV404*%
X162680000Y-85595000D02*
X162680000Y-86295000D01*
X163180000Y-87195000D02*
X163180000Y-87595000D01*
X163380000Y-85595000D02*
X162680000Y-85595000D01*
X164280000Y-85795000D02*
X167180000Y-85795000D01*
X164280000Y-88995000D02*
X167180000Y-88995000D01*
X167180000Y-85795000D02*
X167180000Y-86395000D01*
X167180000Y-88995000D02*
X167180000Y-88395000D01*
%TO.C,C301*%
X128247000Y-80990580D02*
X128247000Y-80709420D01*
X129267000Y-80990580D02*
X129267000Y-80709420D01*
%TO.C,J105*%
X87750100Y-80700000D02*
X94490100Y-80700000D01*
X87750100Y-91560000D02*
X87750100Y-80700000D01*
X88870100Y-91560000D02*
X88870100Y-80700000D01*
X93970100Y-91560000D02*
X93970100Y-80700000D01*
X94490100Y-80700000D02*
X94490100Y-89640000D01*
X94490100Y-90240000D02*
X94490100Y-91560000D01*
X94490100Y-91560000D02*
X87750100Y-91560000D01*
X95100100Y-90380000D02*
X94490100Y-89940000D01*
X95100100Y-89500000D01*
X95100100Y-90380000D01*
G36*
X95100100Y-90380000D02*
G01*
X94490100Y-89940000D01*
X95100100Y-89500000D01*
X95100100Y-90380000D01*
G37*
%TO.C,R305*%
X154142500Y-88135258D02*
X154142500Y-87660742D01*
X155187500Y-88135258D02*
X155187500Y-87660742D01*
%TO.C,R309*%
X143982500Y-88135258D02*
X143982500Y-87660742D01*
X145027500Y-88135258D02*
X145027500Y-87660742D01*
%TO.C,C307*%
X131436420Y-79641000D02*
X131717580Y-79641000D01*
X131436420Y-80661000D02*
X131717580Y-80661000D01*
%TO.C,R307*%
X149062500Y-88135258D02*
X149062500Y-87660742D01*
X150107500Y-88135258D02*
X150107500Y-87660742D01*
%TO.C,R302*%
X133822500Y-85882742D02*
X133822500Y-86357258D01*
X134867500Y-85882742D02*
X134867500Y-86357258D01*
%TO.C,J102*%
X132090000Y-66239000D02*
X158190000Y-66239000D01*
X132090000Y-67359000D02*
X158190000Y-67359000D01*
X132090000Y-72459000D02*
X158190000Y-72459000D01*
X132090000Y-72979000D02*
X132090000Y-66239000D01*
X133410000Y-72979000D02*
X132090000Y-72979000D01*
X158190000Y-66239000D02*
X158190000Y-72979000D01*
X158190000Y-72979000D02*
X134010000Y-72979000D01*
X134150000Y-73589000D02*
X133270000Y-73589000D01*
X133710000Y-72979000D01*
X134150000Y-73589000D01*
G36*
X134150000Y-73589000D02*
G01*
X133270000Y-73589000D01*
X133710000Y-72979000D01*
X134150000Y-73589000D01*
G37*
%TO.C,C304*%
X119865000Y-94388580D02*
X119865000Y-94107420D01*
X120885000Y-94388580D02*
X120885000Y-94107420D01*
%TO.C,U301*%
X124385000Y-85685000D02*
X124685000Y-85685000D01*
X124385000Y-85985000D02*
X124385000Y-85685000D01*
X124385000Y-92605000D02*
X124385000Y-92905000D01*
X124385000Y-92905000D02*
X124685000Y-92905000D01*
X131605000Y-85685000D02*
X131305000Y-85685000D01*
X131605000Y-85985000D02*
X131605000Y-85685000D01*
X131605000Y-92605000D02*
X131605000Y-92905000D01*
X131605000Y-92905000D02*
X131305000Y-92905000D01*
X131775000Y-85422500D02*
X131305000Y-85082500D01*
X131775000Y-84742500D01*
X131775000Y-85422500D01*
G36*
X131775000Y-85422500D02*
G01*
X131305000Y-85082500D01*
X131775000Y-84742500D01*
X131775000Y-85422500D01*
G37*
%TO.C,R304*%
X156682500Y-88135258D02*
X156682500Y-87660742D01*
X157727500Y-88135258D02*
X157727500Y-87660742D01*
%TO.C,J103*%
X121295000Y-66240000D02*
X127075000Y-66240000D01*
X121295000Y-67360000D02*
X127075000Y-67360000D01*
X121295000Y-72460000D02*
X127075000Y-72460000D01*
X121295000Y-72980000D02*
X121295000Y-66240000D01*
X122615000Y-72980000D02*
X121295000Y-72980000D01*
X127075000Y-66240000D02*
X127075000Y-72980000D01*
X127075000Y-72980000D02*
X123215000Y-72980000D01*
X123355000Y-73590000D02*
X122475000Y-73590000D01*
X122915000Y-72980000D01*
X123355000Y-73590000D01*
G36*
X123355000Y-73590000D02*
G01*
X122475000Y-73590000D01*
X122915000Y-72980000D01*
X123355000Y-73590000D01*
G37*
%TO.C,C309*%
X123675000Y-80990580D02*
X123675000Y-80709420D01*
X124695000Y-80990580D02*
X124695000Y-80709420D01*
%TO.C,C408*%
X99521180Y-92595000D02*
X99240020Y-92595000D01*
X99521180Y-93615000D02*
X99240020Y-93615000D01*
%TO.C,R306*%
X151602500Y-88135258D02*
X151602500Y-87660742D01*
X152647500Y-88135258D02*
X152647500Y-87660742D01*
%TO.C,C414*%
X171315580Y-94505000D02*
X171034420Y-94505000D01*
X171315580Y-95525000D02*
X171034420Y-95525000D01*
%TO.C,C409*%
X94882600Y-68160000D02*
X98832600Y-68160000D01*
X94882600Y-77615563D02*
X94882600Y-68160000D01*
X95947037Y-78680000D02*
X94882600Y-77615563D01*
X95947037Y-78680000D02*
X98832600Y-78680000D01*
X104338163Y-78680000D02*
X101452600Y-78680000D01*
X104338163Y-78680000D02*
X105402600Y-77615563D01*
X105402600Y-68160000D02*
X101452600Y-68160000D01*
X105402600Y-77615563D02*
X105402600Y-68160000D01*
%TO.C,C402*%
X108483420Y-93484000D02*
X108764580Y-93484000D01*
X108483420Y-94504000D02*
X108764580Y-94504000D01*
%TO.C,C306*%
X131436420Y-81165000D02*
X131717580Y-81165000D01*
X131436420Y-82185000D02*
X131717580Y-82185000D01*
%TO.C,RV402*%
X107680000Y-85790000D02*
X107680000Y-86390000D01*
X107680000Y-88990000D02*
X107680000Y-88390000D01*
X110580000Y-85790000D02*
X107680000Y-85790000D01*
X110580000Y-88990000D02*
X107680000Y-88990000D01*
X111480000Y-89190000D02*
X112180000Y-89190000D01*
X111680000Y-87590000D02*
X111680000Y-87190000D01*
X112180000Y-89190000D02*
X112180000Y-88490000D01*
%TO.C,C202*%
X118229580Y-80403000D02*
X117948420Y-80403000D01*
X118229580Y-81423000D02*
X117948420Y-81423000D01*
%TO.C,C410*%
X103089420Y-79260000D02*
X103370580Y-79260000D01*
X103089420Y-80280000D02*
X103370580Y-80280000D01*
%TO.C,U201*%
X111201000Y-74920000D02*
X121421000Y-74920000D01*
X111201000Y-76300000D02*
X121421000Y-76300000D01*
X111201000Y-79540000D02*
X111201000Y-74920000D01*
X114461000Y-74920000D02*
X114461000Y-76300000D01*
X118161000Y-74920000D02*
X118161000Y-76300000D01*
X121421000Y-74920000D02*
X121421000Y-79540000D01*
X121421000Y-79540000D02*
X111201000Y-79540000D01*
%TO.C,C303*%
X121389000Y-94388580D02*
X121389000Y-94107420D01*
X122409000Y-94388580D02*
X122409000Y-94107420D01*
%TO.C,C413*%
X169090000Y-97169437D02*
X169090000Y-106625000D01*
X169090000Y-106625000D02*
X173040000Y-106625000D01*
X170154437Y-96105000D02*
X169090000Y-97169437D01*
X170154437Y-96105000D02*
X173040000Y-96105000D01*
X178545563Y-96105000D02*
X175660000Y-96105000D01*
X178545563Y-96105000D02*
X179610000Y-97169437D01*
X179610000Y-97169437D02*
X179610000Y-106625000D01*
X179610000Y-106625000D02*
X175660000Y-106625000D01*
%TO.C,J101*%
X112152000Y-66240000D02*
X117932000Y-66240000D01*
X112152000Y-67360000D02*
X117932000Y-67360000D01*
X112152000Y-72460000D02*
X117932000Y-72460000D01*
X112152000Y-72980000D02*
X112152000Y-66240000D01*
X113472000Y-72980000D02*
X112152000Y-72980000D01*
X117932000Y-66240000D02*
X117932000Y-72980000D01*
X117932000Y-72980000D02*
X114072000Y-72980000D01*
X114212000Y-73590000D02*
X113332000Y-73590000D01*
X113772000Y-72980000D01*
X114212000Y-73590000D01*
G36*
X114212000Y-73590000D02*
G01*
X113332000Y-73590000D01*
X113772000Y-72980000D01*
X114212000Y-73590000D01*
G37*
%TO.C,R406*%
X172047258Y-81681500D02*
X171572742Y-81681500D01*
X172047258Y-82726500D02*
X171572742Y-82726500D01*
%TO.C,R301*%
X126710500Y-80612742D02*
X126710500Y-81087258D01*
X127755500Y-80612742D02*
X127755500Y-81087258D01*
%TO.C,C308*%
X125199000Y-80990580D02*
X125199000Y-80709420D01*
X126219000Y-80990580D02*
X126219000Y-80709420D01*
%TO.C,R403*%
X102928742Y-90423500D02*
X103403258Y-90423500D01*
X102928742Y-91468500D02*
X103403258Y-91468500D01*
%TO.C,C406*%
X166385780Y-89679000D02*
X166104620Y-89679000D01*
X166385780Y-90699000D02*
X166104620Y-90699000D01*
%TO.C,J106*%
X180256500Y-83230000D02*
X186996500Y-83230000D01*
X180256500Y-84550000D02*
X180256500Y-83230000D01*
X180256500Y-94090000D02*
X180256500Y-85150000D01*
X180776500Y-83230000D02*
X180776500Y-94090000D01*
X185876500Y-83230000D02*
X185876500Y-94090000D01*
X186996500Y-83230000D02*
X186996500Y-94090000D01*
X186996500Y-94090000D02*
X180256500Y-94090000D01*
X180256500Y-84850000D02*
X179646500Y-85290000D01*
X179646500Y-84410000D01*
X180256500Y-84850000D01*
G36*
X180256500Y-84850000D02*
G01*
X179646500Y-85290000D01*
X179646500Y-84410000D01*
X180256500Y-84850000D01*
G37*
%TO.C,J104*%
X117231000Y-96720000D02*
X126171000Y-96720000D01*
X117231000Y-103460000D02*
X117231000Y-96720000D01*
X126771000Y-96720000D02*
X128091000Y-96720000D01*
X128091000Y-96720000D02*
X128091000Y-103460000D01*
X128091000Y-97240000D02*
X117231000Y-97240000D01*
X128091000Y-102340000D02*
X117231000Y-102340000D01*
X128091000Y-103460000D02*
X117231000Y-103460000D01*
X126471000Y-96720000D02*
X126031000Y-96110000D01*
X126911000Y-96110000D01*
X126471000Y-96720000D01*
G36*
X126471000Y-96720000D02*
G01*
X126031000Y-96110000D01*
X126911000Y-96110000D01*
X126471000Y-96720000D01*
G37*
D12*
%TO.C,U402*%
X168925200Y-86340900D02*
X168925200Y-90989100D01*
X168925200Y-90989100D02*
X169303902Y-90989100D01*
X169303902Y-86340900D02*
X168925200Y-86340900D01*
X178858898Y-90989100D02*
X179237600Y-90989100D01*
X179237600Y-86340900D02*
X178858898Y-86340900D01*
X179237600Y-90989100D02*
X179237600Y-86340900D01*
D13*
G36*
X172620900Y-84855000D02*
G01*
X172239900Y-84855000D01*
X172239900Y-84601000D01*
X172620900Y-84601000D01*
X172620900Y-84855000D01*
G37*
G36*
X173281300Y-92729000D02*
G01*
X172900300Y-92729000D01*
X172900300Y-92475000D01*
X173281300Y-92475000D01*
X173281300Y-92729000D01*
G37*
D11*
%TO.C,C305*%
X131423420Y-82689000D02*
X131704580Y-82689000D01*
X131423420Y-83709000D02*
X131704580Y-83709000D01*
%TO.C,C401*%
X103025420Y-91960000D02*
X103306580Y-91960000D01*
X103025420Y-92980000D02*
X103306580Y-92980000D01*
%TD*%
M02*
