%TF.GenerationSoftware,KiCad,Pcbnew,9.0.3*%
%TF.CreationDate,2025-10-17T11:05:45+02:00*%
%TF.ProjectId,PCB_Driver_Stepper,5043425f-4472-4697-9665-725f53746570,rev?*%
%TF.SameCoordinates,Original*%
%TF.FileFunction,Copper,L2,Inr*%
%TF.FilePolarity,Positive*%
%FSLAX46Y46*%
G04 Gerber Fmt 4.6, Leading zero omitted, Abs format (unit mm)*
G04 Created by KiCad (PCBNEW 9.0.3) date 2025-10-17 11:05:45*
%MOMM*%
%LPD*%
G01*
G04 APERTURE LIST*
G04 Aperture macros list*
%AMRoundRect*
0 Rectangle with rounded corners*
0 $1 Rounding radius*
0 $2 $3 $4 $5 $6 $7 $8 $9 X,Y pos of 4 corners*
0 Add a 4 corners polygon primitive as box body*
4,1,4,$2,$3,$4,$5,$6,$7,$8,$9,$2,$3,0*
0 Add four circle primitives for the rounded corners*
1,1,$1+$1,$2,$3*
1,1,$1+$1,$4,$5*
1,1,$1+$1,$6,$7*
1,1,$1+$1,$8,$9*
0 Add four rect primitives between the rounded corners*
20,1,$1+$1,$2,$3,$4,$5,0*
20,1,$1+$1,$4,$5,$6,$7,0*
20,1,$1+$1,$6,$7,$8,$9,0*
20,1,$1+$1,$8,$9,$2,$3,0*%
G04 Aperture macros list end*
%TA.AperFunction,ComponentPad*%
%ADD10R,1.000000X1.000000*%
%TD*%
%TA.AperFunction,ComponentPad*%
%ADD11C,1.000000*%
%TD*%
%TA.AperFunction,ComponentPad*%
%ADD12RoundRect,0.250000X-0.550000X0.550000X-0.550000X-0.550000X0.550000X-0.550000X0.550000X0.550000X0*%
%TD*%
%TA.AperFunction,ComponentPad*%
%ADD13C,1.600000*%
%TD*%
%TA.AperFunction,ComponentPad*%
%ADD14RoundRect,0.250001X0.799999X-0.799999X0.799999X0.799999X-0.799999X0.799999X-0.799999X-0.799999X0*%
%TD*%
%TA.AperFunction,ComponentPad*%
%ADD15C,2.100000*%
%TD*%
%TA.AperFunction,ComponentPad*%
%ADD16RoundRect,0.250001X-0.799999X-0.799999X0.799999X-0.799999X0.799999X0.799999X-0.799999X0.799999X0*%
%TD*%
%TA.AperFunction,ComponentPad*%
%ADD17R,1.905000X2.000000*%
%TD*%
%TA.AperFunction,ComponentPad*%
%ADD18O,1.905000X2.000000*%
%TD*%
%TA.AperFunction,ComponentPad*%
%ADD19RoundRect,0.250001X-0.799999X0.799999X-0.799999X-0.799999X0.799999X-0.799999X0.799999X0.799999X0*%
%TD*%
%TA.AperFunction,ComponentPad*%
%ADD20RoundRect,0.250001X0.799999X0.799999X-0.799999X0.799999X-0.799999X-0.799999X0.799999X-0.799999X0*%
%TD*%
%TA.AperFunction,ViaPad*%
%ADD21C,0.600000*%
%TD*%
%TA.AperFunction,ViaPad*%
%ADD22C,0.700000*%
%TD*%
%TA.AperFunction,Conductor*%
%ADD23C,0.500000*%
%TD*%
%TA.AperFunction,Conductor*%
%ADD24C,0.300000*%
%TD*%
G04 APERTURE END LIST*
D10*
%TO.N,GNDREF*%
%TO.C,J107*%
X100055000Y-86120000D03*
D11*
X101325000Y-86120000D03*
X102595000Y-86120000D03*
%TD*%
D12*
%TO.N,/MCU/IN1*%
%TO.C,U302*%
X157205000Y-77230000D03*
D13*
%TO.N,/MCU/IN2*%
X154665000Y-77230000D03*
%TO.N,/MCU/IN3*%
X152125000Y-77230000D03*
%TO.N,/MCU/IN4*%
X149585000Y-77230000D03*
%TO.N,/MCU/IN5*%
X147045000Y-77230000D03*
%TO.N,/MCU/IN6*%
X144505000Y-77230000D03*
%TO.N,/MCU/IN7*%
X141965000Y-77230000D03*
%TO.N,GNDREF*%
X139425000Y-77230000D03*
%TO.N,VCC_3V3*%
X139425000Y-84850000D03*
%TO.N,/MCU/INI7*%
X141965000Y-84850000D03*
%TO.N,/MCU/INI6*%
X144505000Y-84850000D03*
%TO.N,/MCU/INI5*%
X147045000Y-84850000D03*
%TO.N,/MCU/INI4*%
X149585000Y-84850000D03*
%TO.N,/MCU/INI3*%
X152125000Y-84850000D03*
%TO.N,/MCU/INI2*%
X154665000Y-84850000D03*
%TO.N,/MCU/INI1*%
X157205000Y-84850000D03*
%TD*%
D14*
%TO.N,/DRIVERS/M1_OUT1A*%
%TO.C,J105*%
X91120100Y-89940000D03*
D15*
%TO.N,/DRIVERS/M1_OUT1B*%
X91120100Y-87400000D03*
%TO.N,/DRIVERS/M1_OUT2B*%
X91120100Y-84860000D03*
%TO.N,/DRIVERS/M1_OUT2A*%
X91120100Y-82320000D03*
%TD*%
D16*
%TO.N,GNDREF*%
%TO.C,J102*%
X133710000Y-69609000D03*
D15*
X136250000Y-69609000D03*
%TO.N,/MCU/IN7*%
X138790000Y-69609000D03*
%TO.N,/MCU/IN6*%
X141330000Y-69609000D03*
%TO.N,/MCU/IN5*%
X143870000Y-69609000D03*
%TO.N,/MCU/IN4*%
X146410000Y-69609000D03*
%TO.N,/MCU/IN3*%
X148950000Y-69609000D03*
%TO.N,/MCU/IN2*%
X151490000Y-69609000D03*
%TO.N,/MCU/IN1*%
X154030000Y-69609000D03*
%TO.N,VCC_12V*%
X156570000Y-69609000D03*
%TD*%
D16*
%TO.N,/MCU/USART1_RX*%
%TO.C,J103*%
X122915000Y-69610000D03*
D15*
%TO.N,/MCU/USART1_TX*%
X125455000Y-69610000D03*
%TD*%
D17*
%TO.N,VCC_12V*%
%TO.C,U201*%
X113771000Y-78180000D03*
D18*
%TO.N,GNDREF*%
X116311000Y-78180000D03*
%TO.N,VCC_3V3*%
X118851000Y-78180000D03*
%TD*%
D16*
%TO.N,VDD*%
%TO.C,J101*%
X113772000Y-69610000D03*
D15*
%TO.N,GNDREF*%
X116312000Y-69610000D03*
%TD*%
D19*
%TO.N,/DRIVERS/M2_OUT1A*%
%TO.C,J106*%
X183626500Y-84850000D03*
D15*
%TO.N,/DRIVERS/M2_OUT1B*%
X183626500Y-87390000D03*
%TO.N,/DRIVERS/M2_OUT2B*%
X183626500Y-89930000D03*
%TO.N,/DRIVERS/M2_OUT2A*%
X183626500Y-92470000D03*
%TD*%
D20*
%TO.N,GNDREF*%
%TO.C,J104*%
X126471000Y-100090000D03*
D15*
%TO.N,/MCU/SYS_SWCLK*%
X123931000Y-100090000D03*
%TO.N,/MCU/SYS_SWDIO*%
X121391000Y-100090000D03*
%TO.N,VCC_3V3*%
X118851000Y-100090000D03*
%TD*%
D10*
%TO.N,GNDREF*%
%TO.C,J108*%
X174731000Y-88665000D03*
D11*
X173461000Y-88665000D03*
X172191000Y-88665000D03*
%TD*%
D21*
%TO.N,GNDREF*%
X176509000Y-79262000D03*
X105897000Y-79770000D03*
X110215000Y-90184000D03*
X176255000Y-107456000D03*
X172699000Y-89676000D03*
X172445000Y-107456000D03*
X110469000Y-93994000D03*
X172445000Y-67070000D03*
X121899000Y-92216000D03*
X174223000Y-87644000D03*
X100563000Y-87136000D03*
X102849000Y-85104000D03*
X120375000Y-92216000D03*
X173461000Y-89676000D03*
X135869000Y-83961000D03*
D22*
X176001000Y-88660000D03*
D21*
X164317000Y-80786000D03*
X101325000Y-87136000D03*
X102087000Y-67324000D03*
X100563000Y-85104000D03*
X164571000Y-84596000D03*
X98277000Y-107456000D03*
X103611000Y-87136000D03*
X133329000Y-80024000D03*
X171175000Y-89676000D03*
X164571000Y-88406000D03*
X94975000Y-96026000D03*
D22*
X98785000Y-86120000D03*
D21*
X173461000Y-87644000D03*
X172699000Y-87644000D03*
X171937000Y-87644000D03*
X167619000Y-95010000D03*
X133329000Y-81548000D03*
X110469000Y-84596000D03*
X125709000Y-79008000D03*
X102087000Y-87136000D03*
X171175000Y-87644000D03*
X101325000Y-85104000D03*
X109961000Y-87390000D03*
X102087000Y-85104000D03*
X94213000Y-95772000D03*
X98277000Y-67324000D03*
X169905000Y-82818000D03*
X103611000Y-85104000D03*
X102087000Y-107456000D03*
X174223000Y-89676000D03*
X171937000Y-89676000D03*
X164317000Y-90184000D03*
X176255000Y-67070000D03*
X106659000Y-79770000D03*
X124185000Y-79008000D03*
X102849000Y-87136000D03*
X133329000Y-83072000D03*
X128757000Y-79008000D03*
%TO.N,/DRIVERS/M2_OUT1B*%
X178541000Y-84088000D03*
X179303000Y-84088000D03*
%TO.N,/MCU/SYS_SWDIO*%
X129995000Y-95010000D03*
%TO.N,/MCU/SYS_SWCLK*%
X130795000Y-95010000D03*
%TO.N,/DRIVERS/M2_OUT1A*%
X175747000Y-83580000D03*
X176001000Y-82818000D03*
%TO.N,/DRIVERS/M2_OUT2B*%
X179049000Y-92983000D03*
X179811000Y-92978000D03*
%TO.N,/DRIVERS/M2_OUT2A*%
X176509000Y-94248000D03*
X175747000Y-93775500D03*
%TO.N,/DRIVERS/M1_OUT2B*%
X95483000Y-81548000D03*
X96245000Y-81675000D03*
%TO.N,/DRIVERS/M1_OUT2A*%
X98785000Y-81040000D03*
X98277000Y-80532000D03*
%TO.N,/DRIVERS/M1_OUT1B*%
X95725300Y-90449700D03*
X96499000Y-90438000D03*
%TO.N,/DRIVERS/M1_OUT1A*%
X98277000Y-91708000D03*
X98785000Y-91200000D03*
%TO.N,/MCU/USART1_RX*%
X123423000Y-85358000D03*
%TO.N,/MCU/USART1_TX*%
X124439000Y-83834000D03*
%TO.N,/M1_PS*%
X125963000Y-86374000D03*
X105897000Y-89168000D03*
%TO.N,VCC_12V*%
X102849000Y-76214000D03*
X168635000Y-96280000D03*
X180573000Y-98058000D03*
X181335000Y-79008000D03*
X97515000Y-96026000D03*
X98023000Y-76468000D03*
X103611000Y-95391000D03*
X98277000Y-95629000D03*
X97515000Y-75960000D03*
X181335000Y-98566000D03*
X104373000Y-95391000D03*
X168635000Y-95645000D03*
X102087000Y-76468000D03*
X168635000Y-79135000D03*
%TO.N,VCC_3V3*%
X159745000Y-86374000D03*
X162285000Y-86374000D03*
X115295000Y-88406000D03*
X112755000Y-88406000D03*
%TO.N,/M2_MODE1*%
X126794994Y-95010000D03*
X171797006Y-93486000D03*
%TO.N,/M2_CK*%
X168381000Y-92508003D03*
X128395000Y-95010000D03*
%TO.N,/M2_EN*%
X172953000Y-93486000D03*
X125994991Y-95010000D03*
%TO.N,/M2_CLK*%
X168381000Y-91708000D03*
X129195000Y-95010000D03*
%TO.N,/M2_PS*%
X168889000Y-85612000D03*
X133583000Y-93740000D03*
%TO.N,/M2_MODE0*%
X170997006Y-93486000D03*
X127594997Y-95010000D03*
%TO.N,/M1_EN*%
X122407000Y-89764003D03*
X101326875Y-82056493D03*
%TO.N,/M1_MODE1*%
X102341000Y-81950281D03*
X122407000Y-88914000D03*
%TO.N,/M1_CLK*%
X106151000Y-83326000D03*
X122407000Y-87047997D03*
%TO.N,/M1_CK*%
X106151000Y-82310000D03*
X126217000Y-83834000D03*
%TO.N,/M1_MODE0*%
X122350759Y-88035300D03*
X103357000Y-82056000D03*
%TO.N,Net-(U401-RNF1)*%
X97769000Y-90619893D03*
%TO.N,Net-(U401-RNF2)*%
X97467318Y-81715243D03*
%TO.N,Net-(U402-RNF1)*%
X177069871Y-84270000D03*
%TO.N,Net-(U402-RNF2)*%
X176964030Y-92883892D03*
%TO.N,/MCU/INI1*%
X125201000Y-90438000D03*
%TO.N,/MCU/INI2*%
X125201000Y-91295000D03*
%TO.N,/MCU/INI3*%
X133583000Y-91314009D03*
%TO.N,/MCU/INI4*%
X133583000Y-90514006D03*
%TO.N,/MCU/INI5*%
X133583000Y-89714003D03*
%TO.N,/MCU/INI6*%
X133583000Y-88914000D03*
%TO.N,/MCU/INI7*%
X133583000Y-88113997D03*
%TD*%
D23*
%TO.N,/MCU/IN1*%
X154030000Y-74055000D02*
X157205000Y-77230000D01*
X154030000Y-69610000D02*
X154030000Y-74055000D01*
%TO.N,/MCU/IN2*%
X151490000Y-74055000D02*
X154665000Y-77230000D01*
X151490000Y-69610000D02*
X151490000Y-74055000D01*
%TO.N,/MCU/IN3*%
X148950000Y-74055000D02*
X152125000Y-77230000D01*
X148950000Y-69610000D02*
X148950000Y-74055000D01*
%TO.N,/MCU/IN4*%
X146410000Y-74055000D02*
X149585000Y-77230000D01*
X146410000Y-69610000D02*
X146410000Y-74055000D01*
%TO.N,/MCU/IN5*%
X143870000Y-74055000D02*
X147045000Y-77230000D01*
X143870000Y-69610000D02*
X143870000Y-74055000D01*
D24*
%TO.N,/M1_PS*%
X123169000Y-91200000D02*
X125963000Y-88406000D01*
X125963000Y-88406000D02*
X125963000Y-86374000D01*
X107929000Y-91200000D02*
X123169000Y-91200000D01*
X105897000Y-89168000D02*
X107929000Y-91200000D01*
D23*
%TO.N,/M2_MODE1*%
X171308081Y-94237000D02*
X171797006Y-93748075D01*
X171797006Y-93748075D02*
X171797006Y-93486000D01*
X126794994Y-95846161D02*
X128823833Y-97875000D01*
X128823833Y-97875000D02*
X160640728Y-97875000D01*
X160640728Y-97875000D02*
X164278728Y-94237000D01*
X164278728Y-94237000D02*
X171308081Y-94237000D01*
X126794994Y-95010000D02*
X126794994Y-95846161D01*
%TO.N,/M2_CK*%
X164024997Y-92508003D02*
X168381000Y-92508003D01*
X129404561Y-96473000D02*
X160060000Y-96473000D01*
X128395000Y-95010000D02*
X128395000Y-95463439D01*
X128395000Y-95463439D02*
X129404561Y-96473000D01*
X160060000Y-96473000D02*
X164024997Y-92508003D01*
%TO.N,/M2_EN*%
X167960445Y-98576000D02*
X172953000Y-93583445D01*
X125994991Y-95010000D02*
X125994991Y-96037522D01*
X125994991Y-96037522D02*
X128533469Y-98576000D01*
X128533469Y-98576000D02*
X167960445Y-98576000D01*
X172953000Y-93583445D02*
X172953000Y-93486000D01*
%TO.N,/M2_CLK*%
X129195000Y-95272075D02*
X129694925Y-95772000D01*
X129195000Y-95010000D02*
X129195000Y-95272075D01*
X159745000Y-95772000D02*
X163809000Y-91708000D01*
X129694925Y-95772000D02*
X159745000Y-95772000D01*
X163809000Y-91708000D02*
X168381000Y-91708000D01*
%TO.N,/M2_PS*%
X133583000Y-93740000D02*
X157205000Y-93740000D01*
X157205000Y-93740000D02*
X165333000Y-85612000D01*
X165333000Y-85612000D02*
X168889000Y-85612000D01*
%TO.N,/M2_MODE0*%
X127594997Y-95010000D02*
X127594997Y-95654800D01*
X129114197Y-97174000D02*
X160350364Y-97174000D01*
X164038364Y-93486000D02*
X170997006Y-93486000D01*
X160350364Y-97174000D02*
X164038364Y-93486000D01*
X127594997Y-95654800D02*
X129114197Y-97174000D01*
D24*
%TO.N,/M1_EN*%
X102177761Y-82601281D02*
X104934480Y-85358000D01*
X107929000Y-85358000D02*
X109199000Y-86628000D01*
X101871663Y-82601281D02*
X102177761Y-82601281D01*
X119200346Y-86628000D02*
X122336349Y-89764003D01*
X109199000Y-86628000D02*
X119200346Y-86628000D01*
X101326875Y-82056493D02*
X101871663Y-82601281D01*
X122336349Y-89764003D02*
X122407000Y-89764003D01*
X104934480Y-85358000D02*
X107929000Y-85358000D01*
%TO.N,/M1_MODE1*%
X109446000Y-86113000D02*
X108183000Y-84850000D01*
X122407000Y-88914000D02*
X122308805Y-88914000D01*
X102341000Y-82056000D02*
X102341000Y-81950281D01*
X105135000Y-84850000D02*
X102341000Y-82056000D01*
X108183000Y-84850000D02*
X105135000Y-84850000D01*
X119507805Y-86113000D02*
X109446000Y-86113000D01*
X122308805Y-88914000D02*
X119507805Y-86113000D01*
%TO.N,/M1_CLK*%
X118685003Y-83326000D02*
X122407000Y-87047997D01*
X106151000Y-83326000D02*
X118685003Y-83326000D01*
%TO.N,/M1_CK*%
X106151000Y-82310000D02*
X124693000Y-82310000D01*
X124693000Y-82310000D02*
X126217000Y-83834000D01*
%TO.N,/M1_MODE0*%
X109707000Y-85612000D02*
X119927459Y-85612000D01*
X103357000Y-82056000D02*
X105643000Y-84342000D01*
X119927459Y-85612000D02*
X122350759Y-88035300D01*
X105643000Y-84342000D02*
X108437000Y-84342000D01*
X108437000Y-84342000D02*
X109707000Y-85612000D01*
D23*
%TO.N,/MCU/IN6*%
X141330000Y-74055000D02*
X144505000Y-77230000D01*
X141330000Y-69610000D02*
X141330000Y-74055000D01*
%TO.N,/MCU/IN7*%
X138790000Y-74055000D02*
X141965000Y-77230000D01*
X138790000Y-69610000D02*
X138790000Y-74055000D01*
%TO.N,/MCU/INI1*%
X129998471Y-92766009D02*
X149288991Y-92766009D01*
X124450000Y-90983925D02*
X124450000Y-91606075D01*
X124995925Y-90438000D02*
X124450000Y-90983925D01*
X149288991Y-92766009D02*
X157205000Y-84850000D01*
X125059925Y-92216000D02*
X129448462Y-92216000D01*
X124450000Y-91606075D02*
X125059925Y-92216000D01*
X129448462Y-92216000D02*
X129998471Y-92766009D01*
X125201000Y-90438000D02*
X124995925Y-90438000D01*
%TO.N,/MCU/INI2*%
X125201000Y-91295000D02*
X129764991Y-91295000D01*
X147449991Y-92065009D02*
X154665000Y-84850000D01*
X129764991Y-91295000D02*
X130535000Y-92065009D01*
X130535000Y-92065009D02*
X147449991Y-92065009D01*
%TO.N,/MCU/INI3*%
X133583000Y-91314009D02*
X145660991Y-91314009D01*
X145660991Y-91314009D02*
X152125000Y-84850000D01*
%TO.N,/MCU/INI4*%
X143920994Y-90514006D02*
X149585000Y-84850000D01*
X133583000Y-90514006D02*
X143920994Y-90514006D01*
%TO.N,/MCU/INI5*%
X133583000Y-89714003D02*
X142180997Y-89714003D01*
X142180997Y-89714003D02*
X147045000Y-84850000D01*
%TO.N,/MCU/INI6*%
X133583000Y-88914000D02*
X140441000Y-88914000D01*
X140441000Y-88914000D02*
X144505000Y-84850000D01*
%TO.N,/MCU/INI7*%
X138701003Y-88113997D02*
X141965000Y-84850000D01*
X133583000Y-88113997D02*
X138701003Y-88113997D01*
%TD*%
%TA.AperFunction,Conductor*%
%TO.N,/MCU/IN1*%
G36*
X156096724Y-75764187D02*
G01*
X157526185Y-76425289D01*
X157532255Y-76431871D01*
X157532087Y-76440373D01*
X157207562Y-77226214D01*
X157201237Y-77232553D01*
X157201214Y-77232562D01*
X156415373Y-77557086D01*
X156406418Y-77557077D01*
X156400289Y-77551184D01*
X155739187Y-76121724D01*
X155738825Y-76112778D01*
X155741532Y-76108543D01*
X156083542Y-75766533D01*
X156091814Y-75763107D01*
X156096724Y-75764187D01*
G37*
%TD.AperFunction*%
%TD*%
%TA.AperFunction,Conductor*%
%TO.N,/MCU/IN1*%
G36*
X154036504Y-69612353D02*
G01*
X154894955Y-70186935D01*
X154899924Y-70194385D01*
X154899193Y-70201286D01*
X154283046Y-71631753D01*
X154276625Y-71637996D01*
X154272300Y-71638825D01*
X153787700Y-71638825D01*
X153779427Y-71635398D01*
X153776954Y-71631753D01*
X153160806Y-70201286D01*
X153160681Y-70192333D01*
X153165041Y-70186937D01*
X154023494Y-69612354D01*
X154032273Y-69610601D01*
X154036504Y-69612353D01*
G37*
%TD.AperFunction*%
%TD*%
%TA.AperFunction,Conductor*%
%TO.N,/MCU/IN2*%
G36*
X153728658Y-75936083D02*
G01*
X154497728Y-76286276D01*
X155096945Y-76559127D01*
X155103054Y-76565674D01*
X155102744Y-76574624D01*
X155101832Y-76576263D01*
X154667005Y-77228757D01*
X154663757Y-77232005D01*
X154011263Y-77666832D01*
X154002478Y-77668568D01*
X153995039Y-77663584D01*
X153994127Y-77661945D01*
X153499020Y-76574624D01*
X153371083Y-76293659D01*
X153370774Y-76284710D01*
X153373457Y-76280540D01*
X153715539Y-75938458D01*
X153723811Y-75935032D01*
X153728658Y-75936083D01*
G37*
%TD.AperFunction*%
%TD*%
%TA.AperFunction,Conductor*%
%TO.N,/MCU/IN2*%
G36*
X151496504Y-69612353D02*
G01*
X152354955Y-70186935D01*
X152359924Y-70194385D01*
X152359193Y-70201286D01*
X151743046Y-71631753D01*
X151736625Y-71637996D01*
X151732300Y-71638825D01*
X151247700Y-71638825D01*
X151239427Y-71635398D01*
X151236954Y-71631753D01*
X150620806Y-70201286D01*
X150620681Y-70192333D01*
X150625041Y-70186937D01*
X151483494Y-69612354D01*
X151492273Y-69610601D01*
X151496504Y-69612353D01*
G37*
%TD.AperFunction*%
%TD*%
%TA.AperFunction,Conductor*%
%TO.N,/MCU/IN3*%
G36*
X151188658Y-75936083D02*
G01*
X151957728Y-76286276D01*
X152556945Y-76559127D01*
X152563054Y-76565674D01*
X152562744Y-76574624D01*
X152561832Y-76576263D01*
X152127005Y-77228757D01*
X152123757Y-77232005D01*
X151471263Y-77666832D01*
X151462478Y-77668568D01*
X151455039Y-77663584D01*
X151454127Y-77661945D01*
X150959020Y-76574624D01*
X150831083Y-76293659D01*
X150830774Y-76284710D01*
X150833457Y-76280540D01*
X151175539Y-75938458D01*
X151183811Y-75935032D01*
X151188658Y-75936083D01*
G37*
%TD.AperFunction*%
%TD*%
%TA.AperFunction,Conductor*%
%TO.N,/MCU/IN3*%
G36*
X148956504Y-69612353D02*
G01*
X149814955Y-70186935D01*
X149819924Y-70194385D01*
X149819193Y-70201286D01*
X149203046Y-71631753D01*
X149196625Y-71637996D01*
X149192300Y-71638825D01*
X148707700Y-71638825D01*
X148699427Y-71635398D01*
X148696954Y-71631753D01*
X148080806Y-70201286D01*
X148080681Y-70192333D01*
X148085041Y-70186937D01*
X148943494Y-69612354D01*
X148952273Y-69610601D01*
X148956504Y-69612353D01*
G37*
%TD.AperFunction*%
%TD*%
%TA.AperFunction,Conductor*%
%TO.N,/MCU/IN4*%
G36*
X148648658Y-75936083D02*
G01*
X149417728Y-76286276D01*
X150016945Y-76559127D01*
X150023054Y-76565674D01*
X150022744Y-76574624D01*
X150021832Y-76576263D01*
X149587005Y-77228757D01*
X149583757Y-77232005D01*
X148931263Y-77666832D01*
X148922478Y-77668568D01*
X148915039Y-77663584D01*
X148914127Y-77661945D01*
X148419020Y-76574624D01*
X148291083Y-76293659D01*
X148290774Y-76284710D01*
X148293457Y-76280540D01*
X148635539Y-75938458D01*
X148643811Y-75935032D01*
X148648658Y-75936083D01*
G37*
%TD.AperFunction*%
%TD*%
%TA.AperFunction,Conductor*%
%TO.N,/MCU/IN4*%
G36*
X146416504Y-69612353D02*
G01*
X147274955Y-70186935D01*
X147279924Y-70194385D01*
X147279193Y-70201286D01*
X146663046Y-71631753D01*
X146656625Y-71637996D01*
X146652300Y-71638825D01*
X146167700Y-71638825D01*
X146159427Y-71635398D01*
X146156954Y-71631753D01*
X145540806Y-70201286D01*
X145540681Y-70192333D01*
X145545041Y-70186937D01*
X146403494Y-69612354D01*
X146412273Y-69610601D01*
X146416504Y-69612353D01*
G37*
%TD.AperFunction*%
%TD*%
%TA.AperFunction,Conductor*%
%TO.N,/MCU/IN5*%
G36*
X146108658Y-75936083D02*
G01*
X146877728Y-76286276D01*
X147476945Y-76559127D01*
X147483054Y-76565674D01*
X147482744Y-76574624D01*
X147481832Y-76576263D01*
X147047005Y-77228757D01*
X147043757Y-77232005D01*
X146391263Y-77666832D01*
X146382478Y-77668568D01*
X146375039Y-77663584D01*
X146374127Y-77661945D01*
X145879020Y-76574624D01*
X145751083Y-76293659D01*
X145750774Y-76284710D01*
X145753457Y-76280540D01*
X146095539Y-75938458D01*
X146103811Y-75935032D01*
X146108658Y-75936083D01*
G37*
%TD.AperFunction*%
%TD*%
%TA.AperFunction,Conductor*%
%TO.N,/MCU/IN5*%
G36*
X143876504Y-69612353D02*
G01*
X144734955Y-70186935D01*
X144739924Y-70194385D01*
X144739193Y-70201286D01*
X144123046Y-71631753D01*
X144116625Y-71637996D01*
X144112300Y-71638825D01*
X143627700Y-71638825D01*
X143619427Y-71635398D01*
X143616954Y-71631753D01*
X143000806Y-70201286D01*
X143000681Y-70192333D01*
X143005041Y-70186937D01*
X143863494Y-69612354D01*
X143872273Y-69610601D01*
X143876504Y-69612353D01*
G37*
%TD.AperFunction*%
%TD*%
%TA.AperFunction,Conductor*%
%TO.N,/M1_PS*%
G36*
X126245017Y-86430055D02*
G01*
X126252445Y-86435054D01*
X126254164Y-86443842D01*
X126253994Y-86444564D01*
X126115331Y-86959578D01*
X126109871Y-86966676D01*
X126104033Y-86968236D01*
X125821967Y-86968236D01*
X125813694Y-86964809D01*
X125810669Y-86959578D01*
X125672005Y-86444564D01*
X125673163Y-86435684D01*
X125680261Y-86430224D01*
X125680953Y-86430060D01*
X125960682Y-86373469D01*
X125965318Y-86373469D01*
X126245017Y-86430055D01*
G37*
%TD.AperFunction*%
%TD*%
%TA.AperFunction,Conductor*%
%TO.N,/M1_PS*%
G36*
X106152269Y-89011502D02*
G01*
X106152660Y-89012132D01*
X106418780Y-89474351D01*
X106419938Y-89483231D01*
X106416913Y-89488462D01*
X106217462Y-89687913D01*
X106209189Y-89691340D01*
X106203351Y-89689780D01*
X105741132Y-89423660D01*
X105735672Y-89416562D01*
X105736830Y-89407682D01*
X105737210Y-89407068D01*
X105894985Y-89169263D01*
X105898263Y-89165985D01*
X106136053Y-89008220D01*
X106144840Y-89006502D01*
X106152269Y-89011502D01*
G37*
%TD.AperFunction*%
%TD*%
%TA.AperFunction,Conductor*%
%TO.N,/M2_MODE1*%
G36*
X171795392Y-93484838D02*
G01*
X171799673Y-93486612D01*
X172037138Y-93646407D01*
X172042089Y-93653868D01*
X172040578Y-93662233D01*
X171737247Y-94156503D01*
X171729999Y-94161762D01*
X171721155Y-94160355D01*
X171719002Y-94158656D01*
X171383855Y-93823509D01*
X171380428Y-93815236D01*
X171383853Y-93806966D01*
X171397506Y-93793314D01*
X171463398Y-93679186D01*
X171467941Y-93662233D01*
X171497505Y-93551894D01*
X171497506Y-93551893D01*
X171497506Y-93445443D01*
X171498084Y-93441811D01*
X171499555Y-93437310D01*
X171505379Y-93430512D01*
X171512926Y-93429464D01*
X171795392Y-93484838D01*
G37*
%TD.AperFunction*%
%TD*%
%TA.AperFunction,Conductor*%
%TO.N,/M2_MODE1*%
G36*
X127079033Y-95066464D02*
G01*
X127086462Y-95071464D01*
X127088373Y-95078895D01*
X127045881Y-95593499D01*
X127041785Y-95601462D01*
X127034221Y-95604236D01*
X126555767Y-95604236D01*
X126547494Y-95600809D01*
X126544107Y-95593499D01*
X126501614Y-95078895D01*
X126504348Y-95070368D01*
X126510953Y-95066464D01*
X126792676Y-95009469D01*
X126797312Y-95009469D01*
X127079033Y-95066464D01*
G37*
%TD.AperFunction*%
%TD*%
%TA.AperFunction,Conductor*%
%TO.N,/M2_CK*%
G36*
X168320631Y-92217357D02*
G01*
X168324535Y-92223963D01*
X168381530Y-92505683D01*
X168381530Y-92510323D01*
X168324535Y-92792042D01*
X168319535Y-92799471D01*
X168312104Y-92801382D01*
X167797501Y-92758889D01*
X167789538Y-92754793D01*
X167786764Y-92747229D01*
X167786764Y-92268776D01*
X167790191Y-92260503D01*
X167797499Y-92257116D01*
X168312104Y-92214623D01*
X168320631Y-92217357D01*
G37*
%TD.AperFunction*%
%TD*%
%TA.AperFunction,Conductor*%
%TO.N,/M2_CK*%
G36*
X128679288Y-95066529D02*
G01*
X128686724Y-95071518D01*
X128688665Y-95078658D01*
X128671586Y-95381762D01*
X128668178Y-95389377D01*
X128331304Y-95726251D01*
X128323031Y-95729678D01*
X128314758Y-95726251D01*
X128311899Y-95721579D01*
X128104797Y-95081001D01*
X128105513Y-95072075D01*
X128112331Y-95066269D01*
X128113608Y-95065935D01*
X128391988Y-95009757D01*
X128396598Y-95009756D01*
X128679288Y-95066529D01*
G37*
%TD.AperFunction*%
%TD*%
%TA.AperFunction,Conductor*%
%TO.N,/M2_EN*%
G36*
X172713307Y-93325796D02*
G01*
X172953643Y-93485250D01*
X172953689Y-93485319D01*
X172953707Y-93485293D01*
X173191098Y-93645038D01*
X173196049Y-93652500D01*
X173194273Y-93661277D01*
X173193148Y-93662698D01*
X172769611Y-94119732D01*
X172761474Y-94123471D01*
X172753076Y-94120361D01*
X172752756Y-94120052D01*
X172414495Y-93781791D01*
X172411068Y-93773518D01*
X172412952Y-93767151D01*
X172697125Y-93329242D01*
X172704504Y-93324168D01*
X172713307Y-93325796D01*
G37*
%TD.AperFunction*%
%TD*%
%TA.AperFunction,Conductor*%
%TO.N,/M2_EN*%
G36*
X126279030Y-95066464D02*
G01*
X126286459Y-95071464D01*
X126288370Y-95078895D01*
X126245878Y-95593499D01*
X126241782Y-95601462D01*
X126234218Y-95604236D01*
X125755764Y-95604236D01*
X125747491Y-95600809D01*
X125744104Y-95593499D01*
X125701611Y-95078895D01*
X125704345Y-95070368D01*
X125710950Y-95066464D01*
X125992673Y-95009469D01*
X125997309Y-95009469D01*
X126279030Y-95066464D01*
G37*
%TD.AperFunction*%
%TD*%
%TA.AperFunction,Conductor*%
%TO.N,/M2_CLK*%
G36*
X129487857Y-94955235D02*
G01*
X129492451Y-94961310D01*
X129493921Y-94965808D01*
X129494500Y-94969443D01*
X129494500Y-95075894D01*
X129528606Y-95203184D01*
X129528608Y-95203188D01*
X129594497Y-95317310D01*
X129594501Y-95317315D01*
X129608150Y-95330964D01*
X129611577Y-95339237D01*
X129608150Y-95347510D01*
X129273003Y-95682656D01*
X129264730Y-95686083D01*
X129256457Y-95682656D01*
X129254758Y-95680503D01*
X129031871Y-95317315D01*
X128951426Y-95186232D01*
X128950020Y-95177389D01*
X128954865Y-95170408D01*
X129192334Y-95010611D01*
X129196612Y-95008838D01*
X129479079Y-94953464D01*
X129487857Y-94955235D01*
G37*
%TD.AperFunction*%
%TD*%
%TA.AperFunction,Conductor*%
%TO.N,/M2_CLK*%
G36*
X168320631Y-91417354D02*
G01*
X168324535Y-91423960D01*
X168381530Y-91705680D01*
X168381530Y-91710320D01*
X168324535Y-91992039D01*
X168319535Y-91999468D01*
X168312104Y-92001379D01*
X167797501Y-91958886D01*
X167789538Y-91954790D01*
X167786764Y-91947226D01*
X167786764Y-91468773D01*
X167790191Y-91460500D01*
X167797499Y-91457113D01*
X168312104Y-91414620D01*
X168320631Y-91417354D01*
G37*
%TD.AperFunction*%
%TD*%
%TA.AperFunction,Conductor*%
%TO.N,/M2_PS*%
G36*
X134166499Y-93489113D02*
G01*
X134174462Y-93493209D01*
X134177236Y-93500773D01*
X134177236Y-93979226D01*
X134173809Y-93987499D01*
X134166499Y-93990886D01*
X133651895Y-94033379D01*
X133643368Y-94030645D01*
X133639464Y-94024039D01*
X133582469Y-93742320D01*
X133582469Y-93737680D01*
X133632578Y-93490000D01*
X133639464Y-93455959D01*
X133644464Y-93448531D01*
X133651894Y-93446620D01*
X134166499Y-93489113D01*
G37*
%TD.AperFunction*%
%TD*%
%TA.AperFunction,Conductor*%
%TO.N,/M2_PS*%
G36*
X168828631Y-85321354D02*
G01*
X168832535Y-85327960D01*
X168889530Y-85609680D01*
X168889530Y-85614320D01*
X168832535Y-85896039D01*
X168827535Y-85903468D01*
X168820104Y-85905379D01*
X168305501Y-85862886D01*
X168297538Y-85858790D01*
X168294764Y-85851226D01*
X168294764Y-85372773D01*
X168298191Y-85364500D01*
X168305499Y-85361113D01*
X168820104Y-85318620D01*
X168828631Y-85321354D01*
G37*
%TD.AperFunction*%
%TD*%
%TA.AperFunction,Conductor*%
%TO.N,/M2_MODE0*%
G36*
X127879036Y-95066464D02*
G01*
X127886465Y-95071464D01*
X127888376Y-95078895D01*
X127845884Y-95593499D01*
X127841788Y-95601462D01*
X127834224Y-95604236D01*
X127355770Y-95604236D01*
X127347497Y-95600809D01*
X127344110Y-95593499D01*
X127301617Y-95078895D01*
X127304351Y-95070368D01*
X127310956Y-95066464D01*
X127592679Y-95009469D01*
X127597315Y-95009469D01*
X127879036Y-95066464D01*
G37*
%TD.AperFunction*%
%TD*%
%TA.AperFunction,Conductor*%
%TO.N,/M2_MODE0*%
G36*
X170936637Y-93195354D02*
G01*
X170940541Y-93201960D01*
X170997536Y-93483680D01*
X170997536Y-93488320D01*
X170940541Y-93770039D01*
X170935541Y-93777468D01*
X170928110Y-93779379D01*
X170413507Y-93736886D01*
X170405544Y-93732790D01*
X170402770Y-93725226D01*
X170402770Y-93246773D01*
X170406197Y-93238500D01*
X170413505Y-93235113D01*
X170928110Y-93192620D01*
X170936637Y-93195354D01*
G37*
%TD.AperFunction*%
%TD*%
%TA.AperFunction,Conductor*%
%TO.N,/M1_EN*%
G36*
X122066179Y-89280993D02*
G01*
X122099686Y-89314500D01*
X122099687Y-89314501D01*
X122099689Y-89314502D01*
X122213811Y-89380391D01*
X122213815Y-89380393D01*
X122314204Y-89407291D01*
X122341105Y-89414499D01*
X122341107Y-89414500D01*
X122357213Y-89414500D01*
X122362171Y-89415603D01*
X122561376Y-89508809D01*
X122567417Y-89515418D01*
X122567014Y-89524363D01*
X122566166Y-89525873D01*
X122409015Y-89762737D01*
X122405734Y-89766018D01*
X122167063Y-89924367D01*
X122158275Y-89926086D01*
X122151013Y-89921332D01*
X121866589Y-89515418D01*
X121851054Y-89493247D01*
X121849114Y-89484506D01*
X121852362Y-89478263D01*
X122049633Y-89280993D01*
X122057906Y-89277566D01*
X122066179Y-89280993D01*
G37*
%TD.AperFunction*%
%TD*%
%TA.AperFunction,Conductor*%
%TO.N,/M1_EN*%
G36*
X101582144Y-81899995D02*
G01*
X101582535Y-81900625D01*
X101848655Y-82362844D01*
X101849813Y-82371724D01*
X101846788Y-82376955D01*
X101647337Y-82576406D01*
X101639064Y-82579833D01*
X101633226Y-82578273D01*
X101171007Y-82312153D01*
X101165547Y-82305055D01*
X101166705Y-82296175D01*
X101167085Y-82295561D01*
X101324860Y-82057756D01*
X101328138Y-82054478D01*
X101565928Y-81896713D01*
X101574715Y-81894995D01*
X101582144Y-81899995D01*
G37*
%TD.AperFunction*%
%TD*%
%TA.AperFunction,Conductor*%
%TO.N,/M1_MODE1*%
G36*
X102594820Y-81794744D02*
G01*
X102595879Y-81796732D01*
X102700388Y-82048897D01*
X102793957Y-82274665D01*
X102806648Y-82305285D01*
X102806650Y-82314240D01*
X102804113Y-82318038D01*
X102605430Y-82516722D01*
X102597157Y-82520149D01*
X102588884Y-82516722D01*
X102392974Y-82320812D01*
X102392969Y-82320808D01*
X102313051Y-82274667D01*
X102313047Y-82274665D01*
X102252151Y-82258348D01*
X102248054Y-82256327D01*
X102182989Y-82206371D01*
X102178514Y-82198615D01*
X102180364Y-82190624D01*
X102338985Y-81951544D01*
X102342263Y-81948266D01*
X102578605Y-81791462D01*
X102587391Y-81789744D01*
X102594820Y-81794744D01*
G37*
%TD.AperFunction*%
%TD*%
%TA.AperFunction,Conductor*%
%TO.N,/M1_MODE1*%
G36*
X122054243Y-88443136D02*
G01*
X122060899Y-88445973D01*
X122062145Y-88446596D01*
X122101740Y-88469457D01*
X122157570Y-88501691D01*
X122157572Y-88501691D01*
X122157573Y-88501692D01*
X122248401Y-88526029D01*
X122249958Y-88526566D01*
X122560736Y-88659045D01*
X122567003Y-88665442D01*
X122566911Y-88674396D01*
X122565897Y-88676276D01*
X122409015Y-88912734D01*
X122405734Y-88916015D01*
X122166743Y-89074577D01*
X122157955Y-89076296D01*
X122150929Y-89071867D01*
X122031081Y-88912734D01*
X121840958Y-88660290D01*
X121838719Y-88651622D01*
X121842031Y-88644981D01*
X122041386Y-88445626D01*
X122049658Y-88442200D01*
X122054243Y-88443136D01*
G37*
%TD.AperFunction*%
%TD*%
%TA.AperFunction,Conductor*%
%TO.N,/M1_CLK*%
G36*
X122100646Y-86526215D02*
G01*
X122385798Y-86690389D01*
X122562867Y-86792336D01*
X122568327Y-86799434D01*
X122567169Y-86808314D01*
X122566778Y-86808944D01*
X122409015Y-87046731D01*
X122405734Y-87050012D01*
X122167947Y-87207775D01*
X122159159Y-87209494D01*
X122151730Y-87204494D01*
X122151339Y-87203864D01*
X121923966Y-86808944D01*
X121885218Y-86741643D01*
X121884061Y-86732765D01*
X121887084Y-86727536D01*
X122086538Y-86528082D01*
X122094810Y-86524656D01*
X122100646Y-86526215D01*
G37*
%TD.AperFunction*%
%TD*%
%TA.AperFunction,Conductor*%
%TO.N,/M1_CLK*%
G36*
X106221564Y-83035005D02*
G01*
X106254910Y-83043983D01*
X106736579Y-83173669D01*
X106743676Y-83179128D01*
X106745236Y-83184966D01*
X106745236Y-83467033D01*
X106741809Y-83475306D01*
X106736578Y-83478331D01*
X106221564Y-83616994D01*
X106212684Y-83615836D01*
X106207224Y-83608738D01*
X106207059Y-83608039D01*
X106150469Y-83328318D01*
X106150469Y-83323680D01*
X106207055Y-83043980D01*
X106212054Y-83036554D01*
X106220842Y-83034835D01*
X106221564Y-83035005D01*
G37*
%TD.AperFunction*%
%TD*%
%TA.AperFunction,Conductor*%
%TO.N,/M1_CK*%
G36*
X106221564Y-82019005D02*
G01*
X106254910Y-82027983D01*
X106736579Y-82157669D01*
X106743676Y-82163128D01*
X106745236Y-82168966D01*
X106745236Y-82451033D01*
X106741809Y-82459306D01*
X106736578Y-82462331D01*
X106221564Y-82600994D01*
X106212684Y-82599836D01*
X106207224Y-82592738D01*
X106207059Y-82592039D01*
X106150469Y-82312318D01*
X106150469Y-82307680D01*
X106207055Y-82027980D01*
X106212054Y-82020554D01*
X106220842Y-82018835D01*
X106221564Y-82019005D01*
G37*
%TD.AperFunction*%
%TD*%
%TA.AperFunction,Conductor*%
%TO.N,/M1_CK*%
G36*
X125910646Y-83312218D02*
G01*
X126195798Y-83476392D01*
X126372867Y-83578339D01*
X126378327Y-83585437D01*
X126377169Y-83594317D01*
X126376778Y-83594947D01*
X126219015Y-83832734D01*
X126215734Y-83836015D01*
X125977947Y-83993778D01*
X125969159Y-83995497D01*
X125961730Y-83990497D01*
X125961339Y-83989867D01*
X125733966Y-83594947D01*
X125695218Y-83527646D01*
X125694061Y-83518768D01*
X125697084Y-83513539D01*
X125896538Y-83314085D01*
X125904810Y-83310659D01*
X125910646Y-83312218D01*
G37*
%TD.AperFunction*%
%TD*%
%TA.AperFunction,Conductor*%
%TO.N,/M1_MODE0*%
G36*
X103612269Y-81899502D02*
G01*
X103612660Y-81900132D01*
X103878780Y-82362351D01*
X103879938Y-82371231D01*
X103876913Y-82376462D01*
X103677462Y-82575913D01*
X103669189Y-82579340D01*
X103663351Y-82577780D01*
X103201132Y-82311660D01*
X103195672Y-82304562D01*
X103196830Y-82295682D01*
X103197210Y-82295068D01*
X103354985Y-82057263D01*
X103358263Y-82053985D01*
X103596053Y-81896220D01*
X103604840Y-81894502D01*
X103612269Y-81899502D01*
G37*
%TD.AperFunction*%
%TD*%
%TA.AperFunction,Conductor*%
%TO.N,/M1_MODE0*%
G36*
X122044405Y-87513518D02*
G01*
X122329557Y-87677692D01*
X122506626Y-87779639D01*
X122512086Y-87786737D01*
X122510928Y-87795617D01*
X122510537Y-87796247D01*
X122352774Y-88034034D01*
X122349493Y-88037315D01*
X122111706Y-88195078D01*
X122102918Y-88196797D01*
X122095489Y-88191797D01*
X122095098Y-88191167D01*
X121867725Y-87796247D01*
X121828977Y-87728946D01*
X121827820Y-87720068D01*
X121830843Y-87714839D01*
X122030297Y-87515385D01*
X122038569Y-87511959D01*
X122044405Y-87513518D01*
G37*
%TD.AperFunction*%
%TD*%
%TA.AperFunction,Conductor*%
%TO.N,/MCU/IN6*%
G36*
X143568658Y-75936083D02*
G01*
X144337728Y-76286276D01*
X144936945Y-76559127D01*
X144943054Y-76565674D01*
X144942744Y-76574624D01*
X144941832Y-76576263D01*
X144507005Y-77228757D01*
X144503757Y-77232005D01*
X143851263Y-77666832D01*
X143842478Y-77668568D01*
X143835039Y-77663584D01*
X143834127Y-77661945D01*
X143339020Y-76574624D01*
X143211083Y-76293659D01*
X143210774Y-76284710D01*
X143213457Y-76280540D01*
X143555539Y-75938458D01*
X143563811Y-75935032D01*
X143568658Y-75936083D01*
G37*
%TD.AperFunction*%
%TD*%
%TA.AperFunction,Conductor*%
%TO.N,/MCU/IN6*%
G36*
X141336504Y-69612353D02*
G01*
X142194955Y-70186935D01*
X142199924Y-70194385D01*
X142199193Y-70201286D01*
X141583046Y-71631753D01*
X141576625Y-71637996D01*
X141572300Y-71638825D01*
X141087700Y-71638825D01*
X141079427Y-71635398D01*
X141076954Y-71631753D01*
X140460806Y-70201286D01*
X140460681Y-70192333D01*
X140465041Y-70186937D01*
X141323494Y-69612354D01*
X141332273Y-69610601D01*
X141336504Y-69612353D01*
G37*
%TD.AperFunction*%
%TD*%
%TA.AperFunction,Conductor*%
%TO.N,/MCU/IN7*%
G36*
X141028658Y-75936083D02*
G01*
X141797728Y-76286276D01*
X142396945Y-76559127D01*
X142403054Y-76565674D01*
X142402744Y-76574624D01*
X142401832Y-76576263D01*
X141967005Y-77228757D01*
X141963757Y-77232005D01*
X141311263Y-77666832D01*
X141302478Y-77668568D01*
X141295039Y-77663584D01*
X141294127Y-77661945D01*
X140799020Y-76574624D01*
X140671083Y-76293659D01*
X140670774Y-76284710D01*
X140673457Y-76280540D01*
X141015539Y-75938458D01*
X141023811Y-75935032D01*
X141028658Y-75936083D01*
G37*
%TD.AperFunction*%
%TD*%
%TA.AperFunction,Conductor*%
%TO.N,/MCU/IN7*%
G36*
X138796504Y-69612353D02*
G01*
X139654955Y-70186935D01*
X139659924Y-70194385D01*
X139659193Y-70201286D01*
X139043046Y-71631753D01*
X139036625Y-71637996D01*
X139032300Y-71638825D01*
X138547700Y-71638825D01*
X138539427Y-71635398D01*
X138536954Y-71631753D01*
X137920806Y-70201286D01*
X137920681Y-70192333D01*
X137925041Y-70186937D01*
X138783494Y-69612354D01*
X138792273Y-69610601D01*
X138796504Y-69612353D01*
G37*
%TD.AperFunction*%
%TD*%
%TA.AperFunction,Conductor*%
%TO.N,/MCU/INI1*%
G36*
X125040859Y-90198274D02*
G01*
X125041067Y-90198573D01*
X125201707Y-90437293D01*
X125201749Y-90437357D01*
X125360057Y-90675966D01*
X125361776Y-90684754D01*
X125356776Y-90692183D01*
X125355116Y-90693100D01*
X125123792Y-90797373D01*
X125122012Y-90798008D01*
X125007815Y-90828606D01*
X125007811Y-90828608D01*
X124893684Y-90894500D01*
X124889007Y-90899177D01*
X124880734Y-90902603D01*
X124872462Y-90899176D01*
X124536563Y-90563277D01*
X124533136Y-90555004D01*
X124536563Y-90546731D01*
X124538001Y-90545507D01*
X125024530Y-90195605D01*
X125033246Y-90193558D01*
X125040859Y-90198274D01*
G37*
%TD.AperFunction*%
%TD*%
%TA.AperFunction,Conductor*%
%TO.N,/MCU/INI1*%
G36*
X156549624Y-84412255D02*
G01*
X156551263Y-84413167D01*
X157203757Y-84847994D01*
X157207005Y-84851242D01*
X157641832Y-85503736D01*
X157643568Y-85512521D01*
X157638584Y-85519960D01*
X157636945Y-85520872D01*
X156268660Y-86143915D01*
X156259710Y-86144225D01*
X156255538Y-86141540D01*
X155913459Y-85799461D01*
X155910032Y-85791188D01*
X155911083Y-85786342D01*
X156534128Y-84418052D01*
X156540674Y-84411945D01*
X156549624Y-84412255D01*
G37*
%TD.AperFunction*%
%TD*%
%TA.AperFunction,Conductor*%
%TO.N,/MCU/INI2*%
G36*
X125784499Y-91044113D02*
G01*
X125792462Y-91048209D01*
X125795236Y-91055773D01*
X125795236Y-91534226D01*
X125791809Y-91542499D01*
X125784499Y-91545886D01*
X125269895Y-91588379D01*
X125261368Y-91585645D01*
X125257464Y-91579039D01*
X125200469Y-91297320D01*
X125200469Y-91292680D01*
X125250578Y-91045000D01*
X125257464Y-91010959D01*
X125262464Y-91003531D01*
X125269894Y-91001620D01*
X125784499Y-91044113D01*
G37*
%TD.AperFunction*%
%TD*%
%TA.AperFunction,Conductor*%
%TO.N,/MCU/INI2*%
G36*
X154009624Y-84412255D02*
G01*
X154011263Y-84413167D01*
X154663757Y-84847994D01*
X154667005Y-84851242D01*
X155101832Y-85503736D01*
X155103568Y-85512521D01*
X155098584Y-85519960D01*
X155096945Y-85520872D01*
X153728660Y-86143915D01*
X153719710Y-86144225D01*
X153715538Y-86141540D01*
X153373459Y-85799461D01*
X153370032Y-85791188D01*
X153371083Y-85786342D01*
X153994128Y-84418052D01*
X154000674Y-84411945D01*
X154009624Y-84412255D01*
G37*
%TD.AperFunction*%
%TD*%
%TA.AperFunction,Conductor*%
%TO.N,/MCU/INI3*%
G36*
X134166499Y-91063122D02*
G01*
X134174462Y-91067218D01*
X134177236Y-91074782D01*
X134177236Y-91553235D01*
X134173809Y-91561508D01*
X134166499Y-91564895D01*
X133651895Y-91607388D01*
X133643368Y-91604654D01*
X133639464Y-91598048D01*
X133582469Y-91316329D01*
X133582469Y-91311689D01*
X133632578Y-91064009D01*
X133639464Y-91029968D01*
X133644464Y-91022540D01*
X133651894Y-91020629D01*
X134166499Y-91063122D01*
G37*
%TD.AperFunction*%
%TD*%
%TA.AperFunction,Conductor*%
%TO.N,/MCU/INI3*%
G36*
X151469624Y-84412255D02*
G01*
X151471263Y-84413167D01*
X152123757Y-84847994D01*
X152127005Y-84851242D01*
X152561832Y-85503736D01*
X152563568Y-85512521D01*
X152558584Y-85519960D01*
X152556945Y-85520872D01*
X151188660Y-86143915D01*
X151179710Y-86144225D01*
X151175538Y-86141540D01*
X150833459Y-85799461D01*
X150830032Y-85791188D01*
X150831083Y-85786342D01*
X151454128Y-84418052D01*
X151460674Y-84411945D01*
X151469624Y-84412255D01*
G37*
%TD.AperFunction*%
%TD*%
%TA.AperFunction,Conductor*%
%TO.N,/MCU/INI4*%
G36*
X148929624Y-84412255D02*
G01*
X148931263Y-84413167D01*
X149583757Y-84847994D01*
X149587005Y-84851242D01*
X150021832Y-85503736D01*
X150023568Y-85512521D01*
X150018584Y-85519960D01*
X150016945Y-85520872D01*
X148648660Y-86143915D01*
X148639710Y-86144225D01*
X148635538Y-86141540D01*
X148293459Y-85799461D01*
X148290032Y-85791188D01*
X148291083Y-85786342D01*
X148914128Y-84418052D01*
X148920674Y-84411945D01*
X148929624Y-84412255D01*
G37*
%TD.AperFunction*%
%TD*%
%TA.AperFunction,Conductor*%
%TO.N,/MCU/INI4*%
G36*
X134166499Y-90263119D02*
G01*
X134174462Y-90267215D01*
X134177236Y-90274779D01*
X134177236Y-90753232D01*
X134173809Y-90761505D01*
X134166499Y-90764892D01*
X133651895Y-90807385D01*
X133643368Y-90804651D01*
X133639464Y-90798045D01*
X133582469Y-90516326D01*
X133582469Y-90511686D01*
X133632578Y-90264006D01*
X133639464Y-90229965D01*
X133644464Y-90222537D01*
X133651894Y-90220626D01*
X134166499Y-90263119D01*
G37*
%TD.AperFunction*%
%TD*%
%TA.AperFunction,Conductor*%
%TO.N,/MCU/INI5*%
G36*
X134166499Y-89463116D02*
G01*
X134174462Y-89467212D01*
X134177236Y-89474776D01*
X134177236Y-89953229D01*
X134173809Y-89961502D01*
X134166499Y-89964889D01*
X133651895Y-90007382D01*
X133643368Y-90004648D01*
X133639464Y-89998042D01*
X133582469Y-89716323D01*
X133582469Y-89711683D01*
X133632578Y-89464003D01*
X133639464Y-89429962D01*
X133644464Y-89422534D01*
X133651894Y-89420623D01*
X134166499Y-89463116D01*
G37*
%TD.AperFunction*%
%TD*%
%TA.AperFunction,Conductor*%
%TO.N,/MCU/INI5*%
G36*
X146389624Y-84412255D02*
G01*
X146391263Y-84413167D01*
X147043757Y-84847994D01*
X147047005Y-84851242D01*
X147481832Y-85503736D01*
X147483568Y-85512521D01*
X147478584Y-85519960D01*
X147476945Y-85520872D01*
X146108660Y-86143915D01*
X146099710Y-86144225D01*
X146095538Y-86141540D01*
X145753459Y-85799461D01*
X145750032Y-85791188D01*
X145751083Y-85786342D01*
X146374128Y-84418052D01*
X146380674Y-84411945D01*
X146389624Y-84412255D01*
G37*
%TD.AperFunction*%
%TD*%
%TA.AperFunction,Conductor*%
%TO.N,/MCU/INI6*%
G36*
X134166499Y-88663113D02*
G01*
X134174462Y-88667209D01*
X134177236Y-88674773D01*
X134177236Y-89153226D01*
X134173809Y-89161499D01*
X134166499Y-89164886D01*
X133651895Y-89207379D01*
X133643368Y-89204645D01*
X133639464Y-89198039D01*
X133582469Y-88916320D01*
X133582469Y-88911680D01*
X133632578Y-88664000D01*
X133639464Y-88629959D01*
X133644464Y-88622531D01*
X133651894Y-88620620D01*
X134166499Y-88663113D01*
G37*
%TD.AperFunction*%
%TD*%
%TA.AperFunction,Conductor*%
%TO.N,/MCU/INI6*%
G36*
X143849624Y-84412255D02*
G01*
X143851263Y-84413167D01*
X144503757Y-84847994D01*
X144507005Y-84851242D01*
X144941832Y-85503736D01*
X144943568Y-85512521D01*
X144938584Y-85519960D01*
X144936945Y-85520872D01*
X143568660Y-86143915D01*
X143559710Y-86144225D01*
X143555538Y-86141540D01*
X143213459Y-85799461D01*
X143210032Y-85791188D01*
X143211083Y-85786342D01*
X143834128Y-84418052D01*
X143840674Y-84411945D01*
X143849624Y-84412255D01*
G37*
%TD.AperFunction*%
%TD*%
%TA.AperFunction,Conductor*%
%TO.N,/MCU/INI7*%
G36*
X141309624Y-84412255D02*
G01*
X141311263Y-84413167D01*
X141963757Y-84847994D01*
X141967005Y-84851242D01*
X142401832Y-85503736D01*
X142403568Y-85512521D01*
X142398584Y-85519960D01*
X142396945Y-85520872D01*
X141028660Y-86143915D01*
X141019710Y-86144225D01*
X141015538Y-86141540D01*
X140673459Y-85799461D01*
X140670032Y-85791188D01*
X140671083Y-85786342D01*
X141294128Y-84418052D01*
X141300674Y-84411945D01*
X141309624Y-84412255D01*
G37*
%TD.AperFunction*%
%TD*%
%TA.AperFunction,Conductor*%
%TO.N,/MCU/INI7*%
G36*
X134166499Y-87863110D02*
G01*
X134174462Y-87867206D01*
X134177236Y-87874770D01*
X134177236Y-88353223D01*
X134173809Y-88361496D01*
X134166499Y-88364883D01*
X133651895Y-88407376D01*
X133643368Y-88404642D01*
X133639464Y-88398036D01*
X133582469Y-88116317D01*
X133582469Y-88111677D01*
X133632578Y-87863997D01*
X133639464Y-87829956D01*
X133644464Y-87822528D01*
X133651894Y-87820617D01*
X134166499Y-87863110D01*
G37*
%TD.AperFunction*%
%TD*%
M02*
