%TF.GenerationSoftware,KiCad,Pcbnew,9.0.3*%
%TF.CreationDate,2025-10-17T11:05:45+02:00*%
%TF.ProjectId,PCB_Driver_Stepper,5043425f-4472-4697-9665-725f53746570,rev?*%
%TF.SameCoordinates,Original*%
%TF.FileFunction,Copper,L4,Bot*%
%TF.FilePolarity,Positive*%
%FSLAX46Y46*%
G04 Gerber Fmt 4.6, Leading zero omitted, Abs format (unit mm)*
G04 Created by KiCad (PCBNEW 9.0.3) date 2025-10-17 11:05:45*
%MOMM*%
%LPD*%
G01*
G04 APERTURE LIST*
G04 Aperture macros list*
%AMRoundRect*
0 Rectangle with rounded corners*
0 $1 Rounding radius*
0 $2 $3 $4 $5 $6 $7 $8 $9 X,Y pos of 4 corners*
0 Add a 4 corners polygon primitive as box body*
4,1,4,$2,$3,$4,$5,$6,$7,$8,$9,$2,$3,0*
0 Add four circle primitives for the rounded corners*
1,1,$1+$1,$2,$3*
1,1,$1+$1,$4,$5*
1,1,$1+$1,$6,$7*
1,1,$1+$1,$8,$9*
0 Add four rect primitives between the rounded corners*
20,1,$1+$1,$2,$3,$4,$5,0*
20,1,$1+$1,$4,$5,$6,$7,0*
20,1,$1+$1,$6,$7,$8,$9,0*
20,1,$1+$1,$8,$9,$2,$3,0*%
G04 Aperture macros list end*
%ADD10C,0.250000*%
%TA.AperFunction,NonConductor*%
%ADD11C,0.250000*%
%TD*%
%TA.AperFunction,ComponentPad*%
%ADD12R,1.000000X1.000000*%
%TD*%
%TA.AperFunction,ComponentPad*%
%ADD13C,1.000000*%
%TD*%
%TA.AperFunction,ComponentPad*%
%ADD14RoundRect,0.250000X-0.550000X0.550000X-0.550000X-0.550000X0.550000X-0.550000X0.550000X0.550000X0*%
%TD*%
%TA.AperFunction,ComponentPad*%
%ADD15C,1.600000*%
%TD*%
%TA.AperFunction,ComponentPad*%
%ADD16RoundRect,0.250001X0.799999X-0.799999X0.799999X0.799999X-0.799999X0.799999X-0.799999X-0.799999X0*%
%TD*%
%TA.AperFunction,ComponentPad*%
%ADD17C,2.100000*%
%TD*%
%TA.AperFunction,ComponentPad*%
%ADD18RoundRect,0.250001X-0.799999X-0.799999X0.799999X-0.799999X0.799999X0.799999X-0.799999X0.799999X0*%
%TD*%
%TA.AperFunction,ComponentPad*%
%ADD19R,1.905000X2.000000*%
%TD*%
%TA.AperFunction,ComponentPad*%
%ADD20O,1.905000X2.000000*%
%TD*%
%TA.AperFunction,ComponentPad*%
%ADD21RoundRect,0.250001X-0.799999X0.799999X-0.799999X-0.799999X0.799999X-0.799999X0.799999X0.799999X0*%
%TD*%
%TA.AperFunction,ComponentPad*%
%ADD22RoundRect,0.250001X0.799999X0.799999X-0.799999X0.799999X-0.799999X-0.799999X0.799999X-0.799999X0*%
%TD*%
%TA.AperFunction,SMDPad,CuDef*%
%ADD23RoundRect,0.250000X1.000000X0.650000X-1.000000X0.650000X-1.000000X-0.650000X1.000000X-0.650000X0*%
%TD*%
%TA.AperFunction,SMDPad,CuDef*%
%ADD24RoundRect,0.250000X-0.650000X1.000000X-0.650000X-1.000000X0.650000X-1.000000X0.650000X1.000000X0*%
%TD*%
%TA.AperFunction,SMDPad,CuDef*%
%ADD25RoundRect,0.250000X0.362500X1.425000X-0.362500X1.425000X-0.362500X-1.425000X0.362500X-1.425000X0*%
%TD*%
%TA.AperFunction,SMDPad,CuDef*%
%ADD26RoundRect,0.250000X0.650000X-1.000000X0.650000X1.000000X-0.650000X1.000000X-0.650000X-1.000000X0*%
%TD*%
%TA.AperFunction,SMDPad,CuDef*%
%ADD27RoundRect,0.250000X-1.000000X-0.650000X1.000000X-0.650000X1.000000X0.650000X-1.000000X0.650000X0*%
%TD*%
%TA.AperFunction,SMDPad,CuDef*%
%ADD28RoundRect,0.250000X-0.362500X-1.425000X0.362500X-1.425000X0.362500X1.425000X-0.362500X1.425000X0*%
%TD*%
%TA.AperFunction,ViaPad*%
%ADD29C,0.600000*%
%TD*%
%TA.AperFunction,ViaPad*%
%ADD30C,0.700000*%
%TD*%
%TA.AperFunction,Conductor*%
%ADD31C,0.500000*%
%TD*%
%TA.AperFunction,Conductor*%
%ADD32C,1.000000*%
%TD*%
%TA.AperFunction,Conductor*%
%ADD33C,0.300000*%
%TD*%
G04 APERTURE END LIST*
D10*
D11*
X159093095Y-101700809D02*
X158140714Y-101700809D01*
X159283571Y-102272238D02*
X158616905Y-100272238D01*
X158616905Y-100272238D02*
X157950238Y-102272238D01*
X156426428Y-100938904D02*
X156426428Y-102557952D01*
X156426428Y-102557952D02*
X156521666Y-102748428D01*
X156521666Y-102748428D02*
X156616904Y-102843666D01*
X156616904Y-102843666D02*
X156807381Y-102938904D01*
X156807381Y-102938904D02*
X157093095Y-102938904D01*
X157093095Y-102938904D02*
X157283571Y-102843666D01*
X156426428Y-102177000D02*
X156616904Y-102272238D01*
X156616904Y-102272238D02*
X156997857Y-102272238D01*
X156997857Y-102272238D02*
X157188333Y-102177000D01*
X157188333Y-102177000D02*
X157283571Y-102081761D01*
X157283571Y-102081761D02*
X157378809Y-101891285D01*
X157378809Y-101891285D02*
X157378809Y-101319857D01*
X157378809Y-101319857D02*
X157283571Y-101129380D01*
X157283571Y-101129380D02*
X157188333Y-101034142D01*
X157188333Y-101034142D02*
X156997857Y-100938904D01*
X156997857Y-100938904D02*
X156616904Y-100938904D01*
X156616904Y-100938904D02*
X156426428Y-101034142D01*
X155188333Y-102272238D02*
X155378809Y-102177000D01*
X155378809Y-102177000D02*
X155474047Y-102081761D01*
X155474047Y-102081761D02*
X155569285Y-101891285D01*
X155569285Y-101891285D02*
X155569285Y-101319857D01*
X155569285Y-101319857D02*
X155474047Y-101129380D01*
X155474047Y-101129380D02*
X155378809Y-101034142D01*
X155378809Y-101034142D02*
X155188333Y-100938904D01*
X155188333Y-100938904D02*
X154902618Y-100938904D01*
X154902618Y-100938904D02*
X154712142Y-101034142D01*
X154712142Y-101034142D02*
X154616904Y-101129380D01*
X154616904Y-101129380D02*
X154521666Y-101319857D01*
X154521666Y-101319857D02*
X154521666Y-101891285D01*
X154521666Y-101891285D02*
X154616904Y-102081761D01*
X154616904Y-102081761D02*
X154712142Y-102177000D01*
X154712142Y-102177000D02*
X154902618Y-102272238D01*
X154902618Y-102272238D02*
X155188333Y-102272238D01*
X153759761Y-102177000D02*
X153569285Y-102272238D01*
X153569285Y-102272238D02*
X153188333Y-102272238D01*
X153188333Y-102272238D02*
X152997856Y-102177000D01*
X152997856Y-102177000D02*
X152902618Y-101986523D01*
X152902618Y-101986523D02*
X152902618Y-101891285D01*
X152902618Y-101891285D02*
X152997856Y-101700809D01*
X152997856Y-101700809D02*
X153188333Y-101605571D01*
X153188333Y-101605571D02*
X153474047Y-101605571D01*
X153474047Y-101605571D02*
X153664523Y-101510333D01*
X153664523Y-101510333D02*
X153759761Y-101319857D01*
X153759761Y-101319857D02*
X153759761Y-101224619D01*
X153759761Y-101224619D02*
X153664523Y-101034142D01*
X153664523Y-101034142D02*
X153474047Y-100938904D01*
X153474047Y-100938904D02*
X153188333Y-100938904D01*
X153188333Y-100938904D02*
X152997856Y-101034142D01*
X152331189Y-100938904D02*
X151569285Y-100938904D01*
X152045475Y-100272238D02*
X152045475Y-101986523D01*
X152045475Y-101986523D02*
X151950237Y-102177000D01*
X151950237Y-102177000D02*
X151759761Y-102272238D01*
X151759761Y-102272238D02*
X151569285Y-102272238D01*
X149474046Y-100462714D02*
X149378808Y-100367476D01*
X149378808Y-100367476D02*
X149188332Y-100272238D01*
X149188332Y-100272238D02*
X148712141Y-100272238D01*
X148712141Y-100272238D02*
X148521665Y-100367476D01*
X148521665Y-100367476D02*
X148426427Y-100462714D01*
X148426427Y-100462714D02*
X148331189Y-100653190D01*
X148331189Y-100653190D02*
X148331189Y-100843666D01*
X148331189Y-100843666D02*
X148426427Y-101129380D01*
X148426427Y-101129380D02*
X149569284Y-102272238D01*
X149569284Y-102272238D02*
X148331189Y-102272238D01*
X147093094Y-100272238D02*
X146902617Y-100272238D01*
X146902617Y-100272238D02*
X146712141Y-100367476D01*
X146712141Y-100367476D02*
X146616903Y-100462714D01*
X146616903Y-100462714D02*
X146521665Y-100653190D01*
X146521665Y-100653190D02*
X146426427Y-101034142D01*
X146426427Y-101034142D02*
X146426427Y-101510333D01*
X146426427Y-101510333D02*
X146521665Y-101891285D01*
X146521665Y-101891285D02*
X146616903Y-102081761D01*
X146616903Y-102081761D02*
X146712141Y-102177000D01*
X146712141Y-102177000D02*
X146902617Y-102272238D01*
X146902617Y-102272238D02*
X147093094Y-102272238D01*
X147093094Y-102272238D02*
X147283570Y-102177000D01*
X147283570Y-102177000D02*
X147378808Y-102081761D01*
X147378808Y-102081761D02*
X147474046Y-101891285D01*
X147474046Y-101891285D02*
X147569284Y-101510333D01*
X147569284Y-101510333D02*
X147569284Y-101034142D01*
X147569284Y-101034142D02*
X147474046Y-100653190D01*
X147474046Y-100653190D02*
X147378808Y-100462714D01*
X147378808Y-100462714D02*
X147283570Y-100367476D01*
X147283570Y-100367476D02*
X147093094Y-100272238D01*
X145664522Y-100462714D02*
X145569284Y-100367476D01*
X145569284Y-100367476D02*
X145378808Y-100272238D01*
X145378808Y-100272238D02*
X144902617Y-100272238D01*
X144902617Y-100272238D02*
X144712141Y-100367476D01*
X144712141Y-100367476D02*
X144616903Y-100462714D01*
X144616903Y-100462714D02*
X144521665Y-100653190D01*
X144521665Y-100653190D02*
X144521665Y-100843666D01*
X144521665Y-100843666D02*
X144616903Y-101129380D01*
X144616903Y-101129380D02*
X145759760Y-102272238D01*
X145759760Y-102272238D02*
X144521665Y-102272238D01*
X142712141Y-100272238D02*
X143664522Y-100272238D01*
X143664522Y-100272238D02*
X143759760Y-101224619D01*
X143759760Y-101224619D02*
X143664522Y-101129380D01*
X143664522Y-101129380D02*
X143474046Y-101034142D01*
X143474046Y-101034142D02*
X142997855Y-101034142D01*
X142997855Y-101034142D02*
X142807379Y-101129380D01*
X142807379Y-101129380D02*
X142712141Y-101224619D01*
X142712141Y-101224619D02*
X142616903Y-101415095D01*
X142616903Y-101415095D02*
X142616903Y-101891285D01*
X142616903Y-101891285D02*
X142712141Y-102081761D01*
X142712141Y-102081761D02*
X142807379Y-102177000D01*
X142807379Y-102177000D02*
X142997855Y-102272238D01*
X142997855Y-102272238D02*
X143474046Y-102272238D01*
X143474046Y-102272238D02*
X143664522Y-102177000D01*
X143664522Y-102177000D02*
X143759760Y-102081761D01*
D12*
%TO.P,J107,1,Pin_1*%
%TO.N,GNDREF*%
X100055000Y-86120000D03*
D13*
%TO.P,J107,2,Pin_2*%
X101325000Y-86120000D03*
%TO.P,J107,3,Pin_3*%
X102595000Y-86120000D03*
%TD*%
D14*
%TO.P,U302,1,I1*%
%TO.N,/MCU/IN1*%
X157205000Y-77230000D03*
D15*
%TO.P,U302,2,I2*%
%TO.N,/MCU/IN2*%
X154665000Y-77230000D03*
%TO.P,U302,3,I3*%
%TO.N,/MCU/IN3*%
X152125000Y-77230000D03*
%TO.P,U302,4,I4*%
%TO.N,/MCU/IN4*%
X149585000Y-77230000D03*
%TO.P,U302,5,I5*%
%TO.N,/MCU/IN5*%
X147045000Y-77230000D03*
%TO.P,U302,6,I6*%
%TO.N,/MCU/IN6*%
X144505000Y-77230000D03*
%TO.P,U302,7,I7*%
%TO.N,/MCU/IN7*%
X141965000Y-77230000D03*
%TO.P,U302,8,GND*%
%TO.N,GNDREF*%
X139425000Y-77230000D03*
%TO.P,U302,9,COM*%
%TO.N,VCC_3V3*%
X139425000Y-84850000D03*
%TO.P,U302,10,O7*%
%TO.N,/MCU/INI7*%
X141965000Y-84850000D03*
%TO.P,U302,11,O6*%
%TO.N,/MCU/INI6*%
X144505000Y-84850000D03*
%TO.P,U302,12,O5*%
%TO.N,/MCU/INI5*%
X147045000Y-84850000D03*
%TO.P,U302,13,O4*%
%TO.N,/MCU/INI4*%
X149585000Y-84850000D03*
%TO.P,U302,14,O3*%
%TO.N,/MCU/INI3*%
X152125000Y-84850000D03*
%TO.P,U302,15,O2*%
%TO.N,/MCU/INI2*%
X154665000Y-84850000D03*
%TO.P,U302,16,O1*%
%TO.N,/MCU/INI1*%
X157205000Y-84850000D03*
%TD*%
D16*
%TO.P,J105,1,Pin_1*%
%TO.N,/DRIVERS/M1_OUT1A*%
X91120100Y-89940000D03*
D17*
%TO.P,J105,2,Pin_2*%
%TO.N,/DRIVERS/M1_OUT1B*%
X91120100Y-87400000D03*
%TO.P,J105,3,Pin_3*%
%TO.N,/DRIVERS/M1_OUT2B*%
X91120100Y-84860000D03*
%TO.P,J105,4,Pin_4*%
%TO.N,/DRIVERS/M1_OUT2A*%
X91120100Y-82320000D03*
%TD*%
D18*
%TO.P,J102,1,Pin_1*%
%TO.N,GNDREF*%
X133710000Y-69609000D03*
D17*
%TO.P,J102,2,Pin_2*%
X136250000Y-69609000D03*
%TO.P,J102,3,Pin_3*%
%TO.N,/MCU/IN7*%
X138790000Y-69609000D03*
%TO.P,J102,4,Pin_4*%
%TO.N,/MCU/IN6*%
X141330000Y-69609000D03*
%TO.P,J102,5,Pin_5*%
%TO.N,/MCU/IN5*%
X143870000Y-69609000D03*
%TO.P,J102,6,Pin_6*%
%TO.N,/MCU/IN4*%
X146410000Y-69609000D03*
%TO.P,J102,7,Pin_7*%
%TO.N,/MCU/IN3*%
X148950000Y-69609000D03*
%TO.P,J102,8,Pin_8*%
%TO.N,/MCU/IN2*%
X151490000Y-69609000D03*
%TO.P,J102,9,Pin_9*%
%TO.N,/MCU/IN1*%
X154030000Y-69609000D03*
%TO.P,J102,10,Pin_10*%
%TO.N,VCC_12V*%
X156570000Y-69609000D03*
%TD*%
D18*
%TO.P,J103,1,Pin_1*%
%TO.N,/MCU/USART1_RX*%
X122915000Y-69610000D03*
D17*
%TO.P,J103,2,Pin_2*%
%TO.N,/MCU/USART1_TX*%
X125455000Y-69610000D03*
%TD*%
D19*
%TO.P,U201,1,VI*%
%TO.N,VCC_12V*%
X113771000Y-78180000D03*
D20*
%TO.P,U201,2,GND*%
%TO.N,GNDREF*%
X116311000Y-78180000D03*
%TO.P,U201,3,VO*%
%TO.N,VCC_3V3*%
X118851000Y-78180000D03*
%TD*%
D18*
%TO.P,J101,1,Pin_1*%
%TO.N,VDD*%
X113772000Y-69610000D03*
D17*
%TO.P,J101,2,Pin_2*%
%TO.N,GNDREF*%
X116312000Y-69610000D03*
%TD*%
D21*
%TO.P,J106,1,Pin_1*%
%TO.N,/DRIVERS/M2_OUT1A*%
X183626500Y-84850000D03*
D17*
%TO.P,J106,2,Pin_2*%
%TO.N,/DRIVERS/M2_OUT1B*%
X183626500Y-87390000D03*
%TO.P,J106,3,Pin_3*%
%TO.N,/DRIVERS/M2_OUT2B*%
X183626500Y-89930000D03*
%TO.P,J106,4,Pin_4*%
%TO.N,/DRIVERS/M2_OUT2A*%
X183626500Y-92470000D03*
%TD*%
D22*
%TO.P,J104,1,Pin_1*%
%TO.N,GNDREF*%
X126471000Y-100090000D03*
D17*
%TO.P,J104,2,Pin_2*%
%TO.N,/MCU/SYS_SWCLK*%
X123931000Y-100090000D03*
%TO.P,J104,3,Pin_3*%
%TO.N,/MCU/SYS_SWDIO*%
X121391000Y-100090000D03*
%TO.P,J104,4,Pin_4*%
%TO.N,VCC_3V3*%
X118851000Y-100090000D03*
%TD*%
D12*
%TO.P,J108,1,Pin_1*%
%TO.N,GNDREF*%
X174731000Y-88665000D03*
D13*
%TO.P,J108,2,Pin_2*%
X173461000Y-88665000D03*
%TO.P,J108,3,Pin_3*%
X172191000Y-88665000D03*
%TD*%
D23*
%TO.P,D402,1,K*%
%TO.N,VCC_12V*%
X104142600Y-93851000D03*
%TO.P,D402,2,A*%
%TO.N,/DRIVERS/M1_OUT1A*%
X100142600Y-93851000D03*
%TD*%
%TO.P,D414,1,K*%
%TO.N,/DRIVERS/M2_OUT1A*%
X174572000Y-77418000D03*
%TO.P,D414,2,A*%
%TO.N,GNDREF*%
X170572000Y-77418000D03*
%TD*%
D24*
%TO.P,D415,1,K*%
%TO.N,/DRIVERS/M2_OUT2B*%
X177866000Y-95952000D03*
%TO.P,D415,2,A*%
%TO.N,GNDREF*%
X177866000Y-99952000D03*
%TD*%
D25*
%TO.P,R405,1*%
%TO.N,Net-(U402-RNF2)*%
X176114000Y-91205000D03*
%TO.P,R405,2*%
%TO.N,GNDREF*%
X170189000Y-91205000D03*
%TD*%
D26*
%TO.P,D401,1,K*%
%TO.N,VCC_12V*%
X96864600Y-97629000D03*
%TO.P,D401,2,A*%
%TO.N,/DRIVERS/M1_OUT1B*%
X96864600Y-93629000D03*
%TD*%
D27*
%TO.P,D412,1,K*%
%TO.N,VCC_12V*%
X170572000Y-96214000D03*
%TO.P,D412,2,A*%
%TO.N,/DRIVERS/M2_OUT2A*%
X174572000Y-96214000D03*
%TD*%
D28*
%TO.P,R401,1*%
%TO.N,Net-(U401-RNF1)*%
X98632600Y-88665000D03*
%TO.P,R401,2*%
%TO.N,GNDREF*%
X104557600Y-88665000D03*
%TD*%
D23*
%TO.P,D416,1,K*%
%TO.N,/DRIVERS/M2_OUT2A*%
X174572000Y-99730000D03*
%TO.P,D416,2,A*%
%TO.N,GNDREF*%
X170572000Y-99730000D03*
%TD*%
D24*
%TO.P,D409,1,K*%
%TO.N,VCC_12V*%
X181502000Y-77156000D03*
%TO.P,D409,2,A*%
%TO.N,/DRIVERS/M2_OUT1B*%
X181502000Y-81156000D03*
%TD*%
D25*
%TO.P,R404,1*%
%TO.N,Net-(U402-RNF1)*%
X176114000Y-86125000D03*
%TO.P,R404,2*%
%TO.N,GNDREF*%
X170189000Y-86125000D03*
%TD*%
D24*
%TO.P,D405,1,K*%
%TO.N,/DRIVERS/M1_OUT1B*%
X93308600Y-93629000D03*
%TO.P,D405,2,A*%
%TO.N,GNDREF*%
X93308600Y-97629000D03*
%TD*%
D27*
%TO.P,D408,1,K*%
%TO.N,/DRIVERS/M1_OUT2A*%
X100174600Y-78357000D03*
%TO.P,D408,2,A*%
%TO.N,GNDREF*%
X104174600Y-78357000D03*
%TD*%
D24*
%TO.P,D403,1,K*%
%TO.N,VCC_12V*%
X96840600Y-74579000D03*
%TO.P,D403,2,A*%
%TO.N,/DRIVERS/M1_OUT2B*%
X96840600Y-78579000D03*
%TD*%
D23*
%TO.P,D404,1,K*%
%TO.N,VCC_12V*%
X104174600Y-74801000D03*
%TO.P,D404,2,A*%
%TO.N,/DRIVERS/M1_OUT2A*%
X100174600Y-74801000D03*
%TD*%
D28*
%TO.P,R402,1*%
%TO.N,Net-(U401-RNF2)*%
X98632600Y-83585000D03*
%TO.P,R402,2*%
%TO.N,GNDREF*%
X104557600Y-83585000D03*
%TD*%
D26*
%TO.P,D407,1,K*%
%TO.N,/DRIVERS/M1_OUT2B*%
X93284600Y-78579000D03*
%TO.P,D407,2,A*%
%TO.N,GNDREF*%
X93284600Y-74579000D03*
%TD*%
%TO.P,D413,1,K*%
%TO.N,/DRIVERS/M2_OUT1B*%
X177906000Y-81156000D03*
%TO.P,D413,2,A*%
%TO.N,GNDREF*%
X177906000Y-77156000D03*
%TD*%
%TO.P,D411,1,K*%
%TO.N,VCC_12V*%
X181462000Y-99952000D03*
%TO.P,D411,2,A*%
%TO.N,/DRIVERS/M2_OUT2B*%
X181462000Y-95952000D03*
%TD*%
D27*
%TO.P,D406,1,K*%
%TO.N,/DRIVERS/M1_OUT1A*%
X100142600Y-97407000D03*
%TO.P,D406,2,A*%
%TO.N,GNDREF*%
X104142600Y-97407000D03*
%TD*%
%TO.P,D410,1,K*%
%TO.N,VCC_12V*%
X170572000Y-80934000D03*
%TO.P,D410,2,A*%
%TO.N,/DRIVERS/M2_OUT1A*%
X174572000Y-80934000D03*
%TD*%
D29*
%TO.N,GNDREF*%
X176509000Y-79262000D03*
X105897000Y-79770000D03*
X110215000Y-90184000D03*
X176255000Y-107456000D03*
X172699000Y-89676000D03*
X172445000Y-107456000D03*
X110469000Y-93994000D03*
X172445000Y-67070000D03*
X121899000Y-92216000D03*
X174223000Y-87644000D03*
X100563000Y-87136000D03*
X102849000Y-85104000D03*
X120375000Y-92216000D03*
X173461000Y-89676000D03*
X135869000Y-83961000D03*
D30*
X176001000Y-88660000D03*
D29*
X164317000Y-80786000D03*
X101325000Y-87136000D03*
X102087000Y-67324000D03*
X100563000Y-85104000D03*
X164571000Y-84596000D03*
X98277000Y-107456000D03*
X103611000Y-87136000D03*
X133329000Y-80024000D03*
X171175000Y-89676000D03*
X164571000Y-88406000D03*
X94975000Y-96026000D03*
D30*
X98785000Y-86120000D03*
D29*
X173461000Y-87644000D03*
X172699000Y-87644000D03*
X171937000Y-87644000D03*
X167619000Y-95010000D03*
X133329000Y-81548000D03*
X110469000Y-84596000D03*
X125709000Y-79008000D03*
X102087000Y-87136000D03*
X171175000Y-87644000D03*
X101325000Y-85104000D03*
X109961000Y-87390000D03*
X102087000Y-85104000D03*
X94213000Y-95772000D03*
X98277000Y-67324000D03*
X169905000Y-82818000D03*
X103611000Y-85104000D03*
X102087000Y-107456000D03*
X174223000Y-89676000D03*
X171937000Y-89676000D03*
X164317000Y-90184000D03*
X176255000Y-67070000D03*
X106659000Y-79770000D03*
X124185000Y-79008000D03*
X102849000Y-87136000D03*
X133329000Y-83072000D03*
X128757000Y-79008000D03*
%TO.N,/DRIVERS/M2_OUT1B*%
X178541000Y-84088000D03*
X179303000Y-84088000D03*
%TO.N,/MCU/SYS_SWDIO*%
X129995000Y-95010000D03*
%TO.N,/MCU/SYS_SWCLK*%
X130795000Y-95010000D03*
%TO.N,/DRIVERS/M2_OUT1A*%
X175747000Y-83580000D03*
X176001000Y-82818000D03*
%TO.N,/DRIVERS/M2_OUT2B*%
X179049000Y-92983000D03*
X179811000Y-92978000D03*
%TO.N,/DRIVERS/M2_OUT2A*%
X176509000Y-94248000D03*
X175747000Y-93775500D03*
%TO.N,/DRIVERS/M1_OUT2B*%
X95483000Y-81548000D03*
X96245000Y-81675000D03*
%TO.N,/DRIVERS/M1_OUT2A*%
X98785000Y-81040000D03*
X98277000Y-80532000D03*
%TO.N,/DRIVERS/M1_OUT1B*%
X95725300Y-90449700D03*
X96499000Y-90438000D03*
%TO.N,/DRIVERS/M1_OUT1A*%
X98277000Y-91708000D03*
X98785000Y-91200000D03*
%TO.N,/MCU/USART1_RX*%
X123423000Y-85358000D03*
%TO.N,/MCU/USART1_TX*%
X124439000Y-83834000D03*
%TO.N,/M1_PS*%
X125963000Y-86374000D03*
X105897000Y-89168000D03*
%TO.N,VCC_12V*%
X102849000Y-76214000D03*
X168635000Y-96280000D03*
X180573000Y-98058000D03*
X181335000Y-79008000D03*
X97515000Y-96026000D03*
X98023000Y-76468000D03*
X103611000Y-95391000D03*
X98277000Y-95629000D03*
X97515000Y-75960000D03*
X181335000Y-98566000D03*
X104373000Y-95391000D03*
X168635000Y-95645000D03*
X102087000Y-76468000D03*
X168635000Y-79135000D03*
%TO.N,VCC_3V3*%
X159745000Y-86374000D03*
X162285000Y-86374000D03*
X115295000Y-88406000D03*
X112755000Y-88406000D03*
%TO.N,/M2_MODE1*%
X126794994Y-95010000D03*
X171797006Y-93486000D03*
%TO.N,/M2_CK*%
X168381000Y-92508003D03*
X128395000Y-95010000D03*
%TO.N,/M2_EN*%
X172953000Y-93486000D03*
X125994991Y-95010000D03*
%TO.N,/M2_CLK*%
X168381000Y-91708000D03*
X129195000Y-95010000D03*
%TO.N,/M2_PS*%
X168889000Y-85612000D03*
X133583000Y-93740000D03*
%TO.N,/M2_MODE0*%
X170997006Y-93486000D03*
X127594997Y-95010000D03*
%TO.N,/M1_EN*%
X122407000Y-89764003D03*
X101326875Y-82056493D03*
%TO.N,/M1_MODE1*%
X102341000Y-81950281D03*
X122407000Y-88914000D03*
%TO.N,/M1_CLK*%
X106151000Y-83326000D03*
X122407000Y-87047997D03*
%TO.N,/M1_CK*%
X106151000Y-82310000D03*
X126217000Y-83834000D03*
%TO.N,/M1_MODE0*%
X122350759Y-88035300D03*
X103357000Y-82056000D03*
%TO.N,Net-(U401-RNF1)*%
X97769000Y-90619893D03*
%TO.N,Net-(U401-RNF2)*%
X97467318Y-81715243D03*
%TO.N,Net-(U402-RNF1)*%
X177069871Y-84270000D03*
%TO.N,Net-(U402-RNF2)*%
X176964030Y-92883892D03*
%TO.N,/MCU/INI1*%
X125201000Y-90438000D03*
%TO.N,/MCU/INI2*%
X125201000Y-91295000D03*
%TO.N,/MCU/INI3*%
X133583000Y-91314009D03*
%TO.N,/MCU/INI4*%
X133583000Y-90514006D03*
%TO.N,/MCU/INI5*%
X133583000Y-89714003D03*
%TO.N,/MCU/INI6*%
X133583000Y-88914000D03*
%TO.N,/MCU/INI7*%
X133583000Y-88113997D03*
%TD*%
D31*
%TO.N,GNDREF*%
X104557600Y-88082600D02*
X104557600Y-88665000D01*
X170189000Y-86658000D02*
X171175000Y-87644000D01*
X170189000Y-91205000D02*
X170189000Y-90662000D01*
D32*
X94975000Y-96026000D02*
X94911600Y-96026000D01*
D31*
X136250000Y-74055000D02*
X139425000Y-77230000D01*
D32*
X94213000Y-96280000D02*
X94435300Y-96502300D01*
X94435300Y-96502300D02*
X93308600Y-97629000D01*
D31*
X104557600Y-84157400D02*
X104557600Y-83585000D01*
X170189000Y-86125000D02*
X170189000Y-86658000D01*
D32*
X94911600Y-96026000D02*
X94435300Y-96502300D01*
X94213000Y-95772000D02*
X94213000Y-96280000D01*
D31*
X136250000Y-69610000D02*
X133710000Y-69610000D01*
X136250000Y-69610000D02*
X136250000Y-74055000D01*
X103611000Y-85104000D02*
X104557600Y-84157400D01*
X170189000Y-90662000D02*
X171175000Y-89676000D01*
X103611000Y-87136000D02*
X104557600Y-88082600D01*
D32*
%TO.N,/DRIVERS/M2_OUT1B*%
X179303000Y-83355000D02*
X181502000Y-81156000D01*
X178541000Y-84088000D02*
X178541000Y-81791000D01*
X178541000Y-81791000D02*
X177906000Y-81156000D01*
X178541000Y-84088000D02*
X179303000Y-84088000D01*
X179303000Y-84088000D02*
X179303000Y-83355000D01*
%TO.N,/DRIVERS/M2_OUT1A*%
X174572000Y-80934000D02*
X174572000Y-77418000D01*
X176001000Y-82818000D02*
X176001000Y-82363000D01*
X176001000Y-82363000D02*
X175720500Y-82082500D01*
X175747000Y-83580000D02*
X175239000Y-83072000D01*
X175720500Y-82590500D02*
X175720500Y-82082500D01*
X175239000Y-83072000D02*
X175720500Y-82590500D01*
X175720500Y-82082500D02*
X174572000Y-80934000D01*
%TO.N,/DRIVERS/M2_OUT2B*%
X179049000Y-94769000D02*
X180232000Y-95952000D01*
X179049000Y-92983000D02*
X179049000Y-94769000D01*
X179806000Y-92983000D02*
X179811000Y-92978000D01*
X180232000Y-95952000D02*
X181462000Y-95952000D01*
X179049000Y-92983000D02*
X179806000Y-92983000D01*
X179049000Y-94769000D02*
X177866000Y-95952000D01*
%TO.N,/DRIVERS/M2_OUT2A*%
X175747000Y-95039000D02*
X174572000Y-96214000D01*
X175747000Y-93775500D02*
X175747000Y-94502000D01*
X176509000Y-94248000D02*
X176001000Y-94248000D01*
X175747000Y-94502000D02*
X175747000Y-95039000D01*
X174572000Y-96214000D02*
X174572000Y-99730000D01*
X176001000Y-94248000D02*
X175747000Y-94502000D01*
%TO.N,/DRIVERS/M1_OUT2B*%
X95483000Y-79936600D02*
X94642200Y-79936600D01*
X94642200Y-79936600D02*
X93284600Y-78579000D01*
X95483000Y-79936600D02*
X96840600Y-78579000D01*
X95610000Y-81675000D02*
X95483000Y-81548000D01*
X93284600Y-78714600D02*
X93284600Y-78579000D01*
X96245000Y-81675000D02*
X95610000Y-81675000D01*
X95483000Y-81548000D02*
X95483000Y-79936600D01*
%TO.N,/DRIVERS/M1_OUT2A*%
X100174600Y-78357000D02*
X100174600Y-74801000D01*
X98277000Y-80532000D02*
X100174600Y-78634400D01*
X98277000Y-80532000D02*
X98785000Y-81040000D01*
X100174600Y-78634400D02*
X100174600Y-78357000D01*
%TO.N,/DRIVERS/M1_OUT1B*%
X96864600Y-93629000D02*
X93308600Y-93629000D01*
X96499000Y-93263400D02*
X96864600Y-93629000D01*
X96499000Y-90438000D02*
X96499000Y-93263400D01*
X95737000Y-90438000D02*
X96499000Y-90438000D01*
X95725300Y-90449700D02*
X95737000Y-90438000D01*
%TO.N,/DRIVERS/M1_OUT1A*%
X98785000Y-91200000D02*
X98658000Y-91327000D01*
X98658000Y-92089000D02*
X100142600Y-93573600D01*
X98658000Y-91327000D02*
X98658000Y-92089000D01*
X100142600Y-93851000D02*
X100142600Y-97407000D01*
X100142600Y-93573600D02*
X100142600Y-93851000D01*
X98277000Y-91708000D02*
X98658000Y-92089000D01*
%TO.N,VCC_12V*%
X169204000Y-96214000D02*
X170572000Y-96214000D01*
X102087000Y-76468000D02*
X102507600Y-76468000D01*
X181462000Y-99952000D02*
X181462000Y-98693000D01*
X181335000Y-79008000D02*
X181335000Y-77323000D01*
X97912000Y-95629000D02*
X97515000Y-96026000D01*
X97515000Y-96026000D02*
X97515000Y-96978600D01*
X103611000Y-95391000D02*
X103611000Y-94382600D01*
X181462000Y-98693000D02*
X181335000Y-98566000D01*
X180573000Y-99063000D02*
X181462000Y-99952000D01*
X104373000Y-94081400D02*
X104142600Y-93851000D01*
X104373000Y-95391000D02*
X104373000Y-94081400D01*
D33*
X170003000Y-95645000D02*
X170572000Y-96214000D01*
D32*
X168635000Y-95645000D02*
X169204000Y-96214000D01*
X98277000Y-95629000D02*
X97912000Y-95629000D01*
X168635000Y-79135000D02*
X170434000Y-80934000D01*
X102507600Y-76468000D02*
X104174600Y-74801000D01*
X103611000Y-94382600D02*
X104142600Y-93851000D01*
X98023000Y-76468000D02*
X96840600Y-75285600D01*
X168635000Y-95645000D02*
X168635000Y-96280000D01*
X170434000Y-80934000D02*
X170572000Y-80934000D01*
X97515000Y-96978600D02*
X96864600Y-97629000D01*
X96840600Y-75285600D02*
X96840600Y-74579000D01*
X180573000Y-98058000D02*
X180573000Y-99063000D01*
X181335000Y-77323000D02*
X181502000Y-77156000D01*
%TO.N,VCC_3V3*%
X159745000Y-86374000D02*
X162285000Y-86374000D01*
D31*
X115295000Y-88406000D02*
X112755000Y-88406000D01*
D33*
%TO.N,Net-(U401-RNF1)*%
X98632600Y-89756293D02*
X98632600Y-88665000D01*
X97769000Y-90619893D02*
X98632600Y-89756293D01*
%TO.N,Net-(U401-RNF2)*%
X97467318Y-81715243D02*
X98632600Y-82880525D01*
X98632600Y-82880525D02*
X98632600Y-83585000D01*
%TO.N,Net-(U402-RNF1)*%
X176114000Y-85225871D02*
X176114000Y-86125000D01*
X177069871Y-84270000D02*
X176114000Y-85225871D01*
%TO.N,Net-(U402-RNF2)*%
X176964030Y-92883892D02*
X176114000Y-92033862D01*
X176114000Y-92033862D02*
X176114000Y-91205000D01*
%TD*%
%TA.AperFunction,Conductor*%
%TO.N,GNDREF*%
G36*
X186547539Y-66570185D02*
G01*
X186593294Y-66622989D01*
X186604500Y-66674500D01*
X186604500Y-108085500D01*
X186584815Y-108152539D01*
X186532011Y-108198294D01*
X186480500Y-108209500D01*
X88229500Y-108209500D01*
X88162461Y-108189815D01*
X88116706Y-108137011D01*
X88105500Y-108085500D01*
X88105500Y-103570839D01*
X141984968Y-103570839D01*
X159915506Y-103570839D01*
X159915506Y-99639909D01*
X141984968Y-99639909D01*
X141984968Y-103570839D01*
X88105500Y-103570839D01*
X88105500Y-99967973D01*
X117300500Y-99967973D01*
X117300500Y-100212026D01*
X117335026Y-100430016D01*
X117338679Y-100453076D01*
X117414096Y-100685185D01*
X117497388Y-100848656D01*
X117524896Y-100902642D01*
X117668339Y-101100076D01*
X117668343Y-101100081D01*
X117840918Y-101272656D01*
X117840923Y-101272660D01*
X117939082Y-101343976D01*
X118038361Y-101416106D01*
X118255815Y-101526904D01*
X118487924Y-101602321D01*
X118728973Y-101640500D01*
X118728974Y-101640500D01*
X118973026Y-101640500D01*
X118973027Y-101640500D01*
X119214076Y-101602321D01*
X119446185Y-101526904D01*
X119663639Y-101416106D01*
X119861083Y-101272655D01*
X120033319Y-101100419D01*
X120094642Y-101066934D01*
X120164334Y-101071918D01*
X120208681Y-101100419D01*
X120380918Y-101272656D01*
X120380923Y-101272660D01*
X120479082Y-101343976D01*
X120578361Y-101416106D01*
X120795815Y-101526904D01*
X121027924Y-101602321D01*
X121268973Y-101640500D01*
X121268974Y-101640500D01*
X121513026Y-101640500D01*
X121513027Y-101640500D01*
X121754076Y-101602321D01*
X121986185Y-101526904D01*
X122203639Y-101416106D01*
X122401083Y-101272655D01*
X122573319Y-101100419D01*
X122634642Y-101066934D01*
X122704334Y-101071918D01*
X122748681Y-101100419D01*
X122920918Y-101272656D01*
X122920923Y-101272660D01*
X123019082Y-101343976D01*
X123118361Y-101416106D01*
X123335815Y-101526904D01*
X123567924Y-101602321D01*
X123808973Y-101640500D01*
X123808974Y-101640500D01*
X124053026Y-101640500D01*
X124053027Y-101640500D01*
X124294076Y-101602321D01*
X124526185Y-101526904D01*
X124743639Y-101416106D01*
X124891400Y-101308751D01*
X124957202Y-101285273D01*
X125025256Y-101301098D01*
X125069822Y-101343976D01*
X125078683Y-101358343D01*
X125202655Y-101482315D01*
X125351876Y-101574356D01*
X125351881Y-101574358D01*
X125518303Y-101629505D01*
X125518310Y-101629506D01*
X125621014Y-101639999D01*
X125621027Y-101640000D01*
X126221000Y-101640000D01*
X126221000Y-100580747D01*
X126258708Y-100602518D01*
X126398591Y-100640000D01*
X126543409Y-100640000D01*
X126683292Y-100602518D01*
X126721000Y-100580747D01*
X126721000Y-101640000D01*
X127320973Y-101640000D01*
X127320985Y-101639999D01*
X127423689Y-101629506D01*
X127423696Y-101629505D01*
X127590118Y-101574358D01*
X127590123Y-101574356D01*
X127739344Y-101482315D01*
X127863315Y-101358344D01*
X127955356Y-101209123D01*
X127955358Y-101209118D01*
X128010505Y-101042696D01*
X128010506Y-101042689D01*
X128020999Y-100939985D01*
X128021000Y-100939972D01*
X128021000Y-100340000D01*
X126961748Y-100340000D01*
X126983518Y-100302292D01*
X127021000Y-100162409D01*
X127021000Y-100017591D01*
X126983518Y-99877708D01*
X126961748Y-99840000D01*
X128021000Y-99840000D01*
X128021000Y-99240027D01*
X128020999Y-99240014D01*
X128010506Y-99137310D01*
X128010505Y-99137303D01*
X127955358Y-98970881D01*
X127955356Y-98970876D01*
X127863315Y-98821655D01*
X127739344Y-98697684D01*
X127590123Y-98605643D01*
X127590118Y-98605641D01*
X127423696Y-98550494D01*
X127423689Y-98550493D01*
X127320985Y-98540000D01*
X126721000Y-98540000D01*
X126721000Y-99599252D01*
X126683292Y-99577482D01*
X126543409Y-99540000D01*
X126398591Y-99540000D01*
X126258708Y-99577482D01*
X126221000Y-99599252D01*
X126221000Y-98540000D01*
X125621014Y-98540000D01*
X125518310Y-98550493D01*
X125518303Y-98550494D01*
X125351881Y-98605641D01*
X125351876Y-98605643D01*
X125202655Y-98697684D01*
X125078683Y-98821656D01*
X125069819Y-98836027D01*
X125017869Y-98882750D01*
X124948906Y-98893970D01*
X124891397Y-98871245D01*
X124743642Y-98763896D01*
X124743641Y-98763895D01*
X124743639Y-98763894D01*
X124526185Y-98653096D01*
X124294076Y-98577679D01*
X124294074Y-98577678D01*
X124294072Y-98577678D01*
X124122433Y-98550493D01*
X124053027Y-98539500D01*
X123808973Y-98539500D01*
X123753093Y-98548350D01*
X123567927Y-98577678D01*
X123335812Y-98653097D01*
X123118357Y-98763896D01*
X122920923Y-98907339D01*
X122920918Y-98907343D01*
X122748681Y-99079581D01*
X122687358Y-99113066D01*
X122617666Y-99108082D01*
X122573319Y-99079581D01*
X122401081Y-98907343D01*
X122401076Y-98907339D01*
X122203642Y-98763896D01*
X122203641Y-98763895D01*
X122203639Y-98763894D01*
X121986185Y-98653096D01*
X121754076Y-98577679D01*
X121754074Y-98577678D01*
X121754072Y-98577678D01*
X121582433Y-98550493D01*
X121513027Y-98539500D01*
X121268973Y-98539500D01*
X121213093Y-98548350D01*
X121027927Y-98577678D01*
X120795812Y-98653097D01*
X120578357Y-98763896D01*
X120380923Y-98907339D01*
X120380918Y-98907343D01*
X120208681Y-99079581D01*
X120147358Y-99113066D01*
X120077666Y-99108082D01*
X120033319Y-99079581D01*
X119861081Y-98907343D01*
X119861076Y-98907339D01*
X119663642Y-98763896D01*
X119663641Y-98763895D01*
X119663639Y-98763894D01*
X119446185Y-98653096D01*
X119214076Y-98577679D01*
X119214074Y-98577678D01*
X119214072Y-98577678D01*
X119042433Y-98550493D01*
X118973027Y-98539500D01*
X118728973Y-98539500D01*
X118673093Y-98548350D01*
X118487927Y-98577678D01*
X118255812Y-98653097D01*
X118038357Y-98763896D01*
X117840923Y-98907339D01*
X117840918Y-98907343D01*
X117668343Y-99079918D01*
X117668339Y-99079923D01*
X117524896Y-99277357D01*
X117414097Y-99494812D01*
X117338678Y-99726927D01*
X117300500Y-99967973D01*
X88105500Y-99967973D01*
X88105500Y-92578983D01*
X91908100Y-92578983D01*
X91908100Y-94679001D01*
X91908101Y-94679018D01*
X91918600Y-94781796D01*
X91918601Y-94781799D01*
X91950873Y-94879187D01*
X91973786Y-94948334D01*
X92065888Y-95097656D01*
X92189944Y-95221712D01*
X92339266Y-95313814D01*
X92505803Y-95368999D01*
X92608591Y-95379500D01*
X94008608Y-95379499D01*
X94111397Y-95368999D01*
X94277934Y-95313814D01*
X94427256Y-95221712D01*
X94551312Y-95097656D01*
X94643414Y-94948334D01*
X94649253Y-94930711D01*
X94689023Y-94873266D01*
X94716596Y-94856400D01*
X95036240Y-94714336D01*
X95105494Y-94705098D01*
X95136956Y-94714335D01*
X95456600Y-94856399D01*
X95509867Y-94901615D01*
X95523944Y-94930706D01*
X95529784Y-94948331D01*
X95529786Y-94948334D01*
X95621888Y-95097656D01*
X95745944Y-95221712D01*
X95895266Y-95313814D01*
X96061803Y-95368999D01*
X96164591Y-95379500D01*
X96467919Y-95379499D01*
X96534957Y-95399183D01*
X96580712Y-95451987D01*
X96590656Y-95521146D01*
X96561631Y-95584701D01*
X96557469Y-95589270D01*
X96467855Y-95682833D01*
X96345576Y-95810500D01*
X96317061Y-95840271D01*
X96256473Y-95875070D01*
X96227512Y-95878500D01*
X96164599Y-95878500D01*
X96164580Y-95878501D01*
X96061803Y-95889000D01*
X96061800Y-95889001D01*
X95895268Y-95944185D01*
X95895263Y-95944187D01*
X95745942Y-96036289D01*
X95621889Y-96160342D01*
X95529787Y-96309663D01*
X95529785Y-96309668D01*
X95515409Y-96353052D01*
X95474601Y-96476203D01*
X95474601Y-96476204D01*
X95474600Y-96476204D01*
X95464100Y-96578983D01*
X95464100Y-98679001D01*
X95464101Y-98679018D01*
X95474600Y-98781796D01*
X95474601Y-98781799D01*
X95522783Y-98927200D01*
X95529786Y-98948334D01*
X95621888Y-99097656D01*
X95745944Y-99221712D01*
X95895266Y-99313814D01*
X96061803Y-99368999D01*
X96164591Y-99379500D01*
X97564608Y-99379499D01*
X97667397Y-99368999D01*
X97833934Y-99313814D01*
X97983256Y-99221712D01*
X98107312Y-99097656D01*
X98199414Y-98948334D01*
X98254599Y-98781797D01*
X98265100Y-98679009D01*
X98265099Y-98501176D01*
X98284783Y-98434139D01*
X98337587Y-98388384D01*
X98406745Y-98378440D01*
X98470301Y-98407465D01*
X98494638Y-98436081D01*
X98549888Y-98525656D01*
X98673944Y-98649712D01*
X98823266Y-98741814D01*
X98989803Y-98796999D01*
X99092591Y-98807500D01*
X101192608Y-98807499D01*
X101295397Y-98796999D01*
X101461934Y-98741814D01*
X101611256Y-98649712D01*
X101735312Y-98525656D01*
X101827414Y-98376334D01*
X101882599Y-98209797D01*
X101893100Y-98107009D01*
X101893099Y-96706992D01*
X101882599Y-96604203D01*
X101827414Y-96437666D01*
X101735312Y-96288344D01*
X101611256Y-96164288D01*
X101461934Y-96072186D01*
X101461932Y-96072185D01*
X101461930Y-96072184D01*
X101461931Y-96072184D01*
X101444306Y-96066344D01*
X101386862Y-96026571D01*
X101369999Y-95999000D01*
X101345638Y-95944187D01*
X101227936Y-95679358D01*
X101218698Y-95610104D01*
X101227935Y-95578642D01*
X101369999Y-95258998D01*
X101415215Y-95205732D01*
X101444310Y-95191653D01*
X101461934Y-95185814D01*
X101611256Y-95093712D01*
X101735312Y-94969656D01*
X101827414Y-94820334D01*
X101882599Y-94653797D01*
X101893100Y-94551009D01*
X101893099Y-93150992D01*
X101893098Y-93150983D01*
X102392100Y-93150983D01*
X102392100Y-94551001D01*
X102392101Y-94551018D01*
X102402600Y-94653796D01*
X102402601Y-94653799D01*
X102444054Y-94778894D01*
X102446934Y-94789002D01*
X102468545Y-94879186D01*
X102599142Y-95424186D01*
X102607086Y-95457335D01*
X102610500Y-95486231D01*
X102610500Y-95489541D01*
X102610500Y-95489543D01*
X102610499Y-95489543D01*
X102648947Y-95682829D01*
X102648950Y-95682839D01*
X102724364Y-95864907D01*
X102724371Y-95864920D01*
X102833860Y-96028781D01*
X102833863Y-96028785D01*
X102973214Y-96168136D01*
X102973218Y-96168139D01*
X103137079Y-96277628D01*
X103137092Y-96277635D01*
X103319160Y-96353049D01*
X103319165Y-96353051D01*
X103319169Y-96353051D01*
X103319170Y-96353052D01*
X103512456Y-96391500D01*
X103512459Y-96391500D01*
X103709543Y-96391500D01*
X103839582Y-96365632D01*
X103902835Y-96353051D01*
X103944547Y-96335772D01*
X104014014Y-96328303D01*
X104039447Y-96335770D01*
X104081165Y-96353051D01*
X104081169Y-96353051D01*
X104081170Y-96353052D01*
X104274456Y-96391500D01*
X104274459Y-96391500D01*
X104471543Y-96391500D01*
X104536678Y-96378543D01*
X167634499Y-96378543D01*
X167672947Y-96571829D01*
X167672950Y-96571839D01*
X167748364Y-96753907D01*
X167748371Y-96753920D01*
X167857860Y-96917781D01*
X167857863Y-96917785D01*
X167997214Y-97057136D01*
X167997218Y-97057139D01*
X168161079Y-97166628D01*
X168161092Y-97166635D01*
X168343160Y-97242049D01*
X168343165Y-97242051D01*
X168343169Y-97242051D01*
X168343170Y-97242052D01*
X168536456Y-97280500D01*
X168536459Y-97280500D01*
X168733542Y-97280500D01*
X168754453Y-97276340D01*
X168839277Y-97259467D01*
X168908867Y-97265694D01*
X168964045Y-97308556D01*
X168968999Y-97315975D01*
X168979288Y-97332656D01*
X169103344Y-97456712D01*
X169252666Y-97548814D01*
X169419203Y-97603999D01*
X169521991Y-97614500D01*
X171622008Y-97614499D01*
X171724797Y-97603999D01*
X171891334Y-97548814D01*
X172040656Y-97456712D01*
X172164712Y-97332656D01*
X172256814Y-97183334D01*
X172311999Y-97016797D01*
X172322500Y-96914009D01*
X172322499Y-95513992D01*
X172322498Y-95513983D01*
X172821500Y-95513983D01*
X172821500Y-96914001D01*
X172821501Y-96914018D01*
X172832000Y-97016796D01*
X172832001Y-97016799D01*
X172861161Y-97104797D01*
X172887186Y-97183334D01*
X172979288Y-97332656D01*
X173103344Y-97456712D01*
X173252666Y-97548814D01*
X173270288Y-97554653D01*
X173327733Y-97594425D01*
X173344598Y-97621998D01*
X173477772Y-97921638D01*
X173487011Y-97990894D01*
X173477772Y-98022360D01*
X173344598Y-98322001D01*
X173299382Y-98375268D01*
X173270291Y-98389345D01*
X173252668Y-98395184D01*
X173103342Y-98487289D01*
X172979289Y-98611342D01*
X172887187Y-98760663D01*
X172887185Y-98760668D01*
X172880184Y-98781796D01*
X172832001Y-98927203D01*
X172832001Y-98927204D01*
X172832000Y-98927204D01*
X172821500Y-99029983D01*
X172821500Y-100430001D01*
X172821501Y-100430018D01*
X172832000Y-100532796D01*
X172832001Y-100532799D01*
X172882497Y-100685185D01*
X172887186Y-100699334D01*
X172979288Y-100848656D01*
X173103344Y-100972712D01*
X173252666Y-101064814D01*
X173419203Y-101119999D01*
X173521991Y-101130500D01*
X175622008Y-101130499D01*
X175724797Y-101119999D01*
X175891334Y-101064814D01*
X176040656Y-100972712D01*
X176164712Y-100848656D01*
X176256814Y-100699334D01*
X176311999Y-100532797D01*
X176322500Y-100430009D01*
X176322499Y-99029992D01*
X176311999Y-98927203D01*
X176256814Y-98760666D01*
X176164712Y-98611344D01*
X176040656Y-98487288D01*
X175891334Y-98395186D01*
X175891332Y-98395185D01*
X175891330Y-98395184D01*
X175891331Y-98395184D01*
X175873706Y-98389344D01*
X175816262Y-98349571D01*
X175799399Y-98322000D01*
X175666225Y-98022358D01*
X175656987Y-97953104D01*
X175666224Y-97921642D01*
X175799399Y-97621998D01*
X175844615Y-97568732D01*
X175873710Y-97554653D01*
X175891334Y-97548814D01*
X176040656Y-97456712D01*
X176164712Y-97332656D01*
X176256814Y-97183334D01*
X176261715Y-97168545D01*
X176301482Y-97111104D01*
X176365997Y-97084279D01*
X176434774Y-97096591D01*
X176485975Y-97144132D01*
X176497125Y-97168545D01*
X176516003Y-97225516D01*
X176531186Y-97271333D01*
X176531187Y-97271336D01*
X176558728Y-97315987D01*
X176623288Y-97420656D01*
X176747344Y-97544712D01*
X176896666Y-97636814D01*
X177063203Y-97691999D01*
X177165991Y-97702500D01*
X178566008Y-97702499D01*
X178575563Y-97701523D01*
X178583895Y-97700671D01*
X178668797Y-97691999D01*
X178835334Y-97636814D01*
X178984656Y-97544712D01*
X179108712Y-97420656D01*
X179200814Y-97271334D01*
X179255999Y-97104797D01*
X179266500Y-97002009D01*
X179266499Y-96700781D01*
X179286183Y-96633744D01*
X179338987Y-96587989D01*
X179408146Y-96578045D01*
X179471701Y-96607070D01*
X179478180Y-96613102D01*
X179594215Y-96729137D01*
X179594219Y-96729140D01*
X179758079Y-96838628D01*
X179758085Y-96838631D01*
X179758086Y-96838632D01*
X179940165Y-96914052D01*
X179952298Y-96916465D01*
X179964989Y-96918990D01*
X179987738Y-96930889D01*
X180012057Y-96939127D01*
X180018186Y-96946816D01*
X180026900Y-96951374D01*
X180039604Y-96973685D01*
X180055609Y-96993762D01*
X180059176Y-97008055D01*
X180061474Y-97012090D01*
X180064156Y-97028005D01*
X180072513Y-97109812D01*
X180059743Y-97178505D01*
X180018046Y-97225516D01*
X179935218Y-97280860D01*
X179935214Y-97280863D01*
X179795863Y-97420214D01*
X179795860Y-97420218D01*
X179686371Y-97584079D01*
X179686364Y-97584092D01*
X179610950Y-97766160D01*
X179610947Y-97766170D01*
X179572500Y-97959456D01*
X179572500Y-97959459D01*
X179572500Y-98036216D01*
X179571654Y-98043885D01*
X179572500Y-98053648D01*
X179572500Y-99161541D01*
X179578743Y-99192924D01*
X179610949Y-99354836D01*
X179616816Y-99368999D01*
X179620860Y-99378762D01*
X179620861Y-99378766D01*
X179686364Y-99536906D01*
X179686371Y-99536919D01*
X179795860Y-99700782D01*
X179939537Y-99844459D01*
X179939559Y-99844479D01*
X179955255Y-99860175D01*
X179988330Y-99919678D01*
X180011178Y-100017591D01*
X180056548Y-100212027D01*
X180058256Y-100219344D01*
X180061500Y-100247522D01*
X180061500Y-101002001D01*
X180061501Y-101002019D01*
X180072000Y-101104796D01*
X180072001Y-101104799D01*
X180127185Y-101271331D01*
X180127187Y-101271336D01*
X180145544Y-101301098D01*
X180219288Y-101420656D01*
X180343344Y-101544712D01*
X180492666Y-101636814D01*
X180659203Y-101691999D01*
X180761991Y-101702500D01*
X182162008Y-101702499D01*
X182264797Y-101691999D01*
X182431334Y-101636814D01*
X182580656Y-101544712D01*
X182704712Y-101420656D01*
X182796814Y-101271334D01*
X182851999Y-101104797D01*
X182862500Y-101002009D01*
X182862499Y-98901992D01*
X182860533Y-98882750D01*
X182851999Y-98799203D01*
X182851998Y-98799200D01*
X182846231Y-98781796D01*
X182796814Y-98632666D01*
X182704712Y-98483344D01*
X182580656Y-98359288D01*
X182431334Y-98267186D01*
X182431332Y-98267185D01*
X182431330Y-98267184D01*
X182431331Y-98267184D01*
X182406823Y-98259063D01*
X182349379Y-98219290D01*
X182342727Y-98210248D01*
X182239142Y-98055222D01*
X182239136Y-98055214D01*
X182096685Y-97912763D01*
X182096656Y-97912736D01*
X182096482Y-97912562D01*
X182062997Y-97851239D01*
X182067981Y-97781547D01*
X182109853Y-97725614D01*
X182171562Y-97701523D01*
X182264797Y-97691999D01*
X182431334Y-97636814D01*
X182580656Y-97544712D01*
X182704712Y-97420656D01*
X182796814Y-97271334D01*
X182851999Y-97104797D01*
X182862500Y-97002009D01*
X182862499Y-94901992D01*
X182862460Y-94901615D01*
X182851999Y-94799203D01*
X182851998Y-94799200D01*
X182844475Y-94776498D01*
X182796814Y-94632666D01*
X182704712Y-94483344D01*
X182580656Y-94359288D01*
X182431334Y-94267186D01*
X182264797Y-94212001D01*
X182264795Y-94212000D01*
X182162010Y-94201500D01*
X180761998Y-94201500D01*
X180761981Y-94201501D01*
X180659203Y-94212000D01*
X180659200Y-94212001D01*
X180492668Y-94267185D01*
X180492663Y-94267187D01*
X180343345Y-94359287D01*
X180286457Y-94416175D01*
X180278509Y-94420514D01*
X180273084Y-94427762D01*
X180248323Y-94436996D01*
X180225133Y-94449659D01*
X180216103Y-94449013D01*
X180207620Y-94452177D01*
X180181797Y-94446559D01*
X180155442Y-94444674D01*
X180146388Y-94438855D01*
X180139347Y-94437324D01*
X180111095Y-94416174D01*
X180085817Y-94390896D01*
X180052333Y-94329572D01*
X180049500Y-94303216D01*
X180049500Y-94047926D01*
X180069185Y-93980887D01*
X180121989Y-93935132D01*
X180125997Y-93933386D01*
X180156298Y-93920835D01*
X180279914Y-93869632D01*
X180443782Y-93760139D01*
X180583139Y-93620782D01*
X180583140Y-93620780D01*
X180588138Y-93615782D01*
X180602747Y-93593919D01*
X180697631Y-93451914D01*
X180773051Y-93269836D01*
X180811500Y-93076540D01*
X180811500Y-92879460D01*
X180811500Y-92879457D01*
X180811499Y-92879455D01*
X180792273Y-92782799D01*
X180773051Y-92686164D01*
X180697631Y-92504086D01*
X180697629Y-92504083D01*
X180697627Y-92504079D01*
X180588139Y-92340219D01*
X180588136Y-92340215D01*
X180448784Y-92200863D01*
X180448780Y-92200860D01*
X180284920Y-92091372D01*
X180284910Y-92091367D01*
X180102836Y-92015949D01*
X180102828Y-92015947D01*
X179909543Y-91977500D01*
X179909540Y-91977500D01*
X179712460Y-91977500D01*
X179712459Y-91977500D01*
X179699303Y-91980117D01*
X179675111Y-91982500D01*
X178950457Y-91982500D01*
X178757170Y-92020947D01*
X178757160Y-92020950D01*
X178575092Y-92096364D01*
X178575079Y-92096371D01*
X178411218Y-92205860D01*
X178411214Y-92205863D01*
X178271863Y-92345214D01*
X178271860Y-92345218D01*
X178162371Y-92509079D01*
X178162364Y-92509092D01*
X178086950Y-92691160D01*
X178086947Y-92691170D01*
X178048500Y-92884456D01*
X178048500Y-93870275D01*
X178028815Y-93937314D01*
X177978044Y-93982119D01*
X177663859Y-94132532D01*
X177594892Y-94143725D01*
X177530821Y-94115855D01*
X177491990Y-94057770D01*
X177488698Y-94044879D01*
X177476254Y-93982321D01*
X177471051Y-93956165D01*
X177467830Y-93948389D01*
X177395633Y-93774088D01*
X177386313Y-93760140D01*
X177364823Y-93727977D01*
X177343945Y-93661299D01*
X177362430Y-93593919D01*
X177399031Y-93555986D01*
X177474319Y-93505681D01*
X177585819Y-93394181D01*
X177673424Y-93263071D01*
X177677799Y-93252510D01*
X177719848Y-93150992D01*
X177733767Y-93117389D01*
X177764530Y-92962734D01*
X177764530Y-92805050D01*
X177764530Y-92805047D01*
X177764529Y-92805045D01*
X177750067Y-92732342D01*
X177733767Y-92650395D01*
X177733765Y-92650390D01*
X177673427Y-92504719D01*
X177673420Y-92504706D01*
X177585819Y-92373603D01*
X177585816Y-92373599D01*
X177511072Y-92298855D01*
X177477587Y-92237532D01*
X177477160Y-92235486D01*
X177229406Y-90996403D01*
X177226999Y-90972091D01*
X177226999Y-89729998D01*
X177226998Y-89729981D01*
X177216499Y-89627203D01*
X177216498Y-89627200D01*
X177196524Y-89566924D01*
X177161314Y-89460666D01*
X177069212Y-89311344D01*
X176945156Y-89187288D01*
X176831779Y-89117357D01*
X176795836Y-89095187D01*
X176795831Y-89095185D01*
X176794362Y-89094698D01*
X176629297Y-89040001D01*
X176629295Y-89040000D01*
X176526510Y-89029500D01*
X175701498Y-89029500D01*
X175701480Y-89029501D01*
X175598703Y-89040000D01*
X175598700Y-89040001D01*
X175432168Y-89095185D01*
X175432163Y-89095187D01*
X175282842Y-89187289D01*
X175158789Y-89311342D01*
X175066687Y-89460663D01*
X175066685Y-89460668D01*
X175060109Y-89480513D01*
X175011501Y-89627203D01*
X175011501Y-89627204D01*
X175011500Y-89627204D01*
X175001000Y-89729983D01*
X175001000Y-92680001D01*
X175001001Y-92680018D01*
X175011500Y-92782796D01*
X175011501Y-92782799D01*
X175065416Y-92945501D01*
X175067818Y-93015329D01*
X175035392Y-93072185D01*
X174969862Y-93137716D01*
X174969858Y-93137721D01*
X174860371Y-93301579D01*
X174860364Y-93301592D01*
X174784950Y-93483660D01*
X174784947Y-93483670D01*
X174746500Y-93676956D01*
X174746500Y-94193197D01*
X174726815Y-94260236D01*
X174692714Y-94295403D01*
X173970283Y-94791706D01*
X173903880Y-94813441D01*
X173900069Y-94813500D01*
X173521998Y-94813500D01*
X173521980Y-94813501D01*
X173419203Y-94824000D01*
X173419200Y-94824001D01*
X173252668Y-94879185D01*
X173252663Y-94879187D01*
X173103342Y-94971289D01*
X172979289Y-95095342D01*
X172887187Y-95244663D01*
X172887185Y-95244668D01*
X172875763Y-95279139D01*
X172832001Y-95411203D01*
X172832001Y-95411204D01*
X172832000Y-95411204D01*
X172821500Y-95513983D01*
X172322498Y-95513983D01*
X172316711Y-95457335D01*
X172311999Y-95411203D01*
X172311998Y-95411200D01*
X172304699Y-95389172D01*
X172256814Y-95244666D01*
X172164712Y-95095344D01*
X172040656Y-94971288D01*
X171928291Y-94901981D01*
X171891336Y-94879187D01*
X171891331Y-94879185D01*
X171889765Y-94878666D01*
X171724797Y-94824001D01*
X171724795Y-94824000D01*
X171622016Y-94813500D01*
X171622009Y-94813500D01*
X170729172Y-94813500D01*
X170711054Y-94812169D01*
X170685890Y-94808452D01*
X170685884Y-94808451D01*
X169212528Y-94802784D01*
X169160041Y-94790905D01*
X169151743Y-94786985D01*
X169108914Y-94758368D01*
X168967580Y-94699826D01*
X168964791Y-94698670D01*
X168964781Y-94698666D01*
X168926836Y-94682949D01*
X168926828Y-94682947D01*
X168785709Y-94654877D01*
X168733543Y-94644500D01*
X168733541Y-94644500D01*
X168536459Y-94644500D01*
X168536457Y-94644500D01*
X168487443Y-94654249D01*
X168487424Y-94654253D01*
X168484291Y-94654877D01*
X168343164Y-94682949D01*
X168302420Y-94699826D01*
X168294141Y-94703255D01*
X168294134Y-94703257D01*
X168161092Y-94758364D01*
X168161079Y-94758371D01*
X167997218Y-94867860D01*
X167997214Y-94867863D01*
X167857863Y-95007214D01*
X167857860Y-95007218D01*
X167748371Y-95171079D01*
X167748366Y-95171088D01*
X167703611Y-95279139D01*
X167672949Y-95353162D01*
X167672949Y-95353163D01*
X167661404Y-95411204D01*
X167658726Y-95424669D01*
X167634500Y-95546459D01*
X167634500Y-96378541D01*
X167634500Y-96378543D01*
X167634499Y-96378543D01*
X104536678Y-96378543D01*
X104601582Y-96365632D01*
X104664835Y-96353051D01*
X104846914Y-96277632D01*
X105010782Y-96168139D01*
X105150139Y-96028782D01*
X105259632Y-95864914D01*
X105335051Y-95682835D01*
X105361144Y-95551653D01*
X105371078Y-95521971D01*
X105547806Y-95155761D01*
X105594388Y-95104115D01*
X105611256Y-95093712D01*
X105735312Y-94969656D01*
X105759061Y-94931153D01*
X125194491Y-94931153D01*
X125194491Y-95088846D01*
X125225252Y-95243489D01*
X125225255Y-95243501D01*
X125285593Y-95389172D01*
X125285600Y-95389185D01*
X125373201Y-95520288D01*
X125373204Y-95520292D01*
X125484698Y-95631786D01*
X125484702Y-95631789D01*
X125615805Y-95719390D01*
X125615818Y-95719397D01*
X125654502Y-95735420D01*
X125761494Y-95779737D01*
X125916144Y-95810499D01*
X125916147Y-95810500D01*
X125916149Y-95810500D01*
X126073835Y-95810500D01*
X126073836Y-95810499D01*
X126228488Y-95779737D01*
X126347541Y-95730423D01*
X126417008Y-95722955D01*
X126442441Y-95730422D01*
X126561497Y-95779737D01*
X126716147Y-95810499D01*
X126716150Y-95810500D01*
X126716152Y-95810500D01*
X126873838Y-95810500D01*
X126873839Y-95810499D01*
X127028491Y-95779737D01*
X127147544Y-95730423D01*
X127217011Y-95722955D01*
X127242444Y-95730422D01*
X127361500Y-95779737D01*
X127516150Y-95810499D01*
X127516153Y-95810500D01*
X127516155Y-95810500D01*
X127673841Y-95810500D01*
X127673842Y-95810499D01*
X127828494Y-95779737D01*
X127947547Y-95730423D01*
X128017014Y-95722955D01*
X128042447Y-95730422D01*
X128161503Y-95779737D01*
X128316153Y-95810499D01*
X128316156Y-95810500D01*
X128316158Y-95810500D01*
X128473844Y-95810500D01*
X128473845Y-95810499D01*
X128628497Y-95779737D01*
X128747548Y-95730425D01*
X128817017Y-95722956D01*
X128842453Y-95730425D01*
X128961503Y-95779737D01*
X129116153Y-95810499D01*
X129116156Y-95810500D01*
X129116158Y-95810500D01*
X129273844Y-95810500D01*
X129273845Y-95810499D01*
X129428497Y-95779737D01*
X129547548Y-95730425D01*
X129617017Y-95722956D01*
X129642453Y-95730425D01*
X129761503Y-95779737D01*
X129916153Y-95810499D01*
X129916156Y-95810500D01*
X129916158Y-95810500D01*
X130073844Y-95810500D01*
X130073845Y-95810499D01*
X130228497Y-95779737D01*
X130347548Y-95730425D01*
X130417017Y-95722956D01*
X130442453Y-95730425D01*
X130561503Y-95779737D01*
X130716153Y-95810499D01*
X130716156Y-95810500D01*
X130716158Y-95810500D01*
X130873844Y-95810500D01*
X130873845Y-95810499D01*
X131028497Y-95779737D01*
X131174179Y-95719394D01*
X131305289Y-95631789D01*
X131416789Y-95520289D01*
X131439546Y-95486231D01*
X131449405Y-95471476D01*
X131504390Y-95389185D01*
X131504390Y-95389184D01*
X131504394Y-95389179D01*
X131564737Y-95243497D01*
X131595500Y-95088842D01*
X131595500Y-94931158D01*
X131595500Y-94931155D01*
X131595499Y-94931153D01*
X131585162Y-94879185D01*
X131564737Y-94776503D01*
X131538987Y-94714337D01*
X131504397Y-94630827D01*
X131504390Y-94630814D01*
X131416789Y-94499711D01*
X131416786Y-94499707D01*
X131305292Y-94388213D01*
X131305288Y-94388210D01*
X131174185Y-94300609D01*
X131174172Y-94300602D01*
X131028501Y-94240264D01*
X131028489Y-94240261D01*
X130873845Y-94209500D01*
X130873842Y-94209500D01*
X130716158Y-94209500D01*
X130716155Y-94209500D01*
X130561510Y-94240261D01*
X130561498Y-94240264D01*
X130442452Y-94289574D01*
X130372982Y-94297043D01*
X130347548Y-94289574D01*
X130228501Y-94240264D01*
X130228489Y-94240261D01*
X130073845Y-94209500D01*
X130073842Y-94209500D01*
X129916158Y-94209500D01*
X129916155Y-94209500D01*
X129761510Y-94240261D01*
X129761498Y-94240264D01*
X129642452Y-94289574D01*
X129572982Y-94297043D01*
X129547548Y-94289574D01*
X129428501Y-94240264D01*
X129428489Y-94240261D01*
X129273845Y-94209500D01*
X129273842Y-94209500D01*
X129116158Y-94209500D01*
X129116155Y-94209500D01*
X128961510Y-94240261D01*
X128961498Y-94240264D01*
X128842452Y-94289574D01*
X128772982Y-94297043D01*
X128747548Y-94289574D01*
X128628501Y-94240264D01*
X128628489Y-94240261D01*
X128473845Y-94209500D01*
X128473842Y-94209500D01*
X128316158Y-94209500D01*
X128316155Y-94209500D01*
X128161510Y-94240261D01*
X128161498Y-94240264D01*
X128042450Y-94289575D01*
X127972980Y-94297044D01*
X127947546Y-94289575D01*
X127828498Y-94240264D01*
X127828486Y-94240261D01*
X127673842Y-94209500D01*
X127673839Y-94209500D01*
X127516155Y-94209500D01*
X127516152Y-94209500D01*
X127361507Y-94240261D01*
X127361495Y-94240264D01*
X127242447Y-94289575D01*
X127172977Y-94297044D01*
X127147543Y-94289575D01*
X127028495Y-94240264D01*
X127028483Y-94240261D01*
X126873839Y-94209500D01*
X126873836Y-94209500D01*
X126716152Y-94209500D01*
X126716149Y-94209500D01*
X126561504Y-94240261D01*
X126561492Y-94240264D01*
X126442444Y-94289575D01*
X126372974Y-94297044D01*
X126347540Y-94289575D01*
X126228492Y-94240264D01*
X126228480Y-94240261D01*
X126073836Y-94209500D01*
X126073833Y-94209500D01*
X125916149Y-94209500D01*
X125916146Y-94209500D01*
X125761501Y-94240261D01*
X125761489Y-94240264D01*
X125615818Y-94300602D01*
X125615805Y-94300609D01*
X125484702Y-94388210D01*
X125484698Y-94388213D01*
X125373204Y-94499707D01*
X125373201Y-94499711D01*
X125285600Y-94630814D01*
X125285593Y-94630827D01*
X125225255Y-94776498D01*
X125225252Y-94776510D01*
X125194491Y-94931153D01*
X105759061Y-94931153D01*
X105827414Y-94820334D01*
X105882599Y-94653797D01*
X105893100Y-94551009D01*
X105893099Y-93661153D01*
X132782500Y-93661153D01*
X132782500Y-93818846D01*
X132813261Y-93973489D01*
X132813264Y-93973501D01*
X132873602Y-94119172D01*
X132873609Y-94119185D01*
X132961210Y-94250288D01*
X132961213Y-94250292D01*
X133072707Y-94361786D01*
X133072711Y-94361789D01*
X133203814Y-94449390D01*
X133203827Y-94449397D01*
X133285779Y-94483342D01*
X133349503Y-94509737D01*
X133504153Y-94540499D01*
X133504156Y-94540500D01*
X133504158Y-94540500D01*
X133661844Y-94540500D01*
X133661845Y-94540499D01*
X133816497Y-94509737D01*
X133962179Y-94449394D01*
X134093289Y-94361789D01*
X134204789Y-94250289D01*
X134292394Y-94119179D01*
X134352737Y-93973497D01*
X134383500Y-93818842D01*
X134383500Y-93661158D01*
X134383500Y-93661155D01*
X134383499Y-93661153D01*
X134352738Y-93506510D01*
X134352737Y-93506503D01*
X134330124Y-93451910D01*
X134311585Y-93407153D01*
X170196506Y-93407153D01*
X170196506Y-93564846D01*
X170227267Y-93719489D01*
X170227270Y-93719501D01*
X170287608Y-93865172D01*
X170287615Y-93865185D01*
X170375216Y-93996288D01*
X170375219Y-93996292D01*
X170486713Y-94107786D01*
X170486717Y-94107789D01*
X170617820Y-94195390D01*
X170617833Y-94195397D01*
X170763504Y-94255735D01*
X170763509Y-94255737D01*
X170918159Y-94286499D01*
X170918162Y-94286500D01*
X170918164Y-94286500D01*
X171075850Y-94286500D01*
X171075851Y-94286499D01*
X171230503Y-94255737D01*
X171336092Y-94212001D01*
X171349554Y-94206425D01*
X171419023Y-94198956D01*
X171444458Y-94206425D01*
X171563504Y-94255735D01*
X171563509Y-94255737D01*
X171718159Y-94286499D01*
X171718162Y-94286500D01*
X171718164Y-94286500D01*
X171875850Y-94286500D01*
X171875851Y-94286499D01*
X172030503Y-94255737D01*
X172176185Y-94195394D01*
X172306113Y-94108578D01*
X172372789Y-94087701D01*
X172440169Y-94106185D01*
X172443876Y-94108567D01*
X172573821Y-94195394D01*
X172573823Y-94195395D01*
X172573827Y-94195397D01*
X172719498Y-94255735D01*
X172719503Y-94255737D01*
X172874153Y-94286499D01*
X172874156Y-94286500D01*
X172874158Y-94286500D01*
X173031844Y-94286500D01*
X173031845Y-94286499D01*
X173186497Y-94255737D01*
X173332179Y-94195394D01*
X173463289Y-94107789D01*
X173574789Y-93996289D01*
X173662394Y-93865179D01*
X173722737Y-93719497D01*
X173753500Y-93564842D01*
X173753500Y-93407158D01*
X173753500Y-93407155D01*
X173753499Y-93407153D01*
X173748098Y-93379999D01*
X173722737Y-93252503D01*
X173680690Y-93150991D01*
X173662397Y-93106827D01*
X173662390Y-93106814D01*
X173574789Y-92975711D01*
X173574786Y-92975707D01*
X173463292Y-92864213D01*
X173463288Y-92864210D01*
X173332185Y-92776609D01*
X173332172Y-92776602D01*
X173186501Y-92716264D01*
X173186489Y-92716261D01*
X173031845Y-92685500D01*
X173031842Y-92685500D01*
X172874158Y-92685500D01*
X172874155Y-92685500D01*
X172719510Y-92716261D01*
X172719498Y-92716264D01*
X172573827Y-92776602D01*
X172573814Y-92776609D01*
X172443894Y-92863420D01*
X172377216Y-92884298D01*
X172309836Y-92865813D01*
X172306112Y-92863420D01*
X172176191Y-92776609D01*
X172176178Y-92776602D01*
X172030507Y-92716264D01*
X172030495Y-92716261D01*
X171875851Y-92685500D01*
X171875848Y-92685500D01*
X171718164Y-92685500D01*
X171718161Y-92685500D01*
X171563516Y-92716261D01*
X171563504Y-92716264D01*
X171472952Y-92753772D01*
X171403483Y-92761241D01*
X171341004Y-92729965D01*
X171305352Y-92669876D01*
X171301500Y-92639211D01*
X171301500Y-91455000D01*
X170439000Y-91455000D01*
X170439000Y-92860565D01*
X170419315Y-92927604D01*
X170402681Y-92948246D01*
X170375219Y-92975707D01*
X170375216Y-92975711D01*
X170287615Y-93106814D01*
X170287608Y-93106827D01*
X170227270Y-93252498D01*
X170227267Y-93252510D01*
X170196506Y-93407153D01*
X134311585Y-93407153D01*
X134292397Y-93360827D01*
X134292390Y-93360814D01*
X134204789Y-93229711D01*
X134204786Y-93229707D01*
X134093292Y-93118213D01*
X134093288Y-93118210D01*
X133962185Y-93030609D01*
X133962172Y-93030602D01*
X133816501Y-92970264D01*
X133816489Y-92970261D01*
X133661845Y-92939500D01*
X133661842Y-92939500D01*
X133504158Y-92939500D01*
X133504155Y-92939500D01*
X133349510Y-92970261D01*
X133349498Y-92970264D01*
X133203827Y-93030602D01*
X133203814Y-93030609D01*
X133072711Y-93118210D01*
X133072707Y-93118213D01*
X132961213Y-93229707D01*
X132961210Y-93229711D01*
X132873609Y-93360814D01*
X132873602Y-93360827D01*
X132813264Y-93506498D01*
X132813261Y-93506510D01*
X132782500Y-93661153D01*
X105893099Y-93661153D01*
X105893099Y-93150992D01*
X105889666Y-93117389D01*
X105882599Y-93048203D01*
X105882598Y-93048200D01*
X105872128Y-93016605D01*
X105827414Y-92881666D01*
X105735312Y-92732344D01*
X105611256Y-92608288D01*
X105461934Y-92516186D01*
X105295397Y-92461001D01*
X105295395Y-92461000D01*
X105192610Y-92450500D01*
X103092598Y-92450500D01*
X103092581Y-92450501D01*
X102989803Y-92461000D01*
X102989800Y-92461001D01*
X102823268Y-92516185D01*
X102823263Y-92516187D01*
X102673942Y-92608289D01*
X102549889Y-92732342D01*
X102457787Y-92881663D01*
X102457785Y-92881668D01*
X102435363Y-92949334D01*
X102402601Y-93048203D01*
X102402601Y-93048204D01*
X102402600Y-93048204D01*
X102392100Y-93150983D01*
X101893098Y-93150983D01*
X101891743Y-93137721D01*
X101882599Y-93048203D01*
X101882598Y-93048200D01*
X101872128Y-93016605D01*
X101827414Y-92881666D01*
X101735312Y-92732344D01*
X101611256Y-92608288D01*
X101461934Y-92516186D01*
X101295397Y-92461001D01*
X101295395Y-92461000D01*
X101192616Y-92450500D01*
X101192609Y-92450500D01*
X100783856Y-92450500D01*
X100716817Y-92430815D01*
X100709876Y-92426013D01*
X99755456Y-91716478D01*
X99713399Y-91660684D01*
X99708183Y-91591010D01*
X99714876Y-91569511D01*
X99723990Y-91547510D01*
X99747051Y-91491836D01*
X99785500Y-91298540D01*
X99785500Y-91101460D01*
X99785500Y-91101457D01*
X99785499Y-91101455D01*
X99777121Y-91059334D01*
X99747051Y-90908164D01*
X99691626Y-90774358D01*
X99671632Y-90726087D01*
X99618586Y-90646698D01*
X99597709Y-90580021D01*
X99616149Y-90512713D01*
X99679914Y-90409334D01*
X99735099Y-90242797D01*
X99745600Y-90140009D01*
X99745600Y-90139986D01*
X103445101Y-90139986D01*
X103455594Y-90242697D01*
X103510741Y-90409119D01*
X103510743Y-90409124D01*
X103602784Y-90558345D01*
X103726754Y-90682315D01*
X103875975Y-90774356D01*
X103875980Y-90774358D01*
X104042402Y-90829505D01*
X104042409Y-90829506D01*
X104145119Y-90839999D01*
X104307599Y-90839999D01*
X104807600Y-90839999D01*
X104970072Y-90839999D01*
X104970086Y-90839998D01*
X105072797Y-90829505D01*
X105239219Y-90774358D01*
X105239224Y-90774356D01*
X105388445Y-90682315D01*
X105512415Y-90558345D01*
X105604456Y-90409124D01*
X105604458Y-90409119D01*
X105659605Y-90242697D01*
X105659606Y-90242690D01*
X105670099Y-90139985D01*
X105670099Y-90090146D01*
X105689782Y-90023107D01*
X105742585Y-89977351D01*
X105811744Y-89967406D01*
X105818112Y-89968495D01*
X105818156Y-89968500D01*
X105818158Y-89968500D01*
X105975844Y-89968500D01*
X105975845Y-89968499D01*
X106130497Y-89937737D01*
X106276179Y-89877394D01*
X106407289Y-89789789D01*
X106518789Y-89678289D01*
X106606394Y-89547179D01*
X106666737Y-89401497D01*
X106697500Y-89246842D01*
X106697500Y-89089158D01*
X106697500Y-89089155D01*
X106697499Y-89089153D01*
X106677220Y-88987204D01*
X106666737Y-88934503D01*
X106637384Y-88863638D01*
X106606397Y-88788827D01*
X106606390Y-88788814D01*
X106518789Y-88657711D01*
X106518786Y-88657707D01*
X106407292Y-88546213D01*
X106407288Y-88546210D01*
X106276185Y-88458609D01*
X106276172Y-88458602D01*
X106220703Y-88435627D01*
X106130501Y-88398264D01*
X106130489Y-88398261D01*
X105975845Y-88367500D01*
X105975842Y-88367500D01*
X105818158Y-88367500D01*
X105818157Y-88367500D01*
X105812095Y-88368097D01*
X105811978Y-88366909D01*
X105748694Y-88361244D01*
X105704812Y-88327153D01*
X111954500Y-88327153D01*
X111954500Y-88484846D01*
X111985261Y-88639489D01*
X111985264Y-88639501D01*
X112045602Y-88785172D01*
X112045609Y-88785185D01*
X112133210Y-88916288D01*
X112133213Y-88916292D01*
X112244707Y-89027786D01*
X112244711Y-89027789D01*
X112375814Y-89115390D01*
X112375827Y-89115397D01*
X112521498Y-89175735D01*
X112521503Y-89175737D01*
X112671568Y-89205587D01*
X112676153Y-89206499D01*
X112676156Y-89206500D01*
X112676158Y-89206500D01*
X112833836Y-89206500D01*
X112833842Y-89206500D01*
X112838439Y-89205585D01*
X112861282Y-89203209D01*
X112865483Y-89203163D01*
X112865495Y-89203164D01*
X112865506Y-89203163D01*
X112865510Y-89203163D01*
X113014210Y-89190883D01*
X113380099Y-89160671D01*
X113390754Y-89159436D01*
X113408997Y-89157324D01*
X113423264Y-89156500D01*
X114637672Y-89156500D01*
X114665355Y-89159630D01*
X114667376Y-89160092D01*
X114669901Y-89160671D01*
X114669909Y-89160671D01*
X114669911Y-89160672D01*
X115184466Y-89203161D01*
X115184471Y-89203161D01*
X115184504Y-89203164D01*
X115196982Y-89203890D01*
X115213959Y-89206062D01*
X115216158Y-89206500D01*
X115216159Y-89206500D01*
X115373844Y-89206500D01*
X115373845Y-89206499D01*
X115528497Y-89175737D01*
X115674179Y-89115394D01*
X115805289Y-89027789D01*
X115916789Y-88916289D01*
X116004394Y-88785179D01*
X116064737Y-88639497D01*
X116095500Y-88484842D01*
X116095500Y-88327158D01*
X116095500Y-88327155D01*
X116095499Y-88327153D01*
X116090098Y-88299999D01*
X116064737Y-88172503D01*
X116052397Y-88142712D01*
X116004397Y-88026827D01*
X116004389Y-88026813D01*
X115999339Y-88019254D01*
X115957376Y-87956453D01*
X121550259Y-87956453D01*
X121550259Y-88114146D01*
X121581020Y-88268789D01*
X121581023Y-88268801D01*
X121641361Y-88414471D01*
X121641368Y-88414484D01*
X121670032Y-88457382D01*
X121690910Y-88524059D01*
X121681491Y-88573725D01*
X121637264Y-88680498D01*
X121637261Y-88680510D01*
X121606500Y-88835153D01*
X121606500Y-88992846D01*
X121637261Y-89147489D01*
X121637264Y-89147501D01*
X121696930Y-89291549D01*
X121704399Y-89361018D01*
X121696930Y-89386453D01*
X121637264Y-89530501D01*
X121637261Y-89530513D01*
X121606500Y-89685156D01*
X121606500Y-89842849D01*
X121637261Y-89997492D01*
X121637264Y-89997504D01*
X121697602Y-90143175D01*
X121697609Y-90143188D01*
X121785210Y-90274291D01*
X121785213Y-90274295D01*
X121896707Y-90385789D01*
X121896711Y-90385792D01*
X122027814Y-90473393D01*
X122027827Y-90473400D01*
X122152849Y-90525185D01*
X122173503Y-90533740D01*
X122328153Y-90564502D01*
X122328156Y-90564503D01*
X122328158Y-90564503D01*
X122485844Y-90564503D01*
X122485845Y-90564502D01*
X122640497Y-90533740D01*
X122786179Y-90473397D01*
X122917289Y-90385792D01*
X122943928Y-90359153D01*
X124400500Y-90359153D01*
X124400500Y-90516846D01*
X124431261Y-90671489D01*
X124431264Y-90671501D01*
X124492379Y-90819048D01*
X124499848Y-90888518D01*
X124492379Y-90913952D01*
X124431264Y-91061498D01*
X124431261Y-91061510D01*
X124400500Y-91216153D01*
X124400500Y-91373846D01*
X124431261Y-91528489D01*
X124431264Y-91528501D01*
X124491602Y-91674172D01*
X124491609Y-91674185D01*
X124579210Y-91805288D01*
X124579213Y-91805292D01*
X124690707Y-91916786D01*
X124690711Y-91916789D01*
X124821814Y-92004390D01*
X124821827Y-92004397D01*
X124957392Y-92060549D01*
X124967503Y-92064737D01*
X125122153Y-92095499D01*
X125122156Y-92095500D01*
X125122158Y-92095500D01*
X125279844Y-92095500D01*
X125279845Y-92095499D01*
X125434497Y-92064737D01*
X125580179Y-92004394D01*
X125711289Y-91916789D01*
X125822789Y-91805289D01*
X125910394Y-91674179D01*
X125970737Y-91528497D01*
X126001500Y-91373842D01*
X126001500Y-91216158D01*
X126001500Y-91216155D01*
X126001499Y-91216153D01*
X125978537Y-91100715D01*
X125970737Y-91061503D01*
X125944686Y-90998609D01*
X125909620Y-90913952D01*
X125902151Y-90844483D01*
X125909620Y-90819048D01*
X125939253Y-90747507D01*
X125970737Y-90671497D01*
X126001500Y-90516842D01*
X126001500Y-90359158D01*
X126001500Y-90359155D01*
X126001499Y-90359153D01*
X125988355Y-90293076D01*
X125970737Y-90204503D01*
X125952907Y-90161457D01*
X125910397Y-90058827D01*
X125910390Y-90058814D01*
X125822789Y-89927711D01*
X125822786Y-89927707D01*
X125711292Y-89816213D01*
X125711288Y-89816210D01*
X125580185Y-89728609D01*
X125580172Y-89728602D01*
X125434501Y-89668264D01*
X125434489Y-89668261D01*
X125279845Y-89637500D01*
X125279842Y-89637500D01*
X125122158Y-89637500D01*
X125122155Y-89637500D01*
X124967510Y-89668261D01*
X124967498Y-89668264D01*
X124821827Y-89728602D01*
X124821814Y-89728609D01*
X124690711Y-89816210D01*
X124690707Y-89816213D01*
X124579213Y-89927707D01*
X124579210Y-89927711D01*
X124491609Y-90058814D01*
X124491602Y-90058827D01*
X124431264Y-90204498D01*
X124431261Y-90204510D01*
X124400500Y-90359153D01*
X122943928Y-90359153D01*
X123028789Y-90274292D01*
X123116394Y-90143182D01*
X123176737Y-89997500D01*
X123207500Y-89842845D01*
X123207500Y-89685161D01*
X123207500Y-89685158D01*
X123207499Y-89685156D01*
X123201513Y-89655062D01*
X123176737Y-89530506D01*
X123157701Y-89484549D01*
X123117069Y-89386453D01*
X123109600Y-89316984D01*
X123117069Y-89291549D01*
X123176737Y-89147497D01*
X123207500Y-88992842D01*
X123207500Y-88835158D01*
X123207500Y-88835155D01*
X123207499Y-88835153D01*
X123198283Y-88788821D01*
X123176737Y-88680503D01*
X123172943Y-88671344D01*
X123116397Y-88534827D01*
X123116390Y-88534814D01*
X123087727Y-88491917D01*
X123066849Y-88425240D01*
X123076268Y-88375573D01*
X123087897Y-88347498D01*
X123120496Y-88268797D01*
X123151259Y-88114142D01*
X123151259Y-88035150D01*
X132782500Y-88035150D01*
X132782500Y-88192843D01*
X132813261Y-88347486D01*
X132813264Y-88347498D01*
X132862575Y-88466546D01*
X132870044Y-88536015D01*
X132862575Y-88561450D01*
X132813264Y-88680498D01*
X132813261Y-88680510D01*
X132782500Y-88835153D01*
X132782500Y-88992846D01*
X132813261Y-89147489D01*
X132813264Y-89147501D01*
X132862575Y-89266549D01*
X132870044Y-89336018D01*
X132862575Y-89361453D01*
X132813264Y-89480501D01*
X132813261Y-89480513D01*
X132782500Y-89635156D01*
X132782500Y-89792849D01*
X132813261Y-89947492D01*
X132813264Y-89947504D01*
X132862575Y-90066552D01*
X132870044Y-90136021D01*
X132862575Y-90161456D01*
X132813264Y-90280504D01*
X132813261Y-90280516D01*
X132782500Y-90435159D01*
X132782500Y-90592852D01*
X132813261Y-90747495D01*
X132813264Y-90747507D01*
X132862575Y-90866555D01*
X132870044Y-90936024D01*
X132862575Y-90961459D01*
X132813264Y-91080507D01*
X132813261Y-91080519D01*
X132782500Y-91235162D01*
X132782500Y-91392855D01*
X132813261Y-91547498D01*
X132813264Y-91547510D01*
X132873602Y-91693181D01*
X132873609Y-91693194D01*
X132961210Y-91824297D01*
X132961213Y-91824301D01*
X133072707Y-91935795D01*
X133072711Y-91935798D01*
X133203814Y-92023399D01*
X133203827Y-92023406D01*
X133303613Y-92064738D01*
X133349503Y-92083746D01*
X133504153Y-92114508D01*
X133504156Y-92114509D01*
X133504158Y-92114509D01*
X133661844Y-92114509D01*
X133661845Y-92114508D01*
X133816497Y-92083746D01*
X133962179Y-92023403D01*
X134093289Y-91935798D01*
X134204789Y-91824298D01*
X134292394Y-91693188D01*
X134318918Y-91629153D01*
X167580500Y-91629153D01*
X167580500Y-91786846D01*
X167611261Y-91941489D01*
X167611264Y-91941501D01*
X167660575Y-92060549D01*
X167668044Y-92130018D01*
X167660575Y-92155453D01*
X167611264Y-92274501D01*
X167611261Y-92274513D01*
X167580500Y-92429156D01*
X167580500Y-92586849D01*
X167611261Y-92741492D01*
X167611264Y-92741504D01*
X167671602Y-92887175D01*
X167671609Y-92887188D01*
X167759210Y-93018291D01*
X167759213Y-93018295D01*
X167870707Y-93129789D01*
X167870711Y-93129792D01*
X168001814Y-93217393D01*
X168001827Y-93217400D01*
X168128421Y-93269836D01*
X168147503Y-93277740D01*
X168302153Y-93308502D01*
X168302156Y-93308503D01*
X168302158Y-93308503D01*
X168459844Y-93308503D01*
X168459845Y-93308502D01*
X168614497Y-93277740D01*
X168760179Y-93217397D01*
X168891289Y-93129792D01*
X169002789Y-93018292D01*
X169002791Y-93018288D01*
X169004475Y-93016605D01*
X169065798Y-92983120D01*
X169135490Y-92988104D01*
X169191424Y-93029975D01*
X169197695Y-93039189D01*
X169234180Y-93098340D01*
X169234183Y-93098344D01*
X169358154Y-93222315D01*
X169507375Y-93314356D01*
X169507380Y-93314358D01*
X169673802Y-93369505D01*
X169673809Y-93369506D01*
X169776519Y-93379999D01*
X169938999Y-93379999D01*
X169939000Y-93379998D01*
X169939000Y-90955000D01*
X170439000Y-90955000D01*
X171301499Y-90955000D01*
X171301499Y-89730028D01*
X171301498Y-89730013D01*
X171291005Y-89627302D01*
X171235858Y-89460880D01*
X171235856Y-89460875D01*
X171143815Y-89311654D01*
X171019845Y-89187684D01*
X170870624Y-89095643D01*
X170870619Y-89095641D01*
X170704197Y-89040494D01*
X170704190Y-89040493D01*
X170601486Y-89030000D01*
X170439000Y-89030000D01*
X170439000Y-90955000D01*
X169939000Y-90955000D01*
X169939000Y-89030000D01*
X169776529Y-89030000D01*
X169776512Y-89030001D01*
X169673802Y-89040494D01*
X169507380Y-89095641D01*
X169507375Y-89095643D01*
X169358154Y-89187684D01*
X169234184Y-89311654D01*
X169142143Y-89460875D01*
X169142141Y-89460880D01*
X169086994Y-89627302D01*
X169086993Y-89627309D01*
X169076500Y-89730013D01*
X169076500Y-90977977D01*
X169056815Y-91045016D01*
X169004011Y-91090771D01*
X168934853Y-91100715D01*
X168883609Y-91081079D01*
X168760185Y-90998609D01*
X168760172Y-90998602D01*
X168614501Y-90938264D01*
X168614489Y-90938261D01*
X168459845Y-90907500D01*
X168459842Y-90907500D01*
X168302158Y-90907500D01*
X168302155Y-90907500D01*
X168147510Y-90938261D01*
X168147498Y-90938264D01*
X168001827Y-90998602D01*
X168001814Y-90998609D01*
X167870711Y-91086210D01*
X167870707Y-91086213D01*
X167759213Y-91197707D01*
X167759210Y-91197711D01*
X167671609Y-91328814D01*
X167671602Y-91328827D01*
X167611264Y-91474498D01*
X167611261Y-91474510D01*
X167580500Y-91629153D01*
X134318918Y-91629153D01*
X134352737Y-91547506D01*
X134383500Y-91392851D01*
X134383500Y-91235167D01*
X134383500Y-91235164D01*
X134383499Y-91235162D01*
X134367885Y-91156666D01*
X134352737Y-91080512D01*
X134303423Y-90961458D01*
X134295955Y-90891990D01*
X134303424Y-90866555D01*
X134352737Y-90747503D01*
X134383500Y-90592848D01*
X134383500Y-90435164D01*
X134383500Y-90435161D01*
X134383499Y-90435159D01*
X134366789Y-90351155D01*
X134352737Y-90280509D01*
X134303423Y-90161455D01*
X134295955Y-90091987D01*
X134303424Y-90066552D01*
X134352737Y-89947500D01*
X134383500Y-89792845D01*
X134383500Y-89635161D01*
X134383500Y-89635158D01*
X134383499Y-89635156D01*
X134381916Y-89627200D01*
X134352737Y-89480506D01*
X134303423Y-89361452D01*
X134295955Y-89291984D01*
X134303424Y-89266549D01*
X134352737Y-89147497D01*
X134383500Y-88992842D01*
X134383500Y-88835158D01*
X134383500Y-88835155D01*
X134383499Y-88835153D01*
X134374283Y-88788821D01*
X134352737Y-88680503D01*
X134303423Y-88561449D01*
X134295955Y-88491981D01*
X134303424Y-88466546D01*
X134352737Y-88347494D01*
X134383500Y-88192839D01*
X134383500Y-88035155D01*
X134383500Y-88035152D01*
X134383499Y-88035150D01*
X134367845Y-87956453D01*
X134352737Y-87880500D01*
X134304099Y-87763076D01*
X134292397Y-87734824D01*
X134292390Y-87734811D01*
X134204789Y-87603708D01*
X134204786Y-87603704D01*
X134093292Y-87492210D01*
X134093288Y-87492207D01*
X133962185Y-87404606D01*
X133962172Y-87404599D01*
X133816501Y-87344261D01*
X133816489Y-87344258D01*
X133661845Y-87313497D01*
X133661842Y-87313497D01*
X133504158Y-87313497D01*
X133504155Y-87313497D01*
X133349510Y-87344258D01*
X133349498Y-87344261D01*
X133203827Y-87404599D01*
X133203814Y-87404606D01*
X133072711Y-87492207D01*
X133072707Y-87492210D01*
X132961213Y-87603704D01*
X132961210Y-87603708D01*
X132873609Y-87734811D01*
X132873602Y-87734824D01*
X132813264Y-87880495D01*
X132813261Y-87880507D01*
X132782500Y-88035150D01*
X123151259Y-88035150D01*
X123151259Y-87956458D01*
X123151259Y-87956455D01*
X123151258Y-87956453D01*
X123120496Y-87801803D01*
X123060153Y-87656121D01*
X123057817Y-87652625D01*
X123036938Y-87585950D01*
X123055421Y-87518569D01*
X123057790Y-87514882D01*
X123116394Y-87427176D01*
X123176737Y-87281494D01*
X123207500Y-87126839D01*
X123207500Y-86969155D01*
X123207500Y-86969152D01*
X123207499Y-86969150D01*
X123197854Y-86920663D01*
X123176737Y-86814500D01*
X123158990Y-86771654D01*
X123116397Y-86668824D01*
X123116390Y-86668811D01*
X123028789Y-86537708D01*
X123028786Y-86537704D01*
X122917292Y-86426210D01*
X122917288Y-86426207D01*
X122866345Y-86392168D01*
X122786185Y-86338606D01*
X122786172Y-86338599D01*
X122681283Y-86295153D01*
X125162500Y-86295153D01*
X125162500Y-86452846D01*
X125193261Y-86607489D01*
X125193264Y-86607501D01*
X125253602Y-86753172D01*
X125253609Y-86753185D01*
X125341210Y-86884288D01*
X125341213Y-86884292D01*
X125452707Y-86995786D01*
X125452711Y-86995789D01*
X125583814Y-87083390D01*
X125583827Y-87083397D01*
X125729498Y-87143735D01*
X125729503Y-87143737D01*
X125884153Y-87174499D01*
X125884156Y-87174500D01*
X125884158Y-87174500D01*
X126041844Y-87174500D01*
X126041845Y-87174499D01*
X126196497Y-87143737D01*
X126332983Y-87087203D01*
X126342172Y-87083397D01*
X126342172Y-87083396D01*
X126342179Y-87083394D01*
X126473289Y-86995789D01*
X126584789Y-86884289D01*
X126672394Y-86753179D01*
X126732737Y-86607497D01*
X126759581Y-86472543D01*
X158744499Y-86472543D01*
X158782947Y-86665829D01*
X158782950Y-86665839D01*
X158858364Y-86847907D01*
X158858371Y-86847920D01*
X158967860Y-87011781D01*
X158967863Y-87011785D01*
X159107214Y-87151136D01*
X159107218Y-87151139D01*
X159271079Y-87260628D01*
X159271092Y-87260635D01*
X159398714Y-87313497D01*
X159453165Y-87336051D01*
X159453169Y-87336051D01*
X159453170Y-87336052D01*
X159646456Y-87374500D01*
X159646459Y-87374500D01*
X162383543Y-87374500D01*
X162535576Y-87344258D01*
X162576835Y-87336051D01*
X162758914Y-87260632D01*
X162922782Y-87151139D01*
X163062139Y-87011782D01*
X163171632Y-86847914D01*
X163185475Y-86814495D01*
X163247049Y-86665839D01*
X163247051Y-86665835D01*
X163269061Y-86555185D01*
X163285500Y-86472543D01*
X163285500Y-86275456D01*
X163247052Y-86082170D01*
X163247051Y-86082169D01*
X163247051Y-86082165D01*
X163230686Y-86042655D01*
X163171635Y-85900092D01*
X163171628Y-85900079D01*
X163062139Y-85736218D01*
X163062136Y-85736214D01*
X162922785Y-85596863D01*
X162922781Y-85596860D01*
X162827437Y-85533153D01*
X168088500Y-85533153D01*
X168088500Y-85690846D01*
X168119261Y-85845489D01*
X168119264Y-85845501D01*
X168179602Y-85991172D01*
X168179609Y-85991185D01*
X168267210Y-86122288D01*
X168267213Y-86122292D01*
X168378707Y-86233786D01*
X168378711Y-86233789D01*
X168509814Y-86321390D01*
X168509827Y-86321397D01*
X168633186Y-86372493D01*
X168655503Y-86381737D01*
X168810153Y-86412499D01*
X168810156Y-86412500D01*
X168952500Y-86412500D01*
X169019539Y-86432185D01*
X169065294Y-86484989D01*
X169076500Y-86536500D01*
X169076500Y-87599971D01*
X169076501Y-87599987D01*
X169086994Y-87702697D01*
X169142141Y-87869119D01*
X169142143Y-87869124D01*
X169234184Y-88018345D01*
X169358154Y-88142315D01*
X169507375Y-88234356D01*
X169507380Y-88234358D01*
X169673802Y-88289505D01*
X169673809Y-88289506D01*
X169776519Y-88299999D01*
X169938999Y-88299999D01*
X170439000Y-88299999D01*
X170601472Y-88299999D01*
X170601486Y-88299998D01*
X170704197Y-88289505D01*
X170870619Y-88234358D01*
X170870624Y-88234356D01*
X171019845Y-88142315D01*
X171143815Y-88018345D01*
X171235856Y-87869124D01*
X171235858Y-87869119D01*
X171291005Y-87702697D01*
X171291006Y-87702690D01*
X171301499Y-87599986D01*
X171301500Y-87599973D01*
X171301500Y-86375000D01*
X170439000Y-86375000D01*
X170439000Y-88299999D01*
X169938999Y-88299999D01*
X169939000Y-88299998D01*
X169939000Y-85875000D01*
X170439000Y-85875000D01*
X171301499Y-85875000D01*
X171301499Y-84650028D01*
X171301498Y-84650013D01*
X171291005Y-84547302D01*
X171235858Y-84380880D01*
X171235856Y-84380875D01*
X171143815Y-84231654D01*
X171019845Y-84107684D01*
X170870624Y-84015643D01*
X170870619Y-84015641D01*
X170704197Y-83960494D01*
X170704190Y-83960493D01*
X170601486Y-83950000D01*
X170439000Y-83950000D01*
X170439000Y-85875000D01*
X169939000Y-85875000D01*
X169939000Y-83950000D01*
X169776529Y-83950000D01*
X169776512Y-83950001D01*
X169673802Y-83960494D01*
X169507380Y-84015641D01*
X169507375Y-84015643D01*
X169358154Y-84107684D01*
X169234184Y-84231654D01*
X169142143Y-84380875D01*
X169142141Y-84380880D01*
X169086994Y-84547302D01*
X169086993Y-84547309D01*
X169076500Y-84650013D01*
X169076500Y-84687500D01*
X169056815Y-84754539D01*
X169004011Y-84800294D01*
X168952500Y-84811500D01*
X168810155Y-84811500D01*
X168655510Y-84842261D01*
X168655498Y-84842264D01*
X168509827Y-84902602D01*
X168509814Y-84902609D01*
X168378711Y-84990210D01*
X168378707Y-84990213D01*
X168267213Y-85101707D01*
X168267210Y-85101711D01*
X168179609Y-85232814D01*
X168179602Y-85232827D01*
X168119264Y-85378498D01*
X168119261Y-85378510D01*
X168088500Y-85533153D01*
X162827437Y-85533153D01*
X162758920Y-85487371D01*
X162758907Y-85487364D01*
X162576839Y-85411950D01*
X162576829Y-85411947D01*
X162383543Y-85373500D01*
X162383541Y-85373500D01*
X159646459Y-85373500D01*
X159646457Y-85373500D01*
X159453170Y-85411947D01*
X159453160Y-85411950D01*
X159271092Y-85487364D01*
X159271079Y-85487371D01*
X159107218Y-85596860D01*
X159107214Y-85596863D01*
X158967863Y-85736214D01*
X158967860Y-85736218D01*
X158858371Y-85900079D01*
X158858364Y-85900092D01*
X158782950Y-86082160D01*
X158782947Y-86082170D01*
X158744500Y-86275456D01*
X158744500Y-86275459D01*
X158744500Y-86472541D01*
X158744500Y-86472543D01*
X158744499Y-86472543D01*
X126759581Y-86472543D01*
X126763500Y-86452842D01*
X126763500Y-86295158D01*
X126763500Y-86295155D01*
X126763499Y-86295153D01*
X126754832Y-86251581D01*
X126732737Y-86140503D01*
X126702456Y-86067397D01*
X126672397Y-85994827D01*
X126672390Y-85994814D01*
X126584789Y-85863711D01*
X126584786Y-85863707D01*
X126473292Y-85752213D01*
X126473288Y-85752210D01*
X126342185Y-85664609D01*
X126342172Y-85664602D01*
X126196501Y-85604264D01*
X126196489Y-85604261D01*
X126041845Y-85573500D01*
X126041842Y-85573500D01*
X125884158Y-85573500D01*
X125884155Y-85573500D01*
X125729510Y-85604261D01*
X125729498Y-85604264D01*
X125583827Y-85664602D01*
X125583814Y-85664609D01*
X125452711Y-85752210D01*
X125452707Y-85752213D01*
X125341213Y-85863707D01*
X125341210Y-85863711D01*
X125253609Y-85994814D01*
X125253602Y-85994827D01*
X125193264Y-86140498D01*
X125193261Y-86140510D01*
X125162500Y-86295153D01*
X122681283Y-86295153D01*
X122640501Y-86278261D01*
X122640489Y-86278258D01*
X122485845Y-86247497D01*
X122485842Y-86247497D01*
X122328158Y-86247497D01*
X122328155Y-86247497D01*
X122173510Y-86278258D01*
X122173498Y-86278261D01*
X122027827Y-86338599D01*
X122027814Y-86338606D01*
X121896711Y-86426207D01*
X121896707Y-86426210D01*
X121785213Y-86537704D01*
X121785210Y-86537708D01*
X121697609Y-86668811D01*
X121697602Y-86668824D01*
X121637264Y-86814495D01*
X121637261Y-86814507D01*
X121606500Y-86969150D01*
X121606500Y-87126843D01*
X121637261Y-87281486D01*
X121637264Y-87281498D01*
X121697602Y-87427168D01*
X121697609Y-87427181D01*
X121699942Y-87430672D01*
X121720820Y-87497349D01*
X121702336Y-87564729D01*
X121699942Y-87568454D01*
X121641368Y-87656114D01*
X121641361Y-87656127D01*
X121581023Y-87801798D01*
X121581020Y-87801810D01*
X121550259Y-87956453D01*
X115957376Y-87956453D01*
X115916789Y-87895711D01*
X115916786Y-87895707D01*
X115805292Y-87784213D01*
X115805288Y-87784210D01*
X115674185Y-87696609D01*
X115674172Y-87696602D01*
X115528501Y-87636264D01*
X115528489Y-87636261D01*
X115373845Y-87605500D01*
X115373842Y-87605500D01*
X115216158Y-87605500D01*
X115216152Y-87605500D01*
X115211560Y-87606414D01*
X115188734Y-87608789D01*
X115184490Y-87608835D01*
X114669899Y-87651327D01*
X114641020Y-87654675D01*
X114626743Y-87655500D01*
X113412331Y-87655500D01*
X113384644Y-87652369D01*
X113380104Y-87651329D01*
X113380088Y-87651326D01*
X112865500Y-87608835D01*
X112853014Y-87608108D01*
X112836042Y-87605937D01*
X112833848Y-87605500D01*
X112833842Y-87605500D01*
X112676158Y-87605500D01*
X112676155Y-87605500D01*
X112521510Y-87636261D01*
X112521498Y-87636264D01*
X112375827Y-87696602D01*
X112375814Y-87696609D01*
X112244711Y-87784210D01*
X112244707Y-87784213D01*
X112133213Y-87895707D01*
X112133210Y-87895711D01*
X112045609Y-88026814D01*
X112045602Y-88026827D01*
X111985264Y-88172498D01*
X111985261Y-88172510D01*
X111954500Y-88327153D01*
X105704812Y-88327153D01*
X105693518Y-88318379D01*
X105670276Y-88252488D01*
X105670099Y-88245856D01*
X105670099Y-87190028D01*
X105670098Y-87190013D01*
X105659605Y-87087302D01*
X105604458Y-86920880D01*
X105604456Y-86920875D01*
X105512415Y-86771654D01*
X105388445Y-86647684D01*
X105239224Y-86555643D01*
X105239219Y-86555641D01*
X105072797Y-86500494D01*
X105072790Y-86500493D01*
X104970086Y-86490000D01*
X104807600Y-86490000D01*
X104807600Y-90839999D01*
X104307599Y-90839999D01*
X104307600Y-90839998D01*
X104307600Y-88915000D01*
X103445101Y-88915000D01*
X103445101Y-90139986D01*
X99745600Y-90139986D01*
X99745599Y-88660000D01*
X99745599Y-87190013D01*
X103445100Y-87190013D01*
X103445100Y-88415000D01*
X104307600Y-88415000D01*
X104307600Y-86490000D01*
X104145129Y-86490000D01*
X104145112Y-86490001D01*
X104042402Y-86500494D01*
X103875980Y-86555641D01*
X103875975Y-86555643D01*
X103726754Y-86647684D01*
X103602784Y-86771654D01*
X103510743Y-86920875D01*
X103510741Y-86920880D01*
X103455594Y-87087302D01*
X103455593Y-87087309D01*
X103445100Y-87190013D01*
X99745599Y-87190013D01*
X99745599Y-87189998D01*
X99745598Y-87189981D01*
X99735099Y-87087203D01*
X99735098Y-87087200D01*
X99710107Y-87011782D01*
X99679914Y-86920666D01*
X99587812Y-86771344D01*
X99463756Y-86647288D01*
X99314434Y-86555186D01*
X99147897Y-86500001D01*
X99147895Y-86500000D01*
X99045110Y-86489500D01*
X98220098Y-86489500D01*
X98220080Y-86489501D01*
X98117303Y-86500000D01*
X98117300Y-86500001D01*
X97950768Y-86555185D01*
X97950763Y-86555187D01*
X97801442Y-86647289D01*
X97677389Y-86771342D01*
X97585287Y-86920663D01*
X97585285Y-86920668D01*
X97585215Y-86920880D01*
X97530101Y-87087203D01*
X97530101Y-87087204D01*
X97530100Y-87087204D01*
X97519600Y-87189983D01*
X97519600Y-88452494D01*
X97517625Y-88474536D01*
X97319020Y-89574002D01*
X97287732Y-89636475D01*
X97227636Y-89672115D01*
X97157811Y-89669606D01*
X97128104Y-89655062D01*
X96972920Y-89551371D01*
X96972907Y-89551364D01*
X96790839Y-89475950D01*
X96790829Y-89475947D01*
X96597543Y-89437500D01*
X96597541Y-89437500D01*
X95638459Y-89437500D01*
X95638458Y-89437500D01*
X95586456Y-89447844D01*
X95586450Y-89447845D01*
X95584838Y-89448166D01*
X95445164Y-89475949D01*
X95434163Y-89480506D01*
X95424406Y-89484547D01*
X95424399Y-89484549D01*
X95263092Y-89551364D01*
X95263079Y-89551371D01*
X95099219Y-89660859D01*
X95031477Y-89728602D01*
X94959861Y-89800218D01*
X94959859Y-89800219D01*
X94959859Y-89800220D01*
X94952107Y-89807973D01*
X94948157Y-89811923D01*
X94838672Y-89975779D01*
X94838667Y-89975789D01*
X94763249Y-90157863D01*
X94763247Y-90157871D01*
X94724800Y-90351155D01*
X94724800Y-90548244D01*
X94763247Y-90741528D01*
X94763249Y-90741536D01*
X94838667Y-90923610D01*
X94838672Y-90923620D01*
X94948160Y-91087480D01*
X94948163Y-91087484D01*
X95087515Y-91226836D01*
X95087519Y-91226839D01*
X95251379Y-91336327D01*
X95251385Y-91336330D01*
X95251386Y-91336331D01*
X95415480Y-91404301D01*
X95469881Y-91448141D01*
X95491946Y-91514435D01*
X95491970Y-91522569D01*
X95468129Y-92319573D01*
X95446448Y-92385994D01*
X95394545Y-92429178D01*
X95136960Y-92543661D01*
X95067704Y-92552900D01*
X95036238Y-92543661D01*
X94974417Y-92516185D01*
X94916710Y-92490537D01*
X94716598Y-92401598D01*
X94663331Y-92356382D01*
X94649253Y-92327288D01*
X94643415Y-92309670D01*
X94643414Y-92309666D01*
X94551312Y-92160344D01*
X94427256Y-92036288D01*
X94277934Y-91944186D01*
X94111397Y-91889001D01*
X94111395Y-91889000D01*
X94008610Y-91878500D01*
X92608598Y-91878500D01*
X92608581Y-91878501D01*
X92505803Y-91889000D01*
X92505800Y-91889001D01*
X92339268Y-91944185D01*
X92339263Y-91944187D01*
X92189942Y-92036289D01*
X92065889Y-92160342D01*
X91973787Y-92309663D01*
X91973785Y-92309668D01*
X91962005Y-92345218D01*
X91918601Y-92476203D01*
X91918601Y-92476204D01*
X91918600Y-92476204D01*
X91908100Y-92578983D01*
X88105500Y-92578983D01*
X88105500Y-82197973D01*
X89569600Y-82197973D01*
X89569600Y-82442026D01*
X89607019Y-82678282D01*
X89607779Y-82683076D01*
X89683196Y-82915185D01*
X89782373Y-83109832D01*
X89793996Y-83132642D01*
X89937439Y-83330076D01*
X89937443Y-83330081D01*
X90109681Y-83502319D01*
X90143166Y-83563642D01*
X90138182Y-83633334D01*
X90109681Y-83677681D01*
X89937443Y-83849918D01*
X89937439Y-83849923D01*
X89793996Y-84047357D01*
X89683197Y-84264812D01*
X89683196Y-84264814D01*
X89683196Y-84264815D01*
X89655264Y-84350781D01*
X89607778Y-84496927D01*
X89569600Y-84737973D01*
X89569600Y-84982026D01*
X89598231Y-85162797D01*
X89607779Y-85223076D01*
X89683196Y-85455185D01*
X89759155Y-85604264D01*
X89793996Y-85672642D01*
X89937439Y-85870076D01*
X89937443Y-85870081D01*
X90109681Y-86042319D01*
X90143166Y-86103642D01*
X90138182Y-86173334D01*
X90109681Y-86217681D01*
X89937443Y-86389918D01*
X89937439Y-86389923D01*
X89793996Y-86587357D01*
X89683197Y-86804812D01*
X89607778Y-87036927D01*
X89590861Y-87143737D01*
X89569600Y-87277973D01*
X89569600Y-87522027D01*
X89576953Y-87568454D01*
X89598231Y-87702797D01*
X89607779Y-87763076D01*
X89683196Y-87995185D01*
X89788900Y-88202642D01*
X89793996Y-88212642D01*
X89901051Y-88359992D01*
X89924531Y-88425798D01*
X89908705Y-88493852D01*
X89865833Y-88538414D01*
X89851444Y-88547289D01*
X89727389Y-88671344D01*
X89727386Y-88671348D01*
X89635287Y-88820662D01*
X89635286Y-88820664D01*
X89580101Y-88987203D01*
X89580100Y-88987204D01*
X89569600Y-89089984D01*
X89569600Y-90790015D01*
X89580100Y-90892795D01*
X89580101Y-90892797D01*
X89595770Y-90940083D01*
X89635286Y-91059335D01*
X89635287Y-91059337D01*
X89727386Y-91208651D01*
X89727389Y-91208655D01*
X89851444Y-91332710D01*
X89851448Y-91332713D01*
X90000762Y-91424812D01*
X90000764Y-91424813D01*
X90000766Y-91424814D01*
X90167303Y-91479999D01*
X90270092Y-91490500D01*
X90270097Y-91490500D01*
X91970103Y-91490500D01*
X91970108Y-91490500D01*
X92072897Y-91479999D01*
X92239434Y-91424814D01*
X92388755Y-91332711D01*
X92512811Y-91208655D01*
X92604914Y-91059334D01*
X92660099Y-90892797D01*
X92670600Y-90790008D01*
X92670600Y-89089992D01*
X92660099Y-88987203D01*
X92604914Y-88820666D01*
X92585275Y-88788827D01*
X92512813Y-88671348D01*
X92512810Y-88671344D01*
X92388755Y-88547289D01*
X92388751Y-88547286D01*
X92374369Y-88538415D01*
X92327644Y-88486467D01*
X92316423Y-88417505D01*
X92339148Y-88359992D01*
X92446206Y-88212639D01*
X92557004Y-87995185D01*
X92632421Y-87763076D01*
X92670600Y-87522027D01*
X92670600Y-87277973D01*
X92632421Y-87036924D01*
X92557004Y-86804815D01*
X92446206Y-86587361D01*
X92410128Y-86537704D01*
X92302760Y-86389923D01*
X92302756Y-86389918D01*
X92130519Y-86217681D01*
X92097034Y-86156358D01*
X92102018Y-86086666D01*
X92130519Y-86042319D01*
X92210554Y-85962284D01*
X92302755Y-85870083D01*
X92446206Y-85672639D01*
X92557004Y-85455185D01*
X92632421Y-85223076D01*
X92670600Y-84982027D01*
X92670600Y-84737973D01*
X92632421Y-84496924D01*
X92557004Y-84264815D01*
X92446206Y-84047361D01*
X92416934Y-84007072D01*
X92302760Y-83849923D01*
X92302756Y-83849918D01*
X92130519Y-83677681D01*
X92097034Y-83616358D01*
X92102018Y-83546666D01*
X92130519Y-83502319D01*
X92203920Y-83428918D01*
X92302755Y-83330083D01*
X92446206Y-83132639D01*
X92557004Y-82915185D01*
X92632421Y-82683076D01*
X92670600Y-82442027D01*
X92670600Y-82197973D01*
X92632421Y-81956924D01*
X92557004Y-81724815D01*
X92446206Y-81507361D01*
X92423160Y-81475641D01*
X92302760Y-81309923D01*
X92302756Y-81309918D01*
X92130181Y-81137343D01*
X92130176Y-81137339D01*
X91932742Y-80993896D01*
X91932741Y-80993895D01*
X91932739Y-80993894D01*
X91715285Y-80883096D01*
X91483176Y-80807679D01*
X91483174Y-80807678D01*
X91483172Y-80807678D01*
X91314869Y-80781021D01*
X91242127Y-80769500D01*
X90998073Y-80769500D01*
X90942193Y-80778350D01*
X90757027Y-80807678D01*
X90524912Y-80883097D01*
X90307457Y-80993896D01*
X90110023Y-81137339D01*
X90110018Y-81137343D01*
X89937443Y-81309918D01*
X89937439Y-81309923D01*
X89793996Y-81507357D01*
X89683197Y-81724812D01*
X89607778Y-81956927D01*
X89569600Y-82197973D01*
X88105500Y-82197973D01*
X88105500Y-77528983D01*
X91884100Y-77528983D01*
X91884100Y-79629001D01*
X91884101Y-79629018D01*
X91894600Y-79731796D01*
X91894601Y-79731799D01*
X91929350Y-79836663D01*
X91949786Y-79898334D01*
X92041888Y-80047656D01*
X92165944Y-80171712D01*
X92315266Y-80263814D01*
X92481803Y-80318999D01*
X92584591Y-80329500D01*
X93237102Y-80329499D01*
X93283009Y-80338310D01*
X93442790Y-80401988D01*
X93769666Y-80532259D01*
X93834517Y-80558104D01*
X93876289Y-80585610D01*
X93949289Y-80658610D01*
X94004419Y-80713740D01*
X94168279Y-80823228D01*
X94168292Y-80823235D01*
X94263654Y-80862735D01*
X94263660Y-80862737D01*
X94267105Y-80864164D01*
X94350364Y-80898651D01*
X94390998Y-80906733D01*
X94398994Y-80909496D01*
X94420843Y-80925037D01*
X94444601Y-80937464D01*
X94448881Y-80944980D01*
X94455930Y-80949994D01*
X94465907Y-80974879D01*
X94479176Y-80998179D01*
X94480785Y-81011984D01*
X94481932Y-81014845D01*
X94481425Y-81017480D01*
X94482500Y-81026698D01*
X94482500Y-81646542D01*
X94491411Y-81691344D01*
X94496472Y-81716784D01*
X94520949Y-81839836D01*
X94531893Y-81866256D01*
X94535496Y-81874956D01*
X94535498Y-81874961D01*
X94596364Y-82021906D01*
X94596371Y-82021919D01*
X94705859Y-82185780D01*
X94705860Y-82185781D01*
X94705861Y-82185782D01*
X94832860Y-82312781D01*
X94832861Y-82312782D01*
X94904344Y-82384265D01*
X94972219Y-82452140D01*
X95108933Y-82543489D01*
X95136086Y-82561632D01*
X95230601Y-82600781D01*
X95318164Y-82637051D01*
X95407575Y-82654836D01*
X95474912Y-82668230D01*
X95511456Y-82675500D01*
X95511459Y-82675500D01*
X96343543Y-82675500D01*
X96473582Y-82649632D01*
X96536835Y-82637051D01*
X96677655Y-82578721D01*
X96718907Y-82561635D01*
X96718907Y-82561634D01*
X96718914Y-82561632D01*
X96882782Y-82452139D01*
X96907320Y-82427599D01*
X96968640Y-82394116D01*
X97038332Y-82399099D01*
X97094266Y-82440970D01*
X97113853Y-82479929D01*
X97501645Y-83783638D01*
X97514453Y-83826695D01*
X97519600Y-83862048D01*
X97519600Y-85060001D01*
X97519601Y-85060018D01*
X97530100Y-85162796D01*
X97530101Y-85162799D01*
X97585285Y-85329331D01*
X97585287Y-85329336D01*
X97615618Y-85378510D01*
X97677388Y-85478656D01*
X97801444Y-85602712D01*
X97950766Y-85694814D01*
X98117303Y-85749999D01*
X98220091Y-85760500D01*
X99045108Y-85760499D01*
X99045116Y-85760498D01*
X99045119Y-85760498D01*
X99126223Y-85752213D01*
X99147897Y-85749999D01*
X99314434Y-85694814D01*
X99463756Y-85602712D01*
X99587812Y-85478656D01*
X99679914Y-85329334D01*
X99735099Y-85162797D01*
X99745600Y-85060009D01*
X99745600Y-85059986D01*
X103445101Y-85059986D01*
X103455594Y-85162697D01*
X103510741Y-85329119D01*
X103510743Y-85329124D01*
X103602784Y-85478345D01*
X103726754Y-85602315D01*
X103875975Y-85694356D01*
X103875980Y-85694358D01*
X104042402Y-85749505D01*
X104042409Y-85749506D01*
X104145119Y-85759999D01*
X104307599Y-85759999D01*
X104807600Y-85759999D01*
X104970072Y-85759999D01*
X104970086Y-85759998D01*
X105072797Y-85749505D01*
X105239219Y-85694358D01*
X105239224Y-85694356D01*
X105388445Y-85602315D01*
X105512415Y-85478345D01*
X105604456Y-85329124D01*
X105604458Y-85329119D01*
X105621015Y-85279153D01*
X122622500Y-85279153D01*
X122622500Y-85436846D01*
X122653261Y-85591489D01*
X122653264Y-85591501D01*
X122713602Y-85737172D01*
X122713609Y-85737185D01*
X122801210Y-85868288D01*
X122801213Y-85868292D01*
X122912707Y-85979786D01*
X122912711Y-85979789D01*
X123043814Y-86067390D01*
X123043827Y-86067397D01*
X123189498Y-86127735D01*
X123189503Y-86127737D01*
X123303940Y-86150500D01*
X123344153Y-86158499D01*
X123344156Y-86158500D01*
X123344158Y-86158500D01*
X123501844Y-86158500D01*
X123501845Y-86158499D01*
X123656497Y-86127737D01*
X123802179Y-86067394D01*
X123933289Y-85979789D01*
X124044789Y-85868289D01*
X124132394Y-85737179D01*
X124192737Y-85591497D01*
X124223500Y-85436842D01*
X124223500Y-85279158D01*
X124223500Y-85279155D01*
X124223499Y-85279153D01*
X124214283Y-85232821D01*
X124192737Y-85124503D01*
X124166023Y-85060008D01*
X124132397Y-84978827D01*
X124132390Y-84978814D01*
X124044789Y-84847711D01*
X124044786Y-84847707D01*
X123955462Y-84758383D01*
X123949600Y-84747648D01*
X138124500Y-84747648D01*
X138124500Y-84952351D01*
X138156522Y-85154534D01*
X138219781Y-85349223D01*
X138312715Y-85531613D01*
X138433028Y-85697213D01*
X138577786Y-85841971D01*
X138732749Y-85954556D01*
X138743390Y-85962287D01*
X138859607Y-86021503D01*
X138925776Y-86055218D01*
X138925778Y-86055218D01*
X138925781Y-86055220D01*
X139008694Y-86082160D01*
X139120465Y-86118477D01*
X139193218Y-86130000D01*
X139322648Y-86150500D01*
X139322649Y-86150500D01*
X139527351Y-86150500D01*
X139527352Y-86150500D01*
X139729534Y-86118477D01*
X139924219Y-86055220D01*
X140106610Y-85962287D01*
X140199590Y-85894732D01*
X140272213Y-85841971D01*
X140272215Y-85841968D01*
X140272219Y-85841966D01*
X140416966Y-85697219D01*
X140416968Y-85697215D01*
X140416971Y-85697213D01*
X140537284Y-85531614D01*
X140537285Y-85531613D01*
X140537287Y-85531610D01*
X140584516Y-85438917D01*
X140632489Y-85388123D01*
X140700310Y-85371328D01*
X140766445Y-85393865D01*
X140805483Y-85438917D01*
X140825573Y-85478345D01*
X140852715Y-85531614D01*
X140973028Y-85697213D01*
X141117786Y-85841971D01*
X141272749Y-85954556D01*
X141283390Y-85962287D01*
X141399607Y-86021503D01*
X141465776Y-86055218D01*
X141465778Y-86055218D01*
X141465781Y-86055220D01*
X141548694Y-86082160D01*
X141660465Y-86118477D01*
X141733218Y-86130000D01*
X141862648Y-86150500D01*
X141862649Y-86150500D01*
X142067351Y-86150500D01*
X142067352Y-86150500D01*
X142269534Y-86118477D01*
X142464219Y-86055220D01*
X142646610Y-85962287D01*
X142739590Y-85894732D01*
X142812213Y-85841971D01*
X142812215Y-85841968D01*
X142812219Y-85841966D01*
X142956966Y-85697219D01*
X142956968Y-85697215D01*
X142956971Y-85697213D01*
X143077284Y-85531614D01*
X143077285Y-85531613D01*
X143077287Y-85531610D01*
X143124516Y-85438917D01*
X143172489Y-85388123D01*
X143240310Y-85371328D01*
X143306445Y-85393865D01*
X143345483Y-85438917D01*
X143365573Y-85478345D01*
X143392715Y-85531614D01*
X143513028Y-85697213D01*
X143657786Y-85841971D01*
X143812749Y-85954556D01*
X143823390Y-85962287D01*
X143939607Y-86021503D01*
X144005776Y-86055218D01*
X144005778Y-86055218D01*
X144005781Y-86055220D01*
X144088694Y-86082160D01*
X144200465Y-86118477D01*
X144273218Y-86130000D01*
X144402648Y-86150500D01*
X144402649Y-86150500D01*
X144607351Y-86150500D01*
X144607352Y-86150500D01*
X144809534Y-86118477D01*
X145004219Y-86055220D01*
X145186610Y-85962287D01*
X145279590Y-85894732D01*
X145352213Y-85841971D01*
X145352215Y-85841968D01*
X145352219Y-85841966D01*
X145496966Y-85697219D01*
X145496968Y-85697215D01*
X145496971Y-85697213D01*
X145617284Y-85531614D01*
X145617285Y-85531613D01*
X145617287Y-85531610D01*
X145664516Y-85438917D01*
X145712489Y-85388123D01*
X145780310Y-85371328D01*
X145846445Y-85393865D01*
X145885483Y-85438917D01*
X145905573Y-85478345D01*
X145932715Y-85531614D01*
X146053028Y-85697213D01*
X146197786Y-85841971D01*
X146352749Y-85954556D01*
X146363390Y-85962287D01*
X146479607Y-86021503D01*
X146545776Y-86055218D01*
X146545778Y-86055218D01*
X146545781Y-86055220D01*
X146628694Y-86082160D01*
X146740465Y-86118477D01*
X146813218Y-86130000D01*
X146942648Y-86150500D01*
X146942649Y-86150500D01*
X147147351Y-86150500D01*
X147147352Y-86150500D01*
X147349534Y-86118477D01*
X147544219Y-86055220D01*
X147726610Y-85962287D01*
X147819590Y-85894732D01*
X147892213Y-85841971D01*
X147892215Y-85841968D01*
X147892219Y-85841966D01*
X148036966Y-85697219D01*
X148036968Y-85697215D01*
X148036971Y-85697213D01*
X148157284Y-85531614D01*
X148157285Y-85531613D01*
X148157287Y-85531610D01*
X148204516Y-85438917D01*
X148252489Y-85388123D01*
X148320310Y-85371328D01*
X148386445Y-85393865D01*
X148425483Y-85438917D01*
X148445573Y-85478345D01*
X148472715Y-85531614D01*
X148593028Y-85697213D01*
X148737786Y-85841971D01*
X148892749Y-85954556D01*
X148903390Y-85962287D01*
X149019607Y-86021503D01*
X149085776Y-86055218D01*
X149085778Y-86055218D01*
X149085781Y-86055220D01*
X149168694Y-86082160D01*
X149280465Y-86118477D01*
X149353218Y-86130000D01*
X149482648Y-86150500D01*
X149482649Y-86150500D01*
X149687351Y-86150500D01*
X149687352Y-86150500D01*
X149889534Y-86118477D01*
X150084219Y-86055220D01*
X150266610Y-85962287D01*
X150359590Y-85894732D01*
X150432213Y-85841971D01*
X150432215Y-85841968D01*
X150432219Y-85841966D01*
X150576966Y-85697219D01*
X150576968Y-85697215D01*
X150576971Y-85697213D01*
X150697284Y-85531614D01*
X150697285Y-85531613D01*
X150697287Y-85531610D01*
X150744516Y-85438917D01*
X150792489Y-85388123D01*
X150860310Y-85371328D01*
X150926445Y-85393865D01*
X150965483Y-85438917D01*
X150985573Y-85478345D01*
X151012715Y-85531614D01*
X151133028Y-85697213D01*
X151277786Y-85841971D01*
X151432749Y-85954556D01*
X151443390Y-85962287D01*
X151559607Y-86021503D01*
X151625776Y-86055218D01*
X151625778Y-86055218D01*
X151625781Y-86055220D01*
X151708694Y-86082160D01*
X151820465Y-86118477D01*
X151893218Y-86130000D01*
X152022648Y-86150500D01*
X152022649Y-86150500D01*
X152227351Y-86150500D01*
X152227352Y-86150500D01*
X152429534Y-86118477D01*
X152624219Y-86055220D01*
X152806610Y-85962287D01*
X152899590Y-85894732D01*
X152972213Y-85841971D01*
X152972215Y-85841968D01*
X152972219Y-85841966D01*
X153116966Y-85697219D01*
X153116968Y-85697215D01*
X153116971Y-85697213D01*
X153237284Y-85531614D01*
X153237285Y-85531613D01*
X153237287Y-85531610D01*
X153284516Y-85438917D01*
X153332489Y-85388123D01*
X153400310Y-85371328D01*
X153466445Y-85393865D01*
X153505483Y-85438917D01*
X153525573Y-85478345D01*
X153552715Y-85531614D01*
X153673028Y-85697213D01*
X153817786Y-85841971D01*
X153972749Y-85954556D01*
X153983390Y-85962287D01*
X154099607Y-86021503D01*
X154165776Y-86055218D01*
X154165778Y-86055218D01*
X154165781Y-86055220D01*
X154248694Y-86082160D01*
X154360465Y-86118477D01*
X154433218Y-86130000D01*
X154562648Y-86150500D01*
X154562649Y-86150500D01*
X154767351Y-86150500D01*
X154767352Y-86150500D01*
X154969534Y-86118477D01*
X155164219Y-86055220D01*
X155346610Y-85962287D01*
X155439590Y-85894732D01*
X155512213Y-85841971D01*
X155512215Y-85841968D01*
X155512219Y-85841966D01*
X155656966Y-85697219D01*
X155656968Y-85697215D01*
X155656971Y-85697213D01*
X155777284Y-85531614D01*
X155777285Y-85531613D01*
X155777287Y-85531610D01*
X155824516Y-85438917D01*
X155872489Y-85388123D01*
X155940310Y-85371328D01*
X156006445Y-85393865D01*
X156045483Y-85438917D01*
X156065573Y-85478345D01*
X156092715Y-85531614D01*
X156213028Y-85697213D01*
X156357786Y-85841971D01*
X156512749Y-85954556D01*
X156523390Y-85962287D01*
X156639607Y-86021503D01*
X156705776Y-86055218D01*
X156705778Y-86055218D01*
X156705781Y-86055220D01*
X156788694Y-86082160D01*
X156900465Y-86118477D01*
X156973218Y-86130000D01*
X157102648Y-86150500D01*
X157102649Y-86150500D01*
X157307351Y-86150500D01*
X157307352Y-86150500D01*
X157509534Y-86118477D01*
X157704219Y-86055220D01*
X157886610Y-85962287D01*
X157979590Y-85894732D01*
X158052213Y-85841971D01*
X158052215Y-85841968D01*
X158052219Y-85841966D01*
X158196966Y-85697219D01*
X158196968Y-85697215D01*
X158196971Y-85697213D01*
X158273777Y-85591497D01*
X158317287Y-85531610D01*
X158410220Y-85349219D01*
X158473477Y-85154534D01*
X158505500Y-84952352D01*
X158505500Y-84747648D01*
X158480256Y-84588264D01*
X158473477Y-84545465D01*
X158427398Y-84403649D01*
X158410220Y-84350781D01*
X158410218Y-84350778D01*
X158410218Y-84350776D01*
X158366418Y-84264815D01*
X158317287Y-84168390D01*
X158309556Y-84157749D01*
X158196971Y-84002786D01*
X158052213Y-83858028D01*
X157886613Y-83737715D01*
X157886612Y-83737714D01*
X157886610Y-83737713D01*
X157822745Y-83705172D01*
X157704223Y-83644781D01*
X157509534Y-83581522D01*
X157334995Y-83553878D01*
X157307352Y-83549500D01*
X157102648Y-83549500D01*
X157078329Y-83553351D01*
X156900465Y-83581522D01*
X156705776Y-83644781D01*
X156523386Y-83737715D01*
X156357786Y-83858028D01*
X156213028Y-84002786D01*
X156092715Y-84168386D01*
X156045485Y-84261080D01*
X155997510Y-84311876D01*
X155929689Y-84328671D01*
X155863554Y-84306134D01*
X155824515Y-84261080D01*
X155823883Y-84259840D01*
X155777287Y-84168390D01*
X155769556Y-84157749D01*
X155656971Y-84002786D01*
X155512213Y-83858028D01*
X155346613Y-83737715D01*
X155346612Y-83737714D01*
X155346610Y-83737713D01*
X155282745Y-83705172D01*
X155164223Y-83644781D01*
X154969534Y-83581522D01*
X154794995Y-83553878D01*
X154767352Y-83549500D01*
X154562648Y-83549500D01*
X154538329Y-83553351D01*
X154360465Y-83581522D01*
X154165776Y-83644781D01*
X153983386Y-83737715D01*
X153817786Y-83858028D01*
X153673028Y-84002786D01*
X153552715Y-84168386D01*
X153505485Y-84261080D01*
X153457510Y-84311876D01*
X153389689Y-84328671D01*
X153323554Y-84306134D01*
X153284515Y-84261080D01*
X153283883Y-84259840D01*
X153237287Y-84168390D01*
X153229556Y-84157749D01*
X153116971Y-84002786D01*
X152972213Y-83858028D01*
X152806613Y-83737715D01*
X152806612Y-83737714D01*
X152806610Y-83737713D01*
X152742745Y-83705172D01*
X152624223Y-83644781D01*
X152429534Y-83581522D01*
X152254995Y-83553878D01*
X152227352Y-83549500D01*
X152022648Y-83549500D01*
X151998329Y-83553351D01*
X151820465Y-83581522D01*
X151625776Y-83644781D01*
X151443386Y-83737715D01*
X151277786Y-83858028D01*
X151133028Y-84002786D01*
X151012715Y-84168386D01*
X150965485Y-84261080D01*
X150917510Y-84311876D01*
X150849689Y-84328671D01*
X150783554Y-84306134D01*
X150744515Y-84261080D01*
X150743883Y-84259840D01*
X150697287Y-84168390D01*
X150689556Y-84157749D01*
X150576971Y-84002786D01*
X150432213Y-83858028D01*
X150266613Y-83737715D01*
X150266612Y-83737714D01*
X150266610Y-83737713D01*
X150202745Y-83705172D01*
X150084223Y-83644781D01*
X149889534Y-83581522D01*
X149714995Y-83553878D01*
X149687352Y-83549500D01*
X149482648Y-83549500D01*
X149458329Y-83553351D01*
X149280465Y-83581522D01*
X149085776Y-83644781D01*
X148903386Y-83737715D01*
X148737786Y-83858028D01*
X148593028Y-84002786D01*
X148472715Y-84168386D01*
X148425485Y-84261080D01*
X148377510Y-84311876D01*
X148309689Y-84328671D01*
X148243554Y-84306134D01*
X148204515Y-84261080D01*
X148203883Y-84259840D01*
X148157287Y-84168390D01*
X148149556Y-84157749D01*
X148036971Y-84002786D01*
X147892213Y-83858028D01*
X147726613Y-83737715D01*
X147726612Y-83737714D01*
X147726610Y-83737713D01*
X147662745Y-83705172D01*
X147544223Y-83644781D01*
X147349534Y-83581522D01*
X147174995Y-83553878D01*
X147147352Y-83549500D01*
X146942648Y-83549500D01*
X146918329Y-83553351D01*
X146740465Y-83581522D01*
X146545776Y-83644781D01*
X146363386Y-83737715D01*
X146197786Y-83858028D01*
X146053028Y-84002786D01*
X145932715Y-84168386D01*
X145885485Y-84261080D01*
X145837510Y-84311876D01*
X145769689Y-84328671D01*
X145703554Y-84306134D01*
X145664515Y-84261080D01*
X145663883Y-84259840D01*
X145617287Y-84168390D01*
X145609556Y-84157749D01*
X145496971Y-84002786D01*
X145352213Y-83858028D01*
X145186613Y-83737715D01*
X145186612Y-83737714D01*
X145186610Y-83737713D01*
X145122745Y-83705172D01*
X145004223Y-83644781D01*
X144809534Y-83581522D01*
X144634995Y-83553878D01*
X144607352Y-83549500D01*
X144402648Y-83549500D01*
X144378329Y-83553351D01*
X144200465Y-83581522D01*
X144005776Y-83644781D01*
X143823386Y-83737715D01*
X143657786Y-83858028D01*
X143513028Y-84002786D01*
X143392715Y-84168386D01*
X143345485Y-84261080D01*
X143297510Y-84311876D01*
X143229689Y-84328671D01*
X143163554Y-84306134D01*
X143124515Y-84261080D01*
X143123883Y-84259840D01*
X143077287Y-84168390D01*
X143069556Y-84157749D01*
X142956971Y-84002786D01*
X142812213Y-83858028D01*
X142646613Y-83737715D01*
X142646612Y-83737714D01*
X142646610Y-83737713D01*
X142582745Y-83705172D01*
X142464223Y-83644781D01*
X142269534Y-83581522D01*
X142094995Y-83553878D01*
X142067352Y-83549500D01*
X141862648Y-83549500D01*
X141838329Y-83553351D01*
X141660465Y-83581522D01*
X141465776Y-83644781D01*
X141283386Y-83737715D01*
X141117786Y-83858028D01*
X140973028Y-84002786D01*
X140852715Y-84168386D01*
X140805485Y-84261080D01*
X140757510Y-84311876D01*
X140689689Y-84328671D01*
X140623554Y-84306134D01*
X140584515Y-84261080D01*
X140583883Y-84259840D01*
X140537287Y-84168390D01*
X140529556Y-84157749D01*
X140416971Y-84002786D01*
X140272213Y-83858028D01*
X140106613Y-83737715D01*
X140106612Y-83737714D01*
X140106610Y-83737713D01*
X140042745Y-83705172D01*
X139924223Y-83644781D01*
X139729534Y-83581522D01*
X139554995Y-83553878D01*
X139527352Y-83549500D01*
X139322648Y-83549500D01*
X139298329Y-83553351D01*
X139120465Y-83581522D01*
X138925776Y-83644781D01*
X138743386Y-83737715D01*
X138577786Y-83858028D01*
X138433028Y-84002786D01*
X138312715Y-84168386D01*
X138219781Y-84350776D01*
X138156522Y-84545465D01*
X138124500Y-84747648D01*
X123949600Y-84747648D01*
X123921977Y-84697060D01*
X123926961Y-84627368D01*
X123968833Y-84571435D01*
X124034297Y-84547018D01*
X124090594Y-84556140D01*
X124205503Y-84603737D01*
X124360153Y-84634499D01*
X124360156Y-84634500D01*
X124360158Y-84634500D01*
X124517844Y-84634500D01*
X124517845Y-84634499D01*
X124672497Y-84603737D01*
X124808983Y-84547203D01*
X124818172Y-84543397D01*
X124818172Y-84543396D01*
X124818179Y-84543394D01*
X124949289Y-84455789D01*
X125060789Y-84344289D01*
X125148394Y-84213179D01*
X125208737Y-84067497D01*
X125208739Y-84067489D01*
X125209340Y-84065510D01*
X125209938Y-84064596D01*
X125211068Y-84061870D01*
X125211585Y-84062084D01*
X125247637Y-84007072D01*
X125311450Y-83978615D01*
X125380517Y-83989176D01*
X125432910Y-84035401D01*
X125446660Y-84065510D01*
X125447262Y-84067497D01*
X125507602Y-84213172D01*
X125507609Y-84213185D01*
X125595210Y-84344288D01*
X125595213Y-84344292D01*
X125706707Y-84455786D01*
X125706711Y-84455789D01*
X125837814Y-84543390D01*
X125837827Y-84543397D01*
X125983498Y-84603735D01*
X125983503Y-84603737D01*
X126138153Y-84634499D01*
X126138156Y-84634500D01*
X126138158Y-84634500D01*
X126295844Y-84634500D01*
X126362913Y-84621159D01*
X126362913Y-84621158D01*
X126450497Y-84603737D01*
X126586983Y-84547203D01*
X126596172Y-84543397D01*
X126596172Y-84543396D01*
X126596179Y-84543394D01*
X126727289Y-84455789D01*
X126838789Y-84344289D01*
X126926394Y-84213179D01*
X126986737Y-84067497D01*
X127017500Y-83912842D01*
X127017500Y-83755158D01*
X127017500Y-83755155D01*
X127017499Y-83755153D01*
X127007557Y-83705172D01*
X126986737Y-83600503D01*
X126964124Y-83545910D01*
X126926397Y-83454827D01*
X126926390Y-83454814D01*
X126838789Y-83323711D01*
X126838786Y-83323707D01*
X126727292Y-83212213D01*
X126727288Y-83212210D01*
X126596185Y-83124609D01*
X126596172Y-83124602D01*
X126450501Y-83064264D01*
X126450489Y-83064261D01*
X126295845Y-83033500D01*
X126295842Y-83033500D01*
X126138158Y-83033500D01*
X126138155Y-83033500D01*
X125983510Y-83064261D01*
X125983498Y-83064264D01*
X125837827Y-83124602D01*
X125837814Y-83124609D01*
X125706711Y-83212210D01*
X125706707Y-83212213D01*
X125595213Y-83323707D01*
X125595210Y-83323711D01*
X125507609Y-83454814D01*
X125507602Y-83454827D01*
X125447262Y-83600503D01*
X125446659Y-83602493D01*
X125446059Y-83603407D01*
X125444932Y-83606130D01*
X125444415Y-83605916D01*
X125408359Y-83660930D01*
X125344546Y-83689384D01*
X125275479Y-83678821D01*
X125223088Y-83632595D01*
X125209341Y-83602493D01*
X125208737Y-83600503D01*
X125148397Y-83454827D01*
X125148390Y-83454814D01*
X125060789Y-83323711D01*
X125060786Y-83323707D01*
X124949292Y-83212213D01*
X124949288Y-83212210D01*
X124818185Y-83124609D01*
X124818172Y-83124602D01*
X124672501Y-83064264D01*
X124672489Y-83064261D01*
X124517845Y-83033500D01*
X124517842Y-83033500D01*
X124360158Y-83033500D01*
X124360155Y-83033500D01*
X124205510Y-83064261D01*
X124205498Y-83064264D01*
X124059827Y-83124602D01*
X124059814Y-83124609D01*
X123928711Y-83212210D01*
X123928707Y-83212213D01*
X123817213Y-83323707D01*
X123817210Y-83323711D01*
X123729609Y-83454814D01*
X123729602Y-83454827D01*
X123669264Y-83600498D01*
X123669261Y-83600510D01*
X123638500Y-83755153D01*
X123638500Y-83912846D01*
X123669261Y-84067489D01*
X123669264Y-84067501D01*
X123729602Y-84213172D01*
X123729609Y-84213185D01*
X123817210Y-84344288D01*
X123817213Y-84344292D01*
X123906537Y-84433616D01*
X123940022Y-84494939D01*
X123935038Y-84564631D01*
X123893166Y-84620564D01*
X123827702Y-84644981D01*
X123771404Y-84635858D01*
X123656501Y-84588264D01*
X123656489Y-84588261D01*
X123501845Y-84557500D01*
X123501842Y-84557500D01*
X123344158Y-84557500D01*
X123344155Y-84557500D01*
X123189510Y-84588261D01*
X123189498Y-84588264D01*
X123043827Y-84648602D01*
X123043814Y-84648609D01*
X122912711Y-84736210D01*
X122912707Y-84736213D01*
X122801213Y-84847707D01*
X122801210Y-84847711D01*
X122713609Y-84978814D01*
X122713602Y-84978827D01*
X122653264Y-85124498D01*
X122653261Y-85124510D01*
X122622500Y-85279153D01*
X105621015Y-85279153D01*
X105635957Y-85234062D01*
X105659605Y-85162697D01*
X105659606Y-85162690D01*
X105670099Y-85059986D01*
X105670099Y-84178838D01*
X105689783Y-84111799D01*
X105742587Y-84066044D01*
X105811746Y-84056100D01*
X105841549Y-84064276D01*
X105917503Y-84095737D01*
X106072153Y-84126499D01*
X106072156Y-84126500D01*
X106072158Y-84126500D01*
X106229844Y-84126500D01*
X106229845Y-84126499D01*
X106384497Y-84095737D01*
X106530179Y-84035394D01*
X106661289Y-83947789D01*
X106772789Y-83836289D01*
X106860394Y-83705179D01*
X106866937Y-83689384D01*
X106894967Y-83621711D01*
X106920737Y-83559497D01*
X106951500Y-83404842D01*
X106951500Y-83247158D01*
X106951500Y-83247155D01*
X106951499Y-83247153D01*
X106944549Y-83212213D01*
X106920737Y-83092503D01*
X106920735Y-83092498D01*
X106860397Y-82946827D01*
X106860393Y-82946820D01*
X106840161Y-82916541D01*
X106820349Y-82886890D01*
X106799472Y-82820214D01*
X106817956Y-82752834D01*
X106820350Y-82749108D01*
X106839787Y-82720019D01*
X106860394Y-82689179D01*
X106920737Y-82543497D01*
X106951500Y-82388842D01*
X106951500Y-82231158D01*
X106951500Y-82231155D01*
X106951499Y-82231153D01*
X106946499Y-82206016D01*
X106920737Y-82076503D01*
X106898126Y-82021914D01*
X106860397Y-81930827D01*
X106860390Y-81930814D01*
X106772789Y-81799711D01*
X106772786Y-81799707D01*
X106661292Y-81688213D01*
X106661288Y-81688210D01*
X106530185Y-81600609D01*
X106530172Y-81600602D01*
X106384501Y-81540264D01*
X106384489Y-81540261D01*
X106229845Y-81509500D01*
X106229842Y-81509500D01*
X106072158Y-81509500D01*
X106072155Y-81509500D01*
X105917510Y-81540261D01*
X105917498Y-81540264D01*
X105771827Y-81600602D01*
X105771816Y-81600608D01*
X105646351Y-81684441D01*
X105579674Y-81705318D01*
X105512294Y-81686833D01*
X105489780Y-81669019D01*
X105388445Y-81567684D01*
X105239224Y-81475643D01*
X105239219Y-81475641D01*
X105072797Y-81420494D01*
X105072790Y-81420493D01*
X104970086Y-81410000D01*
X104807600Y-81410000D01*
X104807600Y-85759999D01*
X104307599Y-85759999D01*
X104307600Y-85759998D01*
X104307600Y-83835000D01*
X103445101Y-83835000D01*
X103445101Y-85059986D01*
X99745600Y-85059986D01*
X99745599Y-83581523D01*
X99745599Y-82109998D01*
X99745598Y-82109981D01*
X99735099Y-82007203D01*
X99735098Y-82007200D01*
X99725305Y-81977646D01*
X100526375Y-81977646D01*
X100526375Y-82135339D01*
X100557136Y-82289982D01*
X100557139Y-82289994D01*
X100617477Y-82435665D01*
X100617484Y-82435678D01*
X100705085Y-82566781D01*
X100705088Y-82566785D01*
X100816582Y-82678279D01*
X100816586Y-82678282D01*
X100947689Y-82765883D01*
X100947702Y-82765890D01*
X101073509Y-82818000D01*
X101093378Y-82826230D01*
X101245550Y-82856499D01*
X101248028Y-82856992D01*
X101248031Y-82856993D01*
X101248033Y-82856993D01*
X101405719Y-82856993D01*
X101405720Y-82856992D01*
X101560372Y-82826230D01*
X101706054Y-82765887D01*
X101774705Y-82720016D01*
X101842229Y-82674898D01*
X101842989Y-82676036D01*
X101900887Y-82651439D01*
X101962709Y-82660043D01*
X102068554Y-82703885D01*
X102107503Y-82720018D01*
X102251757Y-82748712D01*
X102262153Y-82750780D01*
X102262156Y-82750781D01*
X102262158Y-82750781D01*
X102419844Y-82750781D01*
X102419845Y-82750780D01*
X102574497Y-82720018D01*
X102677848Y-82677208D01*
X102720935Y-82659362D01*
X102790404Y-82651893D01*
X102841051Y-82675294D01*
X102841646Y-82674405D01*
X102977814Y-82765390D01*
X102977827Y-82765397D01*
X103104824Y-82818000D01*
X103123503Y-82825737D01*
X103278153Y-82856499D01*
X103278156Y-82856500D01*
X103321100Y-82856500D01*
X103388139Y-82876185D01*
X103433894Y-82928989D01*
X103445100Y-82980500D01*
X103445100Y-83335000D01*
X104307600Y-83335000D01*
X104307600Y-81410000D01*
X104145129Y-81410000D01*
X104145112Y-81410001D01*
X104042403Y-81420494D01*
X104042397Y-81420495D01*
X103969133Y-81444772D01*
X103899304Y-81447173D01*
X103861239Y-81430168D01*
X103736185Y-81346609D01*
X103736172Y-81346602D01*
X103590501Y-81286264D01*
X103590489Y-81286261D01*
X103435845Y-81255500D01*
X103435842Y-81255500D01*
X103278158Y-81255500D01*
X103278155Y-81255500D01*
X103123510Y-81286261D01*
X103123498Y-81286264D01*
X102977064Y-81346919D01*
X102907595Y-81354388D01*
X102856949Y-81330984D01*
X102856354Y-81331876D01*
X102720185Y-81240890D01*
X102720172Y-81240883D01*
X102574501Y-81180545D01*
X102574489Y-81180542D01*
X102419845Y-81149781D01*
X102419842Y-81149781D01*
X102262158Y-81149781D01*
X102262155Y-81149781D01*
X102107510Y-81180542D01*
X102107498Y-81180545D01*
X101961827Y-81240883D01*
X101961814Y-81240890D01*
X101825646Y-81331876D01*
X101824888Y-81330741D01*
X101766955Y-81355337D01*
X101705165Y-81346730D01*
X101560376Y-81286757D01*
X101560364Y-81286754D01*
X101405720Y-81255993D01*
X101405717Y-81255993D01*
X101248033Y-81255993D01*
X101248030Y-81255993D01*
X101093385Y-81286754D01*
X101093373Y-81286757D01*
X100947702Y-81347095D01*
X100947689Y-81347102D01*
X100816586Y-81434703D01*
X100816582Y-81434706D01*
X100705088Y-81546200D01*
X100705085Y-81546204D01*
X100617484Y-81677307D01*
X100617477Y-81677320D01*
X100557139Y-81822991D01*
X100557136Y-81823003D01*
X100526375Y-81977646D01*
X99725305Y-81977646D01*
X99709786Y-81930814D01*
X99679914Y-81840666D01*
X99669019Y-81823003D01*
X99612942Y-81732086D01*
X99594502Y-81664694D01*
X99615377Y-81598102D01*
X99671631Y-81513914D01*
X99747051Y-81331835D01*
X99785500Y-81138540D01*
X99785500Y-80941459D01*
X99785500Y-80941456D01*
X99785499Y-80941454D01*
X99779142Y-80909496D01*
X99747051Y-80748164D01*
X99712275Y-80664208D01*
X99704806Y-80594739D01*
X99736081Y-80532259D01*
X99752843Y-80517252D01*
X100741878Y-79781984D01*
X100807422Y-79757786D01*
X100815857Y-79757499D01*
X101224602Y-79757499D01*
X101224608Y-79757499D01*
X101327397Y-79746999D01*
X101493934Y-79691814D01*
X101643256Y-79599712D01*
X101767312Y-79475656D01*
X101859414Y-79326334D01*
X101914599Y-79159797D01*
X101925100Y-79057009D01*
X101925099Y-77656992D01*
X101919798Y-77605100D01*
X101932567Y-77536409D01*
X101980448Y-77485525D01*
X102043156Y-77468500D01*
X102606143Y-77468500D01*
X102634220Y-77462914D01*
X102720547Y-77445743D01*
X102799436Y-77430051D01*
X102884179Y-77394949D01*
X102981514Y-77354632D01*
X103145382Y-77245139D01*
X103258385Y-77132135D01*
X112318000Y-77132135D01*
X112318000Y-79227870D01*
X112318001Y-79227876D01*
X112324408Y-79287483D01*
X112374702Y-79422328D01*
X112374706Y-79422335D01*
X112460952Y-79537544D01*
X112460955Y-79537547D01*
X112576164Y-79623793D01*
X112576171Y-79623797D01*
X112711017Y-79674091D01*
X112711016Y-79674091D01*
X112717944Y-79674835D01*
X112770627Y-79680500D01*
X114771372Y-79680499D01*
X114830983Y-79674091D01*
X114965831Y-79623796D01*
X115081046Y-79537546D01*
X115167296Y-79422331D01*
X115177872Y-79393974D01*
X115219740Y-79338041D01*
X115285204Y-79313622D01*
X115353477Y-79328472D01*
X115366940Y-79336988D01*
X115549723Y-79469788D01*
X115753429Y-79573582D01*
X115970871Y-79644234D01*
X116061000Y-79658509D01*
X116061000Y-78670747D01*
X116098708Y-78692518D01*
X116238591Y-78730000D01*
X116383409Y-78730000D01*
X116523292Y-78692518D01*
X116561000Y-78670747D01*
X116561000Y-79658508D01*
X116651128Y-79644234D01*
X116868570Y-79573582D01*
X117072276Y-79469788D01*
X117257242Y-79335402D01*
X117418905Y-79173739D01*
X117480371Y-79089137D01*
X117535701Y-79046470D01*
X117605314Y-79040491D01*
X117667109Y-79073096D01*
X117681007Y-79089134D01*
X117742714Y-79174066D01*
X117904434Y-79335786D01*
X118089462Y-79470217D01*
X118245733Y-79549841D01*
X118293244Y-79574049D01*
X118510751Y-79644721D01*
X118510752Y-79644721D01*
X118510755Y-79644722D01*
X118736646Y-79680500D01*
X118736647Y-79680500D01*
X118965353Y-79680500D01*
X118965354Y-79680500D01*
X119191245Y-79644722D01*
X119191248Y-79644721D01*
X119191249Y-79644721D01*
X119408755Y-79574049D01*
X119408755Y-79574048D01*
X119408758Y-79574048D01*
X119612538Y-79470217D01*
X119797566Y-79335786D01*
X119959286Y-79174066D01*
X120059266Y-79036455D01*
X167634500Y-79036455D01*
X167634500Y-79233544D01*
X167672947Y-79426828D01*
X167672949Y-79426836D01*
X167748367Y-79608910D01*
X167748372Y-79608920D01*
X167857860Y-79772780D01*
X167857863Y-79772784D01*
X168129488Y-80044409D01*
X168147351Y-80067002D01*
X168592210Y-80788364D01*
X168751103Y-81046019D01*
X168803044Y-81130243D01*
X168821500Y-81195331D01*
X168821500Y-81634001D01*
X168821501Y-81634019D01*
X168832000Y-81736796D01*
X168832001Y-81736799D01*
X168877784Y-81874961D01*
X168887186Y-81903334D01*
X168979288Y-82052656D01*
X169103344Y-82176712D01*
X169252666Y-82268814D01*
X169419203Y-82323999D01*
X169521991Y-82334500D01*
X171622008Y-82334499D01*
X171724797Y-82323999D01*
X171891334Y-82268814D01*
X172040656Y-82176712D01*
X172164712Y-82052656D01*
X172256814Y-81903334D01*
X172311999Y-81736797D01*
X172322500Y-81634009D01*
X172322499Y-80233992D01*
X172311999Y-80131203D01*
X172256814Y-79964666D01*
X172164712Y-79815344D01*
X172040656Y-79691288D01*
X171939700Y-79629018D01*
X171891336Y-79599187D01*
X171891331Y-79599185D01*
X171873704Y-79593344D01*
X171724797Y-79544001D01*
X171724795Y-79544000D01*
X171622016Y-79533500D01*
X171622009Y-79533500D01*
X171102744Y-79533500D01*
X171039665Y-79516257D01*
X169565899Y-78645453D01*
X169541297Y-78626377D01*
X169272784Y-78357863D01*
X169272780Y-78357860D01*
X169108920Y-78248372D01*
X169108910Y-78248367D01*
X168926836Y-78172949D01*
X168926828Y-78172947D01*
X168733543Y-78134500D01*
X168733540Y-78134500D01*
X168536460Y-78134500D01*
X168536457Y-78134500D01*
X168343171Y-78172947D01*
X168343163Y-78172949D01*
X168161089Y-78248367D01*
X168161079Y-78248372D01*
X167997219Y-78357860D01*
X167997215Y-78357863D01*
X167857863Y-78497215D01*
X167857860Y-78497219D01*
X167748372Y-78661079D01*
X167748367Y-78661089D01*
X167672949Y-78843163D01*
X167672947Y-78843171D01*
X167634500Y-79036455D01*
X120059266Y-79036455D01*
X120093717Y-78989038D01*
X120197548Y-78785258D01*
X120201618Y-78772732D01*
X120268221Y-78567749D01*
X120268221Y-78567748D01*
X120268222Y-78567745D01*
X120304000Y-78341854D01*
X120304000Y-78018146D01*
X120268222Y-77792255D01*
X120268221Y-77792251D01*
X120268221Y-77792250D01*
X120197549Y-77574744D01*
X120172161Y-77524918D01*
X120093717Y-77370962D01*
X119959286Y-77185934D01*
X119901034Y-77127682D01*
X138125000Y-77127682D01*
X138125000Y-77332317D01*
X138157009Y-77534417D01*
X138220244Y-77729031D01*
X138313141Y-77911350D01*
X138313147Y-77911359D01*
X138345523Y-77955921D01*
X138345524Y-77955922D01*
X139025000Y-77276446D01*
X139025000Y-77282661D01*
X139052259Y-77384394D01*
X139104920Y-77475606D01*
X139179394Y-77550080D01*
X139270606Y-77602741D01*
X139372339Y-77630000D01*
X139378553Y-77630000D01*
X138699076Y-78309474D01*
X138743650Y-78341859D01*
X138925968Y-78434755D01*
X139120582Y-78497990D01*
X139322683Y-78530000D01*
X139527317Y-78530000D01*
X139729417Y-78497990D01*
X139924031Y-78434755D01*
X140106349Y-78341859D01*
X140150921Y-78309474D01*
X139471447Y-77630000D01*
X139477661Y-77630000D01*
X139579394Y-77602741D01*
X139670606Y-77550080D01*
X139745080Y-77475606D01*
X139797741Y-77384394D01*
X139825000Y-77282661D01*
X139825000Y-77276447D01*
X140504474Y-77955921D01*
X140536861Y-77911347D01*
X140536861Y-77911346D01*
X140584234Y-77818371D01*
X140632208Y-77767575D01*
X140700028Y-77750779D01*
X140766164Y-77773316D01*
X140805203Y-77818369D01*
X140852713Y-77911611D01*
X140973028Y-78077213D01*
X141117786Y-78221971D01*
X141238226Y-78309474D01*
X141283390Y-78342287D01*
X141371794Y-78387331D01*
X141465776Y-78435218D01*
X141465778Y-78435218D01*
X141465781Y-78435220D01*
X141556856Y-78464812D01*
X141660465Y-78498477D01*
X141761557Y-78514488D01*
X141862648Y-78530500D01*
X141862649Y-78530500D01*
X142067351Y-78530500D01*
X142067352Y-78530500D01*
X142269534Y-78498477D01*
X142464219Y-78435220D01*
X142646610Y-78342287D01*
X142739590Y-78274732D01*
X142812213Y-78221971D01*
X142812215Y-78221968D01*
X142812219Y-78221966D01*
X142956966Y-78077219D01*
X142956968Y-78077215D01*
X142956971Y-78077213D01*
X143077284Y-77911614D01*
X143077286Y-77911611D01*
X143077287Y-77911610D01*
X143124516Y-77818917D01*
X143172489Y-77768123D01*
X143240310Y-77751328D01*
X143306445Y-77773865D01*
X143345483Y-77818917D01*
X143351139Y-77830016D01*
X143392715Y-77911614D01*
X143513028Y-78077213D01*
X143657786Y-78221971D01*
X143778226Y-78309474D01*
X143823390Y-78342287D01*
X143911794Y-78387331D01*
X144005776Y-78435218D01*
X144005778Y-78435218D01*
X144005781Y-78435220D01*
X144096856Y-78464812D01*
X144200465Y-78498477D01*
X144301557Y-78514488D01*
X144402648Y-78530500D01*
X144402649Y-78530500D01*
X144607351Y-78530500D01*
X144607352Y-78530500D01*
X144809534Y-78498477D01*
X145004219Y-78435220D01*
X145186610Y-78342287D01*
X145279590Y-78274732D01*
X145352213Y-78221971D01*
X145352215Y-78221968D01*
X145352219Y-78221966D01*
X145496966Y-78077219D01*
X145496968Y-78077215D01*
X145496971Y-78077213D01*
X145617284Y-77911614D01*
X145617286Y-77911611D01*
X145617287Y-77911610D01*
X145664516Y-77818917D01*
X145712489Y-77768123D01*
X145780310Y-77751328D01*
X145846445Y-77773865D01*
X145885483Y-77818917D01*
X145891139Y-77830016D01*
X145932715Y-77911614D01*
X146053028Y-78077213D01*
X146197786Y-78221971D01*
X146318226Y-78309474D01*
X146363390Y-78342287D01*
X146451794Y-78387331D01*
X146545776Y-78435218D01*
X146545778Y-78435218D01*
X146545781Y-78435220D01*
X146636856Y-78464812D01*
X146740465Y-78498477D01*
X146841557Y-78514488D01*
X146942648Y-78530500D01*
X146942649Y-78530500D01*
X147147351Y-78530500D01*
X147147352Y-78530500D01*
X147349534Y-78498477D01*
X147544219Y-78435220D01*
X147726610Y-78342287D01*
X147819590Y-78274732D01*
X147892213Y-78221971D01*
X147892215Y-78221968D01*
X147892219Y-78221966D01*
X148036966Y-78077219D01*
X148036968Y-78077215D01*
X148036971Y-78077213D01*
X148157284Y-77911614D01*
X148157286Y-77911611D01*
X148157287Y-77911610D01*
X148204516Y-77818917D01*
X148252489Y-77768123D01*
X148320310Y-77751328D01*
X148386445Y-77773865D01*
X148425483Y-77818917D01*
X148431139Y-77830016D01*
X148472715Y-77911614D01*
X148593028Y-78077213D01*
X148737786Y-78221971D01*
X148858226Y-78309474D01*
X148903390Y-78342287D01*
X148991794Y-78387331D01*
X149085776Y-78435218D01*
X149085778Y-78435218D01*
X149085781Y-78435220D01*
X149176856Y-78464812D01*
X149280465Y-78498477D01*
X149381557Y-78514488D01*
X149482648Y-78530500D01*
X149482649Y-78530500D01*
X149687351Y-78530500D01*
X149687352Y-78530500D01*
X149889534Y-78498477D01*
X150084219Y-78435220D01*
X150266610Y-78342287D01*
X150359590Y-78274732D01*
X150432213Y-78221971D01*
X150432215Y-78221968D01*
X150432219Y-78221966D01*
X150576966Y-78077219D01*
X150576968Y-78077215D01*
X150576971Y-78077213D01*
X150697284Y-77911614D01*
X150697286Y-77911611D01*
X150697287Y-77911610D01*
X150744516Y-77818917D01*
X150792489Y-77768123D01*
X150860310Y-77751328D01*
X150926445Y-77773865D01*
X150965483Y-77818917D01*
X150971139Y-77830016D01*
X151012715Y-77911614D01*
X151133028Y-78077213D01*
X151277786Y-78221971D01*
X151398226Y-78309474D01*
X151443390Y-78342287D01*
X151531794Y-78387331D01*
X151625776Y-78435218D01*
X151625778Y-78435218D01*
X151625781Y-78435220D01*
X151716856Y-78464812D01*
X151820465Y-78498477D01*
X151921557Y-78514488D01*
X152022648Y-78530500D01*
X152022649Y-78530500D01*
X152227351Y-78530500D01*
X152227352Y-78530500D01*
X152429534Y-78498477D01*
X152624219Y-78435220D01*
X152806610Y-78342287D01*
X152899590Y-78274732D01*
X152972213Y-78221971D01*
X152972215Y-78221968D01*
X152972219Y-78221966D01*
X153116966Y-78077219D01*
X153116968Y-78077215D01*
X153116971Y-78077213D01*
X153237284Y-77911614D01*
X153237286Y-77911611D01*
X153237287Y-77911610D01*
X153284516Y-77818917D01*
X153332489Y-77768123D01*
X153400310Y-77751328D01*
X153466445Y-77773865D01*
X153505483Y-77818917D01*
X153511139Y-77830016D01*
X153552715Y-77911614D01*
X153673028Y-78077213D01*
X153817786Y-78221971D01*
X153938226Y-78309474D01*
X153983390Y-78342287D01*
X154071794Y-78387331D01*
X154165776Y-78435218D01*
X154165778Y-78435218D01*
X154165781Y-78435220D01*
X154256856Y-78464812D01*
X154360465Y-78498477D01*
X154461557Y-78514488D01*
X154562648Y-78530500D01*
X154562649Y-78530500D01*
X154767351Y-78530500D01*
X154767352Y-78530500D01*
X154969534Y-78498477D01*
X155164219Y-78435220D01*
X155346610Y-78342287D01*
X155439590Y-78274732D01*
X155512213Y-78221971D01*
X155512215Y-78221968D01*
X155512219Y-78221966D01*
X155656966Y-78077219D01*
X155725021Y-77983547D01*
X155780349Y-77940882D01*
X155849963Y-77934902D01*
X155911758Y-77967507D01*
X155943044Y-78017427D01*
X155970186Y-78099334D01*
X156062288Y-78248656D01*
X156186344Y-78372712D01*
X156335666Y-78464814D01*
X156502203Y-78519999D01*
X156604991Y-78530500D01*
X157805008Y-78530499D01*
X157907797Y-78519999D01*
X158074334Y-78464814D01*
X158223656Y-78372712D01*
X158347712Y-78248656D01*
X158439814Y-78099334D01*
X158494999Y-77932797D01*
X158505500Y-77830009D01*
X158505499Y-76717983D01*
X172821500Y-76717983D01*
X172821500Y-78118001D01*
X172821501Y-78118018D01*
X172832000Y-78220796D01*
X172832001Y-78220799D01*
X172887185Y-78387331D01*
X172887187Y-78387336D01*
X172916435Y-78434755D01*
X172979288Y-78536656D01*
X173103344Y-78660712D01*
X173252666Y-78752814D01*
X173270288Y-78758653D01*
X173327733Y-78798425D01*
X173344598Y-78825998D01*
X173477772Y-79125638D01*
X173487011Y-79194894D01*
X173477772Y-79226360D01*
X173344598Y-79526001D01*
X173299382Y-79579268D01*
X173270291Y-79593345D01*
X173252668Y-79599184D01*
X173103342Y-79691289D01*
X172979289Y-79815342D01*
X172887187Y-79964663D01*
X172887186Y-79964666D01*
X172832001Y-80131203D01*
X172832001Y-80131204D01*
X172832000Y-80131204D01*
X172821500Y-80233983D01*
X172821500Y-81634001D01*
X172821501Y-81634018D01*
X172832000Y-81736796D01*
X172832001Y-81736799D01*
X172877784Y-81874961D01*
X172887186Y-81903334D01*
X172979288Y-82052656D01*
X173103344Y-82176712D01*
X173252666Y-82268814D01*
X173419203Y-82323999D01*
X173521991Y-82334500D01*
X173901168Y-82334499D01*
X173968207Y-82354183D01*
X173970611Y-82355768D01*
X174034713Y-82399099D01*
X174263426Y-82553703D01*
X174307943Y-82607554D01*
X174316278Y-82676925D01*
X174308544Y-82703885D01*
X174276950Y-82780159D01*
X174276947Y-82780171D01*
X174238500Y-82973455D01*
X174238500Y-83170544D01*
X174276947Y-83363828D01*
X174276949Y-83363836D01*
X174352367Y-83545910D01*
X174352372Y-83545920D01*
X174461860Y-83709780D01*
X174461863Y-83709784D01*
X175029044Y-84276965D01*
X175062529Y-84338288D01*
X175059069Y-84403649D01*
X175011501Y-84547200D01*
X175011500Y-84547204D01*
X175001000Y-84649983D01*
X175001000Y-87600001D01*
X175001001Y-87600018D01*
X175011500Y-87702796D01*
X175011501Y-87702799D01*
X175066685Y-87869331D01*
X175066687Y-87869336D01*
X175082953Y-87895707D01*
X175158788Y-88018656D01*
X175282844Y-88142712D01*
X175432166Y-88234814D01*
X175598703Y-88289999D01*
X175701491Y-88300500D01*
X176526508Y-88300499D01*
X176526516Y-88300498D01*
X176526519Y-88300498D01*
X176582802Y-88294748D01*
X176629297Y-88289999D01*
X176795834Y-88234814D01*
X176945156Y-88142712D01*
X177069212Y-88018656D01*
X177161314Y-87869334D01*
X177216499Y-87702797D01*
X177227000Y-87600009D01*
X177226999Y-86367565D01*
X177230340Y-86338977D01*
X177240488Y-86296147D01*
X177562976Y-84935084D01*
X177571363Y-84920057D01*
X177574802Y-84904250D01*
X177595953Y-84875996D01*
X177667333Y-84804616D01*
X177728656Y-84771131D01*
X177798348Y-84776115D01*
X177842693Y-84804614D01*
X177880340Y-84842261D01*
X177903219Y-84865140D01*
X178067079Y-84974628D01*
X178067092Y-84974635D01*
X178249160Y-85050049D01*
X178249165Y-85050051D01*
X178249169Y-85050051D01*
X178249170Y-85050052D01*
X178442456Y-85088500D01*
X178442459Y-85088500D01*
X179401543Y-85088500D01*
X179544803Y-85060003D01*
X179594835Y-85050051D01*
X179776914Y-84974632D01*
X179940782Y-84865139D01*
X180080139Y-84725782D01*
X180189632Y-84561914D01*
X180195685Y-84547302D01*
X180216550Y-84496927D01*
X180265051Y-84379835D01*
X180288673Y-84261080D01*
X180303500Y-84186543D01*
X180303500Y-83999984D01*
X182076000Y-83999984D01*
X182076000Y-85700015D01*
X182086500Y-85802795D01*
X182086501Y-85802797D01*
X182100652Y-85845501D01*
X182141686Y-85969335D01*
X182141687Y-85969337D01*
X182233786Y-86118651D01*
X182233789Y-86118655D01*
X182357845Y-86242711D01*
X182372229Y-86251583D01*
X182418954Y-86303530D01*
X182430177Y-86372493D01*
X182407452Y-86430007D01*
X182300393Y-86577361D01*
X182189597Y-86794812D01*
X182114178Y-87026927D01*
X182088351Y-87189991D01*
X182076000Y-87267973D01*
X182076000Y-87512027D01*
X182083327Y-87558286D01*
X182106199Y-87702697D01*
X182114179Y-87753076D01*
X182189596Y-87985185D01*
X182285036Y-88172498D01*
X182300396Y-88202642D01*
X182443839Y-88400076D01*
X182443843Y-88400081D01*
X182616081Y-88572319D01*
X182649566Y-88633642D01*
X182644582Y-88703334D01*
X182616081Y-88747681D01*
X182443843Y-88919918D01*
X182443839Y-88919923D01*
X182300396Y-89117357D01*
X182189597Y-89334812D01*
X182114178Y-89566927D01*
X182088351Y-89729991D01*
X182076000Y-89807973D01*
X182076000Y-90052027D01*
X182078301Y-90066552D01*
X182112189Y-90280516D01*
X182114179Y-90293076D01*
X182189596Y-90525185D01*
X182291960Y-90726087D01*
X182300396Y-90742642D01*
X182443839Y-90940076D01*
X182443843Y-90940081D01*
X182616081Y-91112319D01*
X182649566Y-91173642D01*
X182644582Y-91243334D01*
X182616081Y-91287681D01*
X182443843Y-91459918D01*
X182443839Y-91459923D01*
X182300396Y-91657357D01*
X182189597Y-91874812D01*
X182114178Y-92106927D01*
X182076000Y-92347973D01*
X182076000Y-92592026D01*
X182109739Y-92805047D01*
X182114179Y-92833076D01*
X182189596Y-93065185D01*
X182297898Y-93277741D01*
X182300396Y-93282642D01*
X182443839Y-93480076D01*
X182443843Y-93480081D01*
X182616418Y-93652656D01*
X182616423Y-93652660D01*
X182764358Y-93760140D01*
X182813861Y-93796106D01*
X183031315Y-93906904D01*
X183263424Y-93982321D01*
X183504473Y-94020500D01*
X183504474Y-94020500D01*
X183748526Y-94020500D01*
X183748527Y-94020500D01*
X183989576Y-93982321D01*
X184221685Y-93906904D01*
X184439139Y-93796106D01*
X184636583Y-93652655D01*
X184809155Y-93480083D01*
X184952606Y-93282639D01*
X185063404Y-93065185D01*
X185138821Y-92833076D01*
X185177000Y-92592027D01*
X185177000Y-92347973D01*
X185138821Y-92106924D01*
X185063404Y-91874815D01*
X184952606Y-91657361D01*
X184893214Y-91575615D01*
X184809160Y-91459923D01*
X184809156Y-91459918D01*
X184636919Y-91287681D01*
X184603434Y-91226358D01*
X184608418Y-91156666D01*
X184636919Y-91112319D01*
X184704222Y-91045016D01*
X184809155Y-90940083D01*
X184952606Y-90742639D01*
X185063404Y-90525185D01*
X185138821Y-90293076D01*
X185177000Y-90052027D01*
X185177000Y-89807973D01*
X185138821Y-89566924D01*
X185063404Y-89334815D01*
X184952606Y-89117361D01*
X184896759Y-89040494D01*
X184809160Y-88919923D01*
X184809156Y-88919918D01*
X184636919Y-88747681D01*
X184603434Y-88686358D01*
X184608418Y-88616666D01*
X184636919Y-88572319D01*
X184722771Y-88486467D01*
X184809155Y-88400083D01*
X184952606Y-88202639D01*
X185063404Y-87985185D01*
X185138821Y-87753076D01*
X185177000Y-87512027D01*
X185177000Y-87267973D01*
X185138821Y-87026924D01*
X185063404Y-86794815D01*
X184952606Y-86577361D01*
X184896759Y-86500494D01*
X184845548Y-86430007D01*
X184822068Y-86364201D01*
X184837894Y-86296147D01*
X184880768Y-86251584D01*
X184895155Y-86242711D01*
X185019211Y-86118655D01*
X185111314Y-85969334D01*
X185166499Y-85802797D01*
X185177000Y-85700008D01*
X185177000Y-83999992D01*
X185166499Y-83897203D01*
X185111314Y-83730666D01*
X185098431Y-83709780D01*
X185019213Y-83581348D01*
X185019210Y-83581344D01*
X184895155Y-83457289D01*
X184895151Y-83457286D01*
X184745837Y-83365187D01*
X184745835Y-83365186D01*
X184639879Y-83330076D01*
X184579297Y-83310001D01*
X184579295Y-83310000D01*
X184476515Y-83299500D01*
X184476508Y-83299500D01*
X182776492Y-83299500D01*
X182776484Y-83299500D01*
X182673704Y-83310000D01*
X182673703Y-83310001D01*
X182507164Y-83365186D01*
X182507162Y-83365187D01*
X182357848Y-83457286D01*
X182357844Y-83457289D01*
X182233789Y-83581344D01*
X182233786Y-83581348D01*
X182141687Y-83730662D01*
X182141686Y-83730664D01*
X182086501Y-83897203D01*
X182086500Y-83897204D01*
X182076000Y-83999984D01*
X180303500Y-83999984D01*
X180303500Y-83820781D01*
X180323185Y-83753742D01*
X180339815Y-83733104D01*
X180594845Y-83478074D01*
X180624381Y-83456233D01*
X181494997Y-82994112D01*
X181632790Y-82920972D01*
X181690927Y-82906499D01*
X182202002Y-82906499D01*
X182202008Y-82906499D01*
X182304797Y-82895999D01*
X182471334Y-82840814D01*
X182620656Y-82748712D01*
X182744712Y-82624656D01*
X182836814Y-82475334D01*
X182891999Y-82308797D01*
X182902500Y-82206009D01*
X182902499Y-80105992D01*
X182891999Y-80003203D01*
X182836814Y-79836666D01*
X182744712Y-79687344D01*
X182620656Y-79563288D01*
X182471334Y-79471186D01*
X182379834Y-79440866D01*
X182378820Y-79440164D01*
X182377588Y-79440098D01*
X182350167Y-79420325D01*
X182322391Y-79401094D01*
X182321917Y-79399954D01*
X182320915Y-79399232D01*
X182308542Y-79367785D01*
X182295568Y-79336579D01*
X182295638Y-79334986D01*
X182295334Y-79334214D01*
X182297223Y-79298970D01*
X182311210Y-79228651D01*
X182331572Y-79181263D01*
X182671550Y-78700343D01*
X182685113Y-78684254D01*
X182744712Y-78624656D01*
X182836814Y-78475334D01*
X182891999Y-78308797D01*
X182902500Y-78206009D01*
X182902499Y-76105992D01*
X182900588Y-76087289D01*
X182891999Y-76003203D01*
X182891998Y-76003200D01*
X182889342Y-75995185D01*
X182836814Y-75836666D01*
X182744712Y-75687344D01*
X182620656Y-75563288D01*
X182471334Y-75471186D01*
X182304797Y-75416001D01*
X182304795Y-75416000D01*
X182202010Y-75405500D01*
X180801998Y-75405500D01*
X180801981Y-75405501D01*
X180699203Y-75416000D01*
X180699200Y-75416001D01*
X180532668Y-75471185D01*
X180532663Y-75471187D01*
X180383342Y-75563289D01*
X180259289Y-75687342D01*
X180167187Y-75836663D01*
X180167185Y-75836668D01*
X180139686Y-75919656D01*
X180112001Y-76003203D01*
X180112001Y-76003204D01*
X180112000Y-76003204D01*
X180101500Y-76105983D01*
X180101500Y-78206001D01*
X180101501Y-78206018D01*
X180112001Y-78308800D01*
X180129673Y-78362132D01*
X180134872Y-78384694D01*
X180136260Y-78395074D01*
X180136262Y-78395083D01*
X180329873Y-79079449D01*
X180333959Y-79101050D01*
X180334500Y-79106544D01*
X180372947Y-79299829D01*
X180372950Y-79299839D01*
X180421849Y-79417893D01*
X180429318Y-79487362D01*
X180398042Y-79549841D01*
X180384209Y-79562604D01*
X180383343Y-79563288D01*
X180259289Y-79687342D01*
X180167187Y-79836663D01*
X180167185Y-79836668D01*
X180139349Y-79920670D01*
X180112001Y-80003203D01*
X180112001Y-80003204D01*
X180112000Y-80003204D01*
X180101500Y-80105983D01*
X180101500Y-80592037D01*
X180082114Y-80658610D01*
X179648427Y-81340118D01*
X179595828Y-81386108D01*
X179526715Y-81396361D01*
X179463030Y-81367620D01*
X179439465Y-81340534D01*
X179433488Y-81331223D01*
X179427632Y-81317086D01*
X179345520Y-81194196D01*
X179344925Y-81193269D01*
X179342480Y-81184930D01*
X179325926Y-81138987D01*
X179325880Y-81138544D01*
X179310088Y-80985249D01*
X179309022Y-80975783D01*
X179308964Y-80975308D01*
X179308638Y-80973580D01*
X179306499Y-80950645D01*
X179306499Y-80105998D01*
X179306498Y-80105981D01*
X179295999Y-80003203D01*
X179295998Y-80003200D01*
X179261249Y-79898336D01*
X179240814Y-79836666D01*
X179148712Y-79687344D01*
X179024656Y-79563288D01*
X178875334Y-79471186D01*
X178708797Y-79416001D01*
X178708795Y-79416000D01*
X178606010Y-79405500D01*
X177205998Y-79405500D01*
X177205981Y-79405501D01*
X177103203Y-79416000D01*
X177103200Y-79416001D01*
X176936668Y-79471185D01*
X176936663Y-79471187D01*
X176787342Y-79563289D01*
X176663289Y-79687342D01*
X176571187Y-79836663D01*
X176571185Y-79836668D01*
X176515999Y-80003208D01*
X176514767Y-80008963D01*
X176481479Y-80070393D01*
X176420263Y-80104074D01*
X176350556Y-80099313D01*
X176294489Y-80057621D01*
X176275812Y-80022000D01*
X176256814Y-79964666D01*
X176164712Y-79815344D01*
X176040656Y-79691288D01*
X175891334Y-79599186D01*
X175891332Y-79599185D01*
X175891330Y-79599184D01*
X175891331Y-79599184D01*
X175873706Y-79593344D01*
X175816262Y-79553571D01*
X175799399Y-79526000D01*
X175795069Y-79516257D01*
X175666225Y-79226358D01*
X175656987Y-79157104D01*
X175666224Y-79125642D01*
X175799399Y-78825998D01*
X175844615Y-78772732D01*
X175873710Y-78758653D01*
X175891334Y-78752814D01*
X176040656Y-78660712D01*
X176164712Y-78536656D01*
X176256814Y-78387334D01*
X176311999Y-78220797D01*
X176322500Y-78118009D01*
X176322499Y-76717992D01*
X176319887Y-76692426D01*
X176311999Y-76615203D01*
X176311998Y-76615200D01*
X176300002Y-76578999D01*
X176256814Y-76448666D01*
X176164712Y-76299344D01*
X176040656Y-76175288D01*
X175906023Y-76092246D01*
X175891336Y-76083187D01*
X175891331Y-76083185D01*
X175889862Y-76082698D01*
X175724797Y-76028001D01*
X175724795Y-76028000D01*
X175622010Y-76017500D01*
X173521998Y-76017500D01*
X173521981Y-76017501D01*
X173419203Y-76028000D01*
X173419200Y-76028001D01*
X173252668Y-76083185D01*
X173252663Y-76083187D01*
X173103342Y-76175289D01*
X172979289Y-76299342D01*
X172887187Y-76448663D01*
X172887185Y-76448668D01*
X172865363Y-76514522D01*
X172832001Y-76615203D01*
X172832001Y-76615204D01*
X172832000Y-76615204D01*
X172821500Y-76717983D01*
X158505499Y-76717983D01*
X158505499Y-76629992D01*
X158494999Y-76527203D01*
X158439814Y-76360666D01*
X158347712Y-76211344D01*
X158223656Y-76087288D01*
X158110511Y-76017500D01*
X158074336Y-75995187D01*
X158074331Y-75995185D01*
X158072862Y-75994698D01*
X157907797Y-75940001D01*
X157907795Y-75940000D01*
X157805010Y-75929500D01*
X156604998Y-75929500D01*
X156604981Y-75929501D01*
X156502203Y-75940000D01*
X156502200Y-75940001D01*
X156335668Y-75995185D01*
X156335663Y-75995187D01*
X156186342Y-76087289D01*
X156062289Y-76211342D01*
X155970187Y-76360663D01*
X155970186Y-76360666D01*
X155943045Y-76442571D01*
X155903271Y-76500016D01*
X155838755Y-76526838D01*
X155769979Y-76514522D01*
X155725021Y-76476452D01*
X155656966Y-76382781D01*
X155512219Y-76238034D01*
X155512213Y-76238028D01*
X155346613Y-76117715D01*
X155346612Y-76117714D01*
X155346610Y-76117713D01*
X155278845Y-76083185D01*
X155164223Y-76024781D01*
X154969534Y-75961522D01*
X154794995Y-75933878D01*
X154767352Y-75929500D01*
X154562648Y-75929500D01*
X154538329Y-75933351D01*
X154360465Y-75961522D01*
X154165776Y-76024781D01*
X153983386Y-76117715D01*
X153817786Y-76238028D01*
X153673028Y-76382786D01*
X153552715Y-76548386D01*
X153505485Y-76641080D01*
X153457510Y-76691876D01*
X153389689Y-76708671D01*
X153323554Y-76686134D01*
X153284515Y-76641080D01*
X153269749Y-76612100D01*
X153237287Y-76548390D01*
X153205092Y-76504077D01*
X153116971Y-76382786D01*
X152972213Y-76238028D01*
X152806613Y-76117715D01*
X152806612Y-76117714D01*
X152806610Y-76117713D01*
X152738845Y-76083185D01*
X152624223Y-76024781D01*
X152429534Y-75961522D01*
X152254995Y-75933878D01*
X152227352Y-75929500D01*
X152022648Y-75929500D01*
X151998329Y-75933351D01*
X151820465Y-75961522D01*
X151625776Y-76024781D01*
X151443386Y-76117715D01*
X151277786Y-76238028D01*
X151133028Y-76382786D01*
X151012715Y-76548386D01*
X150965485Y-76641080D01*
X150917510Y-76691876D01*
X150849689Y-76708671D01*
X150783554Y-76686134D01*
X150744515Y-76641080D01*
X150729749Y-76612100D01*
X150697287Y-76548390D01*
X150665092Y-76504077D01*
X150576971Y-76382786D01*
X150432213Y-76238028D01*
X150266613Y-76117715D01*
X150266612Y-76117714D01*
X150266610Y-76117713D01*
X150198845Y-76083185D01*
X150084223Y-76024781D01*
X149889534Y-75961522D01*
X149714995Y-75933878D01*
X149687352Y-75929500D01*
X149482648Y-75929500D01*
X149458329Y-75933351D01*
X149280465Y-75961522D01*
X149085776Y-76024781D01*
X148903386Y-76117715D01*
X148737786Y-76238028D01*
X148593028Y-76382786D01*
X148472715Y-76548386D01*
X148425485Y-76641080D01*
X148377510Y-76691876D01*
X148309689Y-76708671D01*
X148243554Y-76686134D01*
X148204515Y-76641080D01*
X148189749Y-76612100D01*
X148157287Y-76548390D01*
X148125092Y-76504077D01*
X148036971Y-76382786D01*
X147892213Y-76238028D01*
X147726613Y-76117715D01*
X147726612Y-76117714D01*
X147726610Y-76117713D01*
X147658845Y-76083185D01*
X147544223Y-76024781D01*
X147349534Y-75961522D01*
X147174995Y-75933878D01*
X147147352Y-75929500D01*
X146942648Y-75929500D01*
X146918329Y-75933351D01*
X146740465Y-75961522D01*
X146545776Y-76024781D01*
X146363386Y-76117715D01*
X146197786Y-76238028D01*
X146053028Y-76382786D01*
X145932715Y-76548386D01*
X145885485Y-76641080D01*
X145837510Y-76691876D01*
X145769689Y-76708671D01*
X145703554Y-76686134D01*
X145664515Y-76641080D01*
X145649749Y-76612100D01*
X145617287Y-76548390D01*
X145585092Y-76504077D01*
X145496971Y-76382786D01*
X145352213Y-76238028D01*
X145186613Y-76117715D01*
X145186612Y-76117714D01*
X145186610Y-76117713D01*
X145118845Y-76083185D01*
X145004223Y-76024781D01*
X144809534Y-75961522D01*
X144634995Y-75933878D01*
X144607352Y-75929500D01*
X144402648Y-75929500D01*
X144378329Y-75933351D01*
X144200465Y-75961522D01*
X144005776Y-76024781D01*
X143823386Y-76117715D01*
X143657786Y-76238028D01*
X143513028Y-76382786D01*
X143392715Y-76548386D01*
X143345485Y-76641080D01*
X143297510Y-76691876D01*
X143229689Y-76708671D01*
X143163554Y-76686134D01*
X143124515Y-76641080D01*
X143109749Y-76612100D01*
X143077287Y-76548390D01*
X143045092Y-76504077D01*
X142956971Y-76382786D01*
X142812213Y-76238028D01*
X142646613Y-76117715D01*
X142646612Y-76117714D01*
X142646610Y-76117713D01*
X142578845Y-76083185D01*
X142464223Y-76024781D01*
X142269534Y-75961522D01*
X142094995Y-75933878D01*
X142067352Y-75929500D01*
X141862648Y-75929500D01*
X141838329Y-75933351D01*
X141660465Y-75961522D01*
X141465776Y-76024781D01*
X141283386Y-76117715D01*
X141117786Y-76238028D01*
X140973028Y-76382786D01*
X140852713Y-76548388D01*
X140805203Y-76641630D01*
X140757228Y-76692426D01*
X140689407Y-76709220D01*
X140623272Y-76686682D01*
X140584234Y-76641628D01*
X140536861Y-76548652D01*
X140504474Y-76504077D01*
X140504474Y-76504076D01*
X139825000Y-77183551D01*
X139825000Y-77177339D01*
X139797741Y-77075606D01*
X139745080Y-76984394D01*
X139670606Y-76909920D01*
X139579394Y-76857259D01*
X139477661Y-76830000D01*
X139471446Y-76830000D01*
X140150922Y-76150524D01*
X140150921Y-76150523D01*
X140106359Y-76118147D01*
X140106350Y-76118141D01*
X139924031Y-76025244D01*
X139729417Y-75962009D01*
X139527317Y-75930000D01*
X139322683Y-75930000D01*
X139120582Y-75962009D01*
X138925968Y-76025244D01*
X138743644Y-76118143D01*
X138699077Y-76150523D01*
X138699077Y-76150524D01*
X139378554Y-76830000D01*
X139372339Y-76830000D01*
X139270606Y-76857259D01*
X139179394Y-76909920D01*
X139104920Y-76984394D01*
X139052259Y-77075606D01*
X139025000Y-77177339D01*
X139025000Y-77183553D01*
X138345524Y-76504077D01*
X138345523Y-76504077D01*
X138313143Y-76548644D01*
X138220244Y-76730968D01*
X138157009Y-76925582D01*
X138125000Y-77127682D01*
X119901034Y-77127682D01*
X119797566Y-77024214D01*
X119612538Y-76889783D01*
X119512871Y-76839000D01*
X119408755Y-76785950D01*
X119191248Y-76715278D01*
X119005812Y-76685908D01*
X118965354Y-76679500D01*
X118736646Y-76679500D01*
X118661349Y-76691426D01*
X118510753Y-76715278D01*
X118510750Y-76715278D01*
X118293244Y-76785950D01*
X118089461Y-76889783D01*
X118023550Y-76937671D01*
X117904434Y-77024214D01*
X117904432Y-77024216D01*
X117904431Y-77024216D01*
X117742716Y-77185931D01*
X117742709Y-77185940D01*
X117681007Y-77270864D01*
X117625677Y-77313530D01*
X117556063Y-77319508D01*
X117494269Y-77286901D01*
X117480372Y-77270863D01*
X117418907Y-77186263D01*
X117418902Y-77186257D01*
X117257242Y-77024597D01*
X117072276Y-76890211D01*
X116868568Y-76786417D01*
X116651124Y-76715765D01*
X116561000Y-76701490D01*
X116561000Y-77689252D01*
X116523292Y-77667482D01*
X116383409Y-77630000D01*
X116238591Y-77630000D01*
X116098708Y-77667482D01*
X116061000Y-77689252D01*
X116061000Y-76701490D01*
X116060999Y-76701490D01*
X115970875Y-76715765D01*
X115753431Y-76786417D01*
X115549719Y-76890213D01*
X115366939Y-77023010D01*
X115301132Y-77046490D01*
X115233079Y-77030664D01*
X115184384Y-76980558D01*
X115177875Y-76966033D01*
X115167296Y-76937669D01*
X115167295Y-76937667D01*
X115167293Y-76937664D01*
X115081047Y-76822455D01*
X115081044Y-76822452D01*
X114965835Y-76736206D01*
X114965828Y-76736202D01*
X114830982Y-76685908D01*
X114830983Y-76685908D01*
X114771383Y-76679501D01*
X114771381Y-76679500D01*
X114771373Y-76679500D01*
X114771364Y-76679500D01*
X112770629Y-76679500D01*
X112770623Y-76679501D01*
X112711016Y-76685908D01*
X112576171Y-76736202D01*
X112576164Y-76736206D01*
X112460955Y-76822452D01*
X112460952Y-76822455D01*
X112374706Y-76937664D01*
X112374702Y-76937671D01*
X112324408Y-77072517D01*
X112318001Y-77132116D01*
X112318000Y-77132135D01*
X103258385Y-77132135D01*
X103280903Y-77109617D01*
X103302003Y-77092693D01*
X103409011Y-77024597D01*
X104671987Y-76220884D01*
X104738560Y-76201499D01*
X105224602Y-76201499D01*
X105224608Y-76201499D01*
X105327397Y-76190999D01*
X105493934Y-76135814D01*
X105643256Y-76043712D01*
X105767312Y-75919656D01*
X105859414Y-75770334D01*
X105914599Y-75603797D01*
X105925100Y-75501009D01*
X105925099Y-74100992D01*
X105914599Y-73998203D01*
X105859414Y-73831666D01*
X105767312Y-73682344D01*
X105643256Y-73558288D01*
X105493934Y-73466186D01*
X105327397Y-73411001D01*
X105327395Y-73411000D01*
X105224610Y-73400500D01*
X103124598Y-73400500D01*
X103124581Y-73400501D01*
X103021803Y-73411000D01*
X103021800Y-73411001D01*
X102855268Y-73466185D01*
X102855263Y-73466187D01*
X102705942Y-73558289D01*
X102581889Y-73682342D01*
X102489787Y-73831663D01*
X102489786Y-73831666D01*
X102434601Y-73998203D01*
X102434601Y-73998204D01*
X102434600Y-73998204D01*
X102424100Y-74100983D01*
X102424100Y-74612071D01*
X102409627Y-74670208D01*
X102158626Y-75143081D01*
X102109808Y-75193066D01*
X102041715Y-75208724D01*
X101975967Y-75185082D01*
X101933437Y-75129647D01*
X101925099Y-75084944D01*
X101925099Y-74100998D01*
X101925098Y-74100981D01*
X101914599Y-73998203D01*
X101914598Y-73998200D01*
X101890238Y-73924687D01*
X101859414Y-73831666D01*
X101767312Y-73682344D01*
X101643256Y-73558288D01*
X101493934Y-73466186D01*
X101327397Y-73411001D01*
X101327395Y-73411000D01*
X101224610Y-73400500D01*
X99124598Y-73400500D01*
X99124581Y-73400501D01*
X99021803Y-73411000D01*
X99021800Y-73411001D01*
X98855268Y-73466185D01*
X98855263Y-73466187D01*
X98705942Y-73558289D01*
X98581889Y-73682342D01*
X98489787Y-73831663D01*
X98489786Y-73831666D01*
X98482803Y-73852736D01*
X98443032Y-73910179D01*
X98378516Y-73937002D01*
X98309740Y-73924687D01*
X98258540Y-73877143D01*
X98241099Y-73813730D01*
X98241099Y-73528998D01*
X98241098Y-73528981D01*
X98230599Y-73426203D01*
X98230598Y-73426200D01*
X98175414Y-73259666D01*
X98083312Y-73110344D01*
X97959256Y-72986288D01*
X97809934Y-72894186D01*
X97643397Y-72839001D01*
X97643395Y-72839000D01*
X97540610Y-72828500D01*
X96140598Y-72828500D01*
X96140581Y-72828501D01*
X96037803Y-72839000D01*
X96037800Y-72839001D01*
X95871268Y-72894185D01*
X95871263Y-72894187D01*
X95721942Y-72986289D01*
X95597889Y-73110342D01*
X95505787Y-73259663D01*
X95505786Y-73259666D01*
X95450601Y-73426203D01*
X95450601Y-73426204D01*
X95450600Y-73426204D01*
X95440100Y-73528983D01*
X95440100Y-75629001D01*
X95440101Y-75629018D01*
X95450600Y-75731796D01*
X95450601Y-75731799D01*
X95485350Y-75836663D01*
X95505786Y-75898334D01*
X95597888Y-76047656D01*
X95721944Y-76171712D01*
X95871266Y-76263814D01*
X96037803Y-76318999D01*
X96140591Y-76329500D01*
X96314556Y-76329499D01*
X96381596Y-76349183D01*
X96397251Y-76361099D01*
X96677713Y-76612100D01*
X96714541Y-76671476D01*
X96713421Y-76741337D01*
X96674710Y-76799502D01*
X96610697Y-76827505D01*
X96595019Y-76828500D01*
X96140598Y-76828500D01*
X96140580Y-76828501D01*
X96037803Y-76839000D01*
X96037800Y-76839001D01*
X95871268Y-76894185D01*
X95871263Y-76894187D01*
X95721942Y-76986289D01*
X95597889Y-77110342D01*
X95505787Y-77259663D01*
X95505785Y-77259668D01*
X95502075Y-77270864D01*
X95450601Y-77426203D01*
X95450601Y-77426204D01*
X95450600Y-77426204D01*
X95440100Y-77528983D01*
X95440100Y-78092389D01*
X95427292Y-78147272D01*
X95331035Y-78342284D01*
X95216224Y-78574882D01*
X95168900Y-78626284D01*
X95101298Y-78643941D01*
X95034882Y-78622246D01*
X94996706Y-78580342D01*
X94700773Y-78049105D01*
X94685099Y-77988760D01*
X94685099Y-77528998D01*
X94685098Y-77528981D01*
X94674599Y-77426203D01*
X94674598Y-77426200D01*
X94656294Y-77370962D01*
X94619414Y-77259666D01*
X94527312Y-77110344D01*
X94403256Y-76986288D01*
X94253934Y-76894186D01*
X94087397Y-76839001D01*
X94087395Y-76839000D01*
X93984610Y-76828500D01*
X92584598Y-76828500D01*
X92584581Y-76828501D01*
X92481803Y-76839000D01*
X92481800Y-76839001D01*
X92315268Y-76894185D01*
X92315263Y-76894187D01*
X92165942Y-76986289D01*
X92041889Y-77110342D01*
X91949787Y-77259663D01*
X91949785Y-77259668D01*
X91946075Y-77270864D01*
X91894601Y-77426203D01*
X91894601Y-77426204D01*
X91894600Y-77426204D01*
X91884100Y-77528983D01*
X88105500Y-77528983D01*
X88105500Y-68759984D01*
X112221500Y-68759984D01*
X112221500Y-70460015D01*
X112232000Y-70562795D01*
X112232001Y-70562797D01*
X112250983Y-70620081D01*
X112287186Y-70729335D01*
X112287187Y-70729337D01*
X112379286Y-70878651D01*
X112379289Y-70878655D01*
X112503344Y-71002710D01*
X112503348Y-71002713D01*
X112652662Y-71094812D01*
X112652664Y-71094813D01*
X112652666Y-71094814D01*
X112819203Y-71149999D01*
X112921992Y-71160500D01*
X112921997Y-71160500D01*
X114622003Y-71160500D01*
X114622008Y-71160500D01*
X114724797Y-71149999D01*
X114891334Y-71094814D01*
X115040655Y-71002711D01*
X115164711Y-70878655D01*
X115256814Y-70729334D01*
X115311999Y-70562797D01*
X115322500Y-70460008D01*
X115322500Y-68759992D01*
X115322499Y-68759984D01*
X121364500Y-68759984D01*
X121364500Y-70460015D01*
X121375000Y-70562795D01*
X121375001Y-70562797D01*
X121393983Y-70620081D01*
X121430186Y-70729335D01*
X121430187Y-70729337D01*
X121522286Y-70878651D01*
X121522289Y-70878655D01*
X121646344Y-71002710D01*
X121646348Y-71002713D01*
X121795662Y-71094812D01*
X121795664Y-71094813D01*
X121795666Y-71094814D01*
X121962203Y-71149999D01*
X122064992Y-71160500D01*
X122064997Y-71160500D01*
X123765003Y-71160500D01*
X123765008Y-71160500D01*
X123867797Y-71149999D01*
X124034334Y-71094814D01*
X124183655Y-71002711D01*
X124307711Y-70878655D01*
X124316584Y-70864269D01*
X124368528Y-70817546D01*
X124437490Y-70806322D01*
X124495007Y-70829048D01*
X124563286Y-70878655D01*
X124642361Y-70936106D01*
X124859815Y-71046904D01*
X125091924Y-71122321D01*
X125332973Y-71160500D01*
X125332974Y-71160500D01*
X125577026Y-71160500D01*
X125577027Y-71160500D01*
X125818076Y-71122321D01*
X126050185Y-71046904D01*
X126267639Y-70936106D01*
X126465083Y-70792655D01*
X126637655Y-70620083D01*
X126781106Y-70422639D01*
X126891904Y-70205185D01*
X126967321Y-69973076D01*
X127005500Y-69732027D01*
X127005500Y-69487973D01*
X126967321Y-69246924D01*
X126891904Y-69014815D01*
X126781106Y-68797361D01*
X126781104Y-68797358D01*
X126781103Y-68797356D01*
X126753246Y-68759014D01*
X132160000Y-68759014D01*
X132160000Y-69359000D01*
X133219252Y-69359000D01*
X133197482Y-69396708D01*
X133160000Y-69536591D01*
X133160000Y-69681409D01*
X133197482Y-69821292D01*
X133219252Y-69859000D01*
X132160000Y-69859000D01*
X132160000Y-70458985D01*
X132170493Y-70561689D01*
X132170494Y-70561696D01*
X132225641Y-70728118D01*
X132225643Y-70728123D01*
X132317684Y-70877344D01*
X132441655Y-71001315D01*
X132590876Y-71093356D01*
X132590881Y-71093358D01*
X132757303Y-71148505D01*
X132757310Y-71148506D01*
X132860014Y-71158999D01*
X132860027Y-71159000D01*
X133460000Y-71159000D01*
X133460000Y-70099747D01*
X133497708Y-70121518D01*
X133637591Y-70159000D01*
X133782409Y-70159000D01*
X133922292Y-70121518D01*
X133960000Y-70099747D01*
X133960000Y-71159000D01*
X134559973Y-71159000D01*
X134559985Y-71158999D01*
X134662689Y-71148506D01*
X134662696Y-71148505D01*
X134829118Y-71093358D01*
X134829123Y-71093356D01*
X134978344Y-71001315D01*
X135102316Y-70877343D01*
X135111439Y-70862552D01*
X135163385Y-70815826D01*
X135232347Y-70804601D01*
X135289865Y-70827327D01*
X135437619Y-70934676D01*
X135655001Y-71045439D01*
X135887040Y-71120834D01*
X136128007Y-71159000D01*
X136371993Y-71159000D01*
X136612959Y-71120834D01*
X136844998Y-71045439D01*
X137062377Y-70934678D01*
X137154901Y-70867454D01*
X137154902Y-70867454D01*
X136420234Y-70132787D01*
X136462292Y-70121518D01*
X136587708Y-70049110D01*
X136690110Y-69946708D01*
X136762518Y-69821292D01*
X136773787Y-69779234D01*
X137525988Y-70531436D01*
X137528852Y-70532038D01*
X137570528Y-70568410D01*
X137607339Y-70619076D01*
X137607343Y-70619081D01*
X137779918Y-70791656D01*
X137779923Y-70791660D01*
X137899665Y-70878657D01*
X137977361Y-70935106D01*
X138194815Y-71045904D01*
X138426924Y-71121321D01*
X138667973Y-71159500D01*
X138667974Y-71159500D01*
X138912026Y-71159500D01*
X138912027Y-71159500D01*
X139153076Y-71121321D01*
X139385185Y-71045904D01*
X139602639Y-70935106D01*
X139800083Y-70791655D01*
X139972319Y-70619419D01*
X140033642Y-70585934D01*
X140103334Y-70590918D01*
X140147681Y-70619419D01*
X140319918Y-70791656D01*
X140319923Y-70791660D01*
X140439665Y-70878657D01*
X140517361Y-70935106D01*
X140734815Y-71045904D01*
X140966924Y-71121321D01*
X141207973Y-71159500D01*
X141207974Y-71159500D01*
X141452026Y-71159500D01*
X141452027Y-71159500D01*
X141693076Y-71121321D01*
X141925185Y-71045904D01*
X142142639Y-70935106D01*
X142340083Y-70791655D01*
X142512319Y-70619419D01*
X142573642Y-70585934D01*
X142643334Y-70590918D01*
X142687681Y-70619419D01*
X142859918Y-70791656D01*
X142859923Y-70791660D01*
X142979665Y-70878657D01*
X143057361Y-70935106D01*
X143274815Y-71045904D01*
X143506924Y-71121321D01*
X143747973Y-71159500D01*
X143747974Y-71159500D01*
X143992026Y-71159500D01*
X143992027Y-71159500D01*
X144233076Y-71121321D01*
X144465185Y-71045904D01*
X144682639Y-70935106D01*
X144880083Y-70791655D01*
X145052319Y-70619419D01*
X145113642Y-70585934D01*
X145183334Y-70590918D01*
X145227681Y-70619419D01*
X145399918Y-70791656D01*
X145399923Y-70791660D01*
X145519665Y-70878657D01*
X145597361Y-70935106D01*
X145814815Y-71045904D01*
X146046924Y-71121321D01*
X146287973Y-71159500D01*
X146287974Y-71159500D01*
X146532026Y-71159500D01*
X146532027Y-71159500D01*
X146773076Y-71121321D01*
X147005185Y-71045904D01*
X147222639Y-70935106D01*
X147420083Y-70791655D01*
X147592319Y-70619419D01*
X147653642Y-70585934D01*
X147723334Y-70590918D01*
X147767681Y-70619419D01*
X147939918Y-70791656D01*
X147939923Y-70791660D01*
X148059665Y-70878657D01*
X148137361Y-70935106D01*
X148354815Y-71045904D01*
X148586924Y-71121321D01*
X148827973Y-71159500D01*
X148827974Y-71159500D01*
X149072026Y-71159500D01*
X149072027Y-71159500D01*
X149313076Y-71121321D01*
X149545185Y-71045904D01*
X149762639Y-70935106D01*
X149960083Y-70791655D01*
X150132319Y-70619419D01*
X150193642Y-70585934D01*
X150263334Y-70590918D01*
X150307681Y-70619419D01*
X150479918Y-70791656D01*
X150479923Y-70791660D01*
X150599665Y-70878657D01*
X150677361Y-70935106D01*
X150894815Y-71045904D01*
X151126924Y-71121321D01*
X151367973Y-71159500D01*
X151367974Y-71159500D01*
X151612026Y-71159500D01*
X151612027Y-71159500D01*
X151853076Y-71121321D01*
X152085185Y-71045904D01*
X152302639Y-70935106D01*
X152500083Y-70791655D01*
X152672319Y-70619419D01*
X152733642Y-70585934D01*
X152803334Y-70590918D01*
X152847681Y-70619419D01*
X153019918Y-70791656D01*
X153019923Y-70791660D01*
X153139665Y-70878657D01*
X153217361Y-70935106D01*
X153434815Y-71045904D01*
X153666924Y-71121321D01*
X153907973Y-71159500D01*
X153907974Y-71159500D01*
X154152026Y-71159500D01*
X154152027Y-71159500D01*
X154393076Y-71121321D01*
X154625185Y-71045904D01*
X154842639Y-70935106D01*
X155040083Y-70791655D01*
X155212319Y-70619419D01*
X155273642Y-70585934D01*
X155343334Y-70590918D01*
X155387681Y-70619419D01*
X155559918Y-70791656D01*
X155559923Y-70791660D01*
X155679665Y-70878657D01*
X155757361Y-70935106D01*
X155974815Y-71045904D01*
X156206924Y-71121321D01*
X156447973Y-71159500D01*
X156447974Y-71159500D01*
X156692026Y-71159500D01*
X156692027Y-71159500D01*
X156933076Y-71121321D01*
X157165185Y-71045904D01*
X157382639Y-70935106D01*
X157580083Y-70791655D01*
X157752655Y-70619083D01*
X157896106Y-70421639D01*
X158006904Y-70204185D01*
X158082321Y-69972076D01*
X158120500Y-69731027D01*
X158120500Y-69486973D01*
X158082321Y-69245924D01*
X158006904Y-69013815D01*
X157896106Y-68796361D01*
X157869686Y-68759997D01*
X157752660Y-68598923D01*
X157752656Y-68598918D01*
X157580081Y-68426343D01*
X157580076Y-68426339D01*
X157382642Y-68282896D01*
X157382641Y-68282895D01*
X157382639Y-68282894D01*
X157165185Y-68172096D01*
X156933076Y-68096679D01*
X156933074Y-68096678D01*
X156933072Y-68096678D01*
X156761433Y-68069493D01*
X156692027Y-68058500D01*
X156447973Y-68058500D01*
X156392093Y-68067350D01*
X156206927Y-68096678D01*
X155974812Y-68172097D01*
X155757357Y-68282896D01*
X155559923Y-68426339D01*
X155559918Y-68426343D01*
X155387681Y-68598581D01*
X155326358Y-68632066D01*
X155256666Y-68627082D01*
X155212319Y-68598581D01*
X155040081Y-68426343D01*
X155040076Y-68426339D01*
X154842642Y-68282896D01*
X154842641Y-68282895D01*
X154842639Y-68282894D01*
X154625185Y-68172096D01*
X154393076Y-68096679D01*
X154393074Y-68096678D01*
X154393072Y-68096678D01*
X154221433Y-68069493D01*
X154152027Y-68058500D01*
X153907973Y-68058500D01*
X153852093Y-68067350D01*
X153666927Y-68096678D01*
X153434812Y-68172097D01*
X153217357Y-68282896D01*
X153019923Y-68426339D01*
X153019918Y-68426343D01*
X152847681Y-68598581D01*
X152786358Y-68632066D01*
X152716666Y-68627082D01*
X152672319Y-68598581D01*
X152500081Y-68426343D01*
X152500076Y-68426339D01*
X152302642Y-68282896D01*
X152302641Y-68282895D01*
X152302639Y-68282894D01*
X152085185Y-68172096D01*
X151853076Y-68096679D01*
X151853074Y-68096678D01*
X151853072Y-68096678D01*
X151681433Y-68069493D01*
X151612027Y-68058500D01*
X151367973Y-68058500D01*
X151312093Y-68067350D01*
X151126927Y-68096678D01*
X150894812Y-68172097D01*
X150677357Y-68282896D01*
X150479923Y-68426339D01*
X150479918Y-68426343D01*
X150307681Y-68598581D01*
X150246358Y-68632066D01*
X150176666Y-68627082D01*
X150132319Y-68598581D01*
X149960081Y-68426343D01*
X149960076Y-68426339D01*
X149762642Y-68282896D01*
X149762641Y-68282895D01*
X149762639Y-68282894D01*
X149545185Y-68172096D01*
X149313076Y-68096679D01*
X149313074Y-68096678D01*
X149313072Y-68096678D01*
X149141433Y-68069493D01*
X149072027Y-68058500D01*
X148827973Y-68058500D01*
X148772093Y-68067350D01*
X148586927Y-68096678D01*
X148354812Y-68172097D01*
X148137357Y-68282896D01*
X147939923Y-68426339D01*
X147939918Y-68426343D01*
X147767681Y-68598581D01*
X147706358Y-68632066D01*
X147636666Y-68627082D01*
X147592319Y-68598581D01*
X147420081Y-68426343D01*
X147420076Y-68426339D01*
X147222642Y-68282896D01*
X147222641Y-68282895D01*
X147222639Y-68282894D01*
X147005185Y-68172096D01*
X146773076Y-68096679D01*
X146773074Y-68096678D01*
X146773072Y-68096678D01*
X146601433Y-68069493D01*
X146532027Y-68058500D01*
X146287973Y-68058500D01*
X146232093Y-68067350D01*
X146046927Y-68096678D01*
X145814812Y-68172097D01*
X145597357Y-68282896D01*
X145399923Y-68426339D01*
X145399918Y-68426343D01*
X145227681Y-68598581D01*
X145166358Y-68632066D01*
X145096666Y-68627082D01*
X145052319Y-68598581D01*
X144880081Y-68426343D01*
X144880076Y-68426339D01*
X144682642Y-68282896D01*
X144682641Y-68282895D01*
X144682639Y-68282894D01*
X144465185Y-68172096D01*
X144233076Y-68096679D01*
X144233074Y-68096678D01*
X144233072Y-68096678D01*
X144061433Y-68069493D01*
X143992027Y-68058500D01*
X143747973Y-68058500D01*
X143692093Y-68067350D01*
X143506927Y-68096678D01*
X143274812Y-68172097D01*
X143057357Y-68282896D01*
X142859923Y-68426339D01*
X142859918Y-68426343D01*
X142687681Y-68598581D01*
X142626358Y-68632066D01*
X142556666Y-68627082D01*
X142512319Y-68598581D01*
X142340081Y-68426343D01*
X142340076Y-68426339D01*
X142142642Y-68282896D01*
X142142641Y-68282895D01*
X142142639Y-68282894D01*
X141925185Y-68172096D01*
X141693076Y-68096679D01*
X141693074Y-68096678D01*
X141693072Y-68096678D01*
X141521433Y-68069493D01*
X141452027Y-68058500D01*
X141207973Y-68058500D01*
X141152093Y-68067350D01*
X140966927Y-68096678D01*
X140734812Y-68172097D01*
X140517357Y-68282896D01*
X140319923Y-68426339D01*
X140319918Y-68426343D01*
X140147681Y-68598581D01*
X140086358Y-68632066D01*
X140016666Y-68627082D01*
X139972319Y-68598581D01*
X139800081Y-68426343D01*
X139800076Y-68426339D01*
X139602642Y-68282896D01*
X139602641Y-68282895D01*
X139602639Y-68282894D01*
X139385185Y-68172096D01*
X139153076Y-68096679D01*
X139153074Y-68096678D01*
X139153072Y-68096678D01*
X138981433Y-68069493D01*
X138912027Y-68058500D01*
X138667973Y-68058500D01*
X138612093Y-68067350D01*
X138426927Y-68096678D01*
X138194812Y-68172097D01*
X137977357Y-68282896D01*
X137779923Y-68426339D01*
X137779918Y-68426343D01*
X137607344Y-68598917D01*
X137570528Y-68649590D01*
X137537471Y-68675079D01*
X136773787Y-69438764D01*
X136762518Y-69396708D01*
X136690110Y-69271292D01*
X136587708Y-69168890D01*
X136462292Y-69096482D01*
X136420233Y-69085212D01*
X137154902Y-68350544D01*
X137154901Y-68350543D01*
X137062380Y-68283323D01*
X136844998Y-68172560D01*
X136612959Y-68097165D01*
X136371993Y-68059000D01*
X136128007Y-68059000D01*
X135887040Y-68097165D01*
X135655001Y-68172560D01*
X135437619Y-68283323D01*
X135289865Y-68390672D01*
X135224059Y-68414152D01*
X135156005Y-68398326D01*
X135111440Y-68355449D01*
X135102315Y-68340655D01*
X134978344Y-68216684D01*
X134829123Y-68124643D01*
X134829118Y-68124641D01*
X134662696Y-68069494D01*
X134662689Y-68069493D01*
X134559985Y-68059000D01*
X133960000Y-68059000D01*
X133960000Y-69118252D01*
X133922292Y-69096482D01*
X133782409Y-69059000D01*
X133637591Y-69059000D01*
X133497708Y-69096482D01*
X133460000Y-69118252D01*
X133460000Y-68059000D01*
X132860014Y-68059000D01*
X132757310Y-68069493D01*
X132757303Y-68069494D01*
X132590881Y-68124641D01*
X132590876Y-68124643D01*
X132441655Y-68216684D01*
X132317684Y-68340655D01*
X132225643Y-68489876D01*
X132225641Y-68489881D01*
X132170494Y-68656303D01*
X132170493Y-68656310D01*
X132160000Y-68759014D01*
X126753246Y-68759014D01*
X126637660Y-68599923D01*
X126637656Y-68599918D01*
X126465081Y-68427343D01*
X126465076Y-68427339D01*
X126267642Y-68283896D01*
X126267641Y-68283895D01*
X126267639Y-68283894D01*
X126050185Y-68173096D01*
X125818076Y-68097679D01*
X125818074Y-68097678D01*
X125818072Y-68097678D01*
X125640119Y-68069493D01*
X125577027Y-68059500D01*
X125332973Y-68059500D01*
X125277093Y-68068350D01*
X125091927Y-68097678D01*
X124859812Y-68173097D01*
X124642361Y-68283893D01*
X124495007Y-68390952D01*
X124429200Y-68414431D01*
X124361147Y-68398605D01*
X124316583Y-68355729D01*
X124307711Y-68341345D01*
X124183655Y-68217289D01*
X124183651Y-68217286D01*
X124034337Y-68125187D01*
X124034335Y-68125186D01*
X123948303Y-68096678D01*
X123867797Y-68070001D01*
X123867795Y-68070000D01*
X123765015Y-68059500D01*
X123765008Y-68059500D01*
X122064992Y-68059500D01*
X122064984Y-68059500D01*
X121962204Y-68070000D01*
X121962203Y-68070001D01*
X121795664Y-68125186D01*
X121795662Y-68125187D01*
X121646348Y-68217286D01*
X121646344Y-68217289D01*
X121522289Y-68341344D01*
X121522286Y-68341348D01*
X121430187Y-68490662D01*
X121430186Y-68490664D01*
X121375001Y-68657203D01*
X121375000Y-68657204D01*
X121364500Y-68759984D01*
X115322499Y-68759984D01*
X115311999Y-68657203D01*
X115256814Y-68490666D01*
X115217136Y-68426339D01*
X115164713Y-68341348D01*
X115164710Y-68341344D01*
X115040655Y-68217289D01*
X115040651Y-68217286D01*
X114891337Y-68125187D01*
X114891335Y-68125186D01*
X114805303Y-68096678D01*
X114724797Y-68070001D01*
X114724795Y-68070000D01*
X114622015Y-68059500D01*
X114622008Y-68059500D01*
X112921992Y-68059500D01*
X112921984Y-68059500D01*
X112819204Y-68070000D01*
X112819203Y-68070001D01*
X112652664Y-68125186D01*
X112652662Y-68125187D01*
X112503348Y-68217286D01*
X112503344Y-68217289D01*
X112379289Y-68341344D01*
X112379286Y-68341348D01*
X112287187Y-68490662D01*
X112287186Y-68490664D01*
X112232001Y-68657203D01*
X112232000Y-68657204D01*
X112221500Y-68759984D01*
X88105500Y-68759984D01*
X88105500Y-66674500D01*
X88125185Y-66607461D01*
X88177989Y-66561706D01*
X88229500Y-66550500D01*
X186480500Y-66550500D01*
X186547539Y-66570185D01*
G37*
%TD.AperFunction*%
%TD*%
%TA.AperFunction,Conductor*%
%TO.N,GNDREF*%
G36*
X171341671Y-87394559D02*
G01*
X171175707Y-87644707D01*
X170925559Y-87810671D01*
X170578036Y-87400589D01*
X170931589Y-87047036D01*
X171341671Y-87394559D01*
G37*
%TD.AperFunction*%
%TD*%
%TA.AperFunction,Conductor*%
%TO.N,GNDREF*%
G36*
X104207964Y-84860589D02*
G01*
X103860441Y-85270671D01*
X103610293Y-85104707D01*
X103444329Y-84854559D01*
X103854411Y-84507036D01*
X104207964Y-84860589D01*
G37*
%TD.AperFunction*%
%TD*%
%TA.AperFunction,Conductor*%
%TO.N,GNDREF*%
G36*
X171175707Y-89675293D02*
G01*
X171341671Y-89925441D01*
X170931589Y-90272964D01*
X170578036Y-89919411D01*
X170925559Y-89509329D01*
X171175707Y-89675293D01*
G37*
%TD.AperFunction*%
%TD*%
%TA.AperFunction,Conductor*%
%TO.N,GNDREF*%
G36*
X104207964Y-87379411D02*
G01*
X103854411Y-87732964D01*
X103444329Y-87385441D01*
X103610293Y-87135293D01*
X103860441Y-86969329D01*
X104207964Y-87379411D01*
G37*
%TD.AperFunction*%
%TD*%
%TA.AperFunction,Conductor*%
%TO.N,/DRIVERS/M2_OUT1B*%
G36*
X180611067Y-80786953D02*
G01*
X181495612Y-81152362D01*
X181501949Y-81158687D01*
X181502842Y-81162968D01*
X181524665Y-82398824D01*
X181521385Y-82407157D01*
X181518452Y-82409365D01*
X180326799Y-83041893D01*
X180317885Y-83042745D01*
X180313041Y-83039832D01*
X179618687Y-82345478D01*
X179615260Y-82337205D01*
X179617088Y-82330926D01*
X180596731Y-80791486D01*
X180604064Y-80786347D01*
X180611067Y-80786953D01*
G37*
%TD.AperFunction*%
%TD*%
%TA.AperFunction,Conductor*%
%TO.N,/DRIVERS/M2_OUT1B*%
G36*
X178802616Y-81028880D02*
G01*
X178807191Y-81036577D01*
X178807249Y-81037052D01*
X179039671Y-83293101D01*
X179037110Y-83301682D01*
X179029232Y-83305938D01*
X179028033Y-83306000D01*
X178046702Y-83306000D01*
X178038429Y-83302573D01*
X178037487Y-83301509D01*
X177341285Y-82411591D01*
X177338886Y-82402964D01*
X177339848Y-82399543D01*
X177903352Y-81160819D01*
X177909897Y-81154709D01*
X177912323Y-81154086D01*
X178793937Y-81026671D01*
X178802616Y-81028880D01*
G37*
%TD.AperFunction*%
%TD*%
%TA.AperFunction,Conductor*%
%TO.N,/DRIVERS/M2_OUT1A*%
G36*
X174580268Y-77425277D02*
G01*
X175466324Y-78312318D01*
X175469746Y-78320592D01*
X175468738Y-78325338D01*
X175075088Y-79211052D01*
X175068596Y-79217220D01*
X175064396Y-79218000D01*
X174079604Y-79218000D01*
X174071331Y-79214573D01*
X174068912Y-79211052D01*
X173675261Y-78325338D01*
X173675033Y-78316386D01*
X173677671Y-78312321D01*
X174563722Y-77425286D01*
X174571994Y-77421856D01*
X174580268Y-77425277D01*
G37*
%TD.AperFunction*%
%TD*%
%TA.AperFunction,Conductor*%
%TO.N,/DRIVERS/M2_OUT1A*%
G36*
X175072669Y-79137427D02*
G01*
X175075088Y-79140948D01*
X175468738Y-80026661D01*
X175468966Y-80035613D01*
X175466324Y-80039682D01*
X174580278Y-80926712D01*
X174572006Y-80930143D01*
X174563731Y-80926721D01*
X174563722Y-80926712D01*
X174088795Y-80451258D01*
X173677674Y-80039680D01*
X173674253Y-80031407D01*
X173675260Y-80026664D01*
X174068912Y-79140948D01*
X174075404Y-79134780D01*
X174079604Y-79134000D01*
X175064396Y-79134000D01*
X175072669Y-79137427D01*
G37*
%TD.AperFunction*%
%TD*%
%TA.AperFunction,Conductor*%
%TO.N,/DRIVERS/M2_OUT1A*%
G36*
X175814760Y-81155478D02*
G01*
X175822299Y-81160309D01*
X175823970Y-81163862D01*
X176216377Y-82575667D01*
X176215290Y-82584555D01*
X176208237Y-82590073D01*
X176205104Y-82590500D01*
X175224083Y-82590500D01*
X175217531Y-82588493D01*
X174110023Y-81839850D01*
X174105088Y-81832378D01*
X174106204Y-81824742D01*
X174568023Y-80940612D01*
X174574890Y-80934867D01*
X174580452Y-80934513D01*
X175814760Y-81155478D01*
G37*
%TD.AperFunction*%
%TD*%
%TA.AperFunction,Conductor*%
%TO.N,/DRIVERS/M2_OUT2B*%
G36*
X180615910Y-94824045D02*
G01*
X180616542Y-94824817D01*
X181455825Y-95943534D01*
X181458049Y-95952208D01*
X181453674Y-95959771D01*
X180568796Y-96651871D01*
X180560168Y-96654269D01*
X180554914Y-96652265D01*
X180068215Y-96314236D01*
X179486891Y-95910486D01*
X179482052Y-95902954D01*
X179483956Y-95894204D01*
X179485287Y-95892611D01*
X180182284Y-95195614D01*
X180182727Y-95195195D01*
X180599391Y-94823110D01*
X180607843Y-94820157D01*
X180615910Y-94824045D01*
G37*
%TD.AperFunction*%
%TD*%
%TA.AperFunction,Conductor*%
%TO.N,/DRIVERS/M2_OUT2B*%
G36*
X179540027Y-94272649D02*
G01*
X179543454Y-94280922D01*
X179542625Y-94285247D01*
X178770022Y-96227446D01*
X178763780Y-96233866D01*
X178755624Y-96234277D01*
X177872761Y-95955137D01*
X177865906Y-95949375D01*
X177864766Y-95946016D01*
X177646554Y-94710748D01*
X177648490Y-94702007D01*
X177653021Y-94698164D01*
X178546604Y-94270368D01*
X178551656Y-94269222D01*
X179531754Y-94269222D01*
X179540027Y-94272649D01*
G37*
%TD.AperFunction*%
%TD*%
%TA.AperFunction,Conductor*%
%TO.N,/DRIVERS/M2_OUT2A*%
G36*
X176239702Y-94531336D02*
G01*
X176243129Y-94539609D01*
X176242667Y-94542865D01*
X175824028Y-95987983D01*
X175818434Y-95994975D01*
X175814818Y-95996250D01*
X174580444Y-96213513D01*
X174571702Y-96211572D01*
X174568039Y-96207394D01*
X174107530Y-95323184D01*
X174106748Y-95314264D01*
X174111281Y-95308137D01*
X175244007Y-94529964D01*
X175250632Y-94527909D01*
X176231429Y-94527909D01*
X176239702Y-94531336D01*
G37*
%TD.AperFunction*%
%TD*%
%TA.AperFunction,Conductor*%
%TO.N,/DRIVERS/M2_OUT2A*%
G36*
X175072669Y-97933427D02*
G01*
X175075088Y-97936948D01*
X175468738Y-98822661D01*
X175468966Y-98831613D01*
X175466324Y-98835682D01*
X174580278Y-99722712D01*
X174572006Y-99726143D01*
X174563731Y-99722721D01*
X174563722Y-99722712D01*
X174088795Y-99247258D01*
X173677674Y-98835680D01*
X173674253Y-98827407D01*
X173675260Y-98822664D01*
X174068912Y-97936948D01*
X174075404Y-97930780D01*
X174079604Y-97930000D01*
X175064396Y-97930000D01*
X175072669Y-97933427D01*
G37*
%TD.AperFunction*%
%TD*%
%TA.AperFunction,Conductor*%
%TO.N,/DRIVERS/M2_OUT2A*%
G36*
X174580268Y-96221277D02*
G01*
X175466324Y-97108318D01*
X175469746Y-97116592D01*
X175468738Y-97121338D01*
X175075088Y-98007052D01*
X175068596Y-98013220D01*
X175064396Y-98014000D01*
X174079604Y-98014000D01*
X174071331Y-98010573D01*
X174068912Y-98007052D01*
X173675261Y-97121338D01*
X173675033Y-97112386D01*
X173677671Y-97108321D01*
X174563722Y-96221286D01*
X174571994Y-96217856D01*
X174580268Y-96221277D01*
G37*
%TD.AperFunction*%
%TD*%
%TA.AperFunction,Conductor*%
%TO.N,/DRIVERS/M1_OUT2B*%
G36*
X94189886Y-78170735D02*
G01*
X94893577Y-79433945D01*
X94895056Y-79439639D01*
X94895056Y-80419341D01*
X94891629Y-80427614D01*
X94883356Y-80431041D01*
X94879024Y-80430210D01*
X93377297Y-79831722D01*
X93370881Y-79825475D01*
X93369957Y-79821664D01*
X93343409Y-79439639D01*
X93284158Y-78587035D01*
X93287003Y-78578546D01*
X93290905Y-78575612D01*
X94174746Y-78165813D01*
X94183691Y-78165443D01*
X94189886Y-78170735D01*
G37*
%TD.AperFunction*%
%TD*%
%TA.AperFunction,Conductor*%
%TO.N,/DRIVERS/M1_OUT2B*%
G36*
X95950457Y-78253019D02*
G01*
X96833687Y-78575476D01*
X96840284Y-78581532D01*
X96841319Y-78585322D01*
X96962605Y-79819996D01*
X96960003Y-79828565D01*
X96954998Y-79832121D01*
X95984956Y-80188737D01*
X95980919Y-80189456D01*
X95001823Y-80189456D01*
X94993550Y-80186029D01*
X94990123Y-80177756D01*
X94991331Y-80172577D01*
X95160921Y-79829000D01*
X95935955Y-78258830D01*
X95942690Y-78252930D01*
X95950457Y-78253019D01*
G37*
%TD.AperFunction*%
%TD*%
%TA.AperFunction,Conductor*%
%TO.N,/DRIVERS/M1_OUT2A*%
G36*
X100675269Y-76560427D02*
G01*
X100677688Y-76563948D01*
X101071338Y-77449661D01*
X101071566Y-77458613D01*
X101068924Y-77462682D01*
X100182878Y-78349712D01*
X100174606Y-78353143D01*
X100166331Y-78349721D01*
X100166322Y-78349712D01*
X99691395Y-77874258D01*
X99280274Y-77462680D01*
X99276853Y-77454407D01*
X99277860Y-77449664D01*
X99671512Y-76563948D01*
X99678004Y-76557780D01*
X99682204Y-76557000D01*
X100666996Y-76557000D01*
X100675269Y-76560427D01*
G37*
%TD.AperFunction*%
%TD*%
%TA.AperFunction,Conductor*%
%TO.N,/DRIVERS/M1_OUT2A*%
G36*
X100182868Y-74808277D02*
G01*
X101068924Y-75695318D01*
X101072346Y-75703592D01*
X101071338Y-75708338D01*
X100677688Y-76594052D01*
X100671196Y-76600220D01*
X100666996Y-76601000D01*
X99682204Y-76601000D01*
X99673931Y-76597573D01*
X99671512Y-76594052D01*
X99277861Y-75708338D01*
X99277633Y-75699386D01*
X99280271Y-75695321D01*
X100166322Y-74808286D01*
X100174594Y-74804856D01*
X100182868Y-74808277D01*
G37*
%TD.AperFunction*%
%TD*%
%TA.AperFunction,Conductor*%
%TO.N,/DRIVERS/M1_OUT2A*%
G36*
X100175742Y-78359694D02*
G01*
X100178778Y-78363641D01*
X100596680Y-79248332D01*
X100597115Y-79257276D01*
X100593081Y-79262719D01*
X99277266Y-80240921D01*
X99268582Y-80243106D01*
X99262013Y-80239804D01*
X98567180Y-79544971D01*
X98563753Y-79536698D01*
X98564363Y-79532972D01*
X98922151Y-78469828D01*
X98928038Y-78463081D01*
X98932249Y-78461903D01*
X100167211Y-78356980D01*
X100175742Y-78359694D01*
G37*
%TD.AperFunction*%
%TD*%
%TA.AperFunction,Conductor*%
%TO.N,/DRIVERS/M1_OUT1B*%
G36*
X94215936Y-92732260D02*
G01*
X94221369Y-92734675D01*
X95101652Y-93125912D01*
X95107820Y-93132404D01*
X95108600Y-93136604D01*
X95108600Y-94121396D01*
X95105173Y-94129669D01*
X95101652Y-94132088D01*
X94215938Y-94525738D01*
X94206986Y-94525966D01*
X94202918Y-94523325D01*
X93315886Y-93637277D01*
X93312456Y-93629006D01*
X93315878Y-93620731D01*
X93315887Y-93620722D01*
X94202919Y-92734673D01*
X94211192Y-92731253D01*
X94215936Y-92732260D01*
G37*
%TD.AperFunction*%
%TD*%
%TA.AperFunction,Conductor*%
%TO.N,/DRIVERS/M1_OUT1B*%
G36*
X95970280Y-92734673D02*
G01*
X96361953Y-93125912D01*
X96857312Y-93620722D01*
X96860743Y-93628994D01*
X96857321Y-93637269D01*
X96857312Y-93637278D01*
X95970282Y-94523324D01*
X95962007Y-94526746D01*
X95957261Y-94525738D01*
X95071548Y-94132088D01*
X95065380Y-94125596D01*
X95064600Y-94121396D01*
X95064600Y-93136604D01*
X95068027Y-93128331D01*
X95071548Y-93125912D01*
X95957262Y-92732260D01*
X95966213Y-92732033D01*
X95970280Y-92734673D01*
G37*
%TD.AperFunction*%
%TD*%
%TA.AperFunction,Conductor*%
%TO.N,/DRIVERS/M1_OUT1B*%
G36*
X97000780Y-91482427D02*
G01*
X97002435Y-91484509D01*
X97562957Y-92383448D01*
X97564427Y-92392282D01*
X97563212Y-92395401D01*
X96872609Y-93615845D01*
X96865552Y-93621358D01*
X96856664Y-93620266D01*
X96853726Y-93617906D01*
X95967735Y-92632487D01*
X95964740Y-92624314D01*
X95998660Y-91490348D01*
X96002333Y-91482183D01*
X96010355Y-91479000D01*
X96992507Y-91479000D01*
X97000780Y-91482427D01*
G37*
%TD.AperFunction*%
%TD*%
%TA.AperFunction,Conductor*%
%TO.N,/DRIVERS/M1_OUT1A*%
G36*
X99245264Y-91967077D02*
G01*
X100188313Y-92668158D01*
X100561080Y-92945280D01*
X100565675Y-92952966D01*
X100564679Y-92959667D01*
X100146778Y-93844358D01*
X100140146Y-93850375D01*
X100135209Y-93851019D01*
X98900250Y-93746095D01*
X98892296Y-93741980D01*
X98890151Y-93738169D01*
X98628155Y-92959667D01*
X98532364Y-92675031D01*
X98532973Y-92666099D01*
X98535177Y-92663031D01*
X99230014Y-91968194D01*
X99238286Y-91964768D01*
X99245264Y-91967077D01*
G37*
%TD.AperFunction*%
%TD*%
%TA.AperFunction,Conductor*%
%TO.N,/DRIVERS/M1_OUT1A*%
G36*
X100150868Y-93858277D02*
G01*
X101036924Y-94745318D01*
X101040346Y-94753592D01*
X101039338Y-94758338D01*
X100645688Y-95644052D01*
X100639196Y-95650220D01*
X100634996Y-95651000D01*
X99650204Y-95651000D01*
X99641931Y-95647573D01*
X99639512Y-95644052D01*
X99245861Y-94758338D01*
X99245633Y-94749386D01*
X99248271Y-94745321D01*
X100134322Y-93858286D01*
X100142594Y-93854856D01*
X100150868Y-93858277D01*
G37*
%TD.AperFunction*%
%TD*%
%TA.AperFunction,Conductor*%
%TO.N,/DRIVERS/M1_OUT1A*%
G36*
X100643269Y-95610427D02*
G01*
X100645688Y-95613948D01*
X101039338Y-96499661D01*
X101039566Y-96508613D01*
X101036924Y-96512682D01*
X100150878Y-97399712D01*
X100142606Y-97403143D01*
X100134331Y-97399721D01*
X100134322Y-97399712D01*
X99659395Y-96924258D01*
X99248274Y-96512680D01*
X99244853Y-96504407D01*
X99245860Y-96499664D01*
X99639512Y-95613948D01*
X99646004Y-95607780D01*
X99650204Y-95607000D01*
X100634996Y-95607000D01*
X100643269Y-95610427D01*
G37*
%TD.AperFunction*%
%TD*%
%TA.AperFunction,Conductor*%
%TO.N,VCC_12V*%
G36*
X170683944Y-95313948D02*
G01*
X170692203Y-95317407D01*
X170695598Y-95325693D01*
X170695488Y-95327251D01*
X170573584Y-96208363D01*
X170569055Y-96216089D01*
X170566890Y-96217386D01*
X169328371Y-96788032D01*
X169319423Y-96788382D01*
X169316409Y-96786731D01*
X168308188Y-96022702D01*
X168303664Y-96014974D01*
X168305929Y-96006311D01*
X168306974Y-96005111D01*
X169001151Y-95310934D01*
X169009421Y-95307508D01*
X170683944Y-95313948D01*
G37*
%TD.AperFunction*%
%TD*%
%TA.AperFunction,Conductor*%
%TO.N,VCC_12V*%
G36*
X181508427Y-77165680D02*
G01*
X181510848Y-77168330D01*
X182229970Y-78251671D01*
X182293191Y-78346911D01*
X182294911Y-78355699D01*
X182292997Y-78360136D01*
X181838497Y-79003054D01*
X181830923Y-79007831D01*
X181828943Y-79008000D01*
X180843849Y-79008000D01*
X180835576Y-79004573D01*
X180832591Y-78999485D01*
X180650460Y-78355699D01*
X180622672Y-78257475D01*
X180623717Y-78248583D01*
X180624801Y-78246975D01*
X181491979Y-77167473D01*
X181499831Y-77163170D01*
X181508427Y-77165680D01*
G37*
%TD.AperFunction*%
%TD*%
%TA.AperFunction,Conductor*%
%TO.N,VCC_12V*%
G36*
X97556450Y-95293992D02*
G01*
X97556630Y-95294169D01*
X98250526Y-95988065D01*
X98253953Y-95996338D01*
X98253564Y-95999328D01*
X97767531Y-97837804D01*
X97762104Y-97844927D01*
X97753454Y-97846182D01*
X96870476Y-97631309D01*
X96863247Y-97626023D01*
X96862005Y-97623201D01*
X96502912Y-96385480D01*
X96503898Y-96376580D01*
X96505699Y-96374127D01*
X97539909Y-95294347D01*
X97548105Y-95290745D01*
X97556450Y-95293992D01*
G37*
%TD.AperFunction*%
%TD*%
%TA.AperFunction,Conductor*%
%TO.N,VCC_12V*%
G36*
X104149016Y-93859015D02*
G01*
X104777944Y-94742732D01*
X104779949Y-94751459D01*
X104776476Y-94757993D01*
X104114388Y-95387777D01*
X104106324Y-95391000D01*
X103120228Y-95391000D01*
X103111955Y-95387573D01*
X103108850Y-95382026D01*
X102955657Y-94742732D01*
X102927657Y-94625884D01*
X102929062Y-94617043D01*
X102932789Y-94613267D01*
X104133242Y-93855903D01*
X104142067Y-93854388D01*
X104149016Y-93859015D01*
G37*
%TD.AperFunction*%
%TD*%
%TA.AperFunction,Conductor*%
%TO.N,VCC_12V*%
G36*
X104151464Y-93857581D02*
G01*
X105179172Y-94736503D01*
X105183233Y-94744485D01*
X105182105Y-94750480D01*
X104876192Y-95384385D01*
X104869510Y-95390347D01*
X104865655Y-95391000D01*
X103878667Y-95391000D01*
X103870394Y-95387573D01*
X103869487Y-95386554D01*
X103373290Y-94758571D01*
X103370850Y-94749955D01*
X103373600Y-94743687D01*
X104134992Y-93858841D01*
X104142985Y-93854806D01*
X104151464Y-93857581D01*
G37*
%TD.AperFunction*%
%TD*%
%TA.AperFunction,Conductor*%
%TO.N,VCC_12V*%
G36*
X169265270Y-79054969D02*
G01*
X170913653Y-80028949D01*
X170919032Y-80036108D01*
X170918609Y-80043254D01*
X170575424Y-80927702D01*
X170569236Y-80934176D01*
X170565207Y-80935150D01*
X169328979Y-81008312D01*
X169320518Y-81005379D01*
X169318329Y-81002773D01*
X168555211Y-79765335D01*
X168553786Y-79756495D01*
X168556895Y-79750923D01*
X169251049Y-79056769D01*
X169259321Y-79053343D01*
X169265270Y-79054969D01*
G37*
%TD.AperFunction*%
%TD*%
%TA.AperFunction,Conductor*%
%TO.N,VCC_12V*%
G36*
X104167632Y-74800157D02*
G01*
X104175842Y-74803729D01*
X104178238Y-74807388D01*
X104543645Y-75691930D01*
X104543636Y-75700885D01*
X104539112Y-75706268D01*
X102999675Y-76685910D01*
X102990856Y-76687460D01*
X102985121Y-76684312D01*
X102290767Y-75989958D01*
X102287340Y-75981685D01*
X102288704Y-75976204D01*
X102921236Y-74784545D01*
X102928139Y-74778846D01*
X102931770Y-74778334D01*
X104167632Y-74800157D01*
G37*
%TD.AperFunction*%
%TD*%
%TA.AperFunction,Conductor*%
%TO.N,VCC_12V*%
G36*
X97738921Y-74325150D02*
G01*
X97744267Y-74331476D01*
X98371488Y-76104885D01*
X98371016Y-76113827D01*
X98368731Y-76117059D01*
X97674669Y-76811121D01*
X97666396Y-76814548D01*
X97658593Y-76811566D01*
X96565808Y-75833573D01*
X96561929Y-75825503D01*
X96562192Y-75822306D01*
X96838377Y-74585083D01*
X96843524Y-74577755D01*
X96846581Y-74576383D01*
X97730026Y-74324127D01*
X97738921Y-74325150D01*
G37*
%TD.AperFunction*%
%TD*%
%TA.AperFunction,Conductor*%
%TO.N,VCC_12V*%
G36*
X181076218Y-98060603D02*
G01*
X181862975Y-98696937D01*
X181867252Y-98704804D01*
X181866742Y-98709656D01*
X181464065Y-99946653D01*
X181458246Y-99953459D01*
X181455486Y-99954451D01*
X180573307Y-100151097D01*
X180564486Y-100149552D01*
X180559367Y-100142336D01*
X180515525Y-99954451D01*
X180076351Y-98072359D01*
X180077808Y-98063523D01*
X180085086Y-98058306D01*
X180087745Y-98058000D01*
X181068860Y-98058000D01*
X181076218Y-98060603D01*
G37*
%TD.AperFunction*%
%TD*%
%TA.AperFunction,Conductor*%
%TO.N,VCC_3V3*%
G36*
X115234631Y-88115354D02*
G01*
X115238535Y-88121960D01*
X115295530Y-88403680D01*
X115295530Y-88408320D01*
X115238535Y-88690039D01*
X115233535Y-88697468D01*
X115226104Y-88699379D01*
X114711501Y-88656886D01*
X114703538Y-88652790D01*
X114700764Y-88645226D01*
X114700764Y-88166773D01*
X114704191Y-88158500D01*
X114711499Y-88155113D01*
X115226104Y-88112620D01*
X115234631Y-88115354D01*
G37*
%TD.AperFunction*%
%TD*%
%TA.AperFunction,Conductor*%
%TO.N,VCC_3V3*%
G36*
X113338499Y-88155113D02*
G01*
X113346462Y-88159209D01*
X113349236Y-88166773D01*
X113349236Y-88645226D01*
X113345809Y-88653499D01*
X113338499Y-88656886D01*
X112823895Y-88699379D01*
X112815368Y-88696645D01*
X112811464Y-88690039D01*
X112754469Y-88408320D01*
X112754469Y-88403680D01*
X112804578Y-88156000D01*
X112811464Y-88121959D01*
X112816464Y-88114531D01*
X112823894Y-88112620D01*
X113338499Y-88155113D01*
G37*
%TD.AperFunction*%
%TD*%
%TA.AperFunction,Conductor*%
%TO.N,Net-(U401-RNF1)*%
G36*
X98031846Y-88539020D02*
G01*
X98623583Y-88662267D01*
X98630982Y-88667309D01*
X98632886Y-88674216D01*
X98562633Y-90333485D01*
X98558859Y-90341606D01*
X98556672Y-90343192D01*
X97882798Y-90721616D01*
X97873906Y-90722678D01*
X97868796Y-90719687D01*
X97667264Y-90518155D01*
X97663837Y-90509882D01*
X97664023Y-90507802D01*
X98017964Y-88548398D01*
X98022807Y-88540866D01*
X98031558Y-88538964D01*
X98031846Y-88539020D01*
G37*
%TD.AperFunction*%
%TD*%
%TA.AperFunction,Conductor*%
%TO.N,Net-(U401-RNF1)*%
G36*
X98089462Y-90099979D02*
G01*
X98288913Y-90299430D01*
X98292340Y-90307703D01*
X98290780Y-90313541D01*
X98024660Y-90775760D01*
X98017562Y-90781220D01*
X98008682Y-90780062D01*
X98008052Y-90779671D01*
X97770265Y-90621908D01*
X97766984Y-90618627D01*
X97609221Y-90380840D01*
X97607502Y-90372052D01*
X97612502Y-90364623D01*
X97613132Y-90364232D01*
X98075353Y-90098111D01*
X98084231Y-90096954D01*
X98089462Y-90099979D01*
G37*
%TD.AperFunction*%
%TD*%
%TA.AperFunction,Conductor*%
%TO.N,Net-(U401-RNF2)*%
G36*
X97699639Y-81730682D02*
G01*
X98338264Y-81908016D01*
X98345318Y-81913530D01*
X98346664Y-81917307D01*
X98631509Y-83575244D01*
X98629533Y-83583978D01*
X98623068Y-83588510D01*
X98031140Y-83750577D01*
X98022255Y-83749456D01*
X98016836Y-83742628D01*
X97970159Y-83585707D01*
X97482919Y-81947669D01*
X97483844Y-81938762D01*
X97485857Y-81936063D01*
X97688238Y-81733682D01*
X97696510Y-81730256D01*
X97699639Y-81730682D01*
G37*
%TD.AperFunction*%
%TD*%
%TA.AperFunction,Conductor*%
%TO.N,Net-(U401-RNF2)*%
G36*
X97722587Y-81558745D02*
G01*
X97722978Y-81559375D01*
X97989098Y-82021594D01*
X97990256Y-82030474D01*
X97987231Y-82035705D01*
X97787780Y-82235156D01*
X97779507Y-82238583D01*
X97773669Y-82237023D01*
X97311450Y-81970903D01*
X97305990Y-81963805D01*
X97307148Y-81954925D01*
X97307528Y-81954311D01*
X97465303Y-81716506D01*
X97468581Y-81713228D01*
X97706371Y-81555463D01*
X97715158Y-81553745D01*
X97722587Y-81558745D01*
G37*
%TD.AperFunction*%
%TD*%
%TA.AperFunction,Conductor*%
%TO.N,Net-(U402-RNF1)*%
G36*
X176969378Y-84169509D02*
G01*
X177171318Y-84371449D01*
X177174745Y-84379722D01*
X177174430Y-84382420D01*
X176729205Y-86261491D01*
X176723963Y-86268751D01*
X176715122Y-86270178D01*
X176715089Y-86270170D01*
X176123262Y-86128100D01*
X176116017Y-86122836D01*
X176114356Y-86115510D01*
X176287281Y-84456865D01*
X176291546Y-84448995D01*
X176294348Y-84447311D01*
X176956544Y-84167007D01*
X176965499Y-84166938D01*
X176969378Y-84169509D01*
G37*
%TD.AperFunction*%
%TD*%
%TA.AperFunction,Conductor*%
%TO.N,Net-(U402-RNF1)*%
G36*
X176830188Y-84109830D02*
G01*
X176830818Y-84110221D01*
X177068605Y-84267984D01*
X177071886Y-84271265D01*
X177229649Y-84509052D01*
X177231368Y-84517840D01*
X177226368Y-84525269D01*
X177225738Y-84525660D01*
X176763519Y-84791780D01*
X176754639Y-84792938D01*
X176749408Y-84789913D01*
X176549957Y-84590462D01*
X176546530Y-84582189D01*
X176548089Y-84576354D01*
X176814210Y-84114131D01*
X176821308Y-84108672D01*
X176830188Y-84109830D01*
G37*
%TD.AperFunction*%
%TD*%
%TA.AperFunction,Conductor*%
%TO.N,Net-(U402-RNF2)*%
G36*
X176723551Y-91063633D02*
G01*
X176728789Y-91070897D01*
X176728875Y-91071293D01*
X177068868Y-92771686D01*
X177067130Y-92780470D01*
X177065668Y-92782253D01*
X176862334Y-92985587D01*
X176854061Y-92989014D01*
X176851891Y-92988811D01*
X176284100Y-92881629D01*
X176276606Y-92876727D01*
X176274624Y-92871259D01*
X176264987Y-92771686D01*
X176114276Y-91214456D01*
X176116890Y-91205893D01*
X176123229Y-91201945D01*
X176714712Y-91062200D01*
X176723551Y-91063633D01*
G37*
%TD.AperFunction*%
%TD*%
%TA.AperFunction,Conductor*%
%TO.N,Net-(U402-RNF2)*%
G36*
X176657676Y-92362110D02*
G01*
X176942828Y-92526284D01*
X177119897Y-92628231D01*
X177125357Y-92635329D01*
X177124199Y-92644209D01*
X177123808Y-92644839D01*
X176966045Y-92882626D01*
X176962764Y-92885907D01*
X176724977Y-93043670D01*
X176716189Y-93045389D01*
X176708760Y-93040389D01*
X176708369Y-93039759D01*
X176480996Y-92644839D01*
X176442248Y-92577538D01*
X176441091Y-92568660D01*
X176444114Y-92563431D01*
X176643568Y-92363977D01*
X176651840Y-92360551D01*
X176657676Y-92362110D01*
G37*
%TD.AperFunction*%
%TD*%
M02*
