%TF.GenerationSoftware,KiCad,Pcbnew,9.0.3*%
%TF.CreationDate,2025-10-17T11:05:45+02:00*%
%TF.ProjectId,PCB_Driver_Stepper,5043425f-4472-4697-9665-725f53746570,rev?*%
%TF.SameCoordinates,Original*%
%TF.FileFunction,Soldermask,Bot*%
%TF.FilePolarity,Negative*%
%FSLAX46Y46*%
G04 Gerber Fmt 4.6, Leading zero omitted, Abs format (unit mm)*
G04 Created by KiCad (PCBNEW 9.0.3) date 2025-10-17 11:05:45*
%MOMM*%
%LPD*%
G01*
G04 APERTURE LIST*
G04 Aperture macros list*
%AMRoundRect*
0 Rectangle with rounded corners*
0 $1 Rounding radius*
0 $2 $3 $4 $5 $6 $7 $8 $9 X,Y pos of 4 corners*
0 Add a 4 corners polygon primitive as box body*
4,1,4,$2,$3,$4,$5,$6,$7,$8,$9,$2,$3,0*
0 Add four circle primitives for the rounded corners*
1,1,$1+$1,$2,$3*
1,1,$1+$1,$4,$5*
1,1,$1+$1,$6,$7*
1,1,$1+$1,$8,$9*
0 Add four rect primitives between the rounded corners*
20,1,$1+$1,$2,$3,$4,$5,0*
20,1,$1+$1,$4,$5,$6,$7,0*
20,1,$1+$1,$6,$7,$8,$9,0*
20,1,$1+$1,$8,$9,$2,$3,0*%
G04 Aperture macros list end*
%ADD10R,1.000000X1.000000*%
%ADD11C,1.000000*%
%ADD12RoundRect,0.250000X-0.550000X0.550000X-0.550000X-0.550000X0.550000X-0.550000X0.550000X0.550000X0*%
%ADD13C,1.600000*%
%ADD14RoundRect,0.250001X0.799999X-0.799999X0.799999X0.799999X-0.799999X0.799999X-0.799999X-0.799999X0*%
%ADD15C,2.100000*%
%ADD16RoundRect,0.250001X-0.799999X-0.799999X0.799999X-0.799999X0.799999X0.799999X-0.799999X0.799999X0*%
%ADD17R,1.905000X2.000000*%
%ADD18O,1.905000X2.000000*%
%ADD19RoundRect,0.250001X-0.799999X0.799999X-0.799999X-0.799999X0.799999X-0.799999X0.799999X0.799999X0*%
%ADD20RoundRect,0.250001X0.799999X0.799999X-0.799999X0.799999X-0.799999X-0.799999X0.799999X-0.799999X0*%
%ADD21RoundRect,0.250000X1.000000X0.650000X-1.000000X0.650000X-1.000000X-0.650000X1.000000X-0.650000X0*%
%ADD22RoundRect,0.250000X-0.650000X1.000000X-0.650000X-1.000000X0.650000X-1.000000X0.650000X1.000000X0*%
%ADD23RoundRect,0.250000X0.362500X1.425000X-0.362500X1.425000X-0.362500X-1.425000X0.362500X-1.425000X0*%
%ADD24RoundRect,0.250000X0.650000X-1.000000X0.650000X1.000000X-0.650000X1.000000X-0.650000X-1.000000X0*%
%ADD25RoundRect,0.250000X-1.000000X-0.650000X1.000000X-0.650000X1.000000X0.650000X-1.000000X0.650000X0*%
%ADD26RoundRect,0.250000X-0.362500X-1.425000X0.362500X-1.425000X0.362500X1.425000X-0.362500X1.425000X0*%
G04 APERTURE END LIST*
D10*
%TO.C,J107*%
X100055000Y-86120000D03*
D11*
X101325000Y-86120000D03*
X102595000Y-86120000D03*
%TD*%
D12*
%TO.C,U302*%
X157205000Y-77230000D03*
D13*
X154665000Y-77230000D03*
X152125000Y-77230000D03*
X149585000Y-77230000D03*
X147045000Y-77230000D03*
X144505000Y-77230000D03*
X141965000Y-77230000D03*
X139425000Y-77230000D03*
X139425000Y-84850000D03*
X141965000Y-84850000D03*
X144505000Y-84850000D03*
X147045000Y-84850000D03*
X149585000Y-84850000D03*
X152125000Y-84850000D03*
X154665000Y-84850000D03*
X157205000Y-84850000D03*
%TD*%
D14*
%TO.C,J105*%
X91120100Y-89940000D03*
D15*
X91120100Y-87400000D03*
X91120100Y-84860000D03*
X91120100Y-82320000D03*
%TD*%
D16*
%TO.C,J102*%
X133710000Y-69609000D03*
D15*
X136250000Y-69609000D03*
X138790000Y-69609000D03*
X141330000Y-69609000D03*
X143870000Y-69609000D03*
X146410000Y-69609000D03*
X148950000Y-69609000D03*
X151490000Y-69609000D03*
X154030000Y-69609000D03*
X156570000Y-69609000D03*
%TD*%
D16*
%TO.C,J103*%
X122915000Y-69610000D03*
D15*
X125455000Y-69610000D03*
%TD*%
D17*
%TO.C,U201*%
X113771000Y-78180000D03*
D18*
X116311000Y-78180000D03*
X118851000Y-78180000D03*
%TD*%
D16*
%TO.C,J101*%
X113772000Y-69610000D03*
D15*
X116312000Y-69610000D03*
%TD*%
D19*
%TO.C,J106*%
X183626500Y-84850000D03*
D15*
X183626500Y-87390000D03*
X183626500Y-89930000D03*
X183626500Y-92470000D03*
%TD*%
D20*
%TO.C,J104*%
X126471000Y-100090000D03*
D15*
X123931000Y-100090000D03*
X121391000Y-100090000D03*
X118851000Y-100090000D03*
%TD*%
D10*
%TO.C,J108*%
X174731000Y-88665000D03*
D11*
X173461000Y-88665000D03*
X172191000Y-88665000D03*
%TD*%
D21*
%TO.C,D402*%
X104142600Y-93851000D03*
X100142600Y-93851000D03*
%TD*%
%TO.C,D414*%
X174572000Y-77418000D03*
X170572000Y-77418000D03*
%TD*%
D22*
%TO.C,D415*%
X177866000Y-95952000D03*
X177866000Y-99952000D03*
%TD*%
D23*
%TO.C,R405*%
X176114000Y-91205000D03*
X170189000Y-91205000D03*
%TD*%
D24*
%TO.C,D401*%
X96864600Y-97629000D03*
X96864600Y-93629000D03*
%TD*%
D25*
%TO.C,D412*%
X170572000Y-96214000D03*
X174572000Y-96214000D03*
%TD*%
D26*
%TO.C,R401*%
X98632600Y-88665000D03*
X104557600Y-88665000D03*
%TD*%
D21*
%TO.C,D416*%
X174572000Y-99730000D03*
X170572000Y-99730000D03*
%TD*%
D22*
%TO.C,D409*%
X181502000Y-77156000D03*
X181502000Y-81156000D03*
%TD*%
D23*
%TO.C,R404*%
X176114000Y-86125000D03*
X170189000Y-86125000D03*
%TD*%
D22*
%TO.C,D405*%
X93308600Y-93629000D03*
X93308600Y-97629000D03*
%TD*%
D25*
%TO.C,D408*%
X100174600Y-78357000D03*
X104174600Y-78357000D03*
%TD*%
D22*
%TO.C,D403*%
X96840600Y-74579000D03*
X96840600Y-78579000D03*
%TD*%
D21*
%TO.C,D404*%
X104174600Y-74801000D03*
X100174600Y-74801000D03*
%TD*%
D26*
%TO.C,R402*%
X98632600Y-83585000D03*
X104557600Y-83585000D03*
%TD*%
D24*
%TO.C,D407*%
X93284600Y-78579000D03*
X93284600Y-74579000D03*
%TD*%
%TO.C,D413*%
X177906000Y-81156000D03*
X177906000Y-77156000D03*
%TD*%
%TO.C,D411*%
X181462000Y-99952000D03*
X181462000Y-95952000D03*
%TD*%
D25*
%TO.C,D406*%
X100142600Y-97407000D03*
X104142600Y-97407000D03*
%TD*%
%TO.C,D410*%
X170572000Y-80934000D03*
X174572000Y-80934000D03*
%TD*%
M02*
