%TF.GenerationSoftware,KiCad,Pcbnew,9.0.3*%
%TF.CreationDate,2025-10-17T11:05:45+02:00*%
%TF.ProjectId,PCB_Driver_Stepper,5043425f-4472-4697-9665-725f53746570,rev?*%
%TF.SameCoordinates,Original*%
%TF.FileFunction,Copper,L3,Inr*%
%TF.FilePolarity,Positive*%
%FSLAX46Y46*%
G04 Gerber Fmt 4.6, Leading zero omitted, Abs format (unit mm)*
G04 Created by KiCad (PCBNEW 9.0.3) date 2025-10-17 11:05:45*
%MOMM*%
%LPD*%
G01*
G04 APERTURE LIST*
G04 Aperture macros list*
%AMRoundRect*
0 Rectangle with rounded corners*
0 $1 Rounding radius*
0 $2 $3 $4 $5 $6 $7 $8 $9 X,Y pos of 4 corners*
0 Add a 4 corners polygon primitive as box body*
4,1,4,$2,$3,$4,$5,$6,$7,$8,$9,$2,$3,0*
0 Add four circle primitives for the rounded corners*
1,1,$1+$1,$2,$3*
1,1,$1+$1,$4,$5*
1,1,$1+$1,$6,$7*
1,1,$1+$1,$8,$9*
0 Add four rect primitives between the rounded corners*
20,1,$1+$1,$2,$3,$4,$5,0*
20,1,$1+$1,$4,$5,$6,$7,0*
20,1,$1+$1,$6,$7,$8,$9,0*
20,1,$1+$1,$8,$9,$2,$3,0*%
G04 Aperture macros list end*
%TA.AperFunction,ComponentPad*%
%ADD10R,1.000000X1.000000*%
%TD*%
%TA.AperFunction,ComponentPad*%
%ADD11C,1.000000*%
%TD*%
%TA.AperFunction,ComponentPad*%
%ADD12RoundRect,0.250000X-0.550000X0.550000X-0.550000X-0.550000X0.550000X-0.550000X0.550000X0.550000X0*%
%TD*%
%TA.AperFunction,ComponentPad*%
%ADD13C,1.600000*%
%TD*%
%TA.AperFunction,ComponentPad*%
%ADD14RoundRect,0.250001X0.799999X-0.799999X0.799999X0.799999X-0.799999X0.799999X-0.799999X-0.799999X0*%
%TD*%
%TA.AperFunction,ComponentPad*%
%ADD15C,2.100000*%
%TD*%
%TA.AperFunction,ComponentPad*%
%ADD16RoundRect,0.250001X-0.799999X-0.799999X0.799999X-0.799999X0.799999X0.799999X-0.799999X0.799999X0*%
%TD*%
%TA.AperFunction,ComponentPad*%
%ADD17R,1.905000X2.000000*%
%TD*%
%TA.AperFunction,ComponentPad*%
%ADD18O,1.905000X2.000000*%
%TD*%
%TA.AperFunction,ComponentPad*%
%ADD19RoundRect,0.250001X-0.799999X0.799999X-0.799999X-0.799999X0.799999X-0.799999X0.799999X0.799999X0*%
%TD*%
%TA.AperFunction,ComponentPad*%
%ADD20RoundRect,0.250001X0.799999X0.799999X-0.799999X0.799999X-0.799999X-0.799999X0.799999X-0.799999X0*%
%TD*%
%TA.AperFunction,ViaPad*%
%ADD21C,0.600000*%
%TD*%
%TA.AperFunction,ViaPad*%
%ADD22C,0.700000*%
%TD*%
%TA.AperFunction,Conductor*%
%ADD23C,0.500000*%
%TD*%
G04 APERTURE END LIST*
D10*
%TO.N,GNDREF*%
%TO.C,J107*%
X100055000Y-86120000D03*
D11*
X101325000Y-86120000D03*
X102595000Y-86120000D03*
%TD*%
D12*
%TO.N,/MCU/IN1*%
%TO.C,U302*%
X157205000Y-77230000D03*
D13*
%TO.N,/MCU/IN2*%
X154665000Y-77230000D03*
%TO.N,/MCU/IN3*%
X152125000Y-77230000D03*
%TO.N,/MCU/IN4*%
X149585000Y-77230000D03*
%TO.N,/MCU/IN5*%
X147045000Y-77230000D03*
%TO.N,/MCU/IN6*%
X144505000Y-77230000D03*
%TO.N,/MCU/IN7*%
X141965000Y-77230000D03*
%TO.N,GNDREF*%
X139425000Y-77230000D03*
%TO.N,VCC_3V3*%
X139425000Y-84850000D03*
%TO.N,/MCU/INI7*%
X141965000Y-84850000D03*
%TO.N,/MCU/INI6*%
X144505000Y-84850000D03*
%TO.N,/MCU/INI5*%
X147045000Y-84850000D03*
%TO.N,/MCU/INI4*%
X149585000Y-84850000D03*
%TO.N,/MCU/INI3*%
X152125000Y-84850000D03*
%TO.N,/MCU/INI2*%
X154665000Y-84850000D03*
%TO.N,/MCU/INI1*%
X157205000Y-84850000D03*
%TD*%
D14*
%TO.N,/DRIVERS/M1_OUT1A*%
%TO.C,J105*%
X91120100Y-89940000D03*
D15*
%TO.N,/DRIVERS/M1_OUT1B*%
X91120100Y-87400000D03*
%TO.N,/DRIVERS/M1_OUT2B*%
X91120100Y-84860000D03*
%TO.N,/DRIVERS/M1_OUT2A*%
X91120100Y-82320000D03*
%TD*%
D16*
%TO.N,GNDREF*%
%TO.C,J102*%
X133710000Y-69609000D03*
D15*
X136250000Y-69609000D03*
%TO.N,/MCU/IN7*%
X138790000Y-69609000D03*
%TO.N,/MCU/IN6*%
X141330000Y-69609000D03*
%TO.N,/MCU/IN5*%
X143870000Y-69609000D03*
%TO.N,/MCU/IN4*%
X146410000Y-69609000D03*
%TO.N,/MCU/IN3*%
X148950000Y-69609000D03*
%TO.N,/MCU/IN2*%
X151490000Y-69609000D03*
%TO.N,/MCU/IN1*%
X154030000Y-69609000D03*
%TO.N,VCC_12V*%
X156570000Y-69609000D03*
%TD*%
D16*
%TO.N,/MCU/USART1_RX*%
%TO.C,J103*%
X122915000Y-69610000D03*
D15*
%TO.N,/MCU/USART1_TX*%
X125455000Y-69610000D03*
%TD*%
D17*
%TO.N,VCC_12V*%
%TO.C,U201*%
X113771000Y-78180000D03*
D18*
%TO.N,GNDREF*%
X116311000Y-78180000D03*
%TO.N,VCC_3V3*%
X118851000Y-78180000D03*
%TD*%
D16*
%TO.N,VDD*%
%TO.C,J101*%
X113772000Y-69610000D03*
D15*
%TO.N,GNDREF*%
X116312000Y-69610000D03*
%TD*%
D19*
%TO.N,/DRIVERS/M2_OUT1A*%
%TO.C,J106*%
X183626500Y-84850000D03*
D15*
%TO.N,/DRIVERS/M2_OUT1B*%
X183626500Y-87390000D03*
%TO.N,/DRIVERS/M2_OUT2B*%
X183626500Y-89930000D03*
%TO.N,/DRIVERS/M2_OUT2A*%
X183626500Y-92470000D03*
%TD*%
D20*
%TO.N,GNDREF*%
%TO.C,J104*%
X126471000Y-100090000D03*
D15*
%TO.N,/MCU/SYS_SWCLK*%
X123931000Y-100090000D03*
%TO.N,/MCU/SYS_SWDIO*%
X121391000Y-100090000D03*
%TO.N,VCC_3V3*%
X118851000Y-100090000D03*
%TD*%
D10*
%TO.N,GNDREF*%
%TO.C,J108*%
X174731000Y-88665000D03*
D11*
X173461000Y-88665000D03*
X172191000Y-88665000D03*
%TD*%
D21*
%TO.N,GNDREF*%
X176509000Y-79262000D03*
X105897000Y-79770000D03*
X110215000Y-90184000D03*
X176255000Y-107456000D03*
X172699000Y-89676000D03*
X172445000Y-107456000D03*
X110469000Y-93994000D03*
X172445000Y-67070000D03*
X121899000Y-92216000D03*
X174223000Y-87644000D03*
X100563000Y-87136000D03*
X102849000Y-85104000D03*
X120375000Y-92216000D03*
X173461000Y-89676000D03*
X135869000Y-83961000D03*
D22*
X176001000Y-88660000D03*
D21*
X164317000Y-80786000D03*
X101325000Y-87136000D03*
X102087000Y-67324000D03*
X100563000Y-85104000D03*
X164571000Y-84596000D03*
X98277000Y-107456000D03*
X103611000Y-87136000D03*
X133329000Y-80024000D03*
X171175000Y-89676000D03*
X164571000Y-88406000D03*
X94975000Y-96026000D03*
D22*
X98785000Y-86120000D03*
D21*
X173461000Y-87644000D03*
X172699000Y-87644000D03*
X171937000Y-87644000D03*
X167619000Y-95010000D03*
X133329000Y-81548000D03*
X110469000Y-84596000D03*
X125709000Y-79008000D03*
X102087000Y-87136000D03*
X171175000Y-87644000D03*
X101325000Y-85104000D03*
X109961000Y-87390000D03*
X102087000Y-85104000D03*
X94213000Y-95772000D03*
X98277000Y-67324000D03*
X169905000Y-82818000D03*
X103611000Y-85104000D03*
X102087000Y-107456000D03*
X174223000Y-89676000D03*
X171937000Y-89676000D03*
X164317000Y-90184000D03*
X176255000Y-67070000D03*
X106659000Y-79770000D03*
X124185000Y-79008000D03*
X102849000Y-87136000D03*
X133329000Y-83072000D03*
X128757000Y-79008000D03*
%TO.N,/DRIVERS/M2_OUT1B*%
X178541000Y-84088000D03*
X179303000Y-84088000D03*
%TO.N,/MCU/SYS_SWDIO*%
X129995000Y-95010000D03*
%TO.N,/MCU/SYS_SWCLK*%
X130795000Y-95010000D03*
%TO.N,/DRIVERS/M2_OUT1A*%
X175747000Y-83580000D03*
X176001000Y-82818000D03*
%TO.N,/DRIVERS/M2_OUT2B*%
X179049000Y-92983000D03*
X179811000Y-92978000D03*
%TO.N,/DRIVERS/M2_OUT2A*%
X176509000Y-94248000D03*
X175747000Y-93775500D03*
%TO.N,/DRIVERS/M1_OUT2B*%
X95483000Y-81548000D03*
X96245000Y-81675000D03*
%TO.N,/DRIVERS/M1_OUT2A*%
X98785000Y-81040000D03*
X98277000Y-80532000D03*
%TO.N,/DRIVERS/M1_OUT1B*%
X95725300Y-90449700D03*
X96499000Y-90438000D03*
%TO.N,/DRIVERS/M1_OUT1A*%
X98277000Y-91708000D03*
X98785000Y-91200000D03*
%TO.N,/MCU/USART1_RX*%
X123423000Y-85358000D03*
%TO.N,/MCU/USART1_TX*%
X124439000Y-83834000D03*
%TO.N,/M1_PS*%
X125963000Y-86374000D03*
X105897000Y-89168000D03*
%TO.N,VCC_12V*%
X102849000Y-76214000D03*
X168635000Y-96280000D03*
X180573000Y-98058000D03*
X181335000Y-79008000D03*
X97515000Y-96026000D03*
X98023000Y-76468000D03*
X103611000Y-95391000D03*
X98277000Y-95629000D03*
X97515000Y-75960000D03*
X181335000Y-98566000D03*
X104373000Y-95391000D03*
X168635000Y-95645000D03*
X102087000Y-76468000D03*
X168635000Y-79135000D03*
%TO.N,VCC_3V3*%
X159745000Y-86374000D03*
X162285000Y-86374000D03*
X115295000Y-88406000D03*
X112755000Y-88406000D03*
%TO.N,/M2_MODE1*%
X126794994Y-95010000D03*
X171797006Y-93486000D03*
%TO.N,/M2_CK*%
X168381000Y-92508003D03*
X128395000Y-95010000D03*
%TO.N,/M2_EN*%
X172953000Y-93486000D03*
X125994991Y-95010000D03*
%TO.N,/M2_CLK*%
X168381000Y-91708000D03*
X129195000Y-95010000D03*
%TO.N,/M2_PS*%
X168889000Y-85612000D03*
X133583000Y-93740000D03*
%TO.N,/M2_MODE0*%
X170997006Y-93486000D03*
X127594997Y-95010000D03*
%TO.N,/M1_EN*%
X122407000Y-89764003D03*
X101326875Y-82056493D03*
%TO.N,/M1_MODE1*%
X102341000Y-81950281D03*
X122407000Y-88914000D03*
%TO.N,/M1_CLK*%
X106151000Y-83326000D03*
X122407000Y-87047997D03*
%TO.N,/M1_CK*%
X106151000Y-82310000D03*
X126217000Y-83834000D03*
%TO.N,/M1_MODE0*%
X122350759Y-88035300D03*
X103357000Y-82056000D03*
%TO.N,Net-(U401-RNF1)*%
X97769000Y-90619893D03*
%TO.N,Net-(U401-RNF2)*%
X97467318Y-81715243D03*
%TO.N,Net-(U402-RNF1)*%
X177069871Y-84270000D03*
%TO.N,Net-(U402-RNF2)*%
X176964030Y-92883892D03*
%TO.N,/MCU/INI1*%
X125201000Y-90438000D03*
%TO.N,/MCU/INI2*%
X125201000Y-91295000D03*
%TO.N,/MCU/INI3*%
X133583000Y-91314009D03*
%TO.N,/MCU/INI4*%
X133583000Y-90514006D03*
%TO.N,/MCU/INI5*%
X133583000Y-89714003D03*
%TO.N,/MCU/INI6*%
X133583000Y-88914000D03*
%TO.N,/MCU/INI7*%
X133583000Y-88113997D03*
%TD*%
D23*
%TO.N,/MCU/SYS_SWDIO*%
X129995000Y-95272075D02*
X129995000Y-95010000D01*
X121391000Y-100090000D02*
X124693000Y-96788000D01*
X128479075Y-96788000D02*
X129995000Y-95272075D01*
X124693000Y-96788000D02*
X128479075Y-96788000D01*
%TO.N,/MCU/SYS_SWCLK*%
X128769439Y-97489000D02*
X130795000Y-95463439D01*
X123931000Y-100090000D02*
X123931000Y-98605076D01*
X123931000Y-98605076D02*
X125047076Y-97489000D01*
X125047076Y-97489000D02*
X128769439Y-97489000D01*
X130795000Y-95463439D02*
X130795000Y-95010000D01*
%TO.N,/MCU/USART1_RX*%
X122915000Y-69610000D02*
X121865000Y-70660000D01*
X121865000Y-70660000D02*
X121865000Y-79228000D01*
X123423000Y-80786000D02*
X123423000Y-85358000D01*
X121865000Y-79228000D02*
X123423000Y-80786000D01*
%TO.N,/MCU/USART1_TX*%
X123169000Y-79516000D02*
X123169000Y-74690000D01*
X123169000Y-74690000D02*
X125455000Y-72404000D01*
X124439000Y-80786000D02*
X123169000Y-79516000D01*
X124439000Y-83834000D02*
X124439000Y-80786000D01*
X125455000Y-72404000D02*
X125455000Y-69610000D01*
%TD*%
%TA.AperFunction,Conductor*%
%TO.N,/MCU/SYS_SWDIO*%
G36*
X122651325Y-98480892D02*
G01*
X122654970Y-98483365D01*
X122997634Y-98826029D01*
X123001061Y-98834302D01*
X123000232Y-98838627D01*
X122424423Y-100285802D01*
X122418180Y-100292223D01*
X122411279Y-100292954D01*
X121397975Y-100092228D01*
X121390525Y-100087259D01*
X121388771Y-100083024D01*
X121188045Y-99069718D01*
X121189799Y-99060939D01*
X121195193Y-99056578D01*
X122642373Y-98480767D01*
X122651325Y-98480892D01*
G37*
%TD.AperFunction*%
%TD*%
%TA.AperFunction,Conductor*%
%TO.N,/MCU/SYS_SWDIO*%
G36*
X129993386Y-95008838D02*
G01*
X129997667Y-95010612D01*
X130235132Y-95170407D01*
X130240083Y-95177868D01*
X130238572Y-95186233D01*
X129935241Y-95680503D01*
X129927993Y-95685762D01*
X129919149Y-95684355D01*
X129916996Y-95682656D01*
X129581849Y-95347509D01*
X129578422Y-95339236D01*
X129581847Y-95330966D01*
X129595500Y-95317314D01*
X129661392Y-95203186D01*
X129665935Y-95186233D01*
X129691662Y-95090216D01*
X129695500Y-95075892D01*
X129695500Y-94969443D01*
X129696078Y-94965811D01*
X129697549Y-94961310D01*
X129703373Y-94954512D01*
X129710920Y-94953464D01*
X129993386Y-95008838D01*
G37*
%TD.AperFunction*%
%TD*%
%TA.AperFunction,Conductor*%
%TO.N,/MCU/SYS_SWCLK*%
G36*
X124147813Y-98051467D02*
G01*
X124149133Y-98052604D01*
X124491050Y-98394521D01*
X124493939Y-98399287D01*
X124956918Y-99872722D01*
X124956129Y-99881642D01*
X124949263Y-99887391D01*
X124948045Y-99887703D01*
X123935055Y-100089757D01*
X123926272Y-100088015D01*
X123604714Y-99872722D01*
X123068141Y-99513469D01*
X123063173Y-99506019D01*
X123064928Y-99497238D01*
X123065223Y-99496817D01*
X124131452Y-98053922D01*
X124139123Y-98049307D01*
X124147813Y-98051467D01*
G37*
%TD.AperFunction*%
%TD*%
%TA.AperFunction,Conductor*%
%TO.N,/MCU/SYS_SWCLK*%
G36*
X130798011Y-95009757D02*
G01*
X131076383Y-95065933D01*
X131083815Y-95070929D01*
X131085538Y-95079716D01*
X131085202Y-95081001D01*
X130878101Y-95721577D01*
X130872295Y-95728395D01*
X130863369Y-95729111D01*
X130858695Y-95726251D01*
X130521821Y-95389377D01*
X130518413Y-95381763D01*
X130501334Y-95078655D01*
X130504290Y-95070205D01*
X130510710Y-95066529D01*
X130793401Y-95009756D01*
X130798011Y-95009757D01*
G37*
%TD.AperFunction*%
%TD*%
%TA.AperFunction,Conductor*%
%TO.N,/MCU/USART1_RX*%
G36*
X121876906Y-69451134D02*
G01*
X122909245Y-69608124D01*
X122916908Y-69612756D01*
X122917772Y-69614117D01*
X123479296Y-70650532D01*
X123480224Y-70659439D01*
X123475417Y-70665895D01*
X122117919Y-71554535D01*
X122111511Y-71556446D01*
X121628171Y-71556446D01*
X121619898Y-71553019D01*
X121616471Y-71544746D01*
X121616552Y-71543368D01*
X121845448Y-69614117D01*
X121863575Y-69461328D01*
X121867953Y-69453518D01*
X121876572Y-69451089D01*
X121876906Y-69451134D01*
G37*
%TD.AperFunction*%
%TD*%
%TA.AperFunction,Conductor*%
%TO.N,/MCU/USART1_RX*%
G36*
X123670500Y-84767191D02*
G01*
X123673887Y-84774501D01*
X123716379Y-85289104D01*
X123713645Y-85297631D01*
X123707039Y-85301535D01*
X123425320Y-85358530D01*
X123420680Y-85358530D01*
X123138960Y-85301535D01*
X123131531Y-85296535D01*
X123129620Y-85289104D01*
X123172113Y-84774501D01*
X123176209Y-84766538D01*
X123183773Y-84763764D01*
X123662227Y-84763764D01*
X123670500Y-84767191D01*
G37*
%TD.AperFunction*%
%TD*%
%TA.AperFunction,Conductor*%
%TO.N,/MCU/USART1_TX*%
G36*
X124686500Y-83243191D02*
G01*
X124689887Y-83250501D01*
X124732379Y-83765104D01*
X124729645Y-83773631D01*
X124723039Y-83777535D01*
X124441320Y-83834530D01*
X124436680Y-83834530D01*
X124154960Y-83777535D01*
X124147531Y-83772535D01*
X124145620Y-83765104D01*
X124188113Y-83250501D01*
X124192209Y-83242538D01*
X124199773Y-83239764D01*
X124678227Y-83239764D01*
X124686500Y-83243191D01*
G37*
%TD.AperFunction*%
%TD*%
%TA.AperFunction,Conductor*%
%TO.N,/MCU/USART1_TX*%
G36*
X125461504Y-69613353D02*
G01*
X126319955Y-70187935D01*
X126324924Y-70195385D01*
X126324193Y-70202286D01*
X125708046Y-71632753D01*
X125701625Y-71638996D01*
X125697300Y-71639825D01*
X125212700Y-71639825D01*
X125204427Y-71636398D01*
X125201954Y-71632753D01*
X124585806Y-70202286D01*
X124585681Y-70193333D01*
X124590041Y-70187937D01*
X125448494Y-69613354D01*
X125457273Y-69611601D01*
X125461504Y-69613353D01*
G37*
%TD.AperFunction*%
%TD*%
M02*
