M48
; DRILL file {KiCad 9.0.3} date 2025-10-17T11:05:43+0200
; FORMAT={-:-/ absolute / metric / decimal}
; #@! TF.CreationDate,2025-10-17T11:05:43+02:00
; #@! TF.GenerationSoftware,Kicad,Pcbnew,9.0.3
; #@! TF.FileFunction,Plated,1,4,PTH
FMAT,2
METRIC
; #@! TA.AperFunction,Plated,PTH,ViaDrill
T1C0.300
; #@! TA.AperFunction,Plated,PTH,ViaDrill
T2C0.500
; #@! TA.AperFunction,Plated,PTH,ComponentDrill
T3C0.650
; #@! TA.AperFunction,Plated,PTH,ComponentDrill
T4C0.800
; #@! TA.AperFunction,Plated,PTH,ComponentDrill
T5C1.100
%
G90
G05
T1
X94.213Y-95.772
X94.975Y-96.026
X95.483Y-81.548
X95.725Y-90.45
X96.245Y-81.675
X96.499Y-90.438
X97.467Y-81.715
X97.515Y-75.96
X97.515Y-96.026
X97.769Y-90.62
X98.023Y-76.468
X98.277Y-67.324
X98.277Y-80.532
X98.277Y-91.708
X98.277Y-95.629
X98.277Y-107.456
X98.785Y-81.04
X98.785Y-91.2
X100.563Y-85.104
X100.563Y-87.136
X101.325Y-85.104
X101.325Y-87.136
X101.327Y-82.056
X102.087Y-67.324
X102.087Y-76.468
X102.087Y-85.104
X102.087Y-87.136
X102.087Y-107.456
X102.341Y-81.95
X102.849Y-76.214
X102.849Y-85.104
X102.849Y-87.136
X103.357Y-82.056
X103.611Y-85.104
X103.611Y-87.136
X103.611Y-95.391
X104.373Y-95.391
X105.897Y-79.77
X105.897Y-89.168
X106.151Y-82.31
X106.151Y-83.326
X106.659Y-79.77
X109.961Y-87.39
X110.215Y-90.184
X110.469Y-84.596
X110.469Y-93.994
X112.755Y-88.406
X115.295Y-88.406
X120.375Y-92.216
X121.899Y-92.216
X122.351Y-88.035
X122.407Y-87.048
X122.407Y-88.914
X122.407Y-89.764
X123.423Y-85.358
X124.185Y-79.008
X124.439Y-83.834
X125.201Y-90.438
X125.201Y-91.295
X125.709Y-79.008
X125.963Y-86.374
X125.995Y-95.01
X126.217Y-83.834
X126.795Y-95.01
X127.595Y-95.01
X128.395Y-95.01
X128.757Y-79.008
X129.195Y-95.01
X129.995Y-95.01
X130.795Y-95.01
X133.329Y-80.024
X133.329Y-81.548
X133.329Y-83.072
X133.583Y-88.114
X133.583Y-88.914
X133.583Y-89.714
X133.583Y-90.514
X133.583Y-91.314
X133.583Y-93.74
X135.869Y-83.961
X159.745Y-86.374
X162.285Y-86.374
X164.317Y-80.786
X164.317Y-90.184
X164.571Y-84.596
X164.571Y-88.406
X167.619Y-95.01
X168.381Y-91.708
X168.381Y-92.508
X168.635Y-79.135
X168.635Y-95.645
X168.635Y-96.28
X168.889Y-85.612
X169.905Y-82.818
X170.997Y-93.486
X171.175Y-87.644
X171.175Y-89.676
X171.797Y-93.486
X171.937Y-87.644
X171.937Y-89.676
X172.445Y-67.07
X172.445Y-107.456
X172.699Y-87.644
X172.699Y-89.676
X172.953Y-93.486
X173.461Y-87.644
X173.461Y-89.676
X174.223Y-87.644
X174.223Y-89.676
X175.747Y-83.58
X175.747Y-93.775
X176.001Y-82.818
X176.255Y-67.07
X176.255Y-107.456
X176.509Y-79.262
X176.509Y-94.248
X176.964Y-92.884
X177.07Y-84.27
X178.541Y-84.088
X179.049Y-92.983
X179.303Y-84.088
X179.811Y-92.978
X180.573Y-98.058
X181.335Y-79.008
X181.335Y-98.566
T2
X98.785Y-86.12
X176.001Y-88.66
T3
X100.055Y-86.12
X101.325Y-86.12
X102.595Y-86.12
X172.191Y-88.665
X173.461Y-88.665
X174.731Y-88.665
T4
X139.425Y-77.23
X139.425Y-84.85
X141.965Y-77.23
X141.965Y-84.85
X144.505Y-77.23
X144.505Y-84.85
X147.045Y-77.23
X147.045Y-84.85
X149.585Y-77.23
X149.585Y-84.85
X152.125Y-77.23
X152.125Y-84.85
X154.665Y-77.23
X154.665Y-84.85
X157.205Y-77.23
X157.205Y-84.85
T5
X91.12Y-82.32
X91.12Y-84.86
X91.12Y-87.4
X91.12Y-89.94
X113.771Y-78.18
X113.772Y-69.61
X116.311Y-78.18
X116.312Y-69.61
X118.851Y-78.18
X118.851Y-100.09
X121.391Y-100.09
X122.915Y-69.61
X123.931Y-100.09
X125.455Y-69.61
X126.471Y-100.09
X133.71Y-69.609
X136.25Y-69.609
X138.79Y-69.609
X141.33Y-69.609
X143.87Y-69.609
X146.41Y-69.609
X148.95Y-69.609
X151.49Y-69.609
X154.03Y-69.609
X156.57Y-69.609
X183.626Y-84.85
X183.626Y-87.39
X183.626Y-89.93
X183.626Y-92.47
M30
